<?xml version="1.0" encoding="utf-8"?>
<!-- Generator: Adobe Illustrator 25.0.0, SVG Export Plug-In . SVG Version: 6.00 Build 0)  -->
<svg version="1.1" xmlns="http://www.w3.org/2000/svg" xmlns:xlink="http://www.w3.org/1999/xlink" x="0px" y="0px"
	 viewBox="0 0 1920 1080" style="enable-background:new 0 0 1920 1080;" xml:space="preserve">
<style type="text/css">
	.st0{display:none;}
	.st1{display:inline;}
	.st2{fill:#D80C18;}
</style>
<g id="レイヤー_5" class="st0">
	<g class="st1">
		<g>
			<g>
				<path d="M1066.6,423.5l-64.1,0.2c-0.9,0-1.7,0.6-2,1.4l-4.9,13.6c-0.5,1.4,0.5,2.9,2,2.9l24.9,0c1.9,0,2.8,2.3,1.5,3.6
					l-39.7,41.3l0.2,0l20.4,64.3c0.4,1.4-0.6,2.8-2,2.8l-20.1,0c-0.9,0-1.8-0.6-2-1.5l-10.3-33c-0.6-2-3.4-2-4.1-0.1l-8.4,23.1
					c-0.1,0.4-0.2,0.9-0.1,1.3l7.6,28.1c0.3,0.9,1.1,1.6,2.1,1.6h64.4c1.4,0,2.5-1.4,2-2.8l-25.8-80.9c-0.2-0.8,0-1.6,0.5-2.1
					l59.2-60.1C1069.5,425.8,1068.5,423.5,1066.6,423.5z"/>
				<g>
					<polygon class="st2" points="916.2,483.6 916.2,483.5 916.2,483.6 					"/>
					<path class="st2" d="M990.7,389.8l-39,0.1c-0.9,0-1.7,0.6-2,1.4l-5,13.7c-0.5,1.4,0.5,2.9,2,2.9l16.3,0c1.5,0,2.5,1.5,2,2.9
						L918.6,538c-0.7,1.9-3.3,1.9-4,0l-33.3-91.7c-0.5-1.4,0.5-2.9,2-2.9l16.8,0c0.9,0,1.7,0.6,2,1.4l12,33.1c0.7,1.9,3.3,1.9,4,0
						l18.7-51.5c0.5-1.4-0.5-2.9-2-2.9l-79.8,0c-1.5,0-2.5,1.5-2,2.9L914.5,597c0.7,1.9,3.3,1.9,4,0l74.2-204.3
						C993.2,391.3,992.2,389.8,990.7,389.8z"/>
				</g>
			</g>
		</g>
		<g>
			<g>
				<path d="M834.1,689.9L830,673h3.3l1.6,7.7c0.4,2.1,0.8,4.2,1.1,5.9h0.1c0.3-1.8,0.7-3.8,1.2-5.9l1.8-7.6h3.3l1.7,7.8
					c0.4,2,0.8,3.9,1,5.7h0.1c0.3-1.9,0.7-3.8,1.1-5.9l1.8-7.6h3.1l-4.6,16.9h-3.3l-1.7-8c-0.4-1.9-0.7-3.5-1-5.3h-0.1
					c-0.3,1.8-0.6,3.4-1.1,5.4l-2,8H834.1z"/>
				<path d="M866.2,683.7c0,4.5-3.1,6.5-6.3,6.5c-3.4,0-6.1-2.4-6.1-6.3c0-4,2.6-6.5,6.3-6.5C863.7,677.4,866.2,680,866.2,683.7z
					 M857,683.8c0,2.3,1.2,4.1,3,4.1c1.8,0,3-1.7,3-4.2c0-1.9-0.8-4.1-3-4.1C857.9,679.6,857,681.8,857,683.8z"/>
				<path d="M871.5,681.6c0-1.6,0-2.8-0.1-3.9h2.7l0.1,2.3h0.1c0.6-1.7,2-2.6,3.3-2.6c0.3,0,0.5,0,0.7,0.1v2.9
					c-0.3-0.1-0.5-0.1-0.9-0.1c-1.5,0-2.5,0.9-2.8,2.3c-0.1,0.3-0.1,0.6-0.1,0.9v6.3h-3.1V681.6z"/>
				<path d="M893.8,672.1v14.4c0,1.3,0,2.6,0.1,3.4h-2.7L891,688H891c-0.7,1.4-2.2,2.2-4,2.2c-2.9,0-5.2-2.5-5.2-6.2
					c0-4.1,2.5-6.5,5.5-6.5c1.7,0,2.9,0.7,3.4,1.6h0v-6.9H893.8z M890.7,682.8c0-0.2,0-0.6-0.1-0.8c-0.3-1.2-1.3-2.2-2.7-2.2
					c-2,0-3.1,1.8-3.1,4c0,2.2,1.1,3.9,3.1,3.9c1.3,0,2.4-0.9,2.7-2.2c0.1-0.3,0.1-0.6,0.1-0.9V682.8z"/>
				<path d="M899.9,673.2c1.1-0.2,2.7-0.3,4.7-0.3c2.3,0,3.9,0.5,5,1.4c1,0.8,1.7,2.2,1.7,3.7c0,1.6-0.5,2.9-1.4,3.8
					c-1.2,1.2-3.2,1.8-5.3,1.8c-0.6,0-1.1,0-1.5-0.1v6.4h-3.1V673.2z M902.9,681.1c0.4,0.1,0.9,0.1,1.5,0.1c2.3,0,3.7-1.1,3.7-3.1
					c0-1.9-1.3-2.9-3.4-2.9c-0.8,0-1.5,0.1-1.8,0.1V681.1z"/>
				<path d="M915.9,681.6c0-1.6,0-2.8-0.1-3.9h2.7l0.1,2.3h0.1c0.6-1.7,2-2.6,3.3-2.6c0.3,0,0.5,0,0.7,0.1v2.9
					c-0.3-0.1-0.5-0.1-0.9-0.1c-1.5,0-2.5,0.9-2.8,2.3c-0.1,0.3-0.1,0.6-0.1,0.9v6.3h-3.1V681.6z"/>
				<path d="M929.1,684.6c0.1,2.2,1.8,3.2,3.8,3.2c1.4,0,2.4-0.2,3.4-0.6l0.5,2.1c-1,0.4-2.5,0.8-4.3,0.8c-4,0-6.3-2.4-6.3-6.2
					c0-3.4,2-6.6,6-6.6c4,0,5.3,3.3,5.3,5.9c0,0.6,0,1-0.1,1.3H929.1z M934.5,682.5c0-1.1-0.5-3-2.5-3c-1.9,0-2.7,1.7-2.8,3H934.5z"
					/>
				<path d="M941.9,687c0.7,0.4,2,0.9,3.1,0.9c1.4,0,2-0.6,2-1.4c0-0.8-0.5-1.2-2-1.8c-2.4-0.8-3.4-2.1-3.4-3.6
					c0-2.1,1.8-3.8,4.6-3.8c1.3,0,2.5,0.3,3.2,0.7l-0.6,2.2c-0.5-0.3-1.5-0.7-2.6-0.7c-1.1,0-1.7,0.5-1.7,1.3c0,0.8,0.6,1.1,2.1,1.7
					c2.2,0.8,3.2,1.9,3.3,3.7c0,2.2-1.7,3.8-5,3.8c-1.5,0-2.8-0.4-3.7-0.9L941.9,687z"/>
				<path d="M954,687c0.7,0.4,2,0.9,3.1,0.9c1.4,0,2-0.6,2-1.4c0-0.8-0.5-1.2-2-1.8c-2.4-0.8-3.4-2.1-3.4-3.6c0-2.1,1.8-3.8,4.6-3.8
					c1.3,0,2.5,0.3,3.2,0.7l-0.6,2.2c-0.5-0.3-1.5-0.7-2.6-0.7c-1.1,0-1.7,0.5-1.7,1.3c0,0.8,0.6,1.1,2.1,1.7
					c2.2,0.8,3.2,1.9,3.3,3.7c0,2.2-1.7,3.8-5,3.8c-1.5,0-2.8-0.4-3.7-0.9L954,687z"/>
				<path d="M974.1,686.5c1,0.6,2.5,1.1,4.1,1.1c2,0,3.1-0.9,3.1-2.3c0-1.3-0.9-2-3-2.8c-2.8-1-4.6-2.5-4.6-4.9c0-2.8,2.3-4.9,6-4.9
					c1.8,0,3.2,0.4,4.1,0.8L983,676c-0.6-0.3-1.8-0.8-3.4-0.8c-2,0-2.8,1-2.8,2c0,1.3,1,1.9,3.2,2.8c2.9,1.1,4.3,2.6,4.3,5
					c0,2.7-2,5.1-6.4,5.1c-1.8,0-3.6-0.5-4.6-1.1L974.1,686.5z"/>
				<path d="M1000.8,683.7c0,4.5-3.1,6.5-6.3,6.5c-3.4,0-6.1-2.4-6.1-6.3c0-4,2.6-6.5,6.3-6.5C998.3,677.4,1000.8,680,1000.8,683.7z
					 M991.6,683.8c0,2.3,1.2,4.1,3,4.1c1.8,0,3-1.7,3-4.2c0-1.9-0.8-4.1-3-4.1C992.4,679.6,991.6,681.8,991.6,683.8z"/>
				<path d="M1005.4,672.1h3.1v17.8h-3.1V672.1z"/>
				<path d="M1024.9,686.2c0,1.4,0,2.7,0.1,3.7h-2.7l-0.1-1.8h-0.1c-0.5,0.9-1.7,2.1-3.9,2.1c-2.2,0-4.2-1.3-4.2-5.3v-7.2h3.1v6.6
					c0,2,0.6,3.3,2.3,3.3c1.2,0,2-0.9,2.4-1.6c0.1-0.3,0.2-0.6,0.2-1v-7.4h3.1V686.2z"/>
				<path d="M1033.9,674.2v3.5h2.9v2.3h-2.9v5.4c0,1.5,0.4,2.3,1.6,2.3c0.5,0,0.9-0.1,1.2-0.1l0.1,2.3c-0.5,0.2-1.3,0.3-2.2,0.3
					c-1.1,0-2.1-0.4-2.7-1c-0.7-0.7-1-1.8-1-3.4V680h-1.7v-2.3h1.7v-2.8L1033.9,674.2z"/>
				<path d="M1045.1,674.3c0,0.9-0.7,1.7-1.8,1.7c-1,0-1.7-0.7-1.7-1.7c0-0.9,0.7-1.7,1.7-1.7
					C1044.4,672.6,1045.1,673.3,1045.1,674.3z M1041.9,689.9v-12.2h3.1v12.2H1041.9z"/>
				<path d="M1062,683.7c0,4.5-3.1,6.5-6.3,6.5c-3.4,0-6.1-2.4-6.1-6.3c0-4,2.6-6.5,6.3-6.5C1059.6,677.4,1062,680,1062,683.7z
					 M1052.8,683.8c0,2.3,1.2,4.1,3,4.1c1.8,0,3-1.7,3-4.2c0-1.9-0.8-4.1-3-4.1C1053.7,679.6,1052.8,681.8,1052.8,683.8z"/>
				<path d="M1066.2,681.3c0-1.4,0-2.6-0.1-3.6h2.7l0.2,1.8h0.1c0.5-0.9,1.9-2.1,3.9-2.1c2.1,0,4.3,1.4,4.3,5.2v7.2h-3.1V683
					c0-1.8-0.6-3.1-2.3-3.1c-1.2,0-2.1,0.9-2.4,1.8c-0.1,0.3-0.1,0.6-0.1,1v7.2h-3.1V681.3z"/>
				<path d="M1082.5,687c0.7,0.4,2,0.9,3.1,0.9c1.4,0,2-0.6,2-1.4c0-0.8-0.5-1.2-2-1.8c-2.4-0.8-3.4-2.1-3.4-3.6
					c0-2.1,1.8-3.8,4.6-3.8c1.3,0,2.5,0.3,3.2,0.7l-0.6,2.2c-0.5-0.3-1.5-0.7-2.6-0.7c-1.1,0-1.7,0.5-1.7,1.3c0,0.8,0.6,1.1,2.1,1.7
					c2.2,0.8,3.2,1.9,3.3,3.7c0,2.2-1.7,3.8-5,3.8c-1.5,0-2.8-0.4-3.7-0.9L1082.5,687z"/>
			</g>
			<g>
				<path d="M872.6,636.3c-8.5,0-12.4,6.9-12.4,13.1c0,7.7,4.1,12.5,12.4,12.5c5.9,0,9.6-2.9,10.2-7.1l-6-0.1
					c-0.7,0.9-1.7,1.5-4.2,1.5c-3.6,0-4.9-1.5-5.1-4.7h15.8c0.1-0.6,0.3-1.7,0.3-3C883.5,642.5,880,636.3,872.6,636.3z M867.4,646.3
					c0.2-2,1.5-4.7,4.7-4.7c3.5,0,4.3,2.8,4.3,4.7H867.4z"/>
				<path d="M913.9,636.8h-9.2l-5,7.4c-0.6,0.9-1.2,1.9-1.8,3h-0.1v-21.4h-7.6v35.6h7.6v-7.7l1.9-2.4l5.9,10.1h9.4l-10-14.6
					L913.9,636.8z"/>
				<path d="M928.5,629.8l-10.7,12.6h3.3v10c0,3.5,0.7,5.8,2.1,7.3c1.2,1.3,3.3,2.1,5.8,2.1c2.1,0,4-0.3,4.9-0.7l-0.1-5.8
					c-0.5,0.1-1.3,0.2-2.3,0.2c-2.3,0-3-1.4-3-4.3v-8.9h5.5v-5.6h-5.5V629.8z"/>
				<path d="M952.6,636.3c-7.9,0-13.1,5.1-13.1,13c0,7.9,5.5,12.6,12.7,12.6c6.6,0,12.9-4.1,12.9-13.1
					C965.1,641.5,960.1,636.3,952.6,636.3z M952.4,656.5c-3.3,0-5-3.2-5-7.4c0-3.6,1.4-7.4,5-7.4c3.5,0,4.9,3.7,4.9,7.3
					C957.2,653.5,955.3,656.5,952.4,656.5z"/>
				<path d="M979.1,641.4H979l-0.3-4.5h-6.6c0.1,2.1,0.2,4.5,0.2,8.1v16.5h7.6V649c0-0.6,0-1.2,0.1-1.7c0.5-2.4,2.4-3.9,5.2-3.9
					c0.9,0,1.5,0.1,2.1,0.2v-7.2c-0.6-0.1-0.9-0.1-1.6-0.1C983.4,636.3,980.4,637.8,979.1,641.4z"/>
				<path d="M989.9,667.4l5.1-0.4c2.4-3.9,4.7-9.2,6.3-14.3l-7.8,0.5C992.8,657.7,991.5,662.9,989.9,667.4z"/>
				<rect x="1009.7" y="627.6" width="7.6" height="33.8"/>
				<path d="M1040.8,636.3c-4.1,0-6.6,2.4-7.6,4h-0.2l-0.4-3.4h-6.6c0.1,2.2,0.2,4.8,0.2,7.8v16.7h7.6v-14.2c0-0.7,0.1-1.4,0.3-1.9
					c0.5-1.4,1.8-2.9,3.9-2.9c2.8,0,3.9,2.2,3.9,5.3v13.6h7.6v-14.5C1049.5,639.6,1045.8,636.3,1040.8,636.3z"/>
				<path d="M1071.1,642.2c2,0,3.4,0.4,4.3,0.8l1.2-5.7c-1.6-0.6-3.8-1-5.8-1c-9.1,0-14,5.9-14,13c0,7.7,5.1,12.6,13,12.6
					c2.9,0,5.5-0.5,6.8-1.1l-0.9-5.6c-1.2,0.5-2.6,0.8-4.4,0.8c-3.7,0-6.7-2.4-6.7-6.9C1064.5,645,1067.1,642.2,1071.1,642.2z"/>
				<path d="M1087.2,652.7c-2.6,0-4.5,1.9-4.5,4.6c0,2.7,1.8,4.6,4.5,4.6c2.7,0,4.5-1.9,4.5-4.6
					C1091.7,654.5,1089.9,652.7,1087.2,652.7z"/>
				<path d="M844.4,627.6l0.1,5.2h5.2L847,642c-1.1,3.9-2.2,7.9-3.1,11.9h-0.1c-0.8-4.2-1.9-8-3.1-12.1l-4.1-14.3h-8.4l10.8,33.8
					h8.9l11.4-33.8h-8.1H844.4z"/>
			</g>
		</g>
	</g>
</g>
<g id="レイヤー_2">
	<g>
		<g>
			<g>
				<path d="M1843.9,767.8l-92.8,0.2c-1.3,0-2.5,0.8-2.9,2l-7.1,19.7c-0.7,2,0.8,4.1,2.9,4.1l36.1,0c2.7,0,4.1,3.3,2.2,5.2
					l-57.4,59.8l0.3,0l29.6,93.1c0.6,2-0.9,4-2.9,4l-29,0c-1.4,0-2.6-0.9-3-2.2l-14.8-47.8c-0.9-2.8-4.9-2.9-5.9-0.1l-12.1,33.5
					c-0.2,0.6-0.2,1.2-0.1,1.9l11,40.7c0.4,1.3,1.6,2.3,3,2.3h93.3c2.1,0,3.6-2,2.9-4l-37.4-117.1c-0.3-1.1-0.1-2.3,0.7-3.1l85.6-87
					C1848.1,771.1,1846.7,767.8,1843.9,767.8z"/>
				<g>
					<polygon class="st2" points="1626.2,854.8 1626.2,854.6 1626.1,854.8 					"/>
					<path class="st2" d="M1734,719.1l-56.5,0.1c-1.3,0-2.5,0.8-2.9,2l-7.2,19.8c-0.7,2,0.8,4.2,2.9,4.2l23.7,0
						c2.1,0,3.6,2.1,2.9,4.2l-67.3,184.3c-1,2.7-4.8,2.7-5.8,0l-48.2-132.8c-0.7-2,0.8-4.2,2.9-4.2l24.3,0c1.3,0,2.5,0.8,2.9,2
						l17.4,47.9c1,2.7,4.8,2.7,5.8,0l27.1-74.5c0.7-2-0.8-4.2-2.9-4.2l-115.5,0c-2.1,0-3.6,2.1-2.9,4.1l88.9,246.8
						c1,2.7,4.8,2.7,5.8,0L1737,723.2C1737.7,721.2,1736.2,719,1734,719.1z"/>
				</g>
			</g>
		</g>
	</g>
</g>
</svg>
