<?xml version="1.0" encoding="utf-8"?>
<!-- Generator: Adobe Illustrator 25.2.1, SVG Export Plug-In . SVG Version: 6.00 Build 0)  -->
<svg version="1.1" id="レイヤー_1" xmlns="http://www.w3.org/2000/svg" xmlns:xlink="http://www.w3.org/1999/xlink" x="0px"
	 y="0px" viewBox="0 0 1440 1080" style="enable-background:new 0 0 1440 1080;" xml:space="preserve">
<style type="text/css">
	.st0{fill:#B81C22;}
	.st1{fill:#D80C18;}
	.st2{opacity:0.2;}
	.st3{opacity:0.9;}
	.st4{fill:#FFFFFF;}
</style>
<rect class="st0" width="1440" height="1080"/>
<g id="レイヤー_2_1_">
</g>
<g id="レイヤー_1_1_">
	<g id="レイヤー_5_1_">
		<g>
			<g>
				<g>
					<path d="M1352.6,769.5l-64.1,0.2c-0.9,0-1.7,0.6-2,1.4l-4.9,13.6c-0.5,1.4,0.5,2.9,2,2.9h24.9c1.9,0,2.8,2.3,1.5,3.6
						l-39.7,41.3h0.2l20.4,64.3c0.4,1.4-0.6,2.8-2,2.8h-20.1c-0.9,0-1.8-0.6-2-1.5l-10.3-33c-0.6-2-3.4-2-4.1-0.1l-8.4,23.1
						c-0.1,0.4-0.2,0.9-0.1,1.3l7.6,28.1c0.3,0.9,1.1,1.6,2.1,1.6h64.4c1.4,0,2.5-1.4,2-2.8l-25.8-80.9c-0.2-0.8,0-1.6,0.5-2.1
						l59.2-60.1C1355.5,771.8,1354.5,769.5,1352.6,769.5z"/>
					<g>
						<path class="st1" d="M1202.2,829.6L1202.2,829.6L1202.2,829.6z"/>
						<path class="st1" d="M1276.7,735.8l-39,0.1c-0.9,0-1.7,0.6-2,1.4l-5,13.7c-0.5,1.4,0.5,2.9,2,2.9h16.3c1.5,0,2.5,1.5,2,2.9
							L1204.6,884c-0.7,1.9-3.3,1.9-4,0l-33.3-91.7c-0.5-1.4,0.5-2.9,2-2.9h16.8c0.9,0,1.7,0.6,2,1.4l12,33.1c0.7,1.9,3.3,1.9,4,0
							l18.7-51.5c0.5-1.4-0.5-2.9-2-2.9H1141c-1.5,0-2.5,1.5-2,2.9l61.5,170.6c0.7,1.9,3.3,1.9,4,0l74.2-204.3
							C1279.2,737.3,1278.2,735.8,1276.7,735.8z"/>
					</g>
				</g>
			</g>
			<g>
				<g>
					<path d="M1120.1,1035.9l-4.1-16.9h3.3l1.6,7.7c0.4,2.1,0.8,4.2,1.1,5.9h0.1c0.3-1.8,0.7-3.8,1.2-5.9l1.8-7.6h3.3l1.7,7.8
						c0.4,2,0.8,3.9,1,5.7h0.1c0.3-1.9,0.7-3.8,1.1-5.9l1.8-7.6h3.1l-4.6,16.9h-3.3l-1.7-8c-0.4-1.9-0.7-3.5-1-5.3h-0.1
						c-0.3,1.8-0.6,3.4-1.1,5.4l-2,8h-3.3V1035.9z"/>
					<path d="M1152.2,1029.7c0,4.5-3.1,6.5-6.3,6.5c-3.4,0-6.1-2.4-6.1-6.3c0-4,2.6-6.5,6.3-6.5
						C1149.7,1023.4,1152.2,1026,1152.2,1029.7z M1143,1029.8c0,2.3,1.2,4.1,3,4.1s3-1.7,3-4.2c0-1.9-0.8-4.1-3-4.1
						C1143.9,1025.6,1143,1027.8,1143,1029.8z"/>
					<path d="M1157.5,1027.6c0-1.6,0-2.8-0.1-3.9h2.7l0.1,2.3h0.1c0.6-1.7,2-2.6,3.3-2.6c0.3,0,0.5,0,0.7,0.1v2.9
						c-0.3-0.1-0.5-0.1-0.9-0.1c-1.5,0-2.5,0.9-2.8,2.3c-0.1,0.3-0.1,0.6-0.1,0.9v6.3h-3.1L1157.5,1027.6L1157.5,1027.6z"/>
					<path d="M1179.8,1018.1v14.4c0,1.3,0,2.6,0.1,3.4h-2.7l-0.2-1.9l0,0c-0.7,1.4-2.2,2.2-4,2.2c-2.9,0-5.2-2.5-5.2-6.2
						c0-4.1,2.5-6.5,5.5-6.5c1.7,0,2.9,0.7,3.4,1.6l0,0v-6.9L1179.8,1018.1L1179.8,1018.1z M1176.7,1028.8c0-0.2,0-0.6-0.1-0.8
						c-0.3-1.2-1.3-2.2-2.7-2.2c-2,0-3.1,1.8-3.1,4s1.1,3.9,3.1,3.9c1.3,0,2.4-0.9,2.7-2.2c0.1-0.3,0.1-0.6,0.1-0.9V1028.8z"/>
					<path d="M1185.9,1019.2c1.1-0.2,2.7-0.3,4.7-0.3c2.3,0,3.9,0.5,5,1.4c1,0.8,1.7,2.2,1.7,3.7c0,1.6-0.5,2.9-1.4,3.8
						c-1.2,1.2-3.2,1.8-5.3,1.8c-0.6,0-1.1,0-1.5-0.1v6.4h-3.1L1185.9,1019.2L1185.9,1019.2z M1188.9,1027.1
						c0.4,0.1,0.9,0.1,1.5,0.1c2.3,0,3.7-1.1,3.7-3.1c0-1.9-1.3-2.9-3.4-2.9c-0.8,0-1.5,0.1-1.8,0.1L1188.9,1027.1L1188.9,1027.1z"
						/>
					<path d="M1201.9,1027.6c0-1.6,0-2.8-0.1-3.9h2.7l0.1,2.3h0.1c0.6-1.7,2-2.6,3.3-2.6c0.3,0,0.5,0,0.7,0.1v2.9
						c-0.3-0.1-0.5-0.1-0.9-0.1c-1.5,0-2.5,0.9-2.8,2.3c-0.1,0.3-0.1,0.6-0.1,0.9v6.3h-3.1L1201.9,1027.6L1201.9,1027.6z"/>
					<path d="M1215.1,1030.6c0.1,2.2,1.8,3.2,3.8,3.2c1.4,0,2.4-0.2,3.4-0.6l0.5,2.1c-1,0.4-2.5,0.8-4.3,0.8c-4,0-6.3-2.4-6.3-6.2
						c0-3.4,2-6.6,6-6.6s5.3,3.3,5.3,5.9c0,0.6,0,1-0.1,1.3L1215.1,1030.6L1215.1,1030.6z M1220.5,1028.5c0-1.1-0.5-3-2.5-3
						c-1.9,0-2.7,1.7-2.8,3H1220.5z"/>
					<path d="M1227.9,1033c0.7,0.4,2,0.9,3.1,0.9c1.4,0,2-0.6,2-1.4s-0.5-1.2-2-1.8c-2.4-0.8-3.4-2.1-3.4-3.6c0-2.1,1.8-3.8,4.6-3.8
						c1.3,0,2.5,0.3,3.2,0.7l-0.6,2.2c-0.5-0.3-1.5-0.7-2.6-0.7s-1.7,0.5-1.7,1.3s0.6,1.1,2.1,1.7c2.2,0.8,3.2,1.9,3.3,3.7
						c0,2.2-1.7,3.8-5,3.8c-1.5,0-2.8-0.4-3.7-0.9L1227.9,1033z"/>
					<path d="M1240,1033c0.7,0.4,2,0.9,3.1,0.9c1.4,0,2-0.6,2-1.4s-0.5-1.2-2-1.8c-2.4-0.8-3.4-2.1-3.4-3.6c0-2.1,1.8-3.8,4.6-3.8
						c1.3,0,2.5,0.3,3.2,0.7l-0.6,2.2c-0.5-0.3-1.5-0.7-2.6-0.7s-1.7,0.5-1.7,1.3s0.6,1.1,2.1,1.7c2.2,0.8,3.2,1.9,3.3,3.7
						c0,2.2-1.7,3.8-5,3.8c-1.5,0-2.8-0.4-3.7-0.9L1240,1033z"/>
					<path d="M1260.1,1032.5c1,0.6,2.5,1.1,4.1,1.1c2,0,3.1-0.9,3.1-2.3c0-1.3-0.9-2-3-2.8c-2.8-1-4.6-2.5-4.6-4.9
						c0-2.8,2.3-4.9,6-4.9c1.8,0,3.2,0.4,4.1,0.8l-0.8,2.5c-0.6-0.3-1.8-0.8-3.4-0.8c-2,0-2.8,1-2.8,2c0,1.3,1,1.9,3.2,2.8
						c2.9,1.1,4.3,2.6,4.3,5c0,2.7-2,5.1-6.4,5.1c-1.8,0-3.6-0.5-4.6-1.1L1260.1,1032.5z"/>
					<path d="M1286.8,1029.7c0,4.5-3.1,6.5-6.3,6.5c-3.4,0-6.1-2.4-6.1-6.3c0-4,2.6-6.5,6.3-6.5
						C1284.3,1023.4,1286.8,1026,1286.8,1029.7z M1277.6,1029.8c0,2.3,1.2,4.1,3,4.1s3-1.7,3-4.2c0-1.9-0.8-4.1-3-4.1
						S1277.6,1027.8,1277.6,1029.8z"/>
					<path d="M1291.4,1018.1h3.1v17.8h-3.1V1018.1z"/>
					<path d="M1310.9,1032.2c0,1.4,0,2.7,0.1,3.7h-2.7l-0.1-1.8h-0.1c-0.5,0.9-1.7,2.1-3.9,2.1c-2.2,0-4.2-1.3-4.2-5.3v-7.2h3.1v6.6
						c0,2,0.6,3.3,2.3,3.3c1.2,0,2-0.9,2.4-1.6c0.1-0.3,0.2-0.6,0.2-1v-7.4h3.1v8.6L1310.9,1032.2L1310.9,1032.2z"/>
					<path d="M1319.9,1020.2v3.5h2.9v2.3h-2.9v5.4c0,1.5,0.4,2.3,1.6,2.3c0.5,0,0.9-0.1,1.2-0.1l0.1,2.3c-0.5,0.2-1.3,0.3-2.2,0.3
						c-1.1,0-2.1-0.4-2.7-1c-0.7-0.7-1-1.8-1-3.4v-5.8h-1.7v-2.3h1.7v-2.8L1319.9,1020.2z"/>
					<path d="M1331.1,1020.3c0,0.9-0.7,1.7-1.8,1.7c-1,0-1.7-0.7-1.7-1.7c0-0.9,0.7-1.7,1.7-1.7
						C1330.4,1018.6,1331.1,1019.3,1331.1,1020.3z M1327.9,1035.9v-12.2h3.1v12.2H1327.9z"/>
					<path d="M1348,1029.7c0,4.5-3.1,6.5-6.3,6.5c-3.4,0-6.1-2.4-6.1-6.3c0-4,2.6-6.5,6.3-6.5C1345.6,1023.4,1348,1026,1348,1029.7z
						 M1338.8,1029.8c0,2.3,1.2,4.1,3,4.1s3-1.7,3-4.2c0-1.9-0.8-4.1-3-4.1C1339.7,1025.6,1338.8,1027.8,1338.8,1029.8z"/>
					<path d="M1352.2,1027.3c0-1.4,0-2.6-0.1-3.6h2.7l0.2,1.8h0.1c0.5-0.9,1.9-2.1,3.9-2.1c2.1,0,4.3,1.4,4.3,5.2v7.2h-3.1v-6.8
						c0-1.8-0.6-3.1-2.3-3.1c-1.2,0-2.1,0.9-2.4,1.8c-0.1,0.3-0.1,0.6-0.1,1v7.2h-3.1L1352.2,1027.3L1352.2,1027.3z"/>
					<path d="M1368.5,1033c0.7,0.4,2,0.9,3.1,0.9c1.4,0,2-0.6,2-1.4s-0.5-1.2-2-1.8c-2.4-0.8-3.4-2.1-3.4-3.6c0-2.1,1.8-3.8,4.6-3.8
						c1.3,0,2.5,0.3,3.2,0.7l-0.6,2.2c-0.5-0.3-1.5-0.7-2.6-0.7s-1.7,0.5-1.7,1.3s0.6,1.1,2.1,1.7c2.2,0.8,3.2,1.9,3.3,3.7
						c0,2.2-1.7,3.8-5,3.8c-1.5,0-2.8-0.4-3.7-0.9L1368.5,1033z"/>
				</g>
				<g>
					<path d="M1158.6,982.3c-8.5,0-12.4,6.9-12.4,13.1c0,7.7,4.1,12.5,12.4,12.5c5.9,0,9.6-2.9,10.2-7.1l-6-0.1
						c-0.7,0.9-1.7,1.5-4.2,1.5c-3.6,0-4.9-1.5-5.1-4.7h15.8c0.1-0.6,0.3-1.7,0.3-3C1169.5,988.5,1166,982.3,1158.6,982.3z
						 M1153.4,992.3c0.2-2,1.5-4.7,4.7-4.7c3.5,0,4.3,2.8,4.3,4.7H1153.4z"/>
					<path d="M1199.9,982.8h-9.2l-5,7.4c-0.6,0.9-1.2,1.9-1.8,3h-0.1v-21.4h-7.6v35.6h7.6v-7.7l1.9-2.4l5.9,10.1h9.4l-10-14.6
						L1199.9,982.8z"/>
					<path d="M1214.5,975.8l-10.7,12.6h3.3v10c0,3.5,0.7,5.8,2.1,7.3c1.2,1.3,3.3,2.1,5.8,2.1c2.1,0,4-0.3,4.9-0.7l-0.1-5.8
						c-0.5,0.1-1.3,0.2-2.3,0.2c-2.3,0-3-1.4-3-4.3v-8.9h5.5v-5.6h-5.5L1214.5,975.8L1214.5,975.8z"/>
					<path d="M1238.6,982.3c-7.9,0-13.1,5.1-13.1,13s5.5,12.6,12.7,12.6c6.6,0,12.9-4.1,12.9-13.1
						C1251.1,987.5,1246.1,982.3,1238.6,982.3z M1238.4,1002.5c-3.3,0-5-3.2-5-7.4c0-3.6,1.4-7.4,5-7.4c3.5,0,4.9,3.7,4.9,7.3
						C1243.2,999.5,1241.3,1002.5,1238.4,1002.5z"/>
					<path d="M1265.1,987.4L1265.1,987.4l-0.4-4.5h-6.6c0.1,2.1,0.2,4.5,0.2,8.1v16.5h7.6V995c0-0.6,0-1.2,0.1-1.7
						c0.5-2.4,2.4-3.9,5.2-3.9c0.9,0,1.5,0.1,2.1,0.2v-7.2c-0.6-0.1-0.9-0.1-1.6-0.1C1269.4,982.3,1266.4,983.8,1265.1,987.4z"/>
					<path d="M1275.9,1013.4l5.1-0.4c2.4-3.9,4.7-9.2,6.3-14.3l-7.8,0.5C1278.8,1003.7,1277.5,1008.9,1275.9,1013.4z"/>
					<rect x="1295.7" y="973.6" width="7.6" height="33.8"/>
					<path d="M1326.8,982.3c-4.1,0-6.6,2.4-7.6,4h-0.2l-0.4-3.4h-6.6c0.1,2.2,0.2,4.8,0.2,7.8v16.7h7.6v-14.2c0-0.7,0.1-1.4,0.3-1.9
						c0.5-1.4,1.8-2.9,3.9-2.9c2.8,0,3.9,2.2,3.9,5.3v13.6h7.6v-14.5C1335.5,985.6,1331.8,982.3,1326.8,982.3z"/>
					<path d="M1357.1,988.2c2,0,3.4,0.4,4.3,0.8l1.2-5.7c-1.6-0.6-3.8-1-5.8-1c-9.1,0-14,5.9-14,13c0,7.7,5.1,12.6,13,12.6
						c2.9,0,5.5-0.5,6.8-1.1l-0.9-5.6c-1.2,0.5-2.6,0.8-4.4,0.8c-3.7,0-6.7-2.4-6.7-6.9C1350.5,991,1353.1,988.2,1357.1,988.2z"/>
					<path d="M1373.2,998.7c-2.6,0-4.5,1.9-4.5,4.6c0,2.7,1.8,4.6,4.5,4.6s4.5-1.9,4.5-4.6C1377.7,1000.5,1375.9,998.7,1373.2,998.7
						z"/>
					<path d="M1130.4,973.6l0.1,5.2h5.2l-2.7,9.2c-1.1,3.9-2.2,7.9-3.1,11.9h-0.1c-0.8-4.2-1.9-8-3.1-12.1l-4.1-14.3h-8.4l10.8,33.8
						h8.9l11.4-33.8h-8.1L1130.4,973.6L1130.4,973.6z"/>
				</g>
			</g>
		</g>
	</g>
	<g id="レイヤー_2_2_" class="st2">
		<g>
			<g>
				<g>
					<path d="M1113.2,845.1l-143,0.3c-2,0-3.9,1.2-4.5,3.1l-10.9,30.4c-1.1,3.1,1.2,6.3,4.5,6.3h55.6c4.2,0,6.3,5.1,3.4,8
						l-88.5,92.2h0.5l45.6,143.5c0.9,3.1-1.4,6.2-4.5,6.2h-44.7c-2.2,0-4-1.4-4.6-3.4l-22.8-73.7c-1.4-4.3-7.6-4.5-9.1-0.2
						l-18.7,51.6c-0.3,0.9-0.3,1.8-0.2,2.9l17,62.7c0.6,2,2.5,3.5,4.6,3.5h143.8c3.2,0,5.5-3.1,4.5-6.2L983.6,992
						c-0.5-1.7-0.2-3.5,1.1-4.8l131.9-134.1C1119.7,850.1,1117.5,845.1,1113.2,845.1z"/>
					<g>
						<polygon class="st1" points="777.6,979.2 777.6,978.9 777.5,979.2 						"/>
						<path class="st1" d="M943.8,770l-87.1,0.2c-2,0-3.9,1.2-4.5,3.1l-11.1,30.5c-1.1,3.1,1.2,6.5,4.5,6.5h36.5
							c3.2,0,5.5,3.2,4.5,6.5l-103.7,284.1c-1.5,4.2-7.4,4.2-8.9,0l-74.3-204.7c-1.1-3.1,1.2-6.5,4.5-6.5h37.5c2,0,3.9,1.2,4.5,3.1
							l26.8,73.8c1.5,4.2,7.4,4.2,8.9,0l41.8-114.8c1.1-3.1-1.2-6.5-4.5-6.5h-178c-3.2,0-5.5,3.2-4.5,6.3l137,380.4
							c1.5,4.2,7.4,4.2,8.9,0l165.9-455.6C949.5,773.2,947.2,769.8,943.8,770z"/>
					</g>
				</g>
			</g>
		</g>
	</g>
</g>
<rect class="st0" width="1440" height="1080"/>
<g id="レイヤー_5" class="st3">
	<g>
		<g>
			<g>
				<path class="st4" d="M1352.6,769.5l-64.1,0.2c-0.9,0-1.7,0.6-2,1.4l-4.9,13.6c-0.5,1.4,0.5,2.9,2,2.9h24.9
					c1.9,0,2.8,2.3,1.5,3.6l-39.7,41.3h0.2l20.4,64.3c0.4,1.4-0.6,2.8-2,2.8h-20.1c-0.9,0-1.8-0.6-2-1.5l-10.3-33
					c-0.6-2-3.4-2-4.1-0.1l-8.4,23.1c-0.1,0.4-0.2,0.9-0.1,1.3l7.6,28.1c0.3,0.9,1.1,1.6,2.1,1.6h64.4c1.4,0,2.5-1.4,2-2.8
					l-25.8-80.9c-0.2-0.8,0-1.6,0.5-2.1l59.2-60.1C1355.5,771.8,1354.5,769.5,1352.6,769.5z"/>
				<g>
					<path class="st4" d="M1202.2,829.6L1202.2,829.6L1202.2,829.6z"/>
					<path class="st4" d="M1276.7,735.8l-39,0.1c-0.9,0-1.7,0.6-2,1.4l-5,13.7c-0.5,1.4,0.5,2.9,2,2.9h16.3c1.5,0,2.5,1.5,2,2.9
						L1204.6,884c-0.7,1.9-3.3,1.9-4,0l-33.3-91.7c-0.5-1.4,0.5-2.9,2-2.9h16.8c0.9,0,1.7,0.6,2,1.4l12,33.1c0.7,1.9,3.3,1.9,4,0
						l18.7-51.5c0.5-1.4-0.5-2.9-2-2.9H1141c-1.5,0-2.5,1.5-2,2.9l61.5,170.6c0.7,1.9,3.3,1.9,4,0l74.2-204.3
						C1279.2,737.3,1278.2,735.8,1276.7,735.8z"/>
				</g>
			</g>
		</g>
		<g>
			<g>
				<path class="st4" d="M1120.1,1035.9l-4.1-16.9h3.3l1.6,7.7c0.4,2.1,0.8,4.2,1.1,5.9h0.1c0.3-1.8,0.7-3.8,1.2-5.9l1.8-7.6h3.3
					l1.7,7.8c0.4,2,0.8,3.9,1,5.7h0.1c0.3-1.9,0.7-3.8,1.1-5.9l1.8-7.6h3.1l-4.6,16.9h-3.3l-1.7-8c-0.4-1.9-0.7-3.5-1-5.3h-0.1
					c-0.3,1.8-0.6,3.4-1.1,5.4l-2,8h-3.3V1035.9z"/>
				<path class="st4" d="M1152.2,1029.7c0,4.5-3.1,6.5-6.3,6.5c-3.4,0-6.1-2.4-6.1-6.3c0-4,2.6-6.5,6.3-6.5
					C1149.7,1023.4,1152.2,1026,1152.2,1029.7z M1143,1029.8c0,2.3,1.2,4.1,3,4.1s3-1.7,3-4.2c0-1.9-0.8-4.1-3-4.1
					C1143.9,1025.6,1143,1027.8,1143,1029.8z"/>
				<path class="st4" d="M1157.5,1027.6c0-1.6,0-2.8-0.1-3.9h2.7l0.1,2.3h0.1c0.6-1.7,2-2.6,3.3-2.6c0.3,0,0.5,0,0.7,0.1v2.9
					c-0.3-0.1-0.5-0.1-0.9-0.1c-1.5,0-2.5,0.9-2.8,2.3c-0.1,0.3-0.1,0.6-0.1,0.9v6.3h-3.1L1157.5,1027.6L1157.5,1027.6z"/>
				<path class="st4" d="M1179.8,1018.1v14.4c0,1.3,0,2.6,0.1,3.4h-2.7l-0.2-1.9l0,0c-0.7,1.4-2.2,2.2-4,2.2c-2.9,0-5.2-2.5-5.2-6.2
					c0-4.1,2.5-6.5,5.5-6.5c1.7,0,2.9,0.7,3.4,1.6l0,0v-6.9L1179.8,1018.1L1179.8,1018.1z M1176.7,1028.8c0-0.2,0-0.6-0.1-0.8
					c-0.3-1.2-1.3-2.2-2.7-2.2c-2,0-3.1,1.8-3.1,4s1.1,3.9,3.1,3.9c1.3,0,2.4-0.9,2.7-2.2c0.1-0.3,0.1-0.6,0.1-0.9V1028.8z"/>
				<path class="st4" d="M1185.9,1019.2c1.1-0.2,2.7-0.3,4.7-0.3c2.3,0,3.9,0.5,5,1.4c1,0.8,1.7,2.2,1.7,3.7c0,1.6-0.5,2.9-1.4,3.8
					c-1.2,1.2-3.2,1.8-5.3,1.8c-0.6,0-1.1,0-1.5-0.1v6.4h-3.1L1185.9,1019.2L1185.9,1019.2z M1188.9,1027.1c0.4,0.1,0.9,0.1,1.5,0.1
					c2.3,0,3.7-1.1,3.7-3.1c0-1.9-1.3-2.9-3.4-2.9c-0.8,0-1.5,0.1-1.8,0.1L1188.9,1027.1L1188.9,1027.1z"/>
				<path class="st4" d="M1201.9,1027.6c0-1.6,0-2.8-0.1-3.9h2.7l0.1,2.3h0.1c0.6-1.7,2-2.6,3.3-2.6c0.3,0,0.5,0,0.7,0.1v2.9
					c-0.3-0.1-0.5-0.1-0.9-0.1c-1.5,0-2.5,0.9-2.8,2.3c-0.1,0.3-0.1,0.6-0.1,0.9v6.3h-3.1L1201.9,1027.6L1201.9,1027.6z"/>
				<path class="st4" d="M1215.1,1030.6c0.1,2.2,1.8,3.2,3.8,3.2c1.4,0,2.4-0.2,3.4-0.6l0.5,2.1c-1,0.4-2.5,0.8-4.3,0.8
					c-4,0-6.3-2.4-6.3-6.2c0-3.4,2-6.6,6-6.6s5.3,3.3,5.3,5.9c0,0.6,0,1-0.1,1.3L1215.1,1030.6L1215.1,1030.6z M1220.5,1028.5
					c0-1.1-0.5-3-2.5-3c-1.9,0-2.7,1.7-2.8,3H1220.5z"/>
				<path class="st4" d="M1227.9,1033c0.7,0.4,2,0.9,3.1,0.9c1.4,0,2-0.6,2-1.4s-0.5-1.2-2-1.8c-2.4-0.8-3.4-2.1-3.4-3.6
					c0-2.1,1.8-3.8,4.6-3.8c1.3,0,2.5,0.3,3.2,0.7l-0.6,2.2c-0.5-0.3-1.5-0.7-2.6-0.7s-1.7,0.5-1.7,1.3s0.6,1.1,2.1,1.7
					c2.2,0.8,3.2,1.9,3.3,3.7c0,2.2-1.7,3.8-5,3.8c-1.5,0-2.8-0.4-3.7-0.9L1227.9,1033z"/>
				<path class="st4" d="M1240,1033c0.7,0.4,2,0.9,3.1,0.9c1.4,0,2-0.6,2-1.4s-0.5-1.2-2-1.8c-2.4-0.8-3.4-2.1-3.4-3.6
					c0-2.1,1.8-3.8,4.6-3.8c1.3,0,2.5,0.3,3.2,0.7l-0.6,2.2c-0.5-0.3-1.5-0.7-2.6-0.7s-1.7,0.5-1.7,1.3s0.6,1.1,2.1,1.7
					c2.2,0.8,3.2,1.9,3.3,3.7c0,2.2-1.7,3.8-5,3.8c-1.5,0-2.8-0.4-3.7-0.9L1240,1033z"/>
				<path class="st4" d="M1260.1,1032.5c1,0.6,2.5,1.1,4.1,1.1c2,0,3.1-0.9,3.1-2.3c0-1.3-0.9-2-3-2.8c-2.8-1-4.6-2.5-4.6-4.9
					c0-2.8,2.3-4.9,6-4.9c1.8,0,3.2,0.4,4.1,0.8l-0.8,2.5c-0.6-0.3-1.8-0.8-3.4-0.8c-2,0-2.8,1-2.8,2c0,1.3,1,1.9,3.2,2.8
					c2.9,1.1,4.3,2.6,4.3,5c0,2.7-2,5.1-6.4,5.1c-1.8,0-3.6-0.5-4.6-1.1L1260.1,1032.5z"/>
				<path class="st4" d="M1286.8,1029.7c0,4.5-3.1,6.5-6.3,6.5c-3.4,0-6.1-2.4-6.1-6.3c0-4,2.6-6.5,6.3-6.5
					C1284.3,1023.4,1286.8,1026,1286.8,1029.7z M1277.6,1029.8c0,2.3,1.2,4.1,3,4.1s3-1.7,3-4.2c0-1.9-0.8-4.1-3-4.1
					S1277.6,1027.8,1277.6,1029.8z"/>
				<path class="st4" d="M1291.4,1018.1h3.1v17.8h-3.1V1018.1z"/>
				<path class="st4" d="M1310.9,1032.2c0,1.4,0,2.7,0.1,3.7h-2.7l-0.1-1.8h-0.1c-0.5,0.9-1.7,2.1-3.9,2.1c-2.2,0-4.2-1.3-4.2-5.3
					v-7.2h3.1v6.6c0,2,0.6,3.3,2.3,3.3c1.2,0,2-0.9,2.4-1.6c0.1-0.3,0.2-0.6,0.2-1v-7.4h3.1v8.6L1310.9,1032.2L1310.9,1032.2z"/>
				<path class="st4" d="M1319.9,1020.2v3.5h2.9v2.3h-2.9v5.4c0,1.5,0.4,2.3,1.6,2.3c0.5,0,0.9-0.1,1.2-0.1l0.1,2.3
					c-0.5,0.2-1.3,0.3-2.2,0.3c-1.1,0-2.1-0.4-2.7-1c-0.7-0.7-1-1.8-1-3.4v-5.8h-1.7v-2.3h1.7v-2.8L1319.9,1020.2z"/>
				<path class="st4" d="M1331.1,1020.3c0,0.9-0.7,1.7-1.8,1.7c-1,0-1.7-0.7-1.7-1.7c0-0.9,0.7-1.7,1.7-1.7
					C1330.4,1018.6,1331.1,1019.3,1331.1,1020.3z M1327.9,1035.9v-12.2h3.1v12.2H1327.9z"/>
				<path class="st4" d="M1348,1029.7c0,4.5-3.1,6.5-6.3,6.5c-3.4,0-6.1-2.4-6.1-6.3c0-4,2.6-6.5,6.3-6.5
					C1345.6,1023.4,1348,1026,1348,1029.7z M1338.8,1029.8c0,2.3,1.2,4.1,3,4.1s3-1.7,3-4.2c0-1.9-0.8-4.1-3-4.1
					C1339.7,1025.6,1338.8,1027.8,1338.8,1029.8z"/>
				<path class="st4" d="M1352.2,1027.3c0-1.4,0-2.6-0.1-3.6h2.7l0.2,1.8h0.1c0.5-0.9,1.9-2.1,3.9-2.1c2.1,0,4.3,1.4,4.3,5.2v7.2
					h-3.1v-6.8c0-1.8-0.6-3.1-2.3-3.1c-1.2,0-2.1,0.9-2.4,1.8c-0.1,0.3-0.1,0.6-0.1,1v7.2h-3.1L1352.2,1027.3L1352.2,1027.3z"/>
				<path class="st4" d="M1368.5,1033c0.7,0.4,2,0.9,3.1,0.9c1.4,0,2-0.6,2-1.4s-0.5-1.2-2-1.8c-2.4-0.8-3.4-2.1-3.4-3.6
					c0-2.1,1.8-3.8,4.6-3.8c1.3,0,2.5,0.3,3.2,0.7l-0.6,2.2c-0.5-0.3-1.5-0.7-2.6-0.7s-1.7,0.5-1.7,1.3s0.6,1.1,2.1,1.7
					c2.2,0.8,3.2,1.9,3.3,3.7c0,2.2-1.7,3.8-5,3.8c-1.5,0-2.8-0.4-3.7-0.9L1368.5,1033z"/>
			</g>
			<g>
				<path class="st4" d="M1158.6,982.3c-8.5,0-12.4,6.9-12.4,13.1c0,7.7,4.1,12.5,12.4,12.5c5.9,0,9.6-2.9,10.2-7.1l-6-0.1
					c-0.7,0.9-1.7,1.5-4.2,1.5c-3.6,0-4.9-1.5-5.1-4.7h15.8c0.1-0.6,0.3-1.7,0.3-3C1169.5,988.5,1166,982.3,1158.6,982.3z
					 M1153.4,992.3c0.2-2,1.5-4.7,4.7-4.7c3.5,0,4.3,2.8,4.3,4.7H1153.4z"/>
				<path class="st4" d="M1199.9,982.8h-9.2l-5,7.4c-0.6,0.9-1.2,1.9-1.8,3h-0.1v-21.4h-7.6v35.6h7.6v-7.7l1.9-2.4l5.9,10.1h9.4
					l-10-14.6L1199.9,982.8z"/>
				<path class="st4" d="M1214.5,975.8l-10.7,12.6h3.3v10c0,3.5,0.7,5.8,2.1,7.3c1.2,1.3,3.3,2.1,5.8,2.1c2.1,0,4-0.3,4.9-0.7
					l-0.1-5.8c-0.5,0.1-1.3,0.2-2.3,0.2c-2.3,0-3-1.4-3-4.3v-8.9h5.5v-5.6h-5.5L1214.5,975.8L1214.5,975.8z"/>
				<path class="st4" d="M1238.6,982.3c-7.9,0-13.1,5.1-13.1,13s5.5,12.6,12.7,12.6c6.6,0,12.9-4.1,12.9-13.1
					C1251.1,987.5,1246.1,982.3,1238.6,982.3z M1238.4,1002.5c-3.3,0-5-3.2-5-7.4c0-3.6,1.4-7.4,5-7.4c3.5,0,4.9,3.7,4.9,7.3
					C1243.2,999.5,1241.3,1002.5,1238.4,1002.5z"/>
				<path class="st4" d="M1265.1,987.4L1265.1,987.4l-0.4-4.5h-6.6c0.1,2.1,0.2,4.5,0.2,8.1v16.5h7.6V995c0-0.6,0-1.2,0.1-1.7
					c0.5-2.4,2.4-3.9,5.2-3.9c0.9,0,1.5,0.1,2.1,0.2v-7.2c-0.6-0.1-0.9-0.1-1.6-0.1C1269.4,982.3,1266.4,983.8,1265.1,987.4z"/>
				<path class="st4" d="M1275.9,1013.4l5.1-0.4c2.4-3.9,4.7-9.2,6.3-14.3l-7.8,0.5C1278.8,1003.7,1277.5,1008.9,1275.9,1013.4z"/>
				<rect x="1295.7" y="973.6" class="st4" width="7.6" height="33.8"/>
				<path class="st4" d="M1326.8,982.3c-4.1,0-6.6,2.4-7.6,4h-0.2l-0.4-3.4h-6.6c0.1,2.2,0.2,4.8,0.2,7.8v16.7h7.6v-14.2
					c0-0.7,0.1-1.4,0.3-1.9c0.5-1.4,1.8-2.9,3.9-2.9c2.8,0,3.9,2.2,3.9,5.3v13.6h7.6v-14.5C1335.5,985.6,1331.8,982.3,1326.8,982.3z
					"/>
				<path class="st4" d="M1357.1,988.2c2,0,3.4,0.4,4.3,0.8l1.2-5.7c-1.6-0.6-3.8-1-5.8-1c-9.1,0-14,5.9-14,13
					c0,7.7,5.1,12.6,13,12.6c2.9,0,5.5-0.5,6.8-1.1l-0.9-5.6c-1.2,0.5-2.6,0.8-4.4,0.8c-3.7,0-6.7-2.4-6.7-6.9
					C1350.5,991,1353.1,988.2,1357.1,988.2z"/>
				<path class="st4" d="M1373.2,998.7c-2.6,0-4.5,1.9-4.5,4.6c0,2.7,1.8,4.6,4.5,4.6s4.5-1.9,4.5-4.6
					C1377.7,1000.5,1375.9,998.7,1373.2,998.7z"/>
				<path class="st4" d="M1130.4,973.6l0.1,5.2h5.2l-2.7,9.2c-1.1,3.9-2.2,7.9-3.1,11.9h-0.1c-0.8-4.2-1.9-8-3.1-12.1l-4.1-14.3
					h-8.4l10.8,33.8h8.9l11.4-33.8h-8.1L1130.4,973.6L1130.4,973.6z"/>
			</g>
		</g>
	</g>
</g>
<g id="レイヤー_2_3_" class="st2">
	<g>
		<g>
			<g>
				<path class="st4" d="M1113.2,845.1l-143,0.3c-2,0-3.9,1.2-4.5,3.1l-10.9,30.4c-1.1,3.1,1.2,6.3,4.5,6.3h55.6
					c4.2,0,6.3,5.1,3.4,8l-88.5,92.2h0.5l45.6,143.5c0.9,3.1-1.4,6.2-4.5,6.2h-44.7c-2.2,0-4-1.4-4.6-3.4l-22.8-73.7
					c-1.4-4.3-7.6-4.5-9.1-0.2l-18.7,51.6c-0.3,0.9-0.3,1.8-0.2,2.9l17,62.7c0.6,2,2.5,3.5,4.6,3.5h143.8c3.2,0,5.5-3.1,4.5-6.2
					L983.6,992c-0.5-1.7-0.2-3.5,1.1-4.8l131.9-134.1C1119.7,850.1,1117.5,845.1,1113.2,845.1z"/>
				<g>
					<polygon class="st4" points="777.6,979.2 777.6,978.9 777.5,979.2 					"/>
					<path class="st4" d="M943.8,770l-87.1,0.2c-2,0-3.9,1.2-4.5,3.1l-11.1,30.5c-1.1,3.1,1.2,6.5,4.5,6.5h36.5
						c3.2,0,5.5,3.2,4.5,6.5l-103.7,284.1c-1.5,4.2-7.4,4.2-8.9,0l-74.3-204.7c-1.1-3.1,1.2-6.5,4.5-6.5h37.5c2,0,3.9,1.2,4.5,3.1
						l26.8,73.8c1.5,4.2,7.4,4.2,8.9,0l41.8-114.8c1.1-3.1-1.2-6.5-4.5-6.5h-178c-3.2,0-5.5,3.2-4.5,6.3l137,380.4
						c1.5,4.2,7.4,4.2,8.9,0l165.9-455.6C949.5,773.2,947.2,769.8,943.8,770z"/>
				</g>
			</g>
		</g>
	</g>
</g>
</svg>
