<?xml version="1.0" encoding="utf-8"?>
<!-- Generator: Adobe Illustrator 27.8.1, SVG Export Plug-In . SVG Version: 6.00 Build 0)  -->
<svg version="1.1" id="レイヤー_1" xmlns="http://www.w3.org/2000/svg" xmlns:xlink="http://www.w3.org/1999/xlink" x="0px"
	 y="0px" viewBox="0 0 1920 1080" style="enable-background:new 0 0 1920 1080;" xml:space="preserve">
<style type="text/css">
	.st0{fill:#FFFFFF;}
	.st1{fill:#32373C;}
	.st2{fill:#1D5EAC;}
	.st3{fill:#330000;}
	.st4{fill:#FF9A00;}
	.st5{fill:#0ACF83;}
	.st6{fill:#A259FF;}
	.st7{fill:#F24E1E;}
	.st8{fill:#FF7262;}
	.st9{fill:#1ABCFE;}
	.st10{enable-background:new    ;}
	.st11{fill:#2C65B0;}
	.st12{fill:#575757;}
	.st13{fill:#1663C7;}
	.st14{fill:none;stroke:#FFFFFF;stroke-width:36;}
	.st15{fill:#DB2C2C;}
</style>
<g id="レイヤー_2_00000012443098498977644380000005485677066099254686_">
	<rect class="st0" width="1920" height="1080"/>
</g>
<path class="st1" d="M2204.3-181.7L2288.9,50c-59.2-28.7-99.9-89.3-99.9-159.5C2188.9-135.2,2194.4-159.6,2204.3-181.7z
	 M2485.9-118.4c0-21.9-7.8-37.1-14.6-48.9c-9-14.6-17.4-27-17.4-41.6c0-16.3,12.3-31.5,29.8-31.5c0.8,0,1.5,0.1,2.3,0.2
	c-31.6-28.9-73.6-46.6-119.8-46.6c-61.9,0-116.4,31.8-148.2,79.9c4.2,0.2,8.1,0.3,11.4,0.3c18.5,0,47.3-2.3,47.3-2.3
	c9.6-0.6,10.7,13.5,1.2,14.6c0,0-9.6,1.1-20.3,1.7l64.6,192l38.8-116.3l-27.6-75.7c-9.6-0.6-18.6-1.7-18.6-1.7
	c-9.6-0.6-8.4-15.2,1.1-14.6c0,0,29.3,2.3,46.7,2.3c18.5,0,47.3-2.3,47.3-2.3c9.6-0.6,10.7,13.5,1.2,14.6c0,0-9.6,1.1-20.3,1.7
	L2454.9-2l17.7-59.1C2480.1-85.7,2485.9-103.2,2485.9-118.4L2485.9-118.4z M2369.3-94l-53.2,154.6c15.9,4.7,32.7,7.3,50.1,7.3
	c20.7,0,40.4-3.6,58.8-10.1c-0.5-0.8-0.9-1.6-1.3-2.4L2369.3-94z M2521.8-194.6c0.8,5.7,1.2,11.7,1.2,18.3c0,18-3.3,38.2-13.5,63.5
	l-54.2,156.6c52.8-30.8,88.2-87.8,88.2-153.3C2543.5-140.3,2535.6-169.3,2521.8-194.6L2521.8-194.6z M2572.9-109.5
	c0,114-92.8,206.7-206.7,206.7c-114,0-206.7-92.8-206.7-206.7c0-114,92.7-206.7,206.7-206.7C2480.1-316.2,2572.9-223.5,2572.9-109.5
	z M2563.4-109.5c0-108.8-88.5-197.2-197.2-197.2c-108.8,0-197.2,88.4-197.2,197.2s88.5,197.2,197.2,197.2
	C2475,87.7,2563.4-0.7,2563.4-109.5z"/>
<g>
	<g>
		<path class="st2" d="M720.1,699.6c11.8,0,21.5,7.7,21.5,17.4v77.4c-0.1,9.6-9.7,17.4-21.5,17.4H633l-2,23.7l-21.4-23.7H304.2
			c-11.8,0-21.5-7.7-21.5-17.4V717c0-9.5,9.6-17.4,21.5-17.4H720.1 M720.1,689.6h-416c-17.4,0-31.5,12.3-31.5,27.4v77.4
			c0,15.1,14.1,27.4,31.5,27.4H605l18.4,20.4c1.9,2.1,4.6,3.3,7.4,3.3c1.1,0,2.1-0.2,3.2-0.5c3.8-1.3,6.4-4.7,6.8-8.6l1.2-14.5h78
			c8,0,15.6-2.6,21.4-7.3c6.3-5.1,10-12.4,10.1-19.9c0-0.1,0-0.1,0-0.2V717C751.7,701.9,737.5,689.6,720.1,689.6L720.1,689.6z"/>
	</g>
</g>
<g>
	<path class="st2" d="M1594.6,699.6c13.8,0,25.1,7.7,25.1,17.4v77.4c-0.2,9.6-11.3,17.4-25.1,17.4h-465.8l-29.2,23.7l1.9-23.7h-98.8
		c-13.8,0-25.1-7.7-25.1-17.4V717c0-9.5,11.2-17.4,25.1-17.4H1594.6 M1594.6,689.6h-592c-19.7,0-35.1,12-35.1,27.4v77.4
		c0,15.3,15.4,27.4,35.1,27.4h88l-1,12.9c-0.3,4,1.8,7.8,5.3,9.6c1.5,0.8,3.1,1.2,4.7,1.2c2.2,0,4.5-0.8,6.3-2.2l26.5-21.4h462.3
		c19.4,0,34.8-11.9,35.1-27.2c0-0.1,0-0.1,0-0.2V717C1629.7,701.6,1614.3,689.6,1594.6,689.6L1594.6,689.6z"/>
</g>
<path class="st3" d="M402.4,905.7h30.4c4.6,0,8.3,3.7,8.3,8.3v29.2c0,4.6-3.7,8.3-8.3,8.3h-30.4c-4.6,0-8.3-3.7-8.3-8.3V914
	C394,909.5,397.8,905.7,402.4,905.7z"/>
<path class="st4" d="M416.8,933.2h-7.3l-1.5,4.6c0,0.2-0.2,0.3-0.4,0.3h-3.7c-0.2,0-0.3-0.1-0.2-0.4l6.3-18.2
	c0.1-0.2,0.1-0.4,0.2-0.6c0.1-0.4,0.1-0.8,0.1-1.3c0-0.1,0.1-0.2,0.2-0.2h5.1c0.2,0,0.2,0.1,0.3,0.2l7.2,20.2c0.1,0.2,0,0.3-0.2,0.3
	h-4.1c-0.1,0-0.3-0.1-0.3-0.2L416.8,933.2z M410.6,929.2h5c-0.1-0.4-0.3-0.9-0.5-1.4s-0.4-1.1-0.5-1.7c-0.2-0.6-0.4-1.2-0.6-1.8
	s-0.4-1.2-0.5-1.7c-0.2-0.5-0.3-1.1-0.4-1.5l0,0c-0.2,0.8-0.4,1.7-0.7,2.5c-0.3,0.9-0.6,1.9-0.9,2.9S410.9,928.4,410.6,929.2z
	 M427.4,920.8c-0.6,0-1.3-0.2-1.7-0.7c-0.5-0.5-0.7-1.1-0.7-1.8s0.2-1.3,0.7-1.7c0.5-0.5,1.1-0.7,1.7-0.7c0.8,0,1.4,0.2,1.8,0.7
	s0.7,1.1,0.6,1.7c0,0.7-0.2,1.3-0.7,1.8C428.7,920.6,428,920.9,427.4,920.8L427.4,920.8z M425.2,937.8v-15.1c0-0.2,0.1-0.3,0.3-0.3
	h3.9c0.2,0,0.3,0.1,0.3,0.3v15.1c0,0.2-0.1,0.3-0.3,0.3h-3.8C425.3,938.2,425.2,938,425.2,937.8z"/>
<g>
	<path id="path0_fill" class="st5" d="M470.8,971.6c5.8,0,10.4-4.7,10.4-10.4v-10.4h-10.4c-5.8,0-10.4,4.7-10.4,10.4
		S465.1,971.6,470.8,971.6z"/>
	<path id="path1_fill" class="st6" d="M460.4,940.3c0-5.8,4.7-10.4,10.4-10.4h10.4v20.8h-10.4C465.1,950.7,460.4,946.1,460.4,940.3z
		"/>
	<path id="path1_fill_1_" class="st7" d="M460.4,919.5c0-5.8,4.7-10.4,10.4-10.4h10.4v20.8h-10.4
		C465.1,929.9,460.4,925.2,460.4,919.5z"/>
	<path id="path2_fill" class="st8" d="M481.2,909.1h10.4c5.8,0,10.4,4.7,10.4,10.4s-4.7,10.4-10.4,10.4h-10.4V909.1z"/>
	<path id="path3_fill" class="st9" d="M502.1,940.3c0,5.8-4.7,10.4-10.4,10.4c-5.8,0-10.4-4.7-10.4-10.4s4.7-10.4,10.4-10.4
		C497.4,929.9,502.1,934.6,502.1,940.3z"/>
</g>
<g class="st10">
	<path class="st11" d="M354.1,776.9c0,5.9-1.9,7.5-9,7.5c-1.1,0-2-0.1-3.8-0.2c-0.3-3.4-0.7-5.3-1.9-8.5c1.9,0.2,2.8,0.2,3.8,0.2
		c1.8,0,2-0.2,2-1.9v-9.8c-3.7,1-3.7,1-4.9,1.4l-0.9-9.2c1.5-0.1,2.8-0.3,5.8-1v-8.9h-1.1c-1.3,0-2.6,0.1-4.1,0.2v-8.8
		c1.4,0.2,2.5,0.3,4.3,0.3h1v-4.1c0-3.2-0.1-4.4-0.3-6.2h9.5c-0.2,1.8-0.3,2.9-0.3,6.2v4.1h1.8c1,0,1.6-0.1,2.5-0.1v7
		c1,0.1,2.2,0.2,3.5,0.2h9.6c1.3,0,2.6-0.1,3.3-0.1c-0.1,1-0.1,2.1-0.1,3.5v8.8h2.1c0-0.7,0-1,0-1.6V749c0-1.5-0.1-2.8-0.1-3.7
		c0.5,0,0.5,0,3.4,0.1h10.7c1.7,0,2.8-0.1,3.6-0.2c-0.1,0.8-0.1,1.6-0.1,3.8v7c0,1.7,0,2.2,0.1,3.3c-0.9-0.1-1.5-0.1-2.7-0.1h-11.9
		v2.3h9.6c2.3,0,4.3-0.1,6.2-0.3v8c-2-0.2-4.2-0.3-6.2-0.3h-4.7c2.9,2.8,7.1,5.2,11.8,6.7c-1.8,3.1-2.8,5.3-4,8.5
		c-5.2-2.2-9.7-5.6-12.8-10c0.1,0.5,0.1,0.5,0.1,1.3c0,0.3,0,0.8,0,1.9v1.6c0,2.5,0.1,3.7,0.4,5.4h-9.2c0.2-1.9,0.3-2.8,0.3-5.2
		v-1.9c0-0.4,0.1-2.3,0.1-3.1c-3.2,4.3-7.3,7.3-13.1,9.9c-1.6-3.7-2.5-5.3-4.3-7.7V776.9z M354.1,776.2c5.4-1.7,9.7-4.1,12.4-7.2
		h-3.8c-2.5,0-4.3,0.1-6.2,0.2v-7.9c1.7,0.2,3.1,0.2,6.2,0.2h8.6v-2.2h-9.8c-1.3,0-2.4,0.1-3.4,0.1c0.1-1.2,0.2-2.3,0.2-4.2v-6
		c0-1.1,0-1.7-0.1-2.5c-0.5-0.1-1.2-0.1-2.3-0.1h-1.8v6.4c1.3-0.4,1.4-0.5,2.8-1v8.3l-2.8,1.1V776.2z M362.2,733.5
		c0-1.9-0.1-3.1-0.2-4.3c1.2,0.1,2.2,0.2,4.1,0.2H385c2.5,0,4.1-0.1,5-0.2c-0.1,1.1-0.2,2.3-0.2,4.3v6c0,1.9,0.1,3,0.2,4.3
		c-1.3-0.1-2.8-0.2-4.7-0.2h-18.9c-1.9,0-3.2,0.1-4.4,0.2c0.1-1.1,0.2-2.6,0.2-4.3V733.5z M364.7,753.7h3.7v-2.8h-3.7V753.7z
		 M370.5,738.1h10.7v-2.7h-10.7V738.1z M383.3,753.7h4.1v-2.8h-4.1V753.7z"/>
	<path class="st11" d="M428.3,746.5c-2.8,5-5.3,8.5-8.8,12.2c-1.7-3.4-2.8-5-5.3-8.1v25.9c0,2.9,0.1,5.2,0.4,7.6h-9.7
		c0.2-2.2,0.4-4.3,0.4-7.6v-14.2c0-0.5,0-0.9,0-2.2c0.1-2,0.1-2,0.1-4.1c-1.4,1.7-2.6,3.1-4.1,4.6c-1-4.7-1.9-7.3-3.7-10.9
		c4-3.3,7.6-8.5,10.4-15.2c1.3-2.9,2-5.5,2.3-7.7l9.4,2.9c-0.5,1.3-0.7,1.6-1.3,3.4c-1.2,3.5-2.1,5.6-4.1,9.7v7.1
		c3.5-3.5,5.8-6.8,8-11.3c2.2-4.6,3.7-8.7,4.1-11.4l9.6,2.2c-0.6,1.6-0.8,2.2-1.3,3.3c-0.6,1.7-0.8,2.2-1.2,3.2h13.6
		c3.5,0,5.9-0.1,7.6-0.4v8.9c-1.9-0.2-4.7-0.4-7.6-0.4h-9.7v5.6h8.5c2.8,0,4.6-0.1,6.5-0.3v8.8c-2.2-0.2-4.3-0.3-6.7-0.3h-8.3v5.6
		h8.4c2.8,0,4.6-0.1,6.7-0.3v8.8c-2.4-0.2-4.3-0.3-6.7-0.3h-8.4v4.6c0,4.3,0.1,6.5,0.4,8.2h-9.8c0.2-1.9,0.4-4,0.4-8.1V746.5z"/>
	<path class="st11" d="M458.1,743c0.2,0.1,0.4,0.1,0.5,0.1c1.9,0,7.6-0.5,11.6-1c1-6.2,1.4-9.8,1.4-11.8c0-0.2,0-0.6,0-1l10.9,1
		c-0.2,0.7-0.3,1-0.4,1.4c-0.1,0.2-0.1,0.7-0.2,1.1l-0.4,2.2c-0.5,3.1-1,5.5-1.1,6.5c1-0.1,1.7-0.1,2.6-0.1c3.7,0,6.5,0.8,8.5,2.4
		c3.1,2.5,4.3,6.1,4.3,12.9c0,9.4-1.4,17.1-3.8,21.3c-0.8,1.4-2.3,2.8-3.8,3.5c-1.2,0.5-2.8,0.8-4.7,0.8c-2.8,0-5.5-0.4-9.5-1.6
		c0.2-1.7,0.2-2.4,0.2-3.5c0-2.6-0.2-4.3-0.9-7.2c3.4,1.4,6.5,2.2,8.2,2.2c1.3,0,2-0.8,2.7-2.7c0.9-2.6,1.6-8.7,1.6-13.3
		c0-2.5-0.4-4-1.1-4.8c-0.7-0.8-1.5-1-3.6-1c-0.5,0-1.1,0-2.4,0.1c-2.2,9.8-5.8,20.2-10.6,30.4c-0.5,1.1-0.6,1.3-1,2.2l-9.9-5.2
		c3.8-5,8.8-16.9,11.3-26.6c-3.8,0.5-7.6,1.2-9.4,1.7L458.1,743z M497.7,730.5c2.4,2.6,4.3,5.4,5.9,8.6l-5.7,2.8
		c-2-3.8-3.5-6-5.9-8.8L497.7,730.5z M505.7,740.8c3.8,5.3,7.2,13.1,9.2,21.3l-9.8,4.7c-1.3-7.6-4.8-17.2-8.2-21.8L505.7,740.8z
		 M505.7,726.9c2.2,2.4,3.9,4.7,6,8.3l-5.5,2.7c-2-3.8-3.7-6.2-5.9-8.6L505.7,726.9z"/>
	<path class="st11" d="M516.6,735.1c1,0.1,1.8,0.1,2.3,0.1c1.6,0,3.7-0.1,10.3-0.5c8.6-0.5,14.5-0.8,25.9-1.3l6.2-0.2l2.5-0.1
		c2-0.1,2.4-0.1,2.7-0.1c0.4,0,0.7-0.1,1.4-0.2l0.5,10.9c-0.8-0.1-1.1-0.1-1.7-0.1c-4.2,0-9.6,1.6-13.7,4.2c-6,3.7-9.5,8.7-9.5,13.6
		c0,3.5,1.6,5.8,5,7.4c2.4,1.2,7.7,2.2,11.5,2.2c0.5,0,0.9,0,1.8-0.1l-1.4,11.4c-0.8-0.2-1-0.2-2.2-0.3c-6.8-0.6-11.3-1.6-15.2-3.4
		c-7.1-3.3-10.7-8.8-10.7-16.4c0-5,1.7-9.5,5.1-13.6c1.6-1.9,3-3.1,5.9-5.1l-2.8,0.3c-1.3,0.1-3.4,0.3-14.6,1.2
		c-5.6,0.6-5.9,0.6-8.5,1.1L516.6,735.1z M559.2,748.8c2.4,2.8,4.2,5.4,5.8,8.7l-5.8,2.6c-1.9-3.8-3.4-6.1-5.8-8.9L559.2,748.8z
		 M567.2,745.3c2.2,2.4,3.8,4.7,5.9,8.5l-5.6,2.6c-2.2-4-3.7-6.3-5.7-8.6L567.2,745.3z"/>
	<path class="st11" d="M577.3,736c2.1,0.2,4.1,0.3,6.8,0.3c3.4,0,8-0.2,10.7-0.4c-1.3-3.3-2-4.9-2.5-6l10.5-1.3
		c0.3,1.9,0.7,3.3,1.9,6.2c5.8-0.8,12.8-2.2,16.3-3.4l0.8,8.8c-1.1,0.2-1.1,0.2-4.4,0.9c-3.5,0.7-3.5,0.8-9.5,1.7
		c0.5,1.1,1.1,2.7,1.4,3.1c8.3-1.5,11.2-2.2,14-3.2l0.9,8.8c-1.4,0.2-1.4,0.2-7.4,1.4c-0.1,0-2.8,0.5-3.6,0.7
		c2.5,4.3,4.1,6.7,7.7,11l-8.8,4.6c-3.5-1.9-7.4-2.6-12.6-2.6c-6.7,0-10.3,1.4-10.3,3.9c0,2.2,3.1,3.3,9.5,3.3
		c6.9,0,14.3-1.4,19.1-3.7l1.4,10.1c-1.3,0.2-1.3,0.2-4.2,0.8c-5.7,1.3-11.2,1.9-16.8,1.9c-9.1,0-15.2-1.9-18.2-5.7
		c-1.4-1.8-2.2-4.3-2.2-6.6c0-4.2,2.8-8,7.1-9.9c3.5-1.5,7.6-2.2,12.8-2.2c3.2,0,5.6,0.2,8.3,0.7c-0.7-0.9-1.6-2.3-2.8-4.3
		c-5.1,0.7-12,1.1-20.6,1.3c-3.6,0.1-3.8,0.1-5.2,0.3l-0.4-8.9c1.7,0.2,2.9,0.2,6.2,0.2c5.8,0,11.5-0.3,16.4-0.8
		c-0.2-0.5-0.7-1.6-1.4-3.2c-5.3,0.5-8,0.7-15.7,0.7c-2.7,0.1-3.1,0.1-4.5,0.1L577.3,736z"/>
	<path class="st11" d="M636,731.2c2.5,0.3,4.7,0.4,8.6,0.4c5.3,0,12-0.2,18.1-0.7c2.6-0.2,3.4-0.4,4.6-0.8l4.9,7.3
		c-1.6,0.9-1.6,0.9-9.7,7.9c-3.2,2.7-4.3,3.6-8.3,6.5c3.4-0.8,5.1-1.1,8.2-1.1c5.6,0,9.7,1.3,12.8,4.1c2.9,2.6,4.4,6.1,4.4,10.4
		c0,6.1-2.8,10.9-8.3,14.1c-4.1,2.4-9.9,3.8-15.9,3.8c-10.1,0-16.3-4-16.3-10.7c0-5.6,5-9.6,11.9-9.6c4.3,0,8.2,1.7,10.7,4.6
		c1.2,1.3,1.9,2.5,2.8,4.7c3.2-1.4,4.7-3.5,4.7-6.5c0-4.2-4.1-6.8-10.7-6.8c-6.4,0-13.1,2-18.5,5.5c-1.9,1.2-3.8,2.7-5.8,4.5
		l-5.6-9.1c5.5-2.6,18.2-12.4,25.6-19.8c-3.2,0.4-5.6,0.5-14,0.9c-1.6,0.1-2.8,0.2-4,0.3L636,731.2z M650.8,770.4
		c-1.4,0-2.3,0.8-2.3,2c0,1.6,1.9,2.6,5.2,2.6c0.7,0,0.8,0,2-0.2C654.9,771.9,653.2,770.4,650.8,770.4z"/>
</g>
<g class="st10">
	<path class="st11" d="M1042.8,756.1c-0.4,6.8-1.6,11-4.3,15.5c-3.1,5.2-8,9-16.1,12.2c-2-4.1-3.7-6.3-7-9.5
		c10.8-3.1,15.7-8.6,16.2-18.2h-12.3c-5.5,0-6.8,0.1-9.1,0.3v-10.1c2.3,0.4,4,0.5,9.2,0.5h33.4c5.5,0,7.1-0.1,9.5-0.4v10
		c-3.5-0.3-4-0.3-9.4-0.3H1042.8z M1041.5,731.4c4.5,0,6.5-0.1,8.9-0.4c-0.2-0.4-0.2-0.4-0.5-0.8l4.9-1.6c1.6,2.3,3,5.5,4.4,9.6
		l-5.2,1.9c-1.1-3.7-2.3-6.7-3.5-8.9v9.8c-1.8-0.2-2.2-0.2-8.8-0.3h-16c-5.1,0-6.7,0.1-9.4,0.3v-10.1c2.5,0.4,3.9,0.5,9.5,0.5
		H1041.5z M1061.7,737.5c-1.2-3.8-2.5-6.7-4.2-9.5l4.7-1.6c1.9,3.2,3.1,5.7,4.2,9.3L1061.7,737.5z"/>
	<path class="st11" d="M1110,730.6c-0.2-0.4-0.4-0.7-0.8-1.4l4.6-1.3c1.7,3.1,3,6.1,4,9.5l-4.7,1.6c-0.7-2.4-1.7-5.3-2.3-6.9
		c-0.1,0.9-0.1,1.1-0.1,1.9c0,1.3,0,3.5-0.1,6.8h2.4c5,0,6.4-0.1,8.6-0.4v10.2c-2.6-0.2-4.4-0.3-8.5-0.3h-2.7
		c-0.1,9.3-0.9,14.2-2.9,18.3c-3.5,7.1-9.2,11.6-18.7,15c-1.7-3.7-3.5-6.2-6.5-9.2c8.9-2.5,13.7-5.8,16.2-11.2
		c1.4-3.2,1.8-6.3,1.9-13h-12.7v6.8c0,3.7,0.1,4.6,0.2,6.2h-10.9c0.2-1.4,0.3-2.9,0.4-6.3v-6.7h-2.3c-4.3,0-5.1,0-8.5,0.3v-10.2
		c2.5,0.4,3.8,0.4,8.6,0.4h2.1v-4.4c0-2.9-0.1-4.3-0.4-6.3h10.9c-0.2,2.4-0.2,2.8-0.2,6.1v4.6h12.8c0-1.3,0.1-2.5,0.1-2.9
		c0-0.7,0-1.1,0-1.3c0-2.9-0.1-4.6-0.3-6.1H1110z M1120.4,736.9c-1.2-3.8-2.2-6.4-3.8-9.3l4.4-1.4c1.6,2.1,2.7,4.7,3.9,9.1
		L1120.4,736.9z"/>
	<path class="st11" d="M1177.4,735.6c-1.3,1.1-1.4,1.2-2.3,2.2c-4.7,4.9-9,8.6-13.9,12.1V773c0,4.9,0.1,6.5,0.4,9.7H1150
		c0.3-3.2,0.4-4.5,0.4-9.7v-16.6c-6.2,3.7-11,5.8-19.6,8.9c-1.6-4-2.8-6-5.8-9.7c13-3.7,22.2-8.2,31.9-15.6c5.2-3.9,9.2-8,10.9-11
		L1177.4,735.6z"/>
	<path class="st11" d="M1189.5,732.4c7.6,4.4,11.5,7.2,16.5,11.8l-7.1,9.4c-5.2-5.5-10.3-9.4-16.3-12.7L1189.5,732.4z M1183.2,769.7
		c6.1-0.5,12.4-2,18.1-4.3c7.6-3.1,13-7.6,17.6-14.8c2.5-3.8,4.1-7.1,5.9-11.8c2.9,3.5,4.3,4.7,8.8,8c-5.5,11.8-11.2,18.9-19.6,24.3
		c-6.5,4.2-12.2,6.4-23.3,9c-2.3,0.5-2.7,0.6-4.3,1.1L1183.2,769.7z"/>
	<path class="st11" d="M1243.6,754.3c-2.9,0-4.9,0.1-6.7,0.2v-8.8c1.4,0.2,3,0.2,5.3,0.2h1c-2.9-1.6-4.6-2.4-7.4-3.7
		c1.9-3.6,3.2-7.4,3.8-10.9c0.2-1,0.3-2.1,0.3-2.8l8.2,1.4c-0.1,0.3-0.1,0.4-0.1,0.8l-0.3,1.7c-0.1,0.2-0.1,0.3-0.4,2.1h2.6v-1
		c0-2.8-0.1-3.9-0.3-5.5h8.9c-0.2,1.4-0.3,2.7-0.3,5.4v1.1h4.4c2.8,0,4.1-0.1,5.9-0.3v8.8c-1.7-0.2-3.4-0.2-5.9-0.2h-4.4v3.1h5.8
		c2.5,0,3.8-0.1,5.5-0.2v8.8c-1.5-0.2-2.9-0.2-5.8-0.2h-5.5v3h5.4c2.9,0,4-0.1,5.6-0.2c-0.1,1.1-0.2,2.2-0.2,5.2v12.1
		c0,4.7-1.3,5.9-6.6,5.9c-0.4,0-1.3-0.1-2.4-0.1c-0.2-3.6-0.5-5.4-1.6-7.8c0.5,0.1,1.5,0.1,1.8,0.1c0.7,0,1-0.2,1-0.9v-6.2h-2.9
		v12.9c0,3.2,0.1,4.8,0.3,6.2h-8.9c0.2-1.6,0.3-2.8,0.3-6.3v-12.8h-3v10.1c0,2.3,0.1,3.8,0.2,5.3h-8.7c0.2-1.5,0.3-2.8,0.3-5.6
		v-12.5c0-2.4-0.1-4-0.2-5.6c1.9,0.2,3.1,0.2,5.9,0.2h5.5v-3H1243.6z M1249.9,742.9h-4.7c-0.4,1.3-0.5,1.6-1.1,3.1h5.8V742.9z
		 M1279.7,732.9c-0.2,1.7-0.2,3.1-0.2,6v24.8c0,3.4,0.1,4.6,0.2,6.1h-8.8c0.2-1.6,0.3-2.5,0.3-6.1V739c0-3.1-0.1-4.5-0.3-6.2H1279.7
		z M1291.3,728.4c-0.3,1.7-0.4,3.4-0.4,7.3v39.8c0,3.8-0.6,5.6-2.3,6.8c-1.6,1.2-4.8,1.8-9.3,1.8c-1.1,0-1.1,0-5.2-0.1
		c-0.3-3.8-0.8-5.7-2.3-8.8c3.3,0.3,5.8,0.5,7.4,0.5c2.4,0,2.8-0.2,2.8-1.8V736c0-3.8-0.1-5.6-0.3-7.6H1291.3z"/>
	<path class="st11" d="M1325,746.5c-2.8,5-5.3,8.5-8.8,12.2c-1.7-3.4-2.8-5-5.3-8.1v25.9c0,2.9,0.1,5.2,0.4,7.6h-9.7
		c0.2-2.2,0.4-4.3,0.4-7.6v-14.2c0-0.5,0-0.9,0-2.2c0.1-2,0.1-2,0.1-4.1c-1.4,1.7-2.6,3.1-4.1,4.6c-1-4.7-1.9-7.3-3.7-10.9
		c4-3.3,7.6-8.5,10.4-15.2c1.3-2.9,2-5.5,2.3-7.7l9.4,2.9c-0.5,1.3-0.7,1.6-1.3,3.4c-1.2,3.5-2.1,5.6-4.1,9.7v7.1
		c3.5-3.5,5.8-6.8,8-11.3c2.2-4.6,3.7-8.7,4.1-11.4l9.6,2.2c-0.6,1.6-0.8,2.2-1.3,3.3c-0.6,1.7-0.8,2.2-1.2,3.2h13.6
		c3.5,0,5.9-0.1,7.6-0.4v8.9c-1.9-0.2-4.7-0.4-7.6-0.4h-9.7v5.6h8.5c2.8,0,4.6-0.1,6.5-0.3v8.8c-2.2-0.2-4.3-0.3-6.7-0.3h-8.3v5.6
		h8.4c2.8,0,4.6-0.1,6.7-0.3v8.8c-2.4-0.2-4.3-0.3-6.7-0.3h-8.4v4.6c0,4.3,0.1,6.5,0.4,8.2h-9.8c0.2-1.9,0.4-4,0.4-8.1V746.5z"/>
	<path class="st11" d="M1354.9,743c0.2,0.1,0.4,0.1,0.5,0.1c1.9,0,7.6-0.5,11.6-1c1-6.2,1.4-9.8,1.4-11.8c0-0.2,0-0.6,0-1l10.9,1
		c-0.2,0.7-0.3,1-0.4,1.4c-0.1,0.2-0.1,0.7-0.2,1.1l-0.4,2.2c-0.5,3.1-1,5.5-1.1,6.5c1-0.1,1.7-0.1,2.6-0.1c3.7,0,6.5,0.8,8.5,2.4
		c3.1,2.5,4.3,6.1,4.3,12.9c0,9.4-1.4,17.1-3.8,21.3c-0.8,1.4-2.3,2.8-3.8,3.5c-1.2,0.5-2.8,0.8-4.7,0.8c-2.8,0-5.5-0.4-9.5-1.6
		c0.2-1.7,0.2-2.4,0.2-3.5c0-2.6-0.2-4.3-0.9-7.2c3.4,1.4,6.5,2.2,8.2,2.2c1.3,0,2-0.8,2.7-2.7c0.9-2.6,1.6-8.7,1.6-13.3
		c0-2.5-0.4-4-1.1-4.8c-0.7-0.8-1.5-1-3.6-1c-0.5,0-1.1,0-2.4,0.1c-2.2,9.8-5.8,20.2-10.6,30.4c-0.5,1.1-0.6,1.3-1,2.2l-9.9-5.2
		c3.8-5,8.8-16.9,11.3-26.6c-3.8,0.5-7.6,1.2-9.4,1.7L1354.9,743z M1394.5,730.5c2.4,2.6,4.3,5.4,5.9,8.6l-5.7,2.8
		c-2-3.8-3.5-6-5.9-8.8L1394.5,730.5z M1402.4,740.8c3.8,5.3,7.2,13.1,9.2,21.3l-9.8,4.7c-1.3-7.6-4.8-17.2-8.2-21.8L1402.4,740.8z
		 M1402.4,726.9c2.2,2.4,3.9,4.7,6,8.3l-5.5,2.7c-2-3.8-3.7-6.2-5.9-8.6L1402.4,726.9z"/>
	<path class="st11" d="M1413.4,735.1c1,0.1,1.8,0.1,2.3,0.1c1.6,0,3.7-0.1,10.3-0.5c8.6-0.5,14.5-0.8,25.9-1.3l6.2-0.2l2.5-0.1
		c2-0.1,2.4-0.1,2.7-0.1c0.4,0,0.7-0.1,1.4-0.2l0.5,10.9c-0.8-0.1-1.1-0.1-1.7-0.1c-4.2,0-9.6,1.6-13.7,4.2c-6,3.7-9.5,8.7-9.5,13.6
		c0,3.5,1.6,5.8,5,7.4c2.4,1.2,7.7,2.2,11.5,2.2c0.5,0,0.9,0,1.8-0.1l-1.4,11.4c-0.8-0.2-1-0.2-2.2-0.3c-6.8-0.6-11.3-1.6-15.2-3.4
		c-7.1-3.3-10.7-8.8-10.7-16.4c0-5,1.7-9.5,5.1-13.6c1.6-1.9,3-3.1,5.9-5.1l-2.8,0.3c-1.3,0.1-3.4,0.3-14.6,1.2
		c-5.6,0.6-5.9,0.6-8.5,1.1L1413.4,735.1z M1455.9,748.8c2.4,2.8,4.2,5.4,5.8,8.7l-5.8,2.6c-1.9-3.8-3.4-6.1-5.8-8.9L1455.9,748.8z
		 M1463.9,745.3c2.2,2.4,3.8,4.7,5.9,8.5l-5.6,2.6c-2.2-4-3.7-6.3-5.7-8.6L1463.9,745.3z"/>
	<path class="st11" d="M1474.1,736c2.1,0.2,4.1,0.3,6.8,0.3c3.4,0,8-0.2,10.7-0.4c-1.3-3.3-2-4.9-2.5-6l10.5-1.3
		c0.3,1.9,0.7,3.3,1.9,6.2c5.8-0.8,12.8-2.2,16.3-3.4l0.8,8.8c-1.1,0.2-1.1,0.2-4.4,0.9c-3.5,0.7-3.5,0.8-9.5,1.7
		c0.5,1.1,1.1,2.7,1.4,3.1c8.3-1.5,11.2-2.2,14-3.2l0.9,8.8c-1.4,0.2-1.4,0.2-7.4,1.4c-0.1,0-2.8,0.5-3.6,0.7
		c2.5,4.3,4.1,6.7,7.7,11l-8.8,4.6c-3.5-1.9-7.4-2.6-12.6-2.6c-6.7,0-10.3,1.4-10.3,3.9c0,2.2,3.1,3.3,9.5,3.3
		c6.9,0,14.3-1.4,19.1-3.7l1.4,10.1c-1.3,0.2-1.3,0.2-4.2,0.8c-5.7,1.3-11.2,1.9-16.8,1.9c-9.1,0-15.2-1.9-18.2-5.7
		c-1.4-1.8-2.2-4.3-2.2-6.6c0-4.2,2.8-8,7.1-9.9c3.5-1.5,7.6-2.2,12.8-2.2c3.2,0,5.6,0.2,8.3,0.7c-0.7-0.9-1.6-2.3-2.8-4.3
		c-5.1,0.7-12,1.1-20.6,1.3c-3.6,0.1-3.8,0.1-5.2,0.3l-0.4-8.9c1.7,0.2,2.9,0.2,6.2,0.2c5.8,0,11.5-0.3,16.4-0.8
		c-0.2-0.5-0.7-1.6-1.4-3.2c-5.3,0.5-8,0.7-15.7,0.7c-2.7,0.1-3.1,0.1-4.5,0.1L1474.1,736z"/>
	<path class="st11" d="M1532.7,731.2c2.5,0.3,4.7,0.4,8.6,0.4c5.3,0,12-0.2,18.1-0.7c2.6-0.2,3.4-0.4,4.6-0.8l4.9,7.3
		c-1.6,0.9-1.6,0.9-9.7,7.9c-3.2,2.7-4.3,3.6-8.3,6.5c3.4-0.8,5.1-1.1,8.2-1.1c5.6,0,9.7,1.3,12.8,4.1c2.9,2.6,4.4,6.1,4.4,10.4
		c0,6.1-2.8,10.9-8.3,14.1c-4.1,2.4-9.9,3.8-15.9,3.8c-10.1,0-16.3-4-16.3-10.7c0-5.6,5-9.6,11.9-9.6c4.3,0,8.2,1.7,10.7,4.6
		c1.2,1.3,1.9,2.5,2.8,4.7c3.2-1.4,4.7-3.5,4.7-6.5c0-4.2-4.1-6.8-10.7-6.8c-6.4,0-13.1,2-18.5,5.5c-1.9,1.2-3.8,2.7-5.8,4.5
		l-5.6-9.1c5.5-2.6,18.2-12.4,25.6-19.8c-3.2,0.4-5.6,0.5-14,0.9c-1.6,0.1-2.8,0.2-4,0.3L1532.7,731.2z M1547.6,770.4
		c-1.4,0-2.3,0.8-2.3,2c0,1.6,1.9,2.6,5.2,2.6c0.7,0,0.8,0,2-0.2C1551.6,771.9,1549.9,770.4,1547.6,770.4z"/>
</g>
<g class="st10">
	<path class="st12" d="M1183.1,973.2c-0.2-1.7-0.6-3.5-1.1-5.5l-3.9-15.2c-0.5-2-0.9-4.4-1.4-7.8c-0.3,2.1-0.9,5.4-1.6,7.8
		l-3.8,15.3c-0.7,2.6-1,4.1-1.1,5.5h-10.3c-0.3-1.5-0.5-2.6-1.3-5.6l-8.3-31c-0.7-2.6-1.4-5-2-6.4h11.8c0.1,1.9,0.3,3.5,0.7,5.7
		l3.3,15.7c0.2,0.8,0.5,3.2,1.1,7.3c0.8-4.3,1.1-6.2,1.4-7.3l4.1-16c0.6-2.3,0.9-3.9,1.1-5.4h9.2c0.2,1.3,0.5,2.8,1.2,5.2l4.2,15.9
		c0.4,1.7,0.8,3.4,1.4,7.6c0.1-1,0.1-1,0.4-3.2c0.2-1.1,0.5-3.6,0.7-4.4l3.3-15.4c0.5-2.4,0.7-3.9,0.8-5.7h11.7
		c-0.5,1.4-1.2,3.8-1.9,6.4l-8.3,31c-0.7,2.4-1.1,4.4-1.3,5.6H1183.1z"/>
	<path class="st12" d="M1205.8,957.4c0-10.3,6.6-16.9,17.1-16.9s17.1,6.6,17.1,16.8c0,10.3-6.8,17.1-17.1,17.1
		C1212.4,974.4,1205.8,967.8,1205.8,957.4z M1215.6,957.3c0,5.7,2.7,9.2,7.2,9.2s7.1-3.4,7.1-9.1c0-5.8-2.6-9.2-7-9.2
		C1218.3,948.2,1215.6,951.6,1215.6,957.3z"/>
	<path class="st12" d="M1266.4,951c-2.4-0.7-3.7-1-5.3-1c-2.6,0-4.7,0.9-6.2,2.8c-1,1.2-1.3,2.3-1.6,4.6v8.1c0,3.3,0.1,5.3,0.4,7.8
		h-10.7c0.3-2.6,0.4-4.4,0.4-7.8v-15.9c0-3.8-0.1-5.6-0.4-7.8h10.3v4.1c2.5-3.3,5.6-4.7,10.3-4.7c1.7,0,2.7,0.1,5.1,0.6L1266.4,951z
		"/>
	<path class="st12" d="M1295.1,971.5c0-0.3,0-0.7,0.1-1.1c-3.5,2.8-6.1,3.7-10.4,3.7c-9.4,0-15.1-6.3-15.1-16.8
		c0-5.4,1.6-9.7,4.4-12.6c2.6-2.6,6.3-4,10.5-4c4.2,0,7.2,1.1,10.6,3.8c-0.1-0.8-0.1-1.2-0.1-2v-4.3c0-3.6-0.1-5.8-0.4-8.1h10.6
		c-0.3,2.2-0.4,4.7-0.4,8.1v26.8c0,3.5,0.1,5.6,0.4,8.1h-10.2V971.5z M1279.7,957.4c0,2.9,0.8,5.3,2.4,6.8c1.2,1.2,3.1,2,5,2
		c4.6,0,8-3.8,8-8.9c0-5-3.3-8.6-8-8.6C1282.5,948.6,1279.7,952,1279.7,957.4z"/>
	<path class="st12" d="M1310.2,973.2c0.3-2.3,0.4-4.6,0.4-7.7v-28c0-2.8-0.1-5.1-0.4-7.5c2.4,0.1,4.3,0.2,7.6,0.2h11.3
		c10.2,0,15.9,4.9,15.9,13.9c0,9.2-5.9,14.7-15.9,14.7h-8.2v6.6c0,3.1,0.2,5.6,0.4,7.8H1310.2z M1328.7,950c3.6,0,5.7-2,5.7-5.6
		c0-3.6-2-5.4-5.7-5.4h-7.7v11H1328.7z"/>
	<path class="st12" d="M1371.5,951c-2.4-0.7-3.7-1-5.3-1c-2.6,0-4.7,0.9-6.2,2.8c-1,1.2-1.3,2.3-1.6,4.6v8.1c0,3.3,0.1,5.3,0.4,7.8
		h-10.7c0.3-2.6,0.4-4.4,0.4-7.8v-15.9c0-3.8-0.1-5.6-0.4-7.8h10.3v4.1c2.5-3.3,5.6-4.7,10.3-4.7c1.7,0,2.7,0.1,5.1,0.6L1371.5,951z
		"/>
	<path class="st12" d="M1384.3,960.3c0.5,4.2,2.9,6.4,7,6.4c2.1,0,3.9-0.7,5.2-1.9c0.8-0.7,1.1-1.3,1.6-2.6l9,2.5
		c-1.2,2.7-2,3.9-3.4,5.3c-2.9,2.9-7.1,4.4-12.2,4.4c-5.1,0-9-1.4-12-4.4c-3.1-3.1-4.7-7.5-4.7-12.6c0-10.2,6.6-17,16.4-17
		c8.1,0,13.7,4.4,15.5,12.1c0.4,1.7,0.6,3.8,0.8,6.8c0,0.2,0,0.5,0.1,1H1384.3z M1397.7,953.2c-0.7-3.3-2.9-5.1-6.5-5.1
		c-3.7,0-5.9,1.7-6.8,5.1H1397.7z"/>
	<path class="st12" d="M1419.8,962.7c0.5,2.7,2.3,3.9,5.7,3.9c3.1,0,4.9-0.9,4.9-2.5c0-0.8-0.4-1.4-1.1-1.9
		c-0.7-0.4-1.4-0.6-4.2-1.2c-3.9-0.8-5.9-1.3-7.7-1.9c-2.5-0.9-4.2-2.1-5.2-3.7c-0.8-1.4-1.3-3.2-1.3-4.9c0-6.2,5.2-10,13.9-10
		c4.9,0,8.6,1.1,11,3.3c1.7,1.5,2.5,3,3.4,5.9l-10,1.1c-0.3-2.1-1.6-3.1-4.3-3.1c-2.7,0-4.3,0.9-4.3,2.2c0,1.4,1.1,1.9,6.2,3.1
		c5.1,1.1,6.7,1.6,8.5,2.5c3.4,1.7,5,4.2,5,7.9c0,2.7-0.9,5.2-2.6,6.9c-2.5,2.5-6.7,3.8-12.3,3.8c-6.5,0-11.1-1.8-13.6-5.2
		c-1-1.4-1.6-2.7-2.1-5.2L1419.8,962.7z"/>
	<path class="st12" d="M1452.6,962.7c0.5,2.7,2.3,3.9,5.7,3.9c3.1,0,4.9-0.9,4.9-2.5c0-0.8-0.4-1.4-1.1-1.9
		c-0.7-0.4-1.4-0.6-4.2-1.2c-3.9-0.8-5.9-1.3-7.7-1.9c-2.5-0.9-4.2-2.1-5.2-3.7c-0.8-1.4-1.3-3.2-1.3-4.9c0-6.2,5.2-10,13.9-10
		c4.9,0,8.6,1.1,11,3.3c1.7,1.5,2.5,3,3.4,5.9l-10,1.1c-0.3-2.1-1.6-3.1-4.3-3.1c-2.7,0-4.3,0.9-4.3,2.2c0,1.4,1.1,1.9,6.2,3.1
		c5.1,1.1,6.7,1.6,8.5,2.5c3.4,1.7,5,4.2,5,7.9c0,2.7-0.9,5.2-2.6,6.9c-2.5,2.5-6.7,3.8-12.3,3.8c-6.5,0-11.1-1.8-13.6-5.2
		c-1-1.4-1.6-2.7-2.1-5.2L1452.6,962.7z"/>
	<path class="st12" d="M1523,951.2c3.8-0.3,5.1-0.5,8.5-1.7c3,3.9,4.3,7.3,4.3,11.6c0,3.9-2,7.8-5.3,10.2c-3.2,2.4-7.5,3.7-12.6,3.7
		c-5.3,0-9.5-1.4-12.5-4.1c-2.5-2.3-3.6-5.4-3.6-9.6c0-1.1,0.1-2.3,0.2-3.8c-1.6-0.1-3.8-0.5-6.7-1c-1-0.2-1.3-0.3-2.2-0.3l0.6-8.3
		c2.4,0.9,4.3,1.2,9,1.8c0.1-0.5,0.3-2.3,0.7-5.2c-2.1-0.2-3.8-0.5-7.1-1.2c-0.8-0.2-1.1-0.2-1.9-0.4l0.6-8c2.3,0.8,5.3,1.3,9.4,1.8
		c0.6-3.4,0.8-5.6,0.8-7.4c0-0.2,0-0.4,0-0.7l9.6,0.8c-0.6,1.7-0.8,2.8-1.5,7.5c5.1-0.2,8.1-0.5,11.2-1.3l-0.3,8.6
		c-1.2,0.1-1.2,0.1-3.7,0.3c-3.4,0.3-5,0.4-8.5,0.4c-0.1,0.7-0.1,0.7-0.4,2.5c-0.1,0.7-0.2,1.1-0.4,2.8c0.5,0,0.9,0,1.1,0
		c4,0,7.7-0.4,10.7-1.2L1523,951.2z M1522.8,957.4c-0.5,0.1-0.6,0.1-1.7,0.2c-2.4,0.3-5.5,0.5-8.1,0.5c-0.5,0-0.9,0-2.3-0.1
		c-0.1,0.7-0.1,1.7-0.1,2.5c0,2.1,0.5,3.5,1.6,4.4c1.2,1.1,3.2,1.7,5.6,1.7c5.6,0,9-2.5,9-6.6c0-2.6-1.3-5.4-3.8-8.2L1522.8,957.4z"
		/>
	<path class="st12" d="M1541,934.6c0-2.4-0.1-4-0.2-5.7c1.3,0.2,3.5,0.2,6.8,0.2h32.4c3.3,0,5.2-0.1,6.5-0.2
		c-0.2,1.7-0.3,3.8-0.3,6.5v33.7c0,2.9-0.9,4.7-2.8,5.7c-1.3,0.7-3.4,1-7.2,1c-2.2,0-3,0-5.3-0.1c-0.5-3.1-0.9-4.5-2.2-7.5
		c2.6,0.2,5.7,0.4,7.1,0.4c2,0,2.5-0.2,2.5-1.1v-31h-29.4v33.2c0,3.4,0.1,5,0.3,6.5h-8.5c0.3-2.1,0.4-4.1,0.4-6.8V934.6z
		 M1550.4,938.5c1.2,0.2,2.2,0.2,4.9,0.2h16.5c2.7,0,3.6-0.1,5-0.2v7.4c-1.4-0.1-2.6-0.2-5-0.2h-16.6c-2.3,0-3.5,0.1-4.9,0.2V938.5z
		 M1574.9,963.7c0,1.3,0,2.3,0.1,3.5c-1.7-0.1-2.5-0.1-3.6-0.1h-11.4v3.6h-7.8c0.2-1.5,0.3-2.6,0.3-4.5v-14.7c0-1.6-0.1-2.4-0.2-3.6
		c1.8,0.1,2.3,0.1,3.7,0.1h15.2c2.3,0,2.9,0,4-0.1c-0.2,1.3-0.2,2.1-0.2,3.7V963.7z M1559.9,960.1h7.5v-5.2h-7.5V960.1z"/>
	<path class="st12" d="M1605.1,929.8c-0.6,3.3-1.2,17.1-1.2,25.7c0,5.2,0.2,6.7,1.1,8.1c1,1.6,3.2,2.5,6.1,2.5
		c5.3,0,9.5-3.2,11.5-8.7c1-2.8,1.6-5.5,2.1-9.4c3.6,2.8,5.8,4.2,8.8,5.4c-2,7.8-3.7,11.5-6.5,14.7c-4.1,4.4-9.5,6.7-16.2,6.7
		c-5.3,0-9.2-1.3-12-3.9c-2.9-2.8-3.9-6.2-3.9-13.4c0-1.3,0-1.3,0.3-11.7c0.1-5.2,0.2-10.1,0.2-12.2c0-1.6-0.1-2.4-0.3-3.9
		L1605.1,929.8z M1620.6,932.1c2.1,2.3,3.9,4.9,5.3,7.7l-4.9,2.4c-1.7-3.2-3.2-5.5-5.3-7.9L1620.6,932.1z M1627.5,929
		c2,2,3.6,4.3,5.4,7.4l-4.8,2.3c-1.8-3.3-3.4-5.6-5.3-7.7L1627.5,929z"/>
</g>
<text transform="matrix(1 0 0 1 337.6932 1212.7257)" class="st11" style="font-family:'HiraKakuStdN-W8-83pv-RKSJ-H'; font-size:60px;">操作ができる</text>
<text transform="matrix(1 0 0 1 1007.1002 1212.7258)" class="st11" style="font-family:'HiraKakuStdN-W8-83pv-RKSJ-H'; font-size:60px;">デザイン制作ができる</text>
<text transform="matrix(1 0 0 1 1147.9484 1405.4554)" class="st12" style="font-family:'HiraKakuStdN-W8-83pv-RKSJ-H'; font-size:51.7194px;">WordPress も同じ</text>
<path class="st11" d="M375.3,862.8c-13.2,0-24,10.7-24,24v95.9h24v-95.9h143.8v95.9h24v-95.9c0-13.2-10.7-24-24-24H375.3z
	 M334.6,994.6c-4,0-7.2,3.2-7.2,7.2c0,15.9,12.9,28.8,28.8,28.8h182.1c15.9,0,28.8-12.9,28.8-28.8c0-4-3.2-7.2-7.2-7.2H334.6z"/>
<g>
	<g>
		<g>
			<path class="st13" d="M704,973.6c-2.5-0.6-4.9,1-5.5,3.5l-11.1,45.4L677,984.2l5.7-9.6c2-3.3-0.4-7.5-4.2-7.5h-6.1h-6.1
				c-3.8,0-6.2,4.2-4.2,7.5l5.7,9.6l0,0l-10.3,38.3l-11.1-45.4c-0.6-2.5-3-4.1-5.5-3.5c-21.6,5.4-37.7,25-37.7,48.3
				c0,5.2,4.3,9.5,9.5,9.5h40.7c0.6,0,1.2-0.1,1.8-0.3l-0.1,0.3h34.6l-0.1-0.3c0.6,0.2,1.1,0.3,1.8,0.3h40.7c5.2,0,9.5-4.2,9.5-9.5
				C741.7,998.6,725.7,979,704,973.6z"/>
		</g>
		<g>
			<circle class="st13" cx="672.4" cy="917.3" r="39.6"/>
		</g>
	</g>
	<g>
		<g>
			<path class="st14" d="M704,973.6c-2.5-0.6-4.9,1-5.5,3.5l-11.1,45.4L677,984.2l5.7-9.6c2-3.3-0.4-7.5-4.2-7.5h-6.1h-6.1
				c-3.8,0-6.2,4.2-4.2,7.5l5.7,9.6l0,0l-10.3,38.3l-11.1-45.4c-0.6-2.5-3-4.1-5.5-3.5c-21.6,5.4-37.7,25-37.7,48.3
				c0,5.2,4.3,9.5,9.5,9.5h40.7c0.6,0,1.2-0.1,1.8-0.3l-0.1,0.3h34.6l-0.1-0.3c0.6,0.2,1.1,0.3,1.8,0.3h40.7c5.2,0,9.5-4.2,9.5-9.5
				C741.7,998.6,725.7,979,704,973.6z"/>
		</g>
		<g>
			<circle class="st14" cx="672.4" cy="917.3" r="39.6"/>
		</g>
	</g>
	<g>
		<g>
			<path class="st11" d="M704,973.6c-2.5-0.6-4.9,1-5.5,3.5l-11.1,45.4L677,984.2l5.7-9.6c2-3.3-0.4-7.5-4.2-7.5h-6.1h-6.1
				c-3.8,0-6.2,4.2-4.2,7.5l5.7,9.6l0,0l-10.3,38.3l-11.1-45.4c-0.6-2.5-3-4.1-5.5-3.5c-21.6,5.4-37.7,25-37.7,48.3
				c0,5.2,4.3,9.5,9.5,9.5h40.7c0.6,0,1.2-0.1,1.8-0.3l-0.1,0.3h34.6l-0.1-0.3c0.6,0.2,1.1,0.3,1.8,0.3h40.7c5.2,0,9.5-4.2,9.5-9.5
				C741.7,998.6,725.7,979,704,973.6z"/>
		</g>
		<g>
			<circle class="st11" cx="672.4" cy="917.3" r="39.6"/>
		</g>
	</g>
</g>
<g>
	<g>
		<g>
			<path class="st13" d="M1078.3,973.6c-2.5-0.6-4.9,1-5.5,3.5l-11.1,45.4l-10.3-38.3l5.7-9.6c2-3.3-0.4-7.5-4.2-7.5h-6.1h-6.1
				c-3.8,0-6.2,4.2-4.2,7.5l5.7,9.6l0,0l-10.3,38.3l-11.1-45.4c-0.6-2.5-3-4.1-5.5-3.5c-21.6,5.4-37.7,25-37.7,48.3
				c0,5.2,4.3,9.5,9.5,9.5h40.7c0.6,0,1.2-0.1,1.8-0.3l-0.1,0.3h34.6l-0.1-0.3c0.6,0.2,1.1,0.3,1.8,0.3h40.7c5.2,0,9.5-4.2,9.5-9.5
				C1116,998.6,1099.9,979,1078.3,973.6z"/>
		</g>
		<g>
			<circle class="st13" cx="1046.7" cy="917.3" r="39.6"/>
		</g>
	</g>
	<g>
		<g>
			<path class="st14" d="M1078.3,973.6c-2.5-0.6-4.9,1-5.5,3.5l-11.1,45.4l-10.3-38.3l5.7-9.6c2-3.3-0.4-7.5-4.2-7.5h-6.1h-6.1
				c-3.8,0-6.2,4.2-4.2,7.5l5.7,9.6l0,0l-10.3,38.3l-11.1-45.4c-0.6-2.5-3-4.1-5.5-3.5c-21.6,5.4-37.7,25-37.7,48.3
				c0,5.2,4.3,9.5,9.5,9.5h40.7c0.6,0,1.2-0.1,1.8-0.3l-0.1,0.3h34.6l-0.1-0.3c0.6,0.2,1.1,0.3,1.8,0.3h40.7c5.2,0,9.5-4.2,9.5-9.5
				C1116,998.6,1099.9,979,1078.3,973.6z"/>
		</g>
		<g>
			<circle class="st14" cx="1046.7" cy="917.3" r="39.6"/>
		</g>
	</g>
	<g>
		<g>
			<path class="st11" d="M1078.3,973.6c-2.5-0.6-4.9,1-5.5,3.5l-11.1,45.4l-10.3-38.3l5.7-9.6c2-3.3-0.4-7.5-4.2-7.5h-6.1h-6.1
				c-3.8,0-6.2,4.2-4.2,7.5l5.7,9.6l0,0l-10.3,38.3l-11.1-45.4c-0.6-2.5-3-4.1-5.5-3.5c-21.6,5.4-37.7,25-37.7,48.3
				c0,5.2,4.3,9.5,9.5,9.5h40.7c0.6,0,1.2-0.1,1.8-0.3l-0.1,0.3h34.6l-0.1-0.3c0.6,0.2,1.1,0.3,1.8,0.3h40.7c5.2,0,9.5-4.2,9.5-9.5
				C1116,998.6,1099.9,979,1078.3,973.6z"/>
		</g>
		<g>
			<circle class="st11" cx="1046.7" cy="917.3" r="39.6"/>
		</g>
	</g>
</g>
<path class="st15" d="M915.9,879.5c4.6,3.1,5.9,9.3,2.8,13.9L905.6,913h19.8c5.6,0,10.1,4.5,10.1,10.1s-4.5,10.1-10.1,10.1h-33.1
	l-20.1,30.2h53.2c5.6,0,10.1,4.5,10.1,10.1s-4.5,10.1-10.1,10.1h-66.7l-20.5,30.7c-3.1,4.6-9.3,5.9-13.9,2.8
	c-4.6-3.1-5.9-9.3-2.8-13.9l13.1-19.5h-19.8c-5.6,0-10.1-4.5-10.1-10.1s4.5-10.1,10.1-10.1H848l20.1-30.2h-53.2
	c-5.6,0-10.1-4.5-10.1-10.1s4.5-10.1,10.1-10.1h66.7l20.5-30.7C905,877.7,911.3,876.4,915.9,879.5z"/>
</svg>
