<?xml version="1.0" encoding="utf-8"?>
<!-- Generator: Adobe Illustrator 26.4.1, SVG Export Plug-In . SVG Version: 6.00 Build 0)  -->
<svg version="1.1" id="レイヤー_1" xmlns="http://www.w3.org/2000/svg" xmlns:xlink="http://www.w3.org/1999/xlink" x="0px"
	 y="0px" viewBox="0 0 1920 1080" style="enable-background:new 0 0 1920 1080;" xml:space="preserve">
<style type="text/css">
	.st0{fill:#FFFFFF;}
	.st1{fill:#32373C;}
	.st2{fill:#1D5EAC;}
	.st3{fill:#330000;}
	.st4{fill:#FF9A00;}
	.st5{fill:#0ACF83;}
	.st6{fill:#A259FF;}
	.st7{fill:#F24E1E;}
	.st8{fill:#FF7262;}
	.st9{fill:#1ABCFE;}
	.st10{fill:#2C65B0;}
	.st11{fill:#575757;}
	.st12{fill:#1663C7;}
	.st13{fill:none;stroke:#FFFFFF;stroke-width:36;}
	.st14{fill:#DB2C2C;}
</style>
<g id="レイヤー_2_00000012443098498977644380000005485677066099254686_">
	<rect y="0" class="st0" width="1920" height="1080"/>
</g>
<path class="st1" d="M2204.3-181.7L2288.9,50c-59.2-28.7-99.9-89.3-99.9-159.5C2188.9-135.2,2194.4-159.6,2204.3-181.7z
	 M2485.9-118.4c0-21.9-7.8-37.1-14.6-48.9c-9-14.6-17.4-27-17.4-41.6c0-16.3,12.3-31.5,29.8-31.5c0.8,0,1.5,0.1,2.3,0.2
	c-31.6-28.9-73.6-46.6-119.8-46.6c-61.9,0-116.4,31.8-148.2,79.9c4.2,0.2,8.1,0.3,11.4,0.3c18.5,0,47.3-2.3,47.3-2.3
	c9.6-0.6,10.7,13.5,1.2,14.6c0,0-9.6,1.1-20.3,1.7l64.6,192l38.8-116.3l-27.6-75.7c-9.6-0.6-18.6-1.7-18.6-1.7
	c-9.6-0.6-8.4-15.2,1.1-14.6c0,0,29.3,2.3,46.7,2.3c18.5,0,47.3-2.3,47.3-2.3c9.6-0.6,10.7,13.5,1.2,14.6c0,0-9.6,1.1-20.3,1.7
	L2454.9-2l17.7-59.1C2480.1-85.7,2485.9-103.2,2485.9-118.4L2485.9-118.4z M2369.3-94l-53.2,154.6c15.9,4.7,32.7,7.3,50.1,7.3
	c20.7,0,40.4-3.6,58.8-10.1c-0.5-0.8-0.9-1.6-1.3-2.4L2369.3-94z M2521.8-194.6c0.8,5.7,1.2,11.7,1.2,18.3c0,18-3.3,38.2-13.5,63.5
	l-54.2,156.6c52.8-30.8,88.2-87.8,88.2-153.3C2543.5-140.3,2535.6-169.3,2521.8-194.6L2521.8-194.6z M2572.9-109.5
	c0,114-92.8,206.7-206.7,206.7c-114,0-206.7-92.8-206.7-206.7c0-114,92.7-206.7,206.7-206.7C2480.1-316.2,2572.9-223.5,2572.9-109.5
	z M2563.4-109.5c0-108.8-88.5-197.2-197.2-197.2c-108.8,0-197.2,88.4-197.2,197.2s88.5,197.2,197.2,197.2
	C2475,87.7,2563.4-0.7,2563.4-109.5z"/>
<g>
	<g>
		<path class="st2" d="M720.1,699.6c11.8,0,21.5,7.7,21.5,17.4v77.4c-0.1,9.6-9.7,17.4-21.5,17.4H633l-2,23.7l-21.4-23.7H144.2
			c-11.8,0-21.5-7.7-21.5-17.4V717c0-9.5,9.6-17.4,21.5-17.4H720.1 M720.1,689.6h-576c-17.4,0-31.5,12.3-31.5,27.4v77.4
			c0,15.1,14.1,27.4,31.5,27.4h460.9l18.4,20.4c1.9,2.1,4.6,3.3,7.4,3.3c1.1,0,2.1-0.2,3.2-0.5c3.8-1.3,6.4-4.7,6.8-8.6l1.2-14.5h78
			c8,0,15.6-2.6,21.4-7.3c6.3-5.1,10-12.4,10.1-19.9c0-0.1,0-0.1,0-0.2V717C751.7,701.9,737.5,689.6,720.1,689.6L720.1,689.6z"/>
	</g>
</g>
<g>
	<path class="st2" d="M1674.6,699.6c13.8,0,25.1,7.7,25.1,17.4v77.4c-0.2,9.6-11.3,17.4-25.1,17.4h-545.8l-29.2,23.7l1.9-23.7h-98.8
		c-13.8,0-25.1-7.7-25.1-17.4V717c0-9.5,11.2-17.4,25.1-17.4H1674.6 M1674.6,689.6h-672c-19.7,0-35.1,12-35.1,27.4v77.4
		c0,15.3,15.4,27.4,35.1,27.4h88l-1,12.9c-0.3,4,1.8,7.8,5.3,9.6c1.5,0.8,3.1,1.2,4.7,1.2c2.2,0,4.5-0.8,6.3-2.2l26.5-21.4h542.3
		c19.4,0,34.8-11.9,35.1-27.2c0-0.1,0-0.1,0-0.2V717C1709.7,701.6,1694.3,689.6,1674.6,689.6L1674.6,689.6z"/>
</g>
<path class="st3" d="M402.4,905.7h30.4c4.6,0,8.3,3.7,8.3,8.3v29.2c0,4.6-3.7,8.3-8.3,8.3h-30.4c-4.6,0-8.3-3.7-8.3-8.3v-29.2
	C394,909.5,397.8,905.7,402.4,905.7z"/>
<path class="st4" d="M416.8,933.2h-7.3l-1.5,4.6c0,0.2-0.2,0.3-0.4,0.3h-3.7c-0.2,0-0.3-0.1-0.2-0.4l6.3-18.2
	c0.1-0.2,0.1-0.4,0.2-0.6c0.1-0.4,0.1-0.8,0.1-1.3c0-0.1,0.1-0.2,0.2-0.2h5.1c0.2,0,0.2,0.1,0.3,0.2l7.2,20.2c0.1,0.2,0,0.3-0.2,0.3
	h-4.1c-0.1,0-0.3-0.1-0.3-0.2L416.8,933.2z M410.6,929.2h5c-0.1-0.4-0.3-0.9-0.5-1.4c-0.2-0.5-0.4-1.1-0.5-1.7
	c-0.2-0.6-0.4-1.2-0.6-1.8s-0.4-1.2-0.5-1.7c-0.2-0.5-0.3-1.1-0.4-1.5h0c-0.2,0.8-0.4,1.7-0.7,2.5c-0.3,0.9-0.6,1.9-0.9,2.9
	C411.2,927.5,410.9,928.4,410.6,929.2z M427.4,920.8c-0.6,0-1.3-0.2-1.7-0.7c-0.5-0.5-0.7-1.1-0.7-1.8c0-0.7,0.2-1.3,0.7-1.7
	c0.5-0.5,1.1-0.7,1.7-0.7c0.8,0,1.4,0.2,1.8,0.7c0.4,0.5,0.7,1.1,0.6,1.7c0,0.7-0.2,1.3-0.7,1.8C428.7,920.6,428,920.9,427.4,920.8
	L427.4,920.8z M425.2,937.8v-15.1c0-0.2,0.1-0.3,0.3-0.3h3.9c0.2,0,0.3,0.1,0.3,0.3v15.1c0,0.2-0.1,0.3-0.3,0.3h-3.8
	C425.3,938.2,425.2,938,425.2,937.8z"/>
<g>
	<path id="path0_fill" class="st5" d="M470.8,971.6c5.8,0,10.4-4.7,10.4-10.4v-10.4h-10.4c-5.8,0-10.4,4.7-10.4,10.4
		S465.1,971.6,470.8,971.6z"/>
	<path id="path1_fill" class="st6" d="M460.4,940.3c0-5.8,4.7-10.4,10.4-10.4h10.4v20.8h-10.4C465.1,950.7,460.4,946.1,460.4,940.3z
		"/>
	<path id="path1_fill_1_" class="st7" d="M460.4,919.5c0-5.8,4.7-10.4,10.4-10.4h10.4v20.8h-10.4
		C465.1,929.9,460.4,925.2,460.4,919.5z"/>
	<path id="path2_fill" class="st8" d="M481.2,909.1h10.4c5.8,0,10.4,4.7,10.4,10.4s-4.7,10.4-10.4,10.4h-10.4V909.1z"/>
	<path id="path3_fill" class="st9" d="M502.1,940.3c0,5.8-4.7,10.4-10.4,10.4c-5.8,0-10.4-4.7-10.4-10.4s4.7-10.4,10.4-10.4
		C497.4,929.9,502.1,934.6,502.1,940.3z"/>
</g>
<g>
	<path class="st10" d="M192.7,771.9c3.5,5.3,4.3,6.4,6.4,8.9h-15.6c-0.8-1.9-2.6-5.1-4.1-7.6l-9.3-14.9l-6.1,6.1v7.6
		c0,3.7,0.1,5.7,0.5,8.9h-12.7c0.4-3.1,0.5-5.3,0.5-8.9v-32.2c0-3.7-0.1-6-0.5-8.9h12.7c-0.4,3.1-0.5,5.1-0.5,8.9v10.6l11.9-12.8
		c2.3-2.5,3.9-4.5,5.2-6.7h16.2c-1.1,1.1-1.5,1.6-2.3,2.4c-3.1,3.1-3.1,3.1-4.2,4.2l-12.5,13.1L192.7,771.9z"/>
	<path class="st10" d="M201.3,780.8c0.4-2.8,0.5-5.3,0.5-9.1v-18.5c0-4.1-0.1-6.7-0.5-9.1h11.9v2.5c0,0.4-0.1,1.3-0.1,1.7
		c3.8-3.6,7.4-5.1,12.4-5.1c4.1,0,7.4,1.1,9.7,3.4c2.4,2.4,3.4,5.3,3.4,10.1v15.1c0,3.5,0.2,6.5,0.5,9h-12.5
		c0.4-2.9,0.5-5.4,0.5-9.1v-12.3c0-2.4-0.2-3.4-1-4.4c-0.8-1.1-2.2-1.7-4-1.7c-3.4,0-6.4,2.1-8.9,6.3v12.1c0,3.4,0.1,5.9,0.5,9.1
		H201.3z"/>
	<path class="st10" d="M242.2,762.5c0-12,7.7-19.6,19.8-19.6c12.1,0,19.8,7.6,19.8,19.5c0,11.9-7.9,19.9-19.9,19.9
		C249.9,782.2,242.2,774.5,242.2,762.5z M253.7,762.4c0,6.7,3.1,10.7,8.3,10.7s8.2-3.9,8.2-10.6c0-6.7-3.1-10.7-8.2-10.7
		C256.8,751.8,253.7,755.8,253.7,762.4z"/>
	<path class="st10" d="M316.3,780.8c-0.3-1.7-0.8-3.5-1.9-7l-3.7-12c-0.3-1-0.5-1.8-0.7-2.3c-0.4,1.4-0.4,1.5-0.7,2.3l-3.7,12
		c-0.8,2.6-1.6,5.6-1.9,7h-10.2c-0.4-2.2-0.8-3.8-1.8-7l-6.7-21.8c-0.7-2.1-1.6-4.7-2.7-7.8h12.9c0.1,2.1,0.5,4.3,1.1,7.1l2.6,10.7
		c0.3,1.4,0.5,2.4,0.6,2.9c0.7-2.3,0.7-2.3,0.8-2.9l3.4-10.9c1.6-5.6,1.6-5.6,1.9-6.9h8.8c0.2,1.2,0.9,4.1,1.8,6.9l3.5,11.3
		c0.1,0.4,0.5,1.7,0.7,2.5c0.2-0.9,0.2-0.9,0.5-2.5l2.5-10.6c0.7-3.1,1.1-5.6,1.3-7.6h12.9c-0.9,2.3-1.8,5-2.7,7.8l-6.7,21.8
		c-1.1,3.5-1.4,5-1.8,7H316.3z"/>
	<path class="st10" d="M358.2,780.8c0.4-2.8,0.5-5.3,0.5-9.1V740c0-4.1-0.1-6.7-0.5-9.1h12.4c-0.4,2.6-0.5,4.8-0.5,9.1v6.4
		c0,0.5-0.1,1.4-0.1,2c3.6-3.5,7.4-5,12.5-5c4.1,0,7.3,1.1,9.5,3.4c2.4,2.4,3.4,5.3,3.4,10.1v15.1c0,3.5,0.2,6.5,0.5,9h-12.5
		c0.4-2.9,0.5-5.4,0.5-9.1v-12.3c0-2.4-0.2-3.5-1-4.5c-0.8-1.1-2.2-1.6-3.8-1.6c-3.4,0-6.7,2.3-9.1,6.2v12.2c0,3.4,0.1,5.9,0.5,9.1
		H358.2z"/>
	<path class="st10" d="M399.2,762.5c0-12,7.7-19.6,19.8-19.6c12.1,0,19.8,7.6,19.8,19.5c0,11.9-7.9,19.9-19.9,19.9
		C406.9,782.2,399.2,774.5,399.2,762.5z M410.7,762.4c0,6.7,3.1,10.7,8.3,10.7s8.2-3.9,8.2-10.6c0-6.7-3.1-10.7-8.2-10.7
		C413.8,751.8,410.7,755.8,410.7,762.4z"/>
	<path class="st10" d="M473.2,780.8c-0.3-1.7-0.8-3.5-1.9-7l-3.7-12c-0.3-1-0.5-1.8-0.7-2.3c-0.4,1.4-0.4,1.5-0.7,2.3l-3.7,12
		c-0.8,2.6-1.6,5.6-1.9,7h-10.2c-0.4-2.2-0.8-3.8-1.8-7l-6.7-21.8c-0.7-2.1-1.6-4.7-2.7-7.8h12.9c0.1,2.1,0.5,4.3,1.1,7.1L456,762
		c0.3,1.4,0.5,2.4,0.6,2.9c0.7-2.3,0.7-2.3,0.8-2.9l3.4-10.9c1.6-5.6,1.6-5.6,1.9-6.9h8.8c0.2,1.2,0.9,4.1,1.8,6.9l3.5,11.3
		c0.1,0.4,0.5,1.7,0.7,2.5c0.2-0.9,0.2-0.9,0.5-2.5l2.5-10.6c0.7-3.1,1.1-5.6,1.3-7.6h12.9c-0.9,2.3-1.8,5-2.7,7.8l-6.7,21.8
		c-1.1,3.5-1.4,5-1.8,7H473.2z"/>
	<path class="st10" d="M519.9,743c0-3-0.1-5.4-0.5-8.2h12.2c-0.3,2.5-0.5,5.3-0.5,8.2v1.3h2.2c2.6,0,4-0.1,5.9-0.3v10
		c-1.8-0.2-3.4-0.4-5.5-0.4h-2.5v15.4c0,1.7,0.3,2.5,1.1,3.1c0.7,0.4,1.6,0.7,2.8,0.7c1.6,0,2.7-0.3,4.2-1.1l0.9,9.1
		c-2.7,0.8-5,1.2-8.3,1.2c-4.1,0-6.9-0.7-8.8-2.1c-2.3-1.7-3.1-3.8-3.1-7.9v-18.4h-2.3c-1.9,0-3.5,0.1-5.2,0.4v-10
		c1.7,0.2,3.2,0.4,5.3,0.4h2.2V743z"/>
	<path class="st10" d="M540.9,762.5c0-12,7.7-19.6,19.8-19.6c12.1,0,19.8,7.6,19.8,19.5c0,11.9-7.9,19.9-19.9,19.9
		C548.5,782.2,540.9,774.5,540.9,762.5z M552.3,762.4c0,6.7,3.1,10.7,8.3,10.7s8.2-3.9,8.2-10.6c0-6.7-3.1-10.7-8.2-10.7
		C555.4,751.8,552.3,755.8,552.3,762.4z"/>
	<path class="st10" d="M640,744.2c-0.4,2.8-0.5,5.3-0.5,9v18.5c0,4.1,0.1,6.6,0.5,9h-11.9v-2.6c0-0.3,0-1.2,0.1-1.6
		c-4,3.7-7.4,5.2-12.5,5.2c-4,0-7.3-1.1-9.5-3.4c-2.4-2.4-3.4-5.3-3.4-10.1v-15.1c0-3.5-0.2-6.5-0.5-9h12.5c-0.4,2.9-0.5,5.4-0.5,9
		v12.3c0,2.5,0.2,3.5,1,4.5c0.8,1.1,2.2,1.7,3.9,1.7c3.3,0,6.7-2.3,9-6.2v-12.3c0-3.4-0.1-5.9-0.5-9H640z"/>
	<path class="st10" d="M655.3,768.6c0.6,3.1,2.6,4.5,6.7,4.5c3.6,0,5.6-1,5.6-2.9c0-0.9-0.5-1.7-1.3-2.2c-0.8-0.5-1.6-0.7-4.9-1.4
		c-4.6-0.9-6.9-1.5-8.9-2.2c-2.9-1.1-4.9-2.5-6-4.3c-1-1.6-1.5-3.7-1.5-5.7c0-7.2,6.1-11.6,16.1-11.6c5.7,0,10,1.3,12.8,3.8
		c2,1.7,2.9,3.5,3.9,6.8l-11.6,1.3c-0.3-2.5-1.8-3.5-5-3.5c-3.1,0-5,1-5,2.6c0,1.6,1.3,2.2,7.2,3.5c5.9,1.3,7.7,1.8,9.8,2.9
		c3.9,1.9,5.8,4.9,5.8,9.2c0,3.2-1.1,6.1-3.1,8c-2.9,2.9-7.8,4.4-14.2,4.4c-7.6,0-12.9-2-15.8-6c-1.2-1.7-1.8-3.1-2.4-6L655.3,768.6
		z"/>
	<path class="st10" d="M692.1,765.9c0.6,4.9,3.4,7.4,8.2,7.4c2.4,0,4.5-0.8,6.1-2.2c0.9-0.8,1.3-1.5,1.8-3.1l10.4,2.9
		c-1.4,3.1-2.3,4.5-4,6.2c-3.4,3.4-8.2,5.1-14.2,5.1c-5.9,0-10.5-1.7-13.9-5.1c-3.5-3.6-5.5-8.7-5.5-14.6c0-11.9,7.6-19.7,19.1-19.7
		c9.4,0,15.9,5.1,18,14c0.5,1.9,0.7,4.4,0.9,7.9c0,0.2,0,0.6,0.1,1.2H692.1z M707.7,757.6c-0.8-3.8-3.4-5.9-7.6-5.9
		c-4.3,0-6.8,1.9-7.9,5.9H707.7z"/>
</g>
<g>
	<path class="st10" d="M1046.9,749.4c-1.1-5.5-4.3-8.2-9.5-8.2c-7.3,0-11.6,5.8-11.6,15.7c0,9.8,4.4,15.7,11.9,15.7
		c3.3,0,6.1-1.4,7.9-3.8c1-1.4,1.4-2.6,1.8-5.2l12.5,1.9c-1.1,5.1-2.5,8-5,11c-3.7,4.3-9.5,6.5-16.8,6.5c-7.3,0-13.5-2.3-17.8-6.6
		c-4.4-4.5-7-11.5-7-19.6c0-8.2,2.5-15.1,7.3-19.7c4.1-4,10.2-6.2,17.2-6.2c7.7,0,13.8,2.6,17.7,7.9c1.9,2.5,2.9,4.7,3.7,8.2
		L1046.9,749.4z"/>
	<path class="st10" d="M1087.6,756.8c0-2.9-1.7-4.2-5.7-4.2c-3.8,0-5.9,1.3-6.8,4.2l-11.5-1.9c1.2-3.5,2.5-5.5,5-7.3
		c3.2-2.3,7.7-3.4,13.5-3.4c4.4,0,8.8,0.8,11.1,2.1c3.8,2.1,5.5,5.4,5.5,10.8v16.2c0,3.7,0.1,5.8,0.4,8.5h-11.6v-2.8
		c-3.4,2.6-6.7,3.6-11.6,3.6c-4.6,0-8-1.1-10.4-3.3c-2.2-2-3.3-4.9-3.3-8.2c0-3.8,1.5-6.8,4.4-8.8c3.1-2.2,7.1-3.4,12.5-3.9
		c2.3-0.2,4.1-0.3,8.5-0.4V756.8z M1087.6,765.9c-5.3,0.1-7.9,0.4-10.4,1.2c-2.2,0.7-3.5,2.2-3.5,4c0,2.2,1.8,3.4,4.9,3.4
		c2.5,0,5.2-0.9,6.8-2.3c1.4-1.2,2.2-2.8,2.2-4.6V765.9z"/>
	<path class="st10" d="M1104.1,781.9c0.4-2.8,0.5-5.3,0.5-9.1v-18.5c0-4.1-0.1-6.7-0.5-9.1h11.9v2.5c0,0.4-0.1,1.3-0.1,1.7
		c3.8-3.6,7.4-5.1,12.4-5.1c4.1,0,7.4,1.1,9.7,3.4c2.4,2.4,3.4,5.3,3.4,10.1v15.1c0,3.5,0.2,6.5,0.5,9h-12.5
		c0.4-2.9,0.5-5.4,0.5-9.1v-12.3c0-2.4-0.2-3.4-1-4.4c-0.8-1.1-2.2-1.7-4-1.7c-3.4,0-6.4,2.1-8.9,6.3v12.1c0,3.4,0.1,5.9,0.5,9.1
		H1104.1z"/>
	<path class="st10" d="M1189.7,758.6c-0.5-1.8-0.9-2.6-1.7-3.5c-1.2-1.4-2.9-2.1-5-2.1c-4.9,0-7.7,3.8-7.7,10.4
		c0,6.5,3.1,10.7,7.9,10.7c2.3,0,4.5-1,5.7-2.6c0.5-0.8,0.8-1.4,1.1-2.8l11,1.7c-0.7,2.6-1.4,4.2-2.5,5.9c-3,4.4-8.5,6.9-15.4,6.9
		c-5.8,0-10.7-1.8-14-5.2c-3.5-3.4-5.4-8.7-5.4-14.6c0-12,7.6-19.7,19.3-19.7c9.2,0,15.7,4.6,17.6,12.5L1189.7,758.6z"/>
	<path class="st10" d="M1231.1,756.1c-2.8-0.8-4.3-1.1-6.1-1.1c-3.1,0-5.4,1.1-7.1,3.2c-1.1,1.4-1.6,2.7-1.8,5.3v9.4
		c0,3.8,0.1,6.1,0.5,9h-12.4c0.4-3,0.5-5.2,0.5-9.1v-18.5c0-4.4-0.1-6.5-0.5-9.1h11.9v4.7c2.9-3.8,6.5-5.5,12-5.5
		c1.9,0,3.1,0.1,5.9,0.7L1231.1,756.1z"/>
	<path class="st10" d="M1245.5,767c0.6,4.9,3.4,7.4,8.2,7.4c2.4,0,4.5-0.8,6.1-2.2c0.9-0.8,1.3-1.5,1.8-3.1l10.4,2.9
		c-1.4,3.1-2.3,4.5-4,6.2c-3.4,3.4-8.2,5.1-14.2,5.1c-5.9,0-10.5-1.7-13.9-5.1c-3.5-3.6-5.5-8.7-5.5-14.6c0-11.9,7.6-19.7,19.1-19.7
		c9.4,0,15.9,5.1,18,14c0.5,1.9,0.7,4.4,0.9,7.9c0,0.2,0,0.6,0.1,1.2H1245.5z M1261.1,758.7c-0.8-3.8-3.4-5.9-7.6-5.9
		c-4.3,0-6.8,1.9-7.9,5.9H1261.1z"/>
	<path class="st10" d="M1299.9,756.8c0-2.9-1.7-4.2-5.7-4.2c-3.8,0-5.9,1.3-6.8,4.2L1276,755c1.2-3.5,2.5-5.5,5-7.3
		c3.2-2.3,7.7-3.4,13.5-3.4c4.4,0,8.8,0.8,11.1,2.1c3.8,2.1,5.5,5.4,5.5,10.8v16.2c0,3.7,0.1,5.8,0.4,8.5h-11.6v-2.8
		c-3.4,2.6-6.7,3.6-11.6,3.6c-4.6,0-8-1.1-10.4-3.3c-2.2-2-3.3-4.9-3.3-8.2c0-3.8,1.5-6.8,4.4-8.8c3.1-2.2,7.1-3.4,12.5-3.9
		c2.3-0.2,4.1-0.3,8.5-0.4V756.8z M1299.9,765.9c-5.3,0.1-7.9,0.4-10.4,1.2c-2.2,0.7-3.5,2.2-3.5,4c0,2.2,1.8,3.4,4.9,3.4
		c2.5,0,5.2-0.9,6.8-2.3c1.4-1.2,2.2-2.8,2.2-4.6V765.9z"/>
	<path class="st10" d="M1321.1,744c0-3-0.1-5.4-0.5-8.2h12.2c-0.3,2.5-0.5,5.3-0.5,8.2v1.3h2.2c2.6,0,4-0.1,5.9-0.3v10
		c-1.8-0.2-3.4-0.4-5.5-0.4h-2.5V770c0,1.7,0.3,2.5,1.1,3.1c0.7,0.4,1.6,0.7,2.8,0.7c1.6,0,2.7-0.3,4.2-1.1l0.9,9.1
		c-2.7,0.8-5,1.2-8.3,1.2c-4.1,0-6.9-0.7-8.8-2.1c-2.3-1.7-3.1-3.8-3.1-7.9v-18.4h-2.3c-1.9,0-3.5,0.1-5.2,0.4v-10
		c1.7,0.2,3.2,0.4,5.3,0.4h2.2V744z"/>
	<path class="st10" d="M1353.1,767c0.6,4.9,3.4,7.4,8.2,7.4c2.4,0,4.5-0.8,6.1-2.2c0.9-0.8,1.3-1.5,1.8-3.1l10.4,2.9
		c-1.4,3.1-2.3,4.5-4,6.2c-3.4,3.4-8.2,5.1-14.2,5.1c-5.9,0-10.5-1.7-13.9-5.1c-3.5-3.6-5.5-8.7-5.5-14.6c0-11.9,7.6-19.7,19.1-19.7
		c9.4,0,15.9,5.1,18,14c0.5,1.9,0.7,4.4,0.9,7.9c0,0.2,0,0.6,0.1,1.2H1353.1z M1368.7,758.7c-0.8-3.8-3.4-5.9-7.6-5.9
		c-4.3,0-6.8,1.9-7.9,5.9H1368.7z"/>
	<path class="st10" d="M1429.9,780c0-0.4,0-0.8,0.1-1.3c-4,3.2-7.1,4.3-12.1,4.3c-10.9,0-17.5-7.3-17.5-19.4
		c0-6.2,1.8-11.2,5.2-14.6c3.1-3.1,7.3-4.7,12.2-4.7c4.9,0,8.3,1.3,12.3,4.4c-0.1-0.9-0.1-1.4-0.1-2.3v-5c0-4.2-0.1-6.8-0.5-9.4
		h12.3c-0.4,2.5-0.5,5.4-0.5,9.4v31.1c0,4,0.1,6.5,0.5,9.4h-11.8V780z M1412,763.6c0,3.4,1,6.2,2.8,7.9c1.4,1.4,3.6,2.3,5.8,2.3
		c5.3,0,9.2-4.4,9.2-10.4c0-5.8-3.8-10-9.3-10C1415.3,753.4,1412,757.3,1412,763.6z"/>
	<path class="st10" d="M1456,767c0.6,4.9,3.4,7.4,8.2,7.4c2.4,0,4.5-0.8,6.1-2.2c0.9-0.8,1.3-1.5,1.8-3.1l10.4,2.9
		c-1.4,3.1-2.3,4.5-4,6.2c-3.4,3.4-8.2,5.1-14.2,5.1c-5.9,0-10.5-1.7-13.9-5.1c-3.5-3.6-5.5-8.7-5.5-14.6c0-11.9,7.6-19.7,19.1-19.7
		c9.4,0,15.9,5.1,18,14c0.5,1.9,0.7,4.4,0.9,7.9c0,0.2,0,0.6,0.1,1.2H1456z M1471.6,758.7c-0.8-3.8-3.4-5.9-7.6-5.9
		c-4.3,0-6.8,1.9-7.9,5.9H1471.6z"/>
	<path class="st10" d="M1496.8,769.7c0.6,3.1,2.6,4.5,6.7,4.5c3.6,0,5.6-1,5.6-2.9c0-0.9-0.5-1.7-1.3-2.2c-0.8-0.5-1.6-0.7-4.9-1.4
		c-4.6-0.9-6.9-1.5-8.9-2.2c-2.9-1.1-4.9-2.5-6-4.3c-1-1.6-1.5-3.7-1.5-5.7c0-7.2,6.1-11.6,16.1-11.6c5.7,0,10,1.3,12.8,3.8
		c2,1.7,2.9,3.5,3.9,6.8l-11.6,1.3c-0.3-2.5-1.8-3.5-5-3.5c-3.1,0-5,1-5,2.6c0,1.6,1.3,2.2,7.2,3.5c5.9,1.3,7.7,1.8,9.8,2.9
		c3.9,1.9,5.8,4.9,5.8,9.2c0,3.2-1.1,6.1-3.1,8c-2.9,2.9-7.8,4.4-14.2,4.4c-7.6,0-12.9-2-15.8-6c-1.2-1.7-1.8-3.1-2.4-6
		L1496.8,769.7z"/>
	<path class="st10" d="M1536.6,745.3c-0.4,2.5-0.5,4.9-0.5,9.1v18.5c0,3.2,0.2,6.5,0.5,9.1h-12.5c0.4-2.9,0.5-5.2,0.5-9.1v-18.5
		c0-3.9-0.1-6.4-0.5-9.1H1536.6z M1536.4,732v9h-12.2v-9H1536.4z"/>
	<path class="st10" d="M1549.5,780.9c2.1,2.7,5.2,4.1,9.1,4.1c3.3,0,5.9-0.9,7.3-2.6c1.3-1.4,1.8-3.2,1.9-6.4c-3.1,2.8-6.3,4-10.9,4
		c-10.4,0-17-6.8-17-17.8c0-10.7,6.8-17.7,17-17.7c4.4,0,7.7,1,10.9,3.5c0-0.5,0-0.7,0-1.3v-1.3h11.8c-0.4,2.7-0.5,4.8-0.5,8.3v21.1
		c0,7.2-2,12.1-6.2,15c-3.2,2.3-8.3,3.5-14.3,3.5c-8.2,0-13.6-2-17.8-6.7L1549.5,780.9z M1559.2,771.2c4.9,0,8.5-3.8,8.5-9.1
		s-3.5-9.2-8.4-9.2c-4.8,0-7.9,3.7-7.9,9.2C1551.3,767.7,1554.4,771.2,1559.2,771.2z"/>
	<path class="st10" d="M1584.5,781.9c0.4-2.8,0.5-5.3,0.5-9.1v-18.5c0-4.1-0.1-6.7-0.5-9.1h11.9v2.5c0,0.4-0.1,1.3-0.1,1.7
		c3.8-3.6,7.4-5.1,12.4-5.1c4.1,0,7.4,1.1,9.7,3.4c2.4,2.4,3.4,5.3,3.4,10.1v15.1c0,3.5,0.2,6.5,0.5,9h-12.5
		c0.4-2.9,0.5-5.4,0.5-9.1v-12.3c0-2.4-0.2-3.4-1-4.4c-0.8-1.1-2.2-1.7-4-1.7c-3.4,0-6.4,2.1-8.9,6.3v12.1c0,3.4,0.1,5.9,0.5,9.1
		H1584.5z"/>
	<path class="st10" d="M1637.5,769.7c0.6,3.1,2.6,4.5,6.7,4.5c3.6,0,5.6-1,5.6-2.9c0-0.9-0.5-1.7-1.3-2.2c-0.8-0.5-1.6-0.7-4.9-1.4
		c-4.6-0.9-6.9-1.5-8.9-2.2c-2.9-1.1-4.9-2.5-6-4.3c-1-1.6-1.5-3.7-1.5-5.7c0-7.2,6.1-11.6,16.1-11.6c5.7,0,10,1.3,12.8,3.8
		c2,1.7,2.9,3.5,3.9,6.8l-11.6,1.3c-0.3-2.5-1.8-3.5-5-3.5c-3.1,0-5,1-5,2.6c0,1.6,1.3,2.2,7.2,3.5c5.9,1.3,7.7,1.8,9.8,2.9
		c3.9,1.9,5.8,4.9,5.8,9.2c0,3.2-1.1,6.1-3.1,8c-2.9,2.9-7.8,4.4-14.2,4.4c-7.6,0-12.9-2-15.8-6c-1.2-1.7-1.8-3.1-2.4-6
		L1637.5,769.7z"/>
</g>
<text transform="matrix(1 0 0 1 127.9841 1164.5139)" class="st10" style="font-family:'HiraKakuStdN-W8-83pv-RKSJ-H'; font-size:60px; letter-spacing:-1;">Know how to use</text>
<text transform="matrix(1 0 0 1 984.1819 1159.6826)" class="st10" style="font-family:'HiraKakuStdN-W8-83pv-RKSJ-H'; font-size:60px; letter-spacing:-1;">Can create designs</text>
<g>
	<path class="st11" d="M1169.7,958.5c0.2,1.9,0.6,2.8,1.3,3.8c1.2,1.6,3.4,2.4,6.1,2.4c4,0,6.4-1.8,6.4-4.7c0-1.6-0.8-3-2.2-3.6
		c-1.1-0.5-2.4-0.9-7.8-2.1c-4.8-1-6.4-1.7-8.3-3c-3.3-2.3-5-5.7-5-9.9c0-8,6.4-13,16.6-13c6.6,0,11.6,2,14.4,5.9
		c1.3,1.7,1.9,3.3,2.6,6.2l-11,1.2c-0.6-3.4-2.5-4.8-6.4-4.8c-3.2,0-5.5,1.7-5.5,4.1c0,1.4,0.8,2.5,2.4,3.3c1,0.5,1,0.5,7.1,1.7
		c3.9,0.8,6.4,1.7,8.4,2.9c3.7,2.3,5.6,5.8,5.6,10.5c0,3.9-1.2,7.2-3.6,9.5c-3,2.9-7.5,4.4-13.6,4.4c-4.4,0-8.7-0.9-11.5-2.5
		c-2.6-1.4-4.5-3.7-5.6-6.6c-0.5-1.2-0.8-2.4-1.1-4.8L1169.7,958.5z"/>
	<path class="st11" d="M1218.7,950.9c0-2.5-1.5-3.6-4.9-3.6c-3.3,0-5.1,1.1-5.8,3.6l-9.9-1.6c1-3.1,2.2-4.7,4.3-6.3
		c2.8-2,6.6-2.9,11.6-2.9c3.8,0,7.5,0.7,9.6,1.8c3.3,1.8,4.8,4.7,4.8,9.3v14c0,3.2,0.1,5,0.4,7.3h-10v-2.4c-2.9,2.2-5.8,3.1-10,3.1
		c-3.9,0-6.9-0.9-8.9-2.8c-1.9-1.7-2.8-4.2-2.8-7c0-3.3,1.3-5.8,3.8-7.5c2.6-1.9,6.1-2.9,10.8-3.4c2-0.2,3.6-0.3,7.3-0.4V950.9z
		 M1218.7,958.7c-4.6,0.1-6.8,0.4-8.9,1c-1.9,0.6-3,1.9-3,3.4c0,1.9,1.6,2.9,4.2,2.9c2.1,0,4.4-0.8,5.8-2c1.2-1,1.9-2.4,1.9-4V958.7
		z"/>
	<path class="st11" d="M1232.9,972.5c0.3-2.4,0.4-4.6,0.4-7.8v-15.9c0-3.9-0.1-5.8-0.4-7.8h10.2v2.2c0,0.2,0,0.2-0.1,0.7
		c0,0,0,0.1,0,0.3c0,0.1,0,0.2,0,0.3c2.6-2.9,5.8-4.2,9.9-4.2c2.7,0,4.9,0.6,6.6,1.9c0.9,0.7,1.4,1.3,2.1,2.6
		c3.2-3.2,6.4-4.5,10.9-4.5c7.4,0,11.2,4,11.2,11.8v12.8c0,3.2,0.1,5.3,0.4,7.8h-10.8c0.3-2.4,0.4-4.3,0.4-7.8v-10.7
		c0-3.9-1.1-5.4-4.1-5.4c-2.6,0-5,2.1-6.3,5.5v10.5c0,3.1,0.1,5.3,0.4,7.8h-10.8c0.3-2.3,0.4-4.5,0.4-7.8v-10.7c0-2.2-0.2-3.2-0.9-4
		c-0.6-0.8-1.6-1.3-2.8-1.3c-2.8,0-5.2,2-6.6,5.5v10.4c0,3.3,0.1,5.3,0.4,7.8H1232.9z"/>
	<path class="st11" d="M1296.4,959.6c0.5,4.2,2.9,6.4,7,6.4c2.1,0,3.9-0.7,5.2-1.9c0.8-0.7,1.1-1.3,1.6-2.6l9,2.5
		c-1.2,2.7-2,3.9-3.4,5.3c-2.9,2.9-7.1,4.4-12.2,4.4c-5.1,0-9-1.4-12-4.4c-3.1-3.1-4.7-7.5-4.7-12.6c0-10.2,6.6-17,16.4-17
		c8.1,0,13.7,4.4,15.5,12.1c0.4,1.7,0.6,3.8,0.8,6.8c0,0.2,0,0.5,0.1,1H1296.4z M1309.9,952.5c-0.7-3.3-2.9-5.1-6.5-5.1
		c-3.7,0-5.9,1.7-6.8,5.1H1309.9z"/>
	<path class="st11" d="M1341.9,948.9c-2.4,0-4,0.1-5.8,0.4v-8.7c1.4,0.2,3.8,0.4,5.8,0.4h1.4v-2.4c0-6.8,3.9-10,12.3-10
		c2.9,0,5,0.3,7.9,1.1l-1.6,7.6c-1.6-0.9-3.2-1.3-5.1-1.3c-2.5,0-3.5,1-3.5,3.7v1.3h1.5c2.2,0,5-0.2,6.9-0.4v8.7
		c-2.2-0.3-3.9-0.4-6.8-0.4h-1.6v15.8c0,3.6,0.1,5.3,0.4,7.8h-10.8c0.3-2.5,0.4-4.4,0.4-7.8v-15.8H1341.9z"/>
	<path class="st11" d="M1364,956.7c0-10.3,6.6-16.9,17.1-16.9c10.4,0,17.1,6.6,17.1,16.8c0,10.3-6.8,17.1-17.1,17.1
		C1370.6,973.7,1364,967.1,1364,956.7z M1373.9,956.7c0,5.7,2.7,9.2,7.2,9.2s7.1-3.4,7.1-9.1c0-5.8-2.6-9.2-7-9.2
		C1376.5,947.5,1373.9,951,1373.9,956.7z"/>
	<path class="st11" d="M1424.3,950.3c-2.4-0.7-3.7-1-5.3-1c-2.6,0-4.7,0.9-6.2,2.8c-1,1.2-1.3,2.3-1.6,4.6v8.1
		c0,3.3,0.1,5.3,0.4,7.8H1401c0.3-2.6,0.4-4.4,0.4-7.8v-15.9c0-3.8-0.1-5.6-0.4-7.8h10.3v4.1c2.5-3.3,5.6-4.7,10.3-4.7
		c1.7,0,2.7,0.1,5.1,0.6L1424.3,950.3z"/>
	<path class="st11" d="M1476.9,972.5c-0.2-1.7-0.6-3.5-1.1-5.5l-3.9-15.2c-0.5-2-0.9-4.4-1.4-7.8c-0.3,2.1-0.9,5.4-1.6,7.8
		l-3.8,15.3c-0.7,2.6-1,4.1-1.1,5.5h-10.3c-0.3-1.5-0.5-2.6-1.3-5.6l-8.3-31c-0.7-2.6-1.4-5-2-6.4h11.8c0.1,1.9,0.3,3.5,0.7,5.7
		l3.3,15.7c0.2,0.8,0.5,3.2,1.1,7.3c0.8-4.3,1.1-6.2,1.4-7.3l4.1-16c0.6-2.3,0.9-3.9,1.1-5.4h9.2c0.2,1.3,0.5,2.8,1.2,5.2l4.2,15.9
		c0.4,1.7,0.8,3.4,1.4,7.6c0.1-1,0.1-1,0.4-3.2c0.2-1.1,0.5-3.6,0.7-4.4l3.3-15.4c0.5-2.4,0.7-3.9,0.8-5.7h11.7
		c-0.5,1.4-1.2,3.8-1.9,6.4l-8.3,31c-0.7,2.4-1.1,4.4-1.3,5.6H1476.9z"/>
	<path class="st11" d="M1499.3,956.7c0-10.3,6.6-16.9,17.1-16.9c10.4,0,17.1,6.6,17.1,16.8c0,10.3-6.8,17.1-17.1,17.1
		C1505.9,973.7,1499.3,967.1,1499.3,956.7z M1509.2,956.7c0,5.7,2.7,9.2,7.2,9.2s7.1-3.4,7.1-9.1c0-5.8-2.6-9.2-7-9.2
		C1511.8,947.5,1509.2,951,1509.2,956.7z"/>
	<path class="st11" d="M1559.6,950.3c-2.4-0.7-3.7-1-5.3-1c-2.6,0-4.7,0.9-6.2,2.8c-1,1.2-1.3,2.3-1.6,4.6v8.1
		c0,3.3,0.1,5.3,0.4,7.8h-10.7c0.3-2.6,0.4-4.4,0.4-7.8v-15.9c0-3.8-0.1-5.6-0.4-7.8h10.3v4.1c2.5-3.3,5.6-4.7,10.3-4.7
		c1.7,0,2.7,0.1,5.1,0.6L1559.6,950.3z"/>
	<path class="st11" d="M1588,970.9c0-0.3,0-0.7,0.1-1.1c-3.5,2.8-6.1,3.7-10.4,3.7c-9.4,0-15.1-6.3-15.1-16.8
		c0-5.4,1.6-9.7,4.4-12.6c2.6-2.6,6.3-4,10.5-4c4.2,0,7.2,1.1,10.6,3.8c-0.1-0.8-0.1-1.2-0.1-2v-4.3c0-3.6-0.1-5.8-0.4-8.1h10.6
		c-0.3,2.2-0.4,4.7-0.4,8.1v26.8c0,3.5,0.1,5.6,0.4,8.1H1588V970.9z M1572.6,956.8c0,2.9,0.8,5.3,2.4,6.8c1.2,1.2,3.1,2,5,2
		c4.6,0,8-3.8,8-8.9c0-5-3.3-8.6-8-8.6C1575.4,948,1572.6,951.3,1572.6,956.8z"/>
	<path class="st11" d="M1602.8,972.5c0.3-2.3,0.4-4.6,0.4-7.7v-28c0-2.8-0.1-5.1-0.4-7.5c2.4,0.1,4.3,0.2,7.6,0.2h11.3
		c10.2,0,15.9,4.9,15.9,13.9c0,9.2-5.9,14.7-15.9,14.7h-8.2v6.6c0,3.1,0.2,5.6,0.4,7.8H1602.8z M1621.2,949.3c3.6,0,5.7-2,5.7-5.6
		c0-3.6-2-5.4-5.7-5.4h-7.7v11H1621.2z"/>
	<path class="st11" d="M1663.8,950.3c-2.4-0.7-3.7-1-5.3-1c-2.6,0-4.7,0.9-6.2,2.8c-1,1.2-1.3,2.3-1.6,4.6v8.1
		c0,3.3,0.1,5.3,0.4,7.8h-10.7c0.3-2.6,0.4-4.4,0.4-7.8v-15.9c0-3.8-0.1-5.6-0.4-7.8h10.3v4.1c2.5-3.3,5.6-4.7,10.3-4.7
		c1.7,0,2.7,0.1,5.1,0.6L1663.8,950.3z"/>
	<path class="st11" d="M1676.3,959.6c0.5,4.2,2.9,6.4,7,6.4c2.1,0,3.9-0.7,5.2-1.9c0.8-0.7,1.1-1.3,1.6-2.6l9,2.5
		c-1.2,2.7-2,3.9-3.4,5.3c-2.9,2.9-7.1,4.4-12.2,4.4c-5.1,0-9-1.4-12-4.4c-3.1-3.1-4.7-7.5-4.7-12.6c0-10.2,6.6-17,16.4-17
		c8.1,0,13.7,4.4,15.5,12.1c0.4,1.7,0.6,3.8,0.8,6.8c0,0.2,0,0.5,0.1,1H1676.3z M1689.7,952.5c-0.7-3.3-2.9-5.1-6.5-5.1
		c-3.7,0-5.9,1.7-6.8,5.1H1689.7z"/>
	<path class="st11" d="M1711.4,962c0.5,2.7,2.3,3.9,5.7,3.9c3.1,0,4.9-0.9,4.9-2.5c0-0.8-0.4-1.4-1.1-1.9c-0.7-0.4-1.4-0.6-4.2-1.2
		c-3.9-0.8-5.9-1.3-7.7-1.9c-2.5-0.9-4.2-2.1-5.2-3.7c-0.8-1.4-1.3-3.2-1.3-4.9c0-6.2,5.2-10,13.9-10c4.9,0,8.6,1.1,11,3.3
		c1.7,1.5,2.5,3,3.4,5.9l-10,1.1c-0.3-2.1-1.6-3.1-4.3-3.1c-2.7,0-4.3,0.9-4.3,2.2c0,1.4,1.1,1.9,6.2,3.1c5.1,1.1,6.7,1.6,8.5,2.5
		c3.4,1.7,5,4.2,5,7.9c0,2.7-0.9,5.2-2.6,6.9c-2.5,2.5-6.7,3.8-12.3,3.8c-6.5,0-11.1-1.8-13.6-5.2c-1-1.4-1.6-2.7-2.1-5.2
		L1711.4,962z"/>
	<path class="st11" d="M1744,962c0.5,2.7,2.3,3.9,5.7,3.9c3.1,0,4.9-0.9,4.9-2.5c0-0.8-0.4-1.4-1.1-1.9c-0.7-0.4-1.4-0.6-4.2-1.2
		c-3.9-0.8-5.9-1.3-7.7-1.9c-2.5-0.9-4.2-2.1-5.2-3.7c-0.8-1.4-1.3-3.2-1.3-4.9c0-6.2,5.2-10,13.9-10c4.9,0,8.6,1.1,11,3.3
		c1.7,1.5,2.5,3,3.4,5.9l-10,1.1c-0.3-2.1-1.6-3.1-4.3-3.1c-2.7,0-4.3,0.9-4.3,2.2c0,1.4,1.1,1.9,6.2,3.1c5.1,1.1,6.7,1.6,8.5,2.5
		c3.4,1.7,5,4.2,5,7.9c0,2.7-0.9,5.2-2.6,6.9c-2.5,2.5-6.7,3.8-12.3,3.8c-6.5,0-11.1-1.8-13.6-5.2c-1-1.4-1.6-2.7-2.1-5.2L1744,962z
		"/>
</g>
<text transform="matrix(1 0 0 1 1097.1201 1280.1062)" class="st11" style="font-family:'HiraKakuStdN-W8-83pv-RKSJ-H'; font-size:51.7194px; letter-spacing:-1;">Same for WordPress</text>
<path class="st10" d="M375.3,862.8c-13.2,0-24,10.7-24,24v95.9h24v-95.9h143.8v95.9h24v-95.9c0-13.2-10.7-24-24-24H375.3z
	 M334.6,994.6c-4,0-7.2,3.2-7.2,7.2c0,15.9,12.9,28.8,28.8,28.8h182.1c15.9,0,28.8-12.9,28.8-28.8c0-4-3.2-7.2-7.2-7.2H334.6z"/>
<g>
	<g>
		<g>
			<path class="st12" d="M704,973.6c-2.5-0.6-4.9,1-5.5,3.5l-11.1,45.4L677,984.2l5.7-9.6c2-3.3-0.4-7.5-4.2-7.5h-6.1h-6.1
				c-3.8,0-6.2,4.2-4.2,7.5l5.7,9.6h0l-10.3,38.3l-11.1-45.4c-0.6-2.5-3-4.1-5.5-3.5c-21.6,5.4-37.7,25-37.7,48.3
				c0,5.2,4.3,9.5,9.5,9.5h40.7c0.6,0,1.2-0.1,1.8-0.3l-0.1,0.3h34.6l-0.1-0.3c0.6,0.2,1.1,0.3,1.8,0.3h40.7c5.2,0,9.5-4.2,9.5-9.5
				C741.7,998.6,725.7,979,704,973.6z"/>
		</g>
		<g>
			<circle class="st12" cx="672.4" cy="917.3" r="39.6"/>
		</g>
	</g>
	<g>
		<g>
			<path class="st13" d="M704,973.6c-2.5-0.6-4.9,1-5.5,3.5l-11.1,45.4L677,984.2l5.7-9.6c2-3.3-0.4-7.5-4.2-7.5h-6.1h-6.1
				c-3.8,0-6.2,4.2-4.2,7.5l5.7,9.6h0l-10.3,38.3l-11.1-45.4c-0.6-2.5-3-4.1-5.5-3.5c-21.6,5.4-37.7,25-37.7,48.3
				c0,5.2,4.3,9.5,9.5,9.5h40.7c0.6,0,1.2-0.1,1.8-0.3l-0.1,0.3h34.6l-0.1-0.3c0.6,0.2,1.1,0.3,1.8,0.3h40.7c5.2,0,9.5-4.2,9.5-9.5
				C741.7,998.6,725.7,979,704,973.6z"/>
		</g>
		<g>
			<circle class="st13" cx="672.4" cy="917.3" r="39.6"/>
		</g>
	</g>
	<g>
		<g>
			<path class="st10" d="M704,973.6c-2.5-0.6-4.9,1-5.5,3.5l-11.1,45.4L677,984.2l5.7-9.6c2-3.3-0.4-7.5-4.2-7.5h-6.1h-6.1
				c-3.8,0-6.2,4.2-4.2,7.5l5.7,9.6h0l-10.3,38.3l-11.1-45.4c-0.6-2.5-3-4.1-5.5-3.5c-21.6,5.4-37.7,25-37.7,48.3
				c0,5.2,4.3,9.5,9.5,9.5h40.7c0.6,0,1.2-0.1,1.8-0.3l-0.1,0.3h34.6l-0.1-0.3c0.6,0.2,1.1,0.3,1.8,0.3h40.7c5.2,0,9.5-4.2,9.5-9.5
				C741.7,998.6,725.7,979,704,973.6z"/>
		</g>
		<g>
			<circle class="st10" cx="672.4" cy="917.3" r="39.6"/>
		</g>
	</g>
</g>
<g>
	<g>
		<g>
			<path class="st12" d="M1078.3,973.6c-2.5-0.6-4.9,1-5.5,3.5l-11.1,45.4l-10.3-38.3l5.7-9.6c2-3.3-0.4-7.5-4.2-7.5h-6.1h-6.1
				c-3.8,0-6.2,4.2-4.2,7.5l5.7,9.6h0l-10.3,38.3l-11.1-45.4c-0.6-2.5-3-4.1-5.5-3.5c-21.6,5.4-37.7,25-37.7,48.3
				c0,5.2,4.3,9.5,9.5,9.5h40.7c0.6,0,1.2-0.1,1.8-0.3l-0.1,0.3h34.6l-0.1-0.3c0.6,0.2,1.1,0.3,1.8,0.3h40.7c5.2,0,9.5-4.2,9.5-9.5
				C1116,998.6,1099.9,979,1078.3,973.6z"/>
		</g>
		<g>
			<circle class="st12" cx="1046.7" cy="917.3" r="39.6"/>
		</g>
	</g>
	<g>
		<g>
			<path class="st13" d="M1078.3,973.6c-2.5-0.6-4.9,1-5.5,3.5l-11.1,45.4l-10.3-38.3l5.7-9.6c2-3.3-0.4-7.5-4.2-7.5h-6.1h-6.1
				c-3.8,0-6.2,4.2-4.2,7.5l5.7,9.6h0l-10.3,38.3l-11.1-45.4c-0.6-2.5-3-4.1-5.5-3.5c-21.6,5.4-37.7,25-37.7,48.3
				c0,5.2,4.3,9.5,9.5,9.5h40.7c0.6,0,1.2-0.1,1.8-0.3l-0.1,0.3h34.6l-0.1-0.3c0.6,0.2,1.1,0.3,1.8,0.3h40.7c5.2,0,9.5-4.2,9.5-9.5
				C1116,998.6,1099.9,979,1078.3,973.6z"/>
		</g>
		<g>
			<circle class="st13" cx="1046.7" cy="917.3" r="39.6"/>
		</g>
	</g>
	<g>
		<g>
			<path class="st10" d="M1078.3,973.6c-2.5-0.6-4.9,1-5.5,3.5l-11.1,45.4l-10.3-38.3l5.7-9.6c2-3.3-0.4-7.5-4.2-7.5h-6.1h-6.1
				c-3.8,0-6.2,4.2-4.2,7.5l5.7,9.6h0l-10.3,38.3l-11.1-45.4c-0.6-2.5-3-4.1-5.5-3.5c-21.6,5.4-37.7,25-37.7,48.3
				c0,5.2,4.3,9.5,9.5,9.5h40.7c0.6,0,1.2-0.1,1.8-0.3l-0.1,0.3h34.6l-0.1-0.3c0.6,0.2,1.1,0.3,1.8,0.3h40.7c5.2,0,9.5-4.2,9.5-9.5
				C1116,998.6,1099.9,979,1078.3,973.6z"/>
		</g>
		<g>
			<circle class="st10" cx="1046.7" cy="917.3" r="39.6"/>
		</g>
	</g>
</g>
<path class="st14" d="M915.9,879.5c4.6,3.1,5.9,9.3,2.8,13.9L905.6,913h19.8c5.6,0,10.1,4.5,10.1,10.1s-4.5,10.1-10.1,10.1h-33.1
	l-20.1,30.2h53.2c5.6,0,10.1,4.5,10.1,10.1c0,5.6-4.5,10.1-10.1,10.1h-66.7l-20.5,30.7c-3.1,4.6-9.3,5.9-13.9,2.8
	c-4.6-3.1-5.9-9.3-2.8-13.9l13.1-19.5h-19.8c-5.6,0-10.1-4.5-10.1-10.1c0-5.6,4.5-10.1,10.1-10.1H848l20.1-30.2h-53.2
	c-5.6,0-10.1-4.5-10.1-10.1s4.5-10.1,10.1-10.1h66.7l20.5-30.7C905,877.7,911.3,876.4,915.9,879.5z"/>
</svg>
