<?xml version="1.0" encoding="utf-8"?>
<!-- Generator: Adobe Illustrator 26.4.1, SVG Export Plug-In . SVG Version: 6.00 Build 0)  -->
<svg version="1.1" id="レイヤー_1" xmlns="http://www.w3.org/2000/svg" xmlns:xlink="http://www.w3.org/1999/xlink" x="0px"
	 y="0px" viewBox="0 0 1920 1080" style="enable-background:new 0 0 1920 1080;" xml:space="preserve">
<style type="text/css">
	.st0{fill:#FFFFFF;}
	.st1{fill:#24A63E;}
	.st2{fill:#F06723;}
	.st3{fill:#D00000;}
	.st4{enable-background:new    ;}
	.st5{display:none;}
	.st6{display:inline;}
	.st7{display:inline;opacity:0.4;}
</style>
<g id="レイヤー_2_00000012443098498977644380000005485677066099254686_">
	<rect class="st0" width="1920" height="1080"/>
</g>
<path class="st1" d="M1675,517.5l-74.6-74.6c-12.1-12-28.4-18.7-45.3-18.7h-181.4c-35.4,0-64,28.7-64,64v384c0,35.3,28.7,64,64,64
	h256c35.2,0,64-28.8,64-64V562.8C1693.7,545.9,1687,529.6,1675,517.5z M1629.7,888.2h-256c-8.8,0-16-7.2-16-16V488.3
	c0-8.8,7.2-16,16-16h160v79.9c0,17.7,14.3,32,32,32h79.1v288h0.9C1645.7,881,1638.5,888.2,1629.7,888.2z"/>
<rect x="1407.9" y="635.3" class="st1" width="47.4" height="23.7"/>
<rect x="1407.9" y="682.7" class="st1" width="47.4" height="23.7"/>
<rect x="1407.9" y="540.6" class="st1" width="47.4" height="23.7"/>
<rect x="1407.9" y="588" class="st1" width="47.4" height="23.7"/>
<rect x="1407.9" y="493.2" class="st1" width="47.4" height="23.7"/>
<path class="st1" d="M1478.2,816.6l-22.9-86.5h-47.4l-22.6,86.2c-5.9,28.9,16.5,55.9,46.5,55.9
	C1461.6,872.2,1483.9,845.3,1478.2,816.6z M1443.4,836.7h-23.7c-6.5,0-11.8-5.3-11.8-11.8s5.3-11.8,11.8-11.8h23.7
	c6.5,0,11.8,5.3,11.8,11.8C1455.2,831.4,1449.9,836.7,1443.4,836.7z"/>
<g>
	<path class="st2" d="M2244.7,225l-106.4-106.4l22.6-22.6c7.5-8.4,34.6-7.1,52.8,4.8c18.2,12,21.5,19.3,43.8,31.6
		c17.8,9.6,36.9,19,67,12.8L2244.7,225z M2234,235.7l-106.4-106.4l-26.6,26.6c-5.9,5.9-5.9,15.3,0,21.2l16,16
		c5.9,5.9,5.9,15.5,0,21.4c-9,9-21.5,16.7-33.3,25.4c-5.3,3.9-10.5,8-15.2,12.6c-20.2,20.2-35.7,48-20.6,62.9
		c14.9,15,42.7-0.5,62.9-20.5c4.7-4.7,8.7-9.9,12.8-15.3c8.6-11.7,16.3-24.2,25.4-33.3c5.9-5.9,15.3-5.9,21.2,0l16,16
		c5.9,5.9,15.3,5.9,21.2,0L2234,235.7z"/>
</g>
<g>
	<path d="M2207.7,509.4l-48.8,48.8l-28.1-28.1l48.8-48.8c5.3-5.1,15.8-3,23.5,4.8C2210.8,493.7,2212.9,504.2,2207.7,509.4z
		 M2087.3,536l13.7-16.9l135.6,135.6l-17.9,12.6c-10.7,10.7-39.6,17.5-57.5,17.5h-58.4l-18.7,18.7c-8.9,8.9-23.2,8.9-31.9,0
		c-8.9-8.7-8.9-23,0-31.9l18.7-18.7v-58.4C2070.9,577.5,2076.9,546.5,2087.3,536z M2196.5,595.7l48.8-48.8
		c5.1-5.3,15.7-3.2,23.3,4.7c7.8,7.7,9.9,18.2,4.7,23.3l-48.8,48.9L2196.5,595.7z"/>
</g>
<circle class="st3" cx="1650.5" cy="845" r="139.3"/>
<g class="st4">
	<path class="st0" d="M1553.9,855.6c0.3,2.7,0.8,4.1,2,5.6c1.8,2.3,5,3.6,8.8,3.6c5.8,0,9.3-2.6,9.3-6.8c0-2.3-1.2-4.4-3.2-5.3
		c-1.6-0.8-3.5-1.3-11.3-3.1c-7-1.5-9.4-2.4-12.2-4.4c-4.8-3.3-7.3-8.4-7.3-14.5c0-11.7,9.4-19,24.3-19c9.6,0,16.9,3,21,8.6
		c1.9,2.5,2.8,4.8,3.8,9.1l-16,1.7c-0.9-4.9-3.6-7-9.4-7c-4.6,0-8,2.5-8,6c0,2.1,1.1,3.7,3.6,4.8c1.5,0.7,1.5,0.7,10.4,2.5
		c5.7,1.2,9.4,2.5,12.3,4.3c5.4,3.4,8.2,8.5,8.2,15.4c0,5.7-1.8,10.5-5.3,13.9c-4.4,4.2-11,6.4-19.9,6.4c-6.4,0-12.8-1.4-16.9-3.7
		c-3.8-2.1-6.6-5.4-8.2-9.7c-0.8-1.8-1.1-3.6-1.7-7L1553.9,855.6z"/>
	<path class="st0" d="M1640.7,876.1c-0.6-3.6-1.1-5.6-1.8-8.2l-2-6.4h-21.6l-2,6.4c-1,3-1.5,5.4-1.9,8.2h-17.7
		c1.1-2.3,1.8-4.1,3.6-9.2l16.3-45.5c1.4-3.7,2-6,2.4-8.2h19.7c0.5,2.2,1.1,4.2,2.6,8.2l16.4,45.5c1.4,4,2.6,7.1,3.6,9.2H1640.7z
		 M1626,826.1l-7,22.7h14.2L1626,826.1z"/>
	<path class="st0" d="M1674.8,876.1c-5.2,0-8.3,0.1-11.2,0.2c0.5-2.6,0.6-6,0.6-11v-39.9c0-5.3-0.2-8.5-0.6-12.2h16.5
		c-0.5,3.9-0.6,6.1-0.6,12v37.5h18.3c6.4,0,9-0.1,12.6-0.5v14.5c-2.8-0.4-6.5-0.5-12.6-0.5L1674.8,876.1L1674.8,876.1z"/>
	<path class="st0" d="M1763,876.6c-3.3-0.4-6-0.5-12.5-0.5h-23.8c-5.7,0-7.9,0.1-11.1,0.2c0.5-3,0.6-5.8,0.6-11V824
		c0-4.7-0.2-7.3-0.6-11c3.1,0.2,5.2,0.2,11.1,0.2h24.1c5.1,0,7.7-0.2,11.3-0.5v14.1c-3.5-0.4-6.2-0.5-11.3-0.5h-19.7v11.1h16.3
		c5,0,6.8-0.1,11.3-0.5v14c-3.6-0.4-6.1-0.5-11.3-0.5h-16.3v12.7h19.5c5.7,0,9.1-0.2,12.3-0.5L1763,876.6z"/>
</g>
<g id="レイヤー_1_00000130604857172133929590000006762159166791471263_" class="st5">
	<g id="レイヤー_2_1_" class="st6">
	</g>
	<g id="レイヤー_5" class="st7">
		<g>
			<g>
				<g>
					<path d="M1832.6,769.5l-64.1,0.2c-0.9,0-1.7,0.6-2,1.4l-4.9,13.6c-0.5,1.4,0.5,2.9,2,2.9h24.9c1.9,0,2.8,2.3,1.5,3.6
						l-39.7,41.3h0.2l20.4,64.3c0.4,1.4-0.6,2.8-2,2.8h-20.1c-0.9,0-1.8-0.6-2-1.5l-10.3-33c-0.6-2-3.4-2-4.1-0.1l-8.4,23.1
						c-0.1,0.4-0.2,0.9-0.1,1.3l7.6,28.1c0.3,0.9,1.1,1.6,2.1,1.6h64.4c1.4,0,2.5-1.4,2-2.8l-25.8-80.9c-0.2-0.8,0-1.6,0.5-2.1
						l59.2-60.1C1835.5,771.8,1834.5,769.5,1832.6,769.5z"/>
					<g>
						<path d="M1682.2,829.6L1682.2,829.6L1682.2,829.6z"/>
						<path d="M1756.7,735.8l-39,0.1c-0.9,0-1.7,0.6-2,1.4l-5,13.7c-0.5,1.4,0.5,2.9,2,2.9h16.3c1.5,0,2.5,1.5,2,2.9L1684.6,884
							c-0.7,1.9-3.3,1.9-4,0l-33.3-91.7c-0.5-1.4,0.5-2.9,2-2.9h16.8c0.9,0,1.7,0.6,2,1.4l12,33.1c0.7,1.9,3.3,1.9,4,0l18.7-51.5
							c0.5-1.4-0.5-2.9-2-2.9H1621c-1.5,0-2.5,1.5-2,2.9l61.5,170.6c0.7,1.9,3.3,1.9,4,0l74.2-204.3
							C1759.2,737.3,1758.2,735.8,1756.7,735.8z"/>
					</g>
				</g>
			</g>
			<g>
				<g>
					<path d="M1600.1,1035.9l-4.1-16.9h3.3l1.6,7.7c0.4,2.1,0.8,4.2,1.1,5.9h0.1c0.3-1.8,0.7-3.8,1.2-5.9l1.8-7.6h3.3l1.7,7.8
						c0.4,2,0.8,3.9,1,5.7h0.1c0.3-1.9,0.7-3.8,1.1-5.9l1.8-7.6h3.1l-4.6,16.9h-3.3l-1.7-8c-0.4-1.9-0.7-3.5-1-5.3h-0.1
						c-0.3,1.8-0.6,3.4-1.1,5.4l-2,8h-3.3V1035.9z"/>
					<path d="M1632.2,1029.7c0,4.5-3.1,6.5-6.3,6.5c-3.4,0-6.1-2.4-6.1-6.3c0-4,2.6-6.5,6.3-6.5
						C1629.7,1023.4,1632.2,1026,1632.2,1029.7z M1623,1029.8c0,2.3,1.2,4.1,3,4.1s3-1.7,3-4.2c0-1.9-0.8-4.1-3-4.1
						C1623.9,1025.6,1623,1027.8,1623,1029.8z"/>
					<path d="M1637.5,1027.6c0-1.6,0-2.8-0.1-3.9h2.7l0.1,2.3h0.1c0.6-1.7,2-2.6,3.3-2.6c0.3,0,0.5,0,0.7,0.1v2.9
						c-0.3-0.1-0.5-0.1-0.9-0.1c-1.5,0-2.5,0.9-2.8,2.3c-0.1,0.3-0.1,0.6-0.1,0.9v6.3h-3.1L1637.5,1027.6L1637.5,1027.6z"/>
					<path d="M1659.8,1018.1v14.4c0,1.3,0,2.6,0.1,3.4h-2.7l-0.2-1.9l0,0c-0.7,1.4-2.2,2.2-4,2.2c-2.9,0-5.2-2.5-5.2-6.2
						c0-4.1,2.5-6.5,5.5-6.5c1.7,0,2.9,0.7,3.4,1.6l0,0v-6.9L1659.8,1018.1L1659.8,1018.1z M1656.7,1028.8c0-0.2,0-0.6-0.1-0.8
						c-0.3-1.2-1.3-2.2-2.7-2.2c-2,0-3.1,1.8-3.1,4s1.1,3.9,3.1,3.9c1.3,0,2.4-0.9,2.7-2.2c0.1-0.3,0.1-0.6,0.1-0.9V1028.8z"/>
					<path d="M1665.9,1019.2c1.1-0.2,2.7-0.3,4.7-0.3c2.3,0,3.9,0.5,5,1.4c1,0.8,1.7,2.2,1.7,3.7c0,1.6-0.5,2.9-1.4,3.8
						c-1.2,1.2-3.2,1.8-5.3,1.8c-0.6,0-1.1,0-1.5-0.1v6.4h-3.1L1665.9,1019.2L1665.9,1019.2z M1668.9,1027.1
						c0.4,0.1,0.9,0.1,1.5,0.1c2.3,0,3.7-1.1,3.7-3.1c0-1.9-1.3-2.9-3.4-2.9c-0.8,0-1.5,0.1-1.8,0.1L1668.9,1027.1L1668.9,1027.1z"
						/>
					<path d="M1681.9,1027.6c0-1.6,0-2.8-0.1-3.9h2.7l0.1,2.3h0.1c0.6-1.7,2-2.6,3.3-2.6c0.3,0,0.5,0,0.7,0.1v2.9
						c-0.3-0.1-0.5-0.1-0.9-0.1c-1.5,0-2.5,0.9-2.8,2.3c-0.1,0.3-0.1,0.6-0.1,0.9v6.3h-3.1L1681.9,1027.6L1681.9,1027.6z"/>
					<path d="M1695.1,1030.6c0.1,2.2,1.8,3.2,3.8,3.2c1.4,0,2.4-0.2,3.4-0.6l0.5,2.1c-1,0.4-2.5,0.8-4.3,0.8c-4,0-6.3-2.4-6.3-6.2
						c0-3.4,2-6.6,6-6.6s5.3,3.3,5.3,5.9c0,0.6,0,1-0.1,1.3L1695.1,1030.6L1695.1,1030.6z M1700.5,1028.5c0-1.1-0.5-3-2.5-3
						c-1.9,0-2.7,1.7-2.8,3H1700.5z"/>
					<path d="M1707.9,1033c0.7,0.4,2,0.9,3.1,0.9c1.4,0,2-0.6,2-1.4s-0.5-1.2-2-1.8c-2.4-0.8-3.4-2.1-3.4-3.6c0-2.1,1.8-3.8,4.6-3.8
						c1.3,0,2.5,0.3,3.2,0.7l-0.6,2.2c-0.5-0.3-1.5-0.7-2.6-0.7s-1.7,0.5-1.7,1.3s0.6,1.1,2.1,1.7c2.2,0.8,3.2,1.9,3.3,3.7
						c0,2.2-1.7,3.8-5,3.8c-1.5,0-2.8-0.4-3.7-0.9L1707.9,1033z"/>
					<path d="M1720,1033c0.7,0.4,2,0.9,3.1,0.9c1.4,0,2-0.6,2-1.4s-0.5-1.2-2-1.8c-2.4-0.8-3.4-2.1-3.4-3.6c0-2.1,1.8-3.8,4.6-3.8
						c1.3,0,2.5,0.3,3.2,0.7l-0.6,2.2c-0.5-0.3-1.5-0.7-2.6-0.7s-1.7,0.5-1.7,1.3s0.6,1.1,2.1,1.7c2.2,0.8,3.2,1.9,3.3,3.7
						c0,2.2-1.7,3.8-5,3.8c-1.5,0-2.8-0.4-3.7-0.9L1720,1033z"/>
					<path d="M1740.1,1032.5c1,0.6,2.5,1.1,4.1,1.1c2,0,3.1-0.9,3.1-2.3c0-1.3-0.9-2-3-2.8c-2.8-1-4.6-2.5-4.6-4.9
						c0-2.8,2.3-4.9,6-4.9c1.8,0,3.2,0.4,4.1,0.8l-0.8,2.5c-0.6-0.3-1.8-0.8-3.4-0.8c-2,0-2.8,1-2.8,2c0,1.3,1,1.9,3.2,2.8
						c2.9,1.1,4.3,2.6,4.3,5c0,2.7-2,5.1-6.4,5.1c-1.8,0-3.6-0.5-4.6-1.1L1740.1,1032.5z"/>
					<path d="M1766.8,1029.7c0,4.5-3.1,6.5-6.3,6.5c-3.4,0-6.1-2.4-6.1-6.3c0-4,2.6-6.5,6.3-6.5
						C1764.3,1023.4,1766.8,1026,1766.8,1029.7z M1757.6,1029.8c0,2.3,1.2,4.1,3,4.1s3-1.7,3-4.2c0-1.9-0.8-4.1-3-4.1
						S1757.6,1027.8,1757.6,1029.8z"/>
					<path d="M1771.4,1018.1h3.1v17.8h-3.1V1018.1z"/>
					<path d="M1790.9,1032.2c0,1.4,0,2.7,0.1,3.7h-2.7l-0.1-1.8h-0.1c-0.5,0.9-1.7,2.1-3.9,2.1c-2.2,0-4.2-1.3-4.2-5.3v-7.2h3.1v6.6
						c0,2,0.6,3.3,2.3,3.3c1.2,0,2-0.9,2.4-1.6c0.1-0.3,0.2-0.6,0.2-1v-7.4h3.1v8.6L1790.9,1032.2L1790.9,1032.2z"/>
					<path d="M1799.9,1020.2v3.5h2.9v2.3h-2.9v5.4c0,1.5,0.4,2.3,1.6,2.3c0.5,0,0.9-0.1,1.2-0.1l0.1,2.3c-0.5,0.2-1.3,0.3-2.2,0.3
						c-1.1,0-2.1-0.4-2.7-1c-0.7-0.7-1-1.8-1-3.4v-5.8h-1.7v-2.3h1.7v-2.8L1799.9,1020.2z"/>
					<path d="M1811.1,1020.3c0,0.9-0.7,1.7-1.8,1.7c-1,0-1.7-0.7-1.7-1.7c0-0.9,0.7-1.7,1.7-1.7
						C1810.4,1018.6,1811.1,1019.3,1811.1,1020.3z M1807.9,1035.9v-12.2h3.1v12.2H1807.9z"/>
					<path d="M1828,1029.7c0,4.5-3.1,6.5-6.3,6.5c-3.4,0-6.1-2.4-6.1-6.3c0-4,2.6-6.5,6.3-6.5C1825.6,1023.4,1828,1026,1828,1029.7z
						 M1818.8,1029.8c0,2.3,1.2,4.1,3,4.1s3-1.7,3-4.2c0-1.9-0.8-4.1-3-4.1C1819.7,1025.6,1818.8,1027.8,1818.8,1029.8z"/>
					<path d="M1832.2,1027.3c0-1.4,0-2.6-0.1-3.6h2.7l0.2,1.8h0.1c0.5-0.9,1.9-2.1,3.9-2.1c2.1,0,4.3,1.4,4.3,5.2v7.2h-3.1v-6.8
						c0-1.8-0.6-3.1-2.3-3.1c-1.2,0-2.1,0.9-2.4,1.8c-0.1,0.3-0.1,0.6-0.1,1v7.2h-3.1L1832.2,1027.3L1832.2,1027.3z"/>
					<path d="M1848.5,1033c0.7,0.4,2,0.9,3.1,0.9c1.4,0,2-0.6,2-1.4s-0.5-1.2-2-1.8c-2.4-0.8-3.4-2.1-3.4-3.6c0-2.1,1.8-3.8,4.6-3.8
						c1.3,0,2.5,0.3,3.2,0.7l-0.6,2.2c-0.5-0.3-1.5-0.7-2.6-0.7s-1.7,0.5-1.7,1.3s0.6,1.1,2.1,1.7c2.2,0.8,3.2,1.9,3.3,3.7
						c0,2.2-1.7,3.8-5,3.8c-1.5,0-2.8-0.4-3.7-0.9L1848.5,1033z"/>
				</g>
				<g>
					<path d="M1638.6,982.3c-8.5,0-12.4,6.9-12.4,13.1c0,7.7,4.1,12.5,12.4,12.5c5.9,0,9.6-2.9,10.2-7.1l-6-0.1
						c-0.7,0.9-1.7,1.5-4.2,1.5c-3.6,0-4.9-1.5-5.1-4.7h15.8c0.1-0.6,0.3-1.7,0.3-3C1649.5,988.5,1646,982.3,1638.6,982.3z
						 M1633.4,992.3c0.2-2,1.5-4.7,4.7-4.7c3.5,0,4.3,2.8,4.3,4.7H1633.4z"/>
					<path d="M1679.9,982.8h-9.2l-5,7.4c-0.6,0.9-1.2,1.9-1.8,3h-0.1v-21.4h-7.6v35.6h7.6v-7.7l1.9-2.4l5.9,10.1h9.4l-10-14.6
						L1679.9,982.8z"/>
					<path d="M1694.5,975.8l-10.7,12.6h3.3v10c0,3.5,0.7,5.8,2.1,7.3c1.2,1.3,3.3,2.1,5.8,2.1c2.1,0,4-0.3,4.9-0.7l-0.1-5.8
						c-0.5,0.1-1.3,0.2-2.3,0.2c-2.3,0-3-1.4-3-4.3v-8.9h5.5v-5.6h-5.5L1694.5,975.8L1694.5,975.8z"/>
					<path d="M1718.6,982.3c-7.9,0-13.1,5.1-13.1,13s5.5,12.6,12.7,12.6c6.6,0,12.9-4.1,12.9-13.1
						C1731.1,987.5,1726.1,982.3,1718.6,982.3z M1718.4,1002.5c-3.3,0-5-3.2-5-7.4c0-3.6,1.4-7.4,5-7.4c3.5,0,4.9,3.7,4.9,7.3
						C1723.2,999.5,1721.3,1002.5,1718.4,1002.5z"/>
					<path d="M1745.1,987.4L1745.1,987.4l-0.4-4.5h-6.6c0.1,2.1,0.2,4.5,0.2,8.1v16.5h7.6V995c0-0.6,0-1.2,0.1-1.7
						c0.5-2.4,2.4-3.9,5.2-3.9c0.9,0,1.5,0.1,2.1,0.2v-7.2c-0.6-0.1-0.9-0.1-1.6-0.1C1749.4,982.3,1746.4,983.8,1745.1,987.4z"/>
					<path d="M1755.9,1013.4l5.1-0.4c2.4-3.9,4.7-9.2,6.3-14.3l-7.8,0.5C1758.8,1003.7,1757.5,1008.9,1755.9,1013.4z"/>
					<rect x="1775.7" y="973.6" width="7.6" height="33.8"/>
					<path d="M1806.8,982.3c-4.1,0-6.6,2.4-7.6,4h-0.2l-0.4-3.4h-6.6c0.1,2.2,0.2,4.8,0.2,7.8v16.7h7.6v-14.2c0-0.7,0.1-1.4,0.3-1.9
						c0.5-1.4,1.8-2.9,3.9-2.9c2.8,0,3.9,2.2,3.9,5.3v13.6h7.6v-14.5C1815.5,985.6,1811.8,982.3,1806.8,982.3z"/>
					<path d="M1837.1,988.2c2,0,3.4,0.4,4.3,0.8l1.2-5.7c-1.6-0.6-3.8-1-5.8-1c-9.1,0-14,5.9-14,13c0,7.7,5.1,12.6,13,12.6
						c2.9,0,5.5-0.5,6.8-1.1l-0.9-5.6c-1.2,0.5-2.6,0.8-4.4,0.8c-3.7,0-6.7-2.4-6.7-6.9C1830.5,991,1833.1,988.2,1837.1,988.2z"/>
					<path d="M1853.2,998.7c-2.6,0-4.5,1.9-4.5,4.6c0,2.7,1.8,4.6,4.5,4.6s4.5-1.9,4.5-4.6C1857.7,1000.5,1855.9,998.7,1853.2,998.7
						z"/>
					<path d="M1610.4,973.6l0.1,5.2h5.2l-2.7,9.2c-1.1,3.9-2.2,7.9-3.1,11.9h-0.1c-0.8-4.2-1.9-8-3.1-12.1l-4.1-14.3h-8.4l10.8,33.8
						h8.9l11.4-33.8h-8.1L1610.4,973.6L1610.4,973.6z"/>
				</g>
			</g>
		</g>
	</g>
</g>
</svg>
