<?xml version="1.0" encoding="utf-8"?>
<!-- Generator: Adobe Illustrator 26.4.1, SVG Export Plug-In . SVG Version: 6.00 Build 0)  -->
<svg version="1.1" id="レイヤー_1" xmlns="http://www.w3.org/2000/svg" xmlns:xlink="http://www.w3.org/1999/xlink" x="0px"
	 y="0px" viewBox="0 0 1920 1080" style="enable-background:new 0 0 1920 1080;" xml:space="preserve">
<style type="text/css">
	.st0{fill:#FFFFFF;}
	.st1{fill:#4E3288;}
	.st2{fill:#924BB3;}
	.st3{opacity:0.38;enable-background:new    ;}
</style>
<g id="レイヤー_2_00000012443098498977644380000005485677066099254686_">
	<rect y="0" class="st0" width="1920" height="1080"/>
</g>
<g>
	<path class="st1" d="M1596.2,949.9c-76.9,0-139.5-62.6-139.5-139.5S1519.3,671,1596.2,671c76.9,0,139.5,62.6,139.5,139.5
		S1673.1,949.9,1596.2,949.9z M1596.2,693.6c-64.4,0-116.9,52.4-116.9,116.9s52.4,116.9,116.9,116.9s116.9-52.4,116.9-116.9
		S1660.6,693.6,1596.2,693.6z"/>
	<path class="st1" d="M1640.7,821.8l-63.9-63.9l13.6-13.6c4.5-5.1,20.8-4.2,31.7,2.9c10.9,7.2,12.9,11.6,26.3,19
		c10.7,5.8,22.1,11.4,40.2,7.7L1640.7,821.8z M1634.2,828.3l-63.9-63.9l-16,16c-3.5,3.5-3.5,9.2,0,12.7l9.6,9.6
		c3.5,3.5,3.5,9.3,0,12.8c-5.4,5.4-12.9,10-20,15.3c-3.2,2.3-6.3,4.8-9.1,7.6c-12.1,12.1-21.4,28.8-12.4,37.8
		c8.9,9,25.7-0.3,37.8-12.3c2.8-2.8,5.2-6,7.7-9.2c5.2-7,9.8-14.5,15.3-20c3.5-3.5,9.2-3.5,12.7,0l9.6,9.6c3.5,3.5,9.2,3.5,12.7,0
		L1634.2,828.3z"/>
</g>
<g>
	<g>
		<path class="st2" d="M1474.2,438.5c-27,0-48.9-21.9-48.9-48.9s21.9-48.9,48.9-48.9s48.9,21.9,48.9,48.9S1501.2,438.5,1474.2,438.5
			z M1474.2,348.7c-22.6,0-41,18.4-41,41s18.4,41,41,41s41-18.4,41-41C1515.2,367,1496.8,348.7,1474.2,348.7z"/>
		<path class="st2" d="M1448.9,364.3h15.8v34.8h-15.8V364.3z M1467.9,364.3h15.8v15.8h-15.8V364.3z M1486.9,364.3h12.7V415h-12.7
			V364.3z M1467.9,383.3h15.8v15.8h-15.8V383.3z M1448.9,402.3h34.8V415h-34.8V402.3z"/>
	</g>
	<g>
		<path class="st2" d="M1474.2,560.1c-27,0-48.9-21.9-48.9-48.9s21.9-48.9,48.9-48.9s48.9,21.9,48.9,48.9
			C1523.1,538.2,1501.2,560.1,1474.2,560.1z M1474.2,470.3c-22.6,0-41,18.4-41,41c0,22.6,18.4,41,41,41s41-18.4,41-41
			S1496.8,470.3,1474.2,470.3z"/>
		<path class="st2" d="M1448.9,485.9h15.8v34.8h-15.8V485.9z M1467.9,485.9h15.8v15.8h-15.8V485.9z M1486.9,485.9h12.7v50.7h-12.7
			V485.9z M1467.9,504.9h15.8v15.8h-15.8V504.9z M1448.9,523.9h34.8v12.7h-34.8V523.9z"/>
	</g>
	<g>
		<path class="st2" d="M1597,560.1c-27,0-48.9-21.9-48.9-48.9s21.9-48.9,48.9-48.9s48.9,21.9,48.9,48.9
			C1645.9,538.2,1623.9,560.1,1597,560.1z M1597,470.3c-22.6,0-41,18.4-41,41c0,22.6,18.4,41,41,41s41-18.4,41-41
			C1637.9,488.7,1619.6,470.3,1597,470.3z"/>
		<path class="st2" d="M1571.6,485.9h15.8v34.8h-15.8V485.9z M1590.6,485.9h15.8v15.8h-15.8V485.9z M1609.6,485.9h12.7v50.7h-12.7
			V485.9z M1590.6,504.9h15.8v15.8h-15.8V504.9z M1571.6,523.9h34.8v12.7h-34.8V523.9z"/>
	</g>
	<g>
		<path class="st2" d="M1718.1,560.1c-27,0-48.9-21.9-48.9-48.9s21.9-48.9,48.9-48.9s48.9,21.9,48.9,48.9
			C1767,538.2,1745.1,560.1,1718.1,560.1z M1718.1,470.3c-22.6,0-41,18.4-41,41c0,22.6,18.4,41,41,41s41-18.4,41-41
			S1740.7,470.3,1718.1,470.3z"/>
		<path class="st2" d="M1692.8,485.9h15.8v34.8h-15.8V485.9z M1711.8,485.9h15.8v15.8h-15.8V485.9z M1730.8,485.9h12.7v50.7h-12.7
			V485.9z M1711.8,504.9h15.8v15.8h-15.8V504.9z M1692.8,523.9h34.8v12.7h-34.8V523.9z"/>
	</g>
	<g>
		<path class="st2" d="M1595.4,438.5c-27,0-48.9-21.9-48.9-48.9s21.9-48.9,48.9-48.9s48.9,21.9,48.9,48.9S1622.3,438.5,1595.4,438.5
			z M1595.4,348.7c-22.6,0-41,18.4-41,41s18.4,41,41,41s41-18.4,41-41C1636.3,367,1618,348.7,1595.4,348.7z"/>
		<path class="st2" d="M1570,364.3h15.8v34.8H1570V364.3z M1589,364.3h15.8v15.8H1589V364.3z M1608,364.3h12.7V415H1608V364.3z
			 M1589,383.3h15.8v15.8H1589V383.3z M1570,402.3h34.8V415H1570V402.3z"/>
	</g>
	<g>
		<path class="st2" d="M1716.5,438.5c-27,0-48.9-21.9-48.9-48.9s21.9-48.9,48.9-48.9s48.9,21.9,48.9,48.9S1743.5,438.5,1716.5,438.5
			z M1716.5,348.7c-22.6,0-41,18.4-41,41s18.4,41,41,41s41-18.4,41-41C1757.5,367,1739.1,348.7,1716.5,348.7z"/>
		<path class="st2" d="M1691.2,364.3h15.8v34.8h-15.8V364.3z M1710.2,364.3h15.8v15.8h-15.8V364.3z M1729.2,364.3h12.7V415h-12.7
			V364.3z M1710.2,383.3h15.8v15.8h-15.8V383.3z M1691.2,402.3h34.8V415h-34.8V402.3z"/>
	</g>
</g>
<path class="st1" d="M2041.4,493.7c-31.3,0-56.7-25.4-56.7-56.7s25.4-56.7,56.7-56.7c31.2,0,56.7,25.4,56.7,56.7
	S2072.6,493.7,2041.4,493.7z M2041.4,389.5c-26.2,0-47.5,21.3-47.5,47.5s21.3,47.5,47.5,47.5c26.2,0,47.5-21.3,47.5-47.5
	S2067.6,389.5,2041.4,389.5z"/>
<path class="st2" d="M2041.4,333.9c-31.2,0-56.7-25.4-56.7-56.7s25.4-56.7,56.7-56.7c31.2,0,56.7,25.4,56.7,56.7
	S2072.6,333.9,2041.4,333.9z M2041.4,229.8c-26.2,0-47.5,21.3-47.5,47.5s21.3,47.5,47.5,47.5c26.2,0,47.5-21.3,47.5-47.5
	S2067.6,229.8,2041.4,229.8z"/>
<path class="st1" d="M2059.5,441.6l-26-26l5.5-5.5c1.8-2.1,8.4-1.7,12.9,1.2c4.4,2.9,5.3,4.7,10.7,7.7c4.3,2.3,9,4.6,16.3,3.1
	L2059.5,441.6z M2056.8,444.3l-26-26l-6.5,6.5c-1.4,1.4-1.4,3.7,0,5.2l3.9,3.9c1.4,1.4,1.4,3.8,0,5.2c-2.2,2.2-5.3,4.1-8.1,6.2
	c-1.3,1-2.6,1.9-3.7,3.1c-4.9,4.9-8.7,11.7-5,15.3c3.6,3.7,10.4-0.1,15.3-5c1.1-1.1,2.1-2.4,3.1-3.7c2.1-2.9,4-5.9,6.2-8.1
	c1.4-1.4,3.7-1.4,5.2,0l3.9,3.9c1.4,1.4,3.7,1.4,5.2,0L2056.8,444.3z"/>
<path class="st2" d="M2012,247.9h18.4v40.4H2012V247.9z M2034,247.9h18.4v18.4H2034V247.9z M2056.1,247.9h14.7v58.7h-14.7V247.9z
	 M2034,269.9h18.4v18.4H2034V269.9z M2012,291.9h40.4v14.7H2012V291.9z"/>
<path class="st3" d="M1572.9,600.5l23.2,23.2l23.2-23.2l9.3,4.7l-32.6,32.5l-32.6-32.5L1572.9,600.5z"/>
<g>
	<path class="st2" d="M1456.8,299.7c-2,0-3,0-4.4,0.1c0.2-1.4,0.3-2.4,0.3-4.6v-18.6c0-1.6-0.1-2.8-0.3-4.2c1.4,0.1,2,0.1,4.3,0.1
		h8.1c5.3,0,8.3,2.4,8.3,6.7c0,2.1-0.6,3.6-1.9,4.8c-0.8,0.7-1.4,1-2.7,1.4c1.7,0.4,2.5,0.7,3.5,1.6c1.4,1.3,2.1,3,2.1,5.2
		c0,4.8-3.2,7.5-8.9,7.5H1456.8z M1464.4,283.6c2.6,0,4.1-1.4,4.1-3.7c0-1.1-0.3-2-0.9-2.5c-0.8-0.7-1.9-1.1-3.3-1.1h-7.1v7.3
		L1464.4,283.6L1464.4,283.6z M1457.2,295.8h7.4c3,0,4.8-1.5,4.8-4.3c0-1.4-0.3-2.3-1.1-3c-0.9-0.8-2.2-1.2-3.7-1.2h-7.3v8.5H1457.2
		z"/>
	<path class="st2" d="M1482.9,272.5c-0.2,1.3-0.2,2.4-0.2,4.5v18.3c0,1.8,0.1,2.9,0.2,4.4h-5c0.2-1.5,0.2-2.5,0.2-4.4V277
		c0-2.1-0.1-3.1-0.2-4.4h5V272.5z"/>
	<path class="st2" d="M1486.4,289.9c0-6.4,4-10.4,10.2-10.4s10.1,4,10.1,10.4s-4,10.5-10.1,10.5
		C1490.3,300.4,1486.4,296.3,1486.4,289.9z M1490.8,289.9c0,4.2,2.2,6.8,5.8,6.8s5.8-2.6,5.8-6.7c0-4.4-2.1-6.9-5.7-6.9
		C1493,283,1490.8,285.6,1490.8,289.9z"/>
	<path class="st2" d="M1523.8,286.6c-0.4-1.1-0.6-1.5-1.1-2.1c-0.8-1-2-1.6-3.5-1.6c-3.4,0-5.4,2.6-5.4,6.9s2.1,6.9,5.6,6.9
		c1.7,0,3.1-0.7,3.9-1.9c0.3-0.5,0.5-0.9,0.7-1.7l4.2,0.9c-0.5,1.4-0.8,2.1-1.4,2.9c-1.6,2.3-4.3,3.5-7.5,3.5c-6,0-9.9-4.1-9.9-10.4
		c0-3.2,1-6,2.9-7.9c1.7-1.7,4.1-2.6,6.9-2.6c3.4,0,6,1.3,7.7,3.7c0.4,0.7,0.7,1.2,1.2,2.5L1523.8,286.6z"/>
	<path class="st2" d="M1536.4,272.5c-0.2,1.3-0.2,2.5-0.2,4.5v11.3l5.1-5.1c1.6-1.5,2.2-2.2,2.7-3h6.4c-2,1.7-2,1.7-3.4,3.1
		l-4.9,4.6l5.8,7.9c2.3,3.2,2.3,3.2,3.1,4h-6.1c-0.4-1.1-0.8-1.8-2.3-3.9l-3.7-5.4l-2.8,2.7v2.2c0,2.2,0,3,0.2,4.4h-4.8
		c0.2-1.4,0.2-2.6,0.2-4.4v-18.3c0-2.1-0.1-3.2-0.2-4.5h4.9V272.5z"/>
	<path class="st2" d="M1565.5,299.7c0.2-1.4,0.3-2.6,0.3-4.4v-18.5c0-1.6-0.1-2.9-0.3-4.4c1.5,0.1,2.5,0.1,4.3,0.1h7.2
		c3.3,0,5.6,0.8,7.3,2.4c1.4,1.4,2.1,3.4,2.1,5.9c0,2.6-0.8,4.7-2.3,6.3c-1.7,1.7-4,2.5-7.3,2.5h-6.5v5.7c0,1.8,0.1,3.1,0.3,4.4
		H1565.5z M1576.8,285.6c3.1,0,4.9-1.7,4.9-4.7c0-1.4-0.4-2.5-1.1-3.3c-0.8-0.9-1.9-1.2-3.7-1.2h-6.5v9.2H1576.8z"/>
	<path class="st2" d="M1602.5,297.5c-1.4,1.3-2.2,1.8-3.6,2.2c-1,0.3-2.1,0.4-3.2,0.4c-4.2,0-6.7-2.2-6.7-5.8c0-2.4,1.5-4.6,3.9-5.5
		c2.2-0.9,4.8-1.3,9.7-1.4v-1.7c0-2-1.3-3-3.9-3c-1.4,0-2.8,0.4-3.6,1c-0.6,0.5-1,1-1.4,2.2l-4.4-0.8c0.8-2,1.4-2.9,2.7-3.8
		c1.7-1.2,3.6-1.7,6.5-1.7c3.3,0,5.3,0.6,6.7,2c1.2,1.1,1.6,2.4,1.6,4.7v9.2c0,1.8,0.1,2.7,0.3,4.3h-4.6V297.5z M1602.5,290.4
		c-6.5,0.1-9.1,1.3-9.1,3.9c0,1.6,1.2,2.6,3.1,2.6c1.8,0,3.6-0.7,4.8-1.8c0.8-0.8,1.2-1.8,1.2-3V290.4z"/>
	<path class="st2" d="M1618.4,274.8c-0.1,1.2-0.2,2.7-0.2,4.2v1.1h1.4c1.6,0,2.4,0,3.5-0.2v4c-1.1-0.2-1.8-0.2-3.4-0.2h-1.5v10.6
		c0,1.7,0.6,2.3,2.3,2.3c0.9,0,1.4-0.2,2.5-0.8l0.6,3.6c-1.5,0.5-2.5,0.7-4.3,0.7c-3.9,0-5.5-1.4-5.5-5v-11.5h-1.3
		c-1.3,0-1.9,0-3,0.2v-4c1,0.2,1.6,0.2,3.1,0.2h1.3v-1c0-1.5-0.1-3-0.2-4.2H1618.4z"/>
	<path class="st2" d="M1633.3,274.8c-0.1,1.2-0.2,2.7-0.2,4.2v1.1h1.4c1.6,0,2.4,0,3.5-0.2v4c-1.1-0.2-1.8-0.2-3.4-0.2h-1.5v10.6
		c0,1.7,0.6,2.3,2.3,2.3c0.9,0,1.4-0.2,2.5-0.8l0.6,3.6c-1.5,0.5-2.5,0.7-4.3,0.7c-3.9,0-5.5-1.4-5.5-5v-11.5h-1.3
		c-1.3,0-1.9,0-3,0.2v-4c1,0.2,1.6,0.2,3.1,0.2h1.3v-1c0-1.5-0.1-3-0.2-4.2H1633.3z"/>
	<path class="st2" d="M1644.5,291c0.2,1.9,0.5,2.8,1.3,3.8c1,1.2,2.5,1.9,4.3,1.9c1.7,0,3.1-0.6,4.1-1.7c0.4-0.5,0.7-0.9,1-1.8
		l4,1.3c-0.8,1.6-1.2,2.3-2.1,3.1c-1.8,1.7-4.2,2.6-7.1,2.6c-6.1,0-9.9-4-9.9-10.4c0-6.3,3.8-10.5,9.7-10.5c4,0,7.2,2,8.5,5.4
		c0.7,1.6,0.9,2.9,1,5.2c0,0.1,0,0.2,0.1,1h-14.9V291z M1654.9,287.6c-0.2-1.5-0.7-2.4-1.5-3.3c-0.9-0.9-2.1-1.4-3.7-1.4
		c-2.7,0-4.6,1.8-5.1,4.7L1654.9,287.6L1654.9,287.6z"/>
	<path class="st2" d="M1675.9,284.4c-1.4-0.4-2.2-0.5-3-0.5c-1.7,0-3,0.5-4,1.7c-0.9,1-1.2,1.8-1.4,3.4v6.3c0,1.8,0.1,2.8,0.2,4.4
		h-4.9c0.2-1.7,0.2-2.7,0.2-4.4v-10.7c0-2.1,0-3-0.2-4.4h4.7v3.2c1.2-2.4,3.4-3.6,6.4-3.6c0.8,0,1.6,0.1,3.2,0.4L1675.9,284.4z"/>
	<path class="st2" d="M1679.6,299.7c0.2-1.5,0.3-2.5,0.3-4.4v-10.7c0-1.9-0.1-3-0.3-4.4h4.7v1.8c0,0.5,0,0.6-0.1,1.5
		c2.1-2.7,3.9-3.6,7-3.6c2.6,0,4.6,0.9,5.8,2.5c0.8,1.1,1.2,2.5,1.2,4.8v8.2c0,1.9,0.1,3.2,0.3,4.4h-5c0.2-1.5,0.2-2.7,0.2-4.4v-7.6
		c0-1.4-0.2-2.4-0.6-3c-0.5-0.9-1.6-1.4-2.9-1.4c-2.5,0-4.5,1.7-6,5.1v6.9c0,1.7,0.1,3,0.3,4.4L1679.6,299.7L1679.6,299.7z"/>
	<path class="st2" d="M1706.4,293.5c0.6,2.3,1.8,3.3,4.5,3.3c2.5,0,4.1-1,4.1-2.6c0-0.7-0.3-1.3-0.9-1.7c-0.7-0.4-0.9-0.5-3.6-1.1
		s-3.8-0.9-4.9-1.5c-2-0.9-3-2.6-3-4.6c0-1.2,0.4-2.3,1.1-3.2c1.4-1.8,3.7-2.7,6.8-2.7c2.8,0,5,0.7,6.4,2c0.9,0.9,1.4,1.7,1.8,3.4
		l-4.5,0.6c-0.4-1.9-1.5-2.7-3.8-2.7c-2.1,0-3.6,1-3.6,2.4c0,0.7,0.4,1.2,1.1,1.6c0.8,0.4,1.5,0.6,3.4,1c3.5,0.8,4.9,1.2,6,2.1
		c1.3,1,2,2.4,2,4.2c0,1.4-0.7,2.9-1.7,3.9c-1.6,1.5-4,2.2-7.1,2.2c-3.5,0-6.2-1.1-7.6-3c-0.6-0.8-0.9-1.5-1.3-3L1706.4,293.5z"/>
</g>
<g>
	<path class="st1" d="M1547.1,1004.9c0,1.8,0.1,3,0.3,4.4h-5.2c0.2-1.4,0.3-2.6,0.3-4.4v-18.7h-4.6c-2,0-3.5,0.1-4.7,0.2v-4.6
		c1.2,0.2,2.7,0.2,4.7,0.2h13.6c2.5,0,3.7-0.1,5-0.2v4.6c-1.3-0.2-2.6-0.2-5-0.2h-4.3v18.7H1547.1z"/>
	<path class="st1" d="M1563.9,982.2c-0.2,1.3-0.2,2.6-0.2,4.5v4.9c0,0.4,0,0.6-0.1,1.5c2.1-2.7,4-3.6,7.1-3.6c4.4,0,6.9,2.5,6.9,6.9
		v8.6c0,1.9,0.1,3.2,0.3,4.4h-5c0.2-1.5,0.2-2.7,0.2-4.4v-7.6c0-1.6-0.3-2.7-1-3.4c-0.6-0.7-1.4-1-2.4-1c-2.6,0-4.6,1.6-6.1,5.1v6.9
		c0,1.7,0.1,3,0.3,4.4h-4.9c0.2-1.5,0.3-2.5,0.3-4.4v-18.3c0-2.1-0.1-3.1-0.2-4.5L1563.9,982.2L1563.9,982.2z"/>
	<path class="st1" d="M1585.6,1000.7c0.2,1.9,0.5,2.8,1.3,3.8c1,1.2,2.5,1.9,4.3,1.9c1.7,0,3.1-0.6,4.1-1.7c0.4-0.5,0.7-0.9,1-1.8
		l4,1.3c-0.8,1.6-1.2,2.3-2.1,3.1c-1.8,1.7-4.2,2.6-7.1,2.6c-6.1,0-9.9-4-9.9-10.4c0-6.3,3.8-10.5,9.7-10.5c4,0,7.2,2,8.5,5.4
		c0.7,1.6,0.9,2.9,1,5.2c0,0.1,0,0.2,0.1,1h-14.9V1000.7z M1596,997.3c-0.2-1.5-0.7-2.4-1.5-3.3c-0.9-0.9-2.1-1.4-3.7-1.4
		c-2.7,0-4.6,1.8-5.1,4.7H1596z"/>
	<path class="st1" d="M1603.9,1009.4c0.2-1.5,0.2-2.6,0.2-4.4v-10.7c0-2.2-0.1-3.1-0.2-4.5h4.6v1.7c0,0.2,0,0.7,0,1.3
		c1-2.1,3.5-3.4,6.4-3.4c1.8,0,3.4,0.5,4.4,1.5c0.6,0.5,0.9,1,1.3,2.1c1.2-1.5,1.8-2.2,2.9-2.7c1.1-0.6,2.3-0.9,3.8-0.9
		c2.2,0,4,0.7,5.1,2c1.1,1.2,1.6,2.8,1.6,5.2v8.5c0,1.9,0.1,3,0.3,4.4h-5c0.2-1.4,0.3-2.4,0.3-4.4v-7.7c0-3-1.1-4.4-3.4-4.4
		c-1.1,0-2,0.3-2.8,1c-1.2,1-1.7,2.1-2.2,4.2v6.8c0,1.9,0.1,3,0.2,4.4h-4.9c0.2-1.4,0.3-2.5,0.3-4.4v-7.7c0-2.9-1.1-4.3-3.3-4.3
		c-1.4,0-2.6,0.6-3.5,1.8c-0.8,1-1.1,1.8-1.5,3.4v6.8c0,1.8,0.1,2.9,0.2,4.4L1603.9,1009.4L1603.9,1009.4z"/>
	<path class="st1" d="M1642,1000.7c0.2,1.9,0.5,2.8,1.3,3.8c1,1.2,2.5,1.9,4.3,1.9c1.7,0,3.1-0.6,4.1-1.7c0.4-0.5,0.7-0.9,1-1.8
		l4,1.3c-0.8,1.6-1.2,2.3-2.1,3.1c-1.8,1.7-4.2,2.6-7.1,2.6c-6.1,0-9.9-4-9.9-10.4c0-6.3,3.8-10.5,9.7-10.5c4,0,7.2,2,8.5,5.4
		c0.7,1.6,0.9,2.9,1,5.2c0,0.1,0,0.2,0.1,1H1642V1000.7z M1652.4,997.3c-0.2-1.5-0.7-2.4-1.5-3.3c-0.9-0.9-2.1-1.4-3.7-1.4
		c-2.7,0-4.6,1.8-5.1,4.7H1652.4z"/>
</g>
</svg>
