<?xml version="1.0" encoding="utf-8"?>
<!-- Generator: Adobe Illustrator 26.4.1, SVG Export Plug-In . SVG Version: 6.00 Build 0)  -->
<svg version="1.1" id="レイヤー_1" xmlns="http://www.w3.org/2000/svg" xmlns:xlink="http://www.w3.org/1999/xlink" x="0px"
	 y="0px" viewBox="0 0 1920 1080" style="enable-background:new 0 0 1920 1080;" xml:space="preserve">
<style type="text/css">
	.st0{fill:#FFFFFF;}
	.st1{opacity:0.1;fill:#FF0000;}
	.st2{fill:#C9C9C9;}
</style>
<g id="レイヤー_2_00000012443098498977644380000005485677066099254686_">
	<rect y="0" class="st0" width="1920" height="1080"/>
</g>
<circle class="st1" cx="184.4" cy="226.1" r="1232.2"/>
<g>
	<path class="st0" d="M96.8,266.8h236.8v107.6h-97v102H323v102.3h-86.4v225.9H96.8V266.8z"/>
	<path class="st0" d="M663.8,429.6H533.9v-39.9c0-18.6-1.7-30.4-5-35.5c-3.3-5.1-8.9-7.6-16.6-7.6c-8.4,0-14.8,3.4-19.1,10.3
		c-4.3,6.9-6.5,17.3-6.5,31.2c0,17.9,2.4,31.5,7.3,40.5c4.6,9.1,17.8,20,39.5,32.9c62.2,36.9,101.4,67.3,117.6,91
		c16.2,23.7,24.2,61.9,24.2,114.6c0,38.3-4.5,66.5-13.5,84.7c-9,18.2-26.3,33.4-52,45.7c-25.7,12.3-55.6,18.4-89.7,18.4
		c-37.4,0-69.4-7.1-95.8-21.3c-26.5-14.2-43.8-32.2-52-54.1c-8.2-21.9-12.3-53-12.3-93.3v-35.2h129.9v65.4c0,20.2,1.8,33.1,5.5,38.9
		c3.7,5.8,10.1,8.6,19.4,8.6c9.3,0,16.2-3.7,20.8-11c4.5-7.3,6.8-18.2,6.8-32.6c0-31.7-4.3-52.4-13-62.1c-8.9-9.7-30.7-26-65.4-48.8
		c-34.8-23-57.8-39.7-69.1-50.2c-11.3-10.4-20.6-24.8-28.1-43.2c-7.4-18.4-11.1-41.9-11.1-70.4c0-41.2,5.3-71.3,15.8-90.3
		c10.5-19,27.5-33.9,51-44.7c23.5-10.7,51.8-16.1,85-16.1c36.3,0,67.3,5.9,92.8,17.6c25.6,11.7,42.5,26.5,50.8,44.3
		c8.3,17.8,12.5,48.1,12.5,90.8V429.6z"/>
	<path class="st0" d="M719.3,266.8h233.2v107.6h-93.3v102h87.4v102.3h-87.4V697h102.6v107.6H719.3V266.8z"/>
</g>
<path class="st2" d="M1640.6,572v9.8c0,39,23.7,74,59.9,88.5c60.5,24.2,100.1,82.8,100.1,147.9V892c0,17.7-14.3,32-32,32
	s-32-14.3-32-32v-73.8c0-10-1.6-19.8-4.5-29l-160.6,248.2c-9.7,14.9-29.4,19.2-44.3,9.5c-14.9-9.7-19.1-29.5-9.5-44.3L1610,860h-1.4
	h-96l-38.4,51.2c-10.6,14.1-30.7,17-44.8,6.4c-14.1-10.6-17-30.7-6.4-44.8l43.2-57.6c9.1-12.1,23.3-19.2,38.4-19.2h87.5l56.8-80.3
	l0.2-0.3c-44.6-29-72.5-79-72.5-133.6V572c0-17.7,14.3-32,32-32S1640.6,554.3,1640.6,572z M1832.6,620c0,26.5-21.5,48-48,48
	s-48-21.5-48-48s21.5-48,48-48S1832.6,593.5,1832.6,620z"/>
</svg>
