<?xml version="1.0" encoding="utf-8"?>
<!-- Generator: Adobe Illustrator 26.4.1, SVG Export Plug-In . SVG Version: 6.00 Build 0)  -->
<svg version="1.1" id="レイヤー_1" xmlns="http://www.w3.org/2000/svg" xmlns:xlink="http://www.w3.org/1999/xlink" x="0px"
	 y="0px" viewBox="0 0 1920 1080" style="enable-background:new 0 0 1920 1080;" xml:space="preserve">
<style type="text/css">
	.st0{fill:#FFFFFF;}
	.st1{fill:#D00000;}
	.st2{fill:#32373C;}
	.st3{opacity:0.1;fill:#FF0000;}
	.st4{font-family:'Impact';}
	.st5{font-size:680.2299px;}
	.st6{fill:#C9C9C9;}
</style>
<g id="レイヤー_2_00000012443098498977644380000005485677066099254686_">
	<rect y="0" class="st0" width="1920" height="1080"/>
</g>
<path class="st1" d="M2182.6-267.9h-385.4c-7.9,0-14.4-6.4-14.4-14.4v-64.2c0-7.9,6.4-14.4,14.4-14.4h385.4
	c7.9,0,14.4,6.4,14.4,14.4v64.2C2196.9-274.3,2190.5-267.9,2182.6-267.9z"/>
<path class="st2" d="M2136.3-151.6l84.6,231.7C2161.7,51.4,2121-9.2,2121-79.4C2120.9-105.1,2126.4-129.5,2136.3-151.6z
	 M2417.9-88.3c0-21.9-7.8-37.1-14.6-48.9c-9-14.6-17.4-27-17.4-41.6c0-16.3,12.3-31.5,29.8-31.5c0.8,0,1.5,0.1,2.3,0.2
	c-31.6-28.9-73.6-46.6-119.8-46.6c-61.9,0-116.4,31.8-148.2,79.9c4.2,0.2,8.1,0.3,11.4,0.3c18.5,0,47.3-2.3,47.3-2.3
	c9.6-0.6,10.7,13.5,1.2,14.6c0,0-9.6,1.1-20.3,1.7l64.6,192L2293-86.8l-27.6-75.7c-9.6-0.6-18.6-1.7-18.6-1.7
	c-9.6-0.6-8.4-15.2,1.1-14.6c0,0,29.3,2.3,46.7,2.3c18.5,0,47.3-2.3,47.3-2.3c9.6-0.6,10.7,13.5,1.2,14.6c0,0-9.6,1.1-20.3,1.7
	l64.1,190.6l17.7-59.1C2412.1-55.6,2417.9-73.1,2417.9-88.3L2417.9-88.3z M2301.3-63.9l-53.2,154.6c15.9,4.7,32.7,7.3,50.1,7.3
	c20.7,0,40.4-3.6,58.8-10.1c-0.5-0.8-0.9-1.6-1.3-2.4L2301.3-63.9z M2453.8-164.5c0.8,5.7,1.2,11.7,1.2,18.3
	c0,18-3.3,38.2-13.5,63.5l-54.2,156.6c52.8-30.8,88.2-87.8,88.2-153.3C2475.5-110.2,2467.6-139.2,2453.8-164.5L2453.8-164.5z
	 M2504.9-79.4c0,114-92.8,206.7-206.7,206.7c-114,0-206.7-92.8-206.7-206.7c0-114,92.7-206.7,206.7-206.7
	C2412.1-286.1,2504.9-193.4,2504.9-79.4z M2495.4-79.4c0-108.8-88.5-197.2-197.2-197.2c-108.8,0-197.2,88.4-197.2,197.2
	s88.5,197.2,197.2,197.2C2407,117.8,2495.4,29.4,2495.4-79.4z"/>
<g>
	<path class="st0" d="M1832.6-339.1c-0.3,2.2-0.4,4-0.4,8v28.9c0,3.7,0.1,5.7,0.4,8h-11.8c0.3-2.1,0.4-4.4,0.4-8v-28.9
		c0-4-0.1-5.6-0.4-8H1832.6z"/>
	<path class="st0" d="M1878.7-315.2c-0.5-1.6-0.8-2.4-1.5-3.2c-1.1-1.2-2.6-1.9-4.5-1.9c-4.4,0-6.9,3.4-6.9,9.4
		c0,5.8,2.7,9.6,7.1,9.6c2.1,0,4-0.9,5.1-2.4c0.5-0.7,0.8-1.2,1-2.5l9.9,1.6c-0.6,2.3-1.2,3.8-2.3,5.3c-2.7,4-7.6,6.2-13.8,6.2
		c-5.2,0-9.6-1.6-12.5-4.6c-3.1-3.1-4.8-7.8-4.8-13.1c0-10.8,6.8-17.7,17.3-17.7c8.3,0,14.1,4.1,15.8,11.3L1878.7-315.2z"/>
	<path class="st0" d="M1914.6-316.8c0-2.6-1.6-3.8-5.1-3.8c-3.4,0-5.3,1.1-6.1,3.8l-10.3-1.7c1.1-3.2,2.3-4.9,4.5-6.5
		c2.9-2,6.9-3.1,12.1-3.1c4,0,7.9,0.8,10,1.9c3.4,1.9,5,4.8,5,9.7v14.5c0,3.3,0.1,5.2,0.4,7.6h-10.4v-2.5c-3,2.3-6,3.2-10.4,3.2
		c-4.1,0-7.2-1-9.3-3c-1.9-1.8-3-4.4-3-7.3c0-3.4,1.3-6.1,3.9-7.9c2.7-1.9,6.4-3.1,11.2-3.5c2.1-0.2,3.7-0.3,7.6-0.4L1914.6-316.8
		L1914.6-316.8z M1914.6-308.6c-4.8,0.1-7.1,0.4-9.3,1.1c-1.9,0.6-3.1,2-3.1,3.6c0,1.9,1.6,3.1,4.4,3.1c2.2,0,4.6-0.8,6.1-2
		c1.2-1.1,1.9-2.5,1.9-4.1V-308.6z"/>
	<path class="st0" d="M1930.7-294.3c0.3-2.5,0.4-4.8,0.4-8.1V-319c0-3.7-0.1-6-0.4-8.1h10.7v2.3c0,0.3-0.1,1.1-0.1,1.5
		c3.4-3.2,6.7-4.6,11.1-4.6c3.7,0,6.7,1,8.7,3c2.2,2.2,3.1,4.8,3.1,9v13.5c0,3.1,0.2,5.8,0.4,8.1h-11.2c0.3-2.6,0.4-4.8,0.4-8.1v-11
		c0-2.2-0.2-3.1-0.9-4c-0.7-1-1.9-1.5-3.6-1.5c-3,0-5.7,1.9-8,5.7v10.9c0,3.1,0.1,5.3,0.4,8.1h-11V-294.3z"/>
	<path class="st0" d="M2013.3-296c0-0.3,0-0.7,0.1-1.2c-3.6,2.9-6.4,3.9-10.9,3.9c-9.8,0-15.7-6.6-15.7-17.4
		c0-5.6,1.6-10.1,4.6-13.1c2.7-2.7,6.5-4.2,10.9-4.2s7.5,1.1,11,4c-0.1-0.8-0.1-1.3-0.1-2v-4.5c0-3.8-0.1-6.1-0.4-8.5h11
		c-0.3,2.3-0.4,4.8-0.4,8.5v27.9c0,3.6,0.1,5.8,0.4,8.5h-10.6L2013.3-296L2013.3-296z M1997.2-310.7c0,3.1,0.9,5.5,2.5,7.1
		c1.3,1.3,3.2,2,5.2,2c4.8,0,8.3-4,8.3-9.3c0-5.2-3.4-9-8.3-9C2000.2-319.8,1997.2-316.3,1997.2-310.7z"/>
	<path class="st0" d="M2028.2-310.7c0-10.8,6.9-17.6,17.8-17.6c10.9,0,17.8,6.8,17.8,17.5s-7.1,17.8-17.8,17.8
		C2035.1-293,2028.2-299.9,2028.2-310.7z M2038.5-310.8c0,6,2.8,9.6,7.5,9.6s7.4-3.5,7.4-9.5s-2.7-9.6-7.3-9.6
		C2041.3-320.3,2038.5-316.7,2038.5-310.8z"/>
	<path class="st0" d="M2097.3-327.1c-0.3,2.2-0.4,4.4-0.4,8.1v16.6c0,2.9,0.2,5.8,0.4,8.1H2086c0.3-2.6,0.4-4.7,0.4-8.1V-319
		c0-3.5-0.1-5.7-0.4-8.1H2097.3z M2097.1-339.1v8.1h-10.9v-8.1H2097.1z"/>
	<path class="st0" d="M2107.2-328.2c0-2.7-0.1-4.8-0.4-7.4h11c-0.3,2.2-0.4,4.8-0.4,7.4v1.1h1.9c2.4,0,3.6-0.1,5.3-0.3v8.9
		c-1.6-0.2-3-0.3-5-0.3h-2.3v13.8c0,1.5,0.3,2.3,1,2.7c0.6,0.4,1.5,0.6,2.5,0.6c1.4,0,2.4-0.3,3.8-1l0.8,8.2
		c-2.4,0.8-4.5,1.1-7.4,1.1c-3.7,0-6.2-0.6-7.9-1.9c-2-1.6-2.8-3.4-2.8-7.1v-16.5h-2c-1.7,0-3.1,0.1-4.7,0.3v-9
		c1.6,0.2,2.9,0.3,4.8,0.3h1.9v-0.9H2107.2z"/>
	<path class="st0" d="M2149.1-308.1c0.1-1.2,0.1-1.6,0.1-2.8c0-0.6,0-0.6-0.2-3.8l-1.1-17.1c-0.2-2.7-0.4-5.6-0.6-7.3h12.5
		c-0.3,2.1-0.4,4.4-0.6,7.3l-1.1,17.1c-0.1,2.2-0.2,3.4-0.2,4.3c0,0.6,0,1.1,0.1,2.4h-8.9V-308.1z M2148.2-294.3v-10.2h10.8v10.2
		H2148.2z"/>
</g>
<polygon class="st1" points="2144.3,-273.5 2150,-244.2 2120.9,-273.5 "/>
<circle class="st3" cx="184.4" cy="226.1" r="1232.2"/>
<text transform="matrix(1 0 0 1 68.9434 804.5754)" class="st0 st4 st5">FSE</text>
<path class="st6" d="M1640.6,572v9.8c0,39,23.7,74,59.9,88.5c60.5,24.2,100.1,82.8,100.1,147.9V892c0,17.7-14.3,32-32,32
	s-32-14.3-32-32v-73.8c0-10-1.6-19.8-4.5-29l-160.6,248.2c-9.7,14.9-29.4,19.2-44.3,9.5c-14.9-9.7-19.1-29.5-9.5-44.3L1610,860h-1.4
	h-96l-38.4,51.2c-10.6,14.1-30.7,17-44.8,6.4c-14.1-10.6-17-30.7-6.4-44.8l43.2-57.6c9.1-12.1,23.3-19.2,38.4-19.2h87.5l56.8-80.3
	l0.2-0.3c-44.6-29-72.5-79-72.5-133.6V572c0-17.7,14.3-32,32-32S1640.6,554.3,1640.6,572z M1832.6,620c0,26.5-21.5,48-48,48
	s-48-21.5-48-48s21.5-48,48-48S1832.6,593.5,1832.6,620z"/>
</svg>
