<?xml version="1.0" encoding="utf-8"?>
<!-- Generator: Adobe Illustrator 26.4.1, SVG Export Plug-In . SVG Version: 6.00 Build 0)  -->
<svg version="1.1" id="レイヤー_1" xmlns="http://www.w3.org/2000/svg" xmlns:xlink="http://www.w3.org/1999/xlink" x="0px"
	 y="0px" viewBox="0 0 1920 1080" style="enable-background:new 0 0 1920 1080;" xml:space="preserve">
<style type="text/css">
	.st0{fill:#FFFFFF;}
	.st1{enable-background:new    ;}
	.st2{fill:#575757;}
	.st3{fill:#924BB3;}
</style>
<g id="レイヤー_2_00000012443098498977644380000005485677066099254686_">
	<rect y="0" class="st0" width="1920" height="1080"/>
</g>
<g class="st1">
	<path class="st2" d="M2077.6,915c-2.6,0-3.5,0.1-5.1,0.3v-9.2c1.9,0.3,3.2,0.3,6.8,0.3h4.1c2.6,0,4.6-0.1,6.8-0.3
		c-0.3,2-0.4,3.7-0.4,7v5.8c0,3.7,0.1,5.3,0.4,7.7c-2.8,1.8-4.2,2.5-6.6,3.3c-3.4,1.1-7.1,1.8-11,1.8c-6.6,0-11.7-1.8-15.4-5.5
		c-3.9-3.9-6.1-10.1-6.1-17.2c0-13.6,8.2-22.2,21.3-22.2c6.5,0,11.4,2,14.8,6.2c1.4,1.6,2.2,3.2,3.1,5.6l-10.5,2.4
		c-0.6-1.9-1.2-2.8-2.3-3.7c-1.3-1.1-3.1-1.6-5.2-1.6c-6.6,0-10.2,4.8-10.2,13.5c0,4.8,1.1,8.5,3.2,10.8c1.7,1.8,4.2,2.8,7.4,2.8
		c2.7,0,5-0.6,7.5-1.9V915H2077.6z"/>
	<path class="st2" d="M2105,887.6c-0.3,2.2-0.4,4.3-0.4,7.8v27.4c0,3.1,0.1,5.1,0.4,7.8h-10.8c0.3-2.3,0.4-4.1,0.4-7.8v-27.4
		c0-3.7-0.1-5.8-0.4-7.8H2105z"/>
	<path class="st2" d="M2107.8,914.8c0-10.3,6.6-16.9,17.1-16.9c10.4,0,17.1,6.6,17.1,16.8c0,10.3-6.8,17.1-17.1,17.1
		C2114.4,931.9,2107.8,925.2,2107.8,914.8z M2117.7,914.8c0,5.7,2.7,9.2,7.2,9.2c4.5,0,7.1-3.4,7.1-9.1c0-5.8-2.6-9.2-7-9.2
		C2120.4,905.7,2117.7,909.1,2117.7,914.8z"/>
	<path class="st2" d="M2144.9,930.7c0.3-2.5,0.4-4.7,0.4-8.1v-26.8c0-3.8-0.1-5.6-0.4-8.1h10.5c-0.3,2.5-0.4,4.3-0.4,8.1v4.3
		c0,0.8,0,1.2-0.1,2c3.1-2.7,6.4-3.9,10.7-3.9c9.4,0,14.9,6,14.9,16.2c0,5.5-1.6,10-4.6,13.1c-2.7,2.7-6.2,4-10.8,4
		c-4.3,0-6.8-0.9-10.2-3.7c0,0.2,0.1,0.8,0.1,1.1v1.7H2144.9z M2163.2,906.1c-4.7,0-8.1,3.6-8.1,8.6c0,5.1,3.4,9,7.9,9
		c4.5,0,7.5-3.7,7.5-9.2C2170.5,909.3,2167.7,906.1,2163.2,906.1z"/>
	<path class="st2" d="M2204.1,909.1c0-2.5-1.5-3.6-4.9-3.6c-3.3,0-5.1,1.1-5.8,3.6l-9.9-1.6c1-3.1,2.2-4.7,4.3-6.3
		c2.8-2,6.6-2.9,11.6-2.9c3.8,0,7.5,0.7,9.6,1.8c3.3,1.8,4.8,4.7,4.8,9.3v14c0,3.2,0.1,5,0.4,7.3h-10v-2.4c-2.9,2.2-5.8,3.1-10,3.1
		c-3.9,0-6.9-0.9-8.9-2.8c-1.9-1.7-2.8-4.2-2.8-7c0-3.3,1.3-5.8,3.8-7.5c2.6-1.9,6.1-2.9,10.8-3.4c2-0.2,3.6-0.3,7.3-0.4V909.1z
		 M2204.1,916.9c-4.6,0.1-6.8,0.4-8.9,1c-1.9,0.6-3,1.9-3,3.4c0,1.9,1.6,2.9,4.2,2.9c2.1,0,4.4-0.8,5.8-2c1.2-1,1.9-2.4,1.9-4V916.9
		z"/>
	<path class="st2" d="M2229.1,887.6c-0.3,2.2-0.4,4.3-0.4,7.8v27.4c0,3.1,0.1,5.1,0.4,7.8h-10.8c0.3-2.3,0.4-4.1,0.4-7.8v-27.4
		c0-3.7-0.1-5.8-0.4-7.8H2229.1z"/>
	<path class="st2" d="M2259.1,916.7c0.2,1.9,0.6,2.8,1.3,3.8c1.2,1.6,3.4,2.4,6,2.4c4,0,6.4-1.8,6.4-4.7c0-1.6-0.8-3-2.2-3.6
		c-1.1-0.5-2.4-0.9-7.8-2.1c-4.8-1-6.4-1.7-8.3-3c-3.3-2.3-5-5.7-5-9.9c0-8,6.4-13,16.6-13c6.6,0,11.6,2,14.4,5.9
		c1.3,1.7,1.9,3.3,2.6,6.2l-11,1.2c-0.6-3.4-2.5-4.8-6.4-4.8c-3.2,0-5.5,1.7-5.5,4.1c0,1.4,0.8,2.5,2.4,3.3c1,0.5,1,0.5,7.1,1.7
		c3.9,0.8,6.4,1.7,8.4,2.9c3.7,2.3,5.6,5.8,5.6,10.5c0,3.9-1.2,7.2-3.6,9.5c-3,2.9-7.6,4.4-13.6,4.4c-4.4,0-8.7-0.9-11.5-2.5
		c-2.6-1.4-4.5-3.7-5.6-6.6c-0.5-1.2-0.8-2.4-1.1-4.8L2259.1,916.7z"/>
	<path class="st2" d="M2291.5,898c0-2.6-0.1-4.7-0.4-7.1h10.5c-0.3,2.1-0.4,4.6-0.4,7.1v1.1h1.9c2.3,0,3.5-0.1,5.1-0.3v8.6
		c-1.6-0.2-2.9-0.3-4.8-0.3h-2.2v13.2c0,1.4,0.3,2.2,0.9,2.6c0.6,0.4,1.4,0.6,2.4,0.6c1.3,0,2.3-0.3,3.6-0.9l0.8,7.9
		c-2.3,0.7-4.3,1-7.1,1c-3.5,0-5.9-0.6-7.6-1.8c-2-1.5-2.7-3.3-2.7-6.8v-15.8h-2c-1.7,0-3,0.1-4.5,0.3v-8.6c1.5,0.2,2.8,0.3,4.6,0.3
		h1.9V898z"/>
	<path class="st2" d="M2311.6,906.1c-2.2-5.2-2.4-5.6-3.1-6.9h11.2c0.3,1.7,0.9,3.9,2,6.7l4.8,11.9l4.6-11.7
		c1.4-3.6,1.9-5.1,2.2-6.9h11.2c-1.3,2.7-1.3,2.7-3.1,6.9l-11.8,27.4c-2.1,4.9-5.8,7.1-11.7,7.1c-2.3,0-4.2-0.3-7.1-0.9l1.1-8.2
		c1.7,0.9,2.7,1.1,4,1.1c2,0,3.4-0.9,4.2-2.4l1.1-2.2L2311.6,906.1z"/>
	<path class="st2" d="M2357.1,887.6c-0.3,2.2-0.4,4.3-0.4,7.8v27.4c0,3.1,0.1,5.1,0.4,7.8h-10.8c0.3-2.3,0.4-4.1,0.4-7.8v-27.4
		c0-3.7-0.1-5.8-0.4-7.8H2357.1z"/>
	<path class="st2" d="M2369.4,917.8c0.5,4.2,2.9,6.4,7,6.4c2.1,0,3.9-0.7,5.2-1.9c0.8-0.7,1.1-1.3,1.6-2.6l9,2.5
		c-1.2,2.7-2,3.9-3.4,5.3c-2.9,2.9-7.1,4.4-12.2,4.4c-5.1,0-9-1.4-12-4.4c-3.1-3.1-4.7-7.5-4.7-12.6c0-10.2,6.6-17,16.4-17
		c8.1,0,13.7,4.4,15.5,12.1c0.4,1.7,0.6,3.8,0.8,6.8c0,0.2,0,0.5,0.1,1H2369.4z M2382.9,910.7c-0.7-3.3-2.9-5.1-6.5-5.1
		c-3.7,0-5.9,1.7-6.8,5.1H2382.9z"/>
	<path class="st2" d="M2094.3,980.2c0.4,1.4,0.4,1.4,1,3.6c0.6-2.3,0.7-2.6,1-3.6l7.5-24.9c0.7-2.4,1-3.8,1.2-5.6h12.2
		c-0.7,1.6-1.2,2.7-2.5,6.3l-11,31.1c-0.9,2.5-1.4,4.3-1.7,5.6h-13.4c-0.3-1.3-0.8-3.1-1.7-5.6l-11-31.1c-1-3-1.6-4.3-2.4-6.3h12.1
		c0.2,1.7,0.7,3.7,1.2,5.6L2094.3,980.2z"/>
	<path class="st2" d="M2136.6,971.1c0-2.5-1.5-3.6-4.9-3.6c-3.3,0-5.1,1.1-5.8,3.6l-9.9-1.6c1-3.1,2.2-4.7,4.3-6.3
		c2.8-2,6.6-2.9,11.6-2.9c3.8,0,7.5,0.7,9.6,1.8c3.3,1.8,4.8,4.7,4.8,9.3v14c0,3.2,0.1,5,0.4,7.3h-10v-2.4c-2.9,2.2-5.8,3.1-10,3.1
		c-3.9,0-6.9-0.9-8.9-2.8c-1.9-1.7-2.8-4.2-2.8-7c0-3.3,1.3-5.8,3.8-7.5c2.6-1.9,6.1-2.9,10.8-3.4c2-0.2,3.6-0.3,7.3-0.4V971.1z
		 M2136.6,978.9c-4.6,0.1-6.8,0.4-8.9,1c-1.9,0.6-3,1.9-3,3.4c0,1.9,1.6,2.9,4.2,2.9c2.1,0,4.4-0.8,5.8-2c1.2-1,1.9-2.4,1.9-4V978.9
		z"/>
	<path class="st2" d="M2174.1,970.5c-2.4-0.7-3.7-1-5.3-1c-2.6,0-4.7,0.9-6.2,2.8c-1,1.2-1.3,2.3-1.6,4.6v8.1c0,3.3,0.1,5.3,0.4,7.8
		h-10.7c0.3-2.6,0.4-4.4,0.4-7.8V969c0-3.8-0.1-5.6-0.4-7.8h10.3v4.1c2.5-3.3,5.6-4.7,10.3-4.7c1.7,0,2.7,0.1,5.1,0.6L2174.1,970.5z
		"/>
	<path class="st2" d="M2189.2,961.2c-0.3,2.1-0.4,4.2-0.4,7.8v15.9c0,2.8,0.2,5.6,0.4,7.8h-10.8c0.3-2.5,0.4-4.5,0.4-7.8V969
		c0-3.4-0.1-5.5-0.4-7.8H2189.2z M2189,949.7v7.8h-10.5v-7.8H2189z"/>
	<path class="st2" d="M2214.1,971.1c0-2.5-1.5-3.6-4.9-3.6c-3.3,0-5.1,1.1-5.8,3.6l-9.9-1.6c1-3.1,2.2-4.7,4.3-6.3
		c2.8-2,6.6-2.9,11.6-2.9c3.8,0,7.5,0.7,9.6,1.8c3.3,1.8,4.8,4.7,4.8,9.3v14c0,3.2,0.1,5,0.4,7.3h-10v-2.4c-2.9,2.2-5.8,3.1-10,3.1
		c-3.9,0-6.9-0.9-8.9-2.8c-1.9-1.7-2.8-4.2-2.8-7c0-3.3,1.3-5.8,3.8-7.5c2.6-1.9,6.1-2.9,10.8-3.4c2-0.2,3.6-0.3,7.3-0.4V971.1z
		 M2214.1,978.9c-4.6,0.1-6.8,0.4-8.9,1c-1.9,0.6-3,1.9-3,3.4c0,1.9,1.6,2.9,4.2,2.9c2.1,0,4.4-0.8,5.8-2c1.2-1,1.9-2.4,1.9-4V978.9
		z"/>
	<path class="st2" d="M2232.4,960.1c0-2.6-0.1-4.7-0.4-7.1h10.5c-0.3,2.1-0.4,4.6-0.4,7.1v1.1h1.9c2.3,0,3.5-0.1,5.1-0.3v8.6
		c-1.6-0.2-2.9-0.3-4.8-0.3h-2.2v13.2c0,1.4,0.3,2.2,0.9,2.6c0.6,0.4,1.4,0.6,2.4,0.6c1.3,0,2.3-0.3,3.6-0.9l0.8,7.9
		c-2.3,0.7-4.3,1-7.1,1c-3.5,0-5.9-0.6-7.6-1.8c-2-1.5-2.7-3.3-2.7-6.8v-15.8h-2c-1.7,0-3,0.1-4.5,0.3v-8.6c1.5,0.2,2.8,0.3,4.6,0.3
		h1.9V960.1z"/>
	<path class="st2" d="M2262.6,961.2c-0.3,2.1-0.4,4.2-0.4,7.8v15.9c0,2.8,0.2,5.6,0.4,7.8h-10.8c0.3-2.5,0.4-4.5,0.4-7.8V969
		c0-3.4-0.1-5.5-0.4-7.8H2262.6z M2262.5,949.7v7.8H2252v-7.8H2262.5z"/>
	<path class="st2" d="M2265.5,976.9c0-10.3,6.6-16.9,17.1-16.9s17.1,6.6,17.1,16.8c0,10.3-6.8,17.1-17.1,17.1
		C2272.1,993.9,2265.5,987.3,2265.5,976.9z M2275.3,976.9c0,5.7,2.7,9.2,7.2,9.2s7.1-3.4,7.1-9.1c0-5.8-2.6-9.2-7-9.2
		C2278,967.8,2275.3,971.2,2275.3,976.9z"/>
	<path class="st2" d="M2302.5,992.7c0.3-2.4,0.4-4.6,0.4-7.8V969c0-3.6-0.1-5.7-0.4-7.8h10.3v2.2c0,0.3-0.1,1.1-0.1,1.4
		c3.3-3.1,6.4-4.4,10.7-4.4c3.6,0,6.4,1,8.3,2.9c2.1,2.1,2.9,4.6,2.9,8.7v13c0,3,0.2,5.6,0.4,7.8h-10.8c0.3-2.5,0.4-4.7,0.4-7.8
		v-10.6c0-2.1-0.2-2.9-0.8-3.8c-0.7-0.9-1.9-1.4-3.4-1.4c-2.9,0-5.5,1.8-7.7,5.4v10.4c0,2.9,0.1,5.1,0.4,7.8H2302.5z"/>
	<path class="st2" d="M2348.2,982.2c0.5,2.7,2.3,3.9,5.7,3.9c3.1,0,4.9-0.9,4.9-2.5c0-0.8-0.4-1.4-1.1-1.9c-0.7-0.4-1.4-0.6-4.2-1.2
		c-3.9-0.8-5.9-1.3-7.7-1.9c-2.5-0.9-4.2-2.1-5.2-3.7c-0.8-1.4-1.3-3.2-1.3-4.9c0-6.2,5.2-10,13.9-10c4.9,0,8.6,1.1,11,3.3
		c1.7,1.5,2.5,3,3.4,5.9l-10,1.1c-0.3-2.1-1.6-3.1-4.3-3.1c-2.7,0-4.3,0.9-4.3,2.2c0,1.4,1.1,1.9,6.2,3.1c5.1,1.1,6.7,1.6,8.5,2.5
		c3.4,1.7,5,4.2,5,7.9c0,2.7-0.9,5.2-2.6,6.9c-2.5,2.5-6.7,3.8-12.3,3.8c-6.5,0-11.1-1.8-13.6-5.2c-1-1.4-1.6-2.7-2.1-5.2
		L2348.2,982.2z"/>
</g>
<text transform="matrix(1 0 0 1 515.2906 1223.0027)"><tspan x="0" y="0" class="st3" style="font-family:'HiraKakuStdN-W8-83pv-RKSJ-H'; font-size:51.7194px; letter-spacing:-1;">Value-added</tspan><tspan x="60.4" y="62.1" class="st3" style="font-family:'HiraKakuStdN-W8-83pv-RKSJ-H'; font-size:51.7194px; letter-spacing:-1;">Patterns</tspan></text>
<text transform="matrix(1 0 0 1 1059.6423 1224.0374)" class="st1"><tspan x="0" y="0" class="st2" style="font-family:'HiraKakuStdN-W8-83pv-RKSJ-H'; font-size:51.7194px; letter-spacing:-1;">Global Style</tspan><tspan x="22.3" y="62.1" class="st2" style="font-family:'HiraKakuStdN-W8-83pv-RKSJ-H'; font-size:51.7194px; letter-spacing:-1;">Variations</tspan></text>
<path d="M2221.7,596.7c-66.8,0-121.4,54.6-121.4,121.4v1.5c0,62.2,48.6,113.8,109.3,119.9h12.1c66.8,0,121.4-54.6,121.4-121.4
	S2288.5,596.7,2221.7,596.7z M2221.7,824.3V611.8c59.2,0,106.2,47,106.2,106.2C2327.9,777.2,2280.9,824.3,2221.7,824.3z"/>
<g>
	<g>
		<path class="st3" d="M797.3,917.1c0.4,1.4,0.4,1.4,1,3.6c0.6-2.3,0.7-2.6,1-3.6l7.5-24.9c0.7-2.4,1-3.8,1.2-5.6h12.2
			c-0.7,1.6-1.2,2.7-2.5,6.3l-11,31.1c-0.9,2.5-1.4,4.3-1.7,5.6h-13.4c-0.3-1.3-0.8-3.1-1.7-5.6l-11-31.1c-1-3-1.6-4.3-2.4-6.3h12.1
			c0.2,1.7,0.7,3.7,1.2,5.6L797.3,917.1z"/>
		<path class="st3" d="M839.6,908c0-2.5-1.5-3.6-4.9-3.6c-3.3,0-5.1,1.1-5.8,3.6l-9.9-1.6c1-3.1,2.2-4.7,4.3-6.3
			c2.8-2,6.6-2.9,11.6-2.9c3.8,0,7.5,0.7,9.6,1.8c3.3,1.8,4.8,4.7,4.8,9.3v14c0,3.2,0.1,5,0.4,7.3h-10v-2.4c-2.9,2.2-5.8,3.1-10,3.1
			c-3.9,0-6.9-0.9-8.9-2.8c-1.9-1.7-2.8-4.2-2.8-7c0-3.3,1.3-5.8,3.8-7.5c2.6-1.9,6.1-2.9,10.8-3.4c2-0.2,3.6-0.3,7.3-0.4V908z
			 M839.6,915.8c-4.6,0.1-6.8,0.4-8.9,1c-1.9,0.6-3,1.9-3,3.4c0,1.9,1.6,2.9,4.2,2.9c2.1,0,4.4-0.8,5.8-2c1.2-1,1.9-2.4,1.9-4V915.8
			z"/>
		<path class="st3" d="M864.6,886.6c-0.3,2.2-0.4,4.3-0.4,7.8v27.4c0,3.1,0.1,5.1,0.4,7.8h-10.8c0.3-2.3,0.4-4.1,0.4-7.8v-27.4
			c0-3.7-0.1-5.8-0.4-7.8H864.6z"/>
		<path class="st3" d="M901.3,898.1c-0.3,2.4-0.4,4.6-0.4,7.8v16c0,3.6,0.1,5.7,0.4,7.8H891v-2.2c0-0.3,0-1,0.1-1.4
			c-3.4,3.2-6.4,4.4-10.8,4.4c-3.5,0-6.3-1-8.2-2.9c-2.1-2.1-2.9-4.6-2.9-8.7v-13c0-3-0.2-5.6-0.4-7.8h10.8
			c-0.3,2.5-0.4,4.7-0.4,7.8v10.6c0,2.1,0.2,3.1,0.8,3.9c0.7,0.9,1.9,1.4,3.4,1.4c2.8,0,5.7-2,7.8-5.3v-10.6c0-2.9-0.1-5.1-0.4-7.8
			H901.3z"/>
		<path class="st3" d="M913.6,916.8c0.5,4.2,2.9,6.4,7,6.4c2.1,0,3.9-0.7,5.2-1.9c0.8-0.7,1.1-1.3,1.6-2.6l9,2.5
			c-1.2,2.7-2,3.9-3.4,5.3c-2.9,2.9-7.1,4.4-12.2,4.4c-5.1,0-9-1.4-12-4.4c-3.1-3.1-4.7-7.5-4.7-12.6c0-10.2,6.6-17,16.4-17
			c8.1,0,13.7,4.4,15.5,12.1c0.4,1.7,0.6,3.8,0.8,6.8c0,0.2,0,0.5,0.1,1H913.6z M927.1,909.6c-0.7-3.3-2.9-5.1-6.5-5.1
			c-3.7,0-5.9,1.7-6.8,5.1H927.1z"/>
		<path class="st3" d="M939.1,908.3c1.6,0.3,3.1,0.4,5,0.4h10.2c2,0,3.4-0.1,5-0.4v9.8c-1.7-0.3-3.1-0.4-5-0.4h-10.2
			c-1.9,0-3.3,0.1-5,0.4V908.3z"/>
		<path class="st3" d="M983.7,908c0-2.5-1.5-3.6-4.9-3.6c-3.3,0-5.1,1.1-5.8,3.6l-9.9-1.6c1-3.1,2.2-4.7,4.3-6.3
			c2.8-2,6.6-2.9,11.6-2.9c3.8,0,7.5,0.7,9.6,1.8c3.3,1.8,4.8,4.7,4.8,9.3v14c0,3.2,0.1,5,0.4,7.3h-10v-2.4c-2.9,2.2-5.8,3.1-10,3.1
			c-3.9,0-6.9-0.9-8.9-2.8c-1.9-1.7-2.8-4.2-2.8-7c0-3.3,1.3-5.8,3.8-7.5c2.6-1.9,6.1-2.9,10.8-3.4c2-0.2,3.6-0.3,7.3-0.4V908z
			 M983.7,915.8c-4.6,0.1-6.8,0.4-8.9,1c-1.9,0.6-3,1.9-3,3.4c0,1.9,1.6,2.9,4.2,2.9c2.1,0,4.4-0.8,5.8-2c1.2-1,1.9-2.4,1.9-4V915.8
			z"/>
		<path class="st3" d="M1022.1,928c0-0.3,0-0.7,0.1-1.1c-3.5,2.8-6.1,3.7-10.4,3.7c-9.4,0-15.1-6.3-15.1-16.8
			c0-5.4,1.6-9.7,4.4-12.6c2.6-2.6,6.3-4,10.5-4c4.2,0,7.2,1.1,10.6,3.8c-0.1-0.8-0.1-1.2-0.1-2v-4.3c0-3.6-0.1-5.8-0.4-8.1h10.6
			c-0.3,2.2-0.4,4.7-0.4,8.1v26.8c0,3.5,0.1,5.6,0.4,8.1h-10.2V928z M1006.6,913.9c0,2.9,0.8,5.3,2.4,6.8c1.2,1.2,3.1,2,5,2
			c4.6,0,8-3.8,8-8.9c0-5-3.3-8.6-8-8.6C1009.4,905.1,1006.6,908.4,1006.6,913.9z"/>
		<path class="st3" d="M1060.5,928c0-0.3,0-0.7,0.1-1.1c-3.5,2.8-6.1,3.7-10.4,3.7c-9.4,0-15.1-6.3-15.1-16.8
			c0-5.4,1.6-9.7,4.4-12.6c2.6-2.6,6.3-4,10.5-4c4.2,0,7.2,1.1,10.6,3.8c-0.1-0.8-0.1-1.2-0.1-2v-4.3c0-3.6-0.1-5.8-0.4-8.1h10.6
			c-0.3,2.2-0.4,4.7-0.4,8.1v26.8c0,3.5,0.1,5.6,0.4,8.1h-10.2V928z M1045.1,913.9c0,2.9,0.8,5.3,2.4,6.8c1.2,1.2,3.1,2,5,2
			c4.6,0,8-3.8,8-8.9c0-5-3.3-8.6-8-8.6C1047.9,905.1,1045.1,908.4,1045.1,913.9z"/>
		<path class="st3" d="M1083,916.8c0.5,4.2,2.9,6.4,7,6.4c2.1,0,3.9-0.7,5.2-1.9c0.8-0.7,1.1-1.3,1.6-2.6l9,2.5
			c-1.2,2.7-2,3.9-3.4,5.3c-2.9,2.9-7.1,4.4-12.2,4.4c-5.1,0-9-1.4-12-4.4c-3.1-3.1-4.7-7.5-4.7-12.6c0-10.2,6.6-17,16.4-17
			c8.1,0,13.7,4.4,15.5,12.1c0.4,1.7,0.6,3.8,0.8,6.8c0,0.2,0,0.5,0.1,1H1083z M1096.5,909.6c-0.7-3.3-2.9-5.1-6.5-5.1
			c-3.7,0-5.9,1.7-6.8,5.1H1096.5z"/>
		<path class="st3" d="M1133.3,928c0-0.3,0-0.7,0.1-1.1c-3.5,2.8-6.1,3.7-10.4,3.7c-9.4,0-15.1-6.3-15.1-16.8
			c0-5.4,1.6-9.7,4.4-12.6c2.6-2.6,6.3-4,10.5-4c4.2,0,7.2,1.1,10.6,3.8c-0.1-0.8-0.1-1.2-0.1-2v-4.3c0-3.6-0.1-5.8-0.4-8.1h10.6
			c-0.3,2.2-0.4,4.7-0.4,8.1v26.8c0,3.5,0.1,5.6,0.4,8.1h-10.2V928z M1117.8,913.9c0,2.9,0.8,5.3,2.4,6.8c1.2,1.2,3.1,2,5,2
			c4.6,0,8-3.8,8-8.9c0-5-3.3-8.6-8-8.6C1120.7,905.1,1117.8,908.4,1117.8,913.9z"/>
		<path class="st3" d="M838.2,991.7c0.3-2.3,0.4-4.6,0.4-7.7v-28c0-2.8-0.1-5.1-0.4-7.5c2.4,0.1,4.3,0.2,7.6,0.2h11.3
			c10.2,0,15.9,4.9,15.9,13.9c0,9.2-5.9,14.7-15.9,14.7h-8.2v6.6c0,3.1,0.2,5.6,0.4,7.8H838.2z M856.6,968.5c3.6,0,5.7-2,5.7-5.6
			c0-3.6-2-5.4-5.7-5.4h-7.7v11H856.6z"/>
		<path class="st3" d="M896.6,970.1c0-2.5-1.5-3.6-4.9-3.6c-3.3,0-5.1,1.1-5.8,3.6l-9.9-1.6c1-3.1,2.2-4.7,4.3-6.3
			c2.8-2,6.6-2.9,11.6-2.9c3.8,0,7.5,0.7,9.6,1.8c3.3,1.8,4.8,4.7,4.8,9.3v14c0,3.2,0.1,5,0.4,7.3h-10v-2.4c-2.9,2.2-5.8,3.1-10,3.1
			c-3.9,0-6.9-0.9-8.9-2.8c-1.9-1.7-2.8-4.2-2.8-7c0-3.3,1.3-5.8,3.8-7.5c2.6-1.9,6.1-2.9,10.8-3.4c2-0.2,3.6-0.3,7.3-0.4V970.1z
			 M896.6,977.9c-4.6,0.1-6.8,0.4-8.9,1c-1.9,0.6-3,1.9-3,3.4c0,1.9,1.6,2.9,4.2,2.9c2.1,0,4.4-0.8,5.8-2c1.2-1,1.9-2.4,1.9-4V977.9
			z"/>
		<path class="st3" d="M914.9,959.1c0-2.6-0.1-4.7-0.4-7.1H925c-0.3,2.1-0.4,4.6-0.4,7.1v1.1h1.9c2.3,0,3.5-0.1,5.1-0.3v8.6
			c-1.6-0.2-2.9-0.3-4.8-0.3h-2.2v13.2c0,1.4,0.3,2.2,0.9,2.6c0.6,0.4,1.4,0.6,2.4,0.6c1.3,0,2.3-0.3,3.6-0.9l0.8,7.9
			c-2.3,0.7-4.3,1-7.1,1c-3.5,0-5.9-0.6-7.6-1.8c-2-1.5-2.7-3.3-2.7-6.8v-15.8h-2c-1.7,0-3,0.1-4.5,0.3v-8.6
			c1.5,0.2,2.8,0.3,4.6,0.3h1.9V959.1z"/>
		<path class="st3" d="M938.4,959.1c0-2.6-0.1-4.7-0.4-7.1h10.5c-0.3,2.1-0.4,4.6-0.4,7.1v1.1h1.9c2.3,0,3.5-0.1,5.1-0.3v8.6
			c-1.6-0.2-2.9-0.3-4.8-0.3h-2.2v13.2c0,1.4,0.3,2.2,0.9,2.6c0.6,0.4,1.4,0.6,2.4,0.6c1.3,0,2.3-0.3,3.6-0.9l0.8,7.9
			c-2.3,0.7-4.3,1-7.1,1c-3.5,0-5.9-0.6-7.6-1.8c-2-1.5-2.7-3.3-2.7-6.8v-15.8h-2c-1.7,0-3,0.1-4.5,0.3v-8.6
			c1.5,0.2,2.8,0.3,4.6,0.3h1.9V959.1z"/>
		<path class="st3" d="M965.9,978.8c0.5,4.2,2.9,6.4,7,6.4c2.1,0,3.9-0.7,5.2-1.9c0.8-0.7,1.1-1.3,1.6-2.6l9,2.5
			c-1.2,2.7-2,3.9-3.4,5.3c-2.9,2.9-7.1,4.4-12.2,4.4c-5.1,0-9-1.4-12-4.4c-3.1-3.1-4.7-7.5-4.7-12.6c0-10.2,6.6-17,16.4-17
			c8.1,0,13.7,4.4,15.5,12.1c0.4,1.7,0.6,3.8,0.8,6.8c0,0.2,0,0.5,0.1,1H965.9z M979.4,971.7c-0.7-3.3-2.9-5.1-6.5-5.1
			c-3.7,0-5.9,1.7-6.8,5.1H979.4z"/>
		<path class="st3" d="M1015.3,969.5c-2.4-0.7-3.7-1-5.3-1c-2.6,0-4.7,0.9-6.2,2.8c-1,1.2-1.3,2.3-1.6,4.6v8.1
			c0,3.3,0.1,5.3,0.4,7.8h-10.7c0.3-2.6,0.4-4.4,0.4-7.8V968c0-3.8-0.1-5.6-0.4-7.8h10.3v4.1c2.5-3.3,5.6-4.7,10.3-4.7
			c1.7,0,2.7,0.1,5.1,0.6L1015.3,969.5z"/>
		<path class="st3" d="M1019.6,991.7c0.3-2.4,0.4-4.6,0.4-7.8V968c0-3.6-0.1-5.7-0.4-7.8h10.3v2.2c0,0.3-0.1,1.1-0.1,1.4
			c3.3-3.1,6.4-4.4,10.7-4.4c3.6,0,6.4,1,8.3,2.9c2.1,2.1,2.9,4.6,2.9,8.7v13c0,3,0.2,5.6,0.4,7.8h-10.8c0.3-2.5,0.4-4.7,0.4-7.8
			v-10.6c0-2.1-0.2-2.9-0.8-3.8c-0.7-0.9-1.9-1.4-3.4-1.4c-2.9,0-5.5,1.8-7.7,5.4v10.4c0,2.9,0.1,5.1,0.4,7.8H1019.6z"/>
		<path class="st3" d="M1065.4,981.2c0.5,2.7,2.3,3.9,5.7,3.9c3.1,0,4.9-0.9,4.9-2.5c0-0.8-0.4-1.4-1.1-1.9
			c-0.7-0.4-1.4-0.6-4.2-1.2c-3.9-0.8-5.9-1.3-7.7-1.9c-2.5-0.9-4.2-2.1-5.2-3.7c-0.8-1.4-1.3-3.2-1.3-4.9c0-6.2,5.2-10,13.9-10
			c4.9,0,8.6,1.1,11,3.3c1.7,1.5,2.5,3,3.4,5.9l-10,1.1c-0.3-2.1-1.6-3.1-4.3-3.1c-2.7,0-4.3,0.9-4.3,2.2c0,1.4,1.1,1.9,6.2,3.1
			c5.1,1.1,6.7,1.6,8.5,2.5c3.4,1.7,5,4.2,5,7.9c0,2.7-0.9,5.2-2.6,6.9c-2.5,2.5-6.7,3.8-12.3,3.8c-6.5,0-11.1-1.8-13.6-5.2
			c-1-1.4-1.6-2.7-2.1-5.2L1065.4,981.2z"/>
	</g>
	<path class="st3" d="M840.5,596.7h75.9v166.9h-75.9V596.7z M931.6,596.7h75.9v75.9h-75.9V596.7z M1022.6,596.7h60.7v242.8h-60.7
		V596.7z M931.6,687.7h75.9v75.9h-75.9V687.7z M840.5,778.8h166.9v60.7H840.5V778.8z"/>
</g>
</svg>
