<?xml version="1.0" encoding="utf-8"?>
<!-- Generator: Adobe Illustrator 27.8.1, SVG Export Plug-In . SVG Version: 6.00 Build 0)  -->
<svg version="1.1" id="レイヤー_1" xmlns="http://www.w3.org/2000/svg" xmlns:xlink="http://www.w3.org/1999/xlink" x="0px"
	 y="0px" viewBox="0 0 1920 1080" style="enable-background:new 0 0 1920 1080;" xml:space="preserve">
<style type="text/css">
	.st0{fill:#FFFFFF;}
	.st1{fill:#D00000;}
	.st2{fill:#32373C;}
</style>
<g id="レイヤー_2_00000012443098498977644380000005485677066099254686_">
	<rect class="st0" width="1920" height="1080"/>
</g>
<path class="st1" d="M1489.9,599.2h-275.4c-7.9,0-14.4-6.4-14.4-14.4v-64.2c0-7.9,6.4-14.4,14.4-14.4h275.4
	c7.9,0,14.4,6.4,14.4,14.4v64.2C1504.2,592.8,1497.8,599.2,1489.9,599.2z"/>
<path class="st2" d="M1443.6,715.5l84.6,231.7c-59.2-28.7-99.9-89.3-99.9-159.5C1428.2,762,1433.7,737.6,1443.6,715.5z
	 M1725.2,778.8c0-21.9-7.8-37.1-14.6-48.9c-9-14.6-17.4-27-17.4-41.6c0-16.3,12.3-31.5,29.8-31.5c0.8,0,1.5,0.1,2.3,0.2
	c-31.6-28.9-73.6-46.6-119.8-46.6c-61.9,0-116.4,31.8-148.2,79.9c4.2,0.2,8.1,0.3,11.4,0.3c18.5,0,47.3-2.3,47.3-2.3
	c9.6-0.6,10.7,13.5,1.2,14.6c0,0-9.6,1.1-20.3,1.7l64.6,192l38.8-116.3l-27.6-75.7c-9.6-0.6-18.6-1.7-18.6-1.7
	c-9.6-0.6-8.4-15.2,1.1-14.6c0,0,29.3,2.3,46.7,2.3c18.5,0,47.3-2.3,47.3-2.3c9.6-0.6,10.7,13.5,1.2,14.6c0,0-9.6,1.1-20.3,1.7
	l64.1,190.6l17.7-59.1C1719.4,811.5,1725.2,794,1725.2,778.8L1725.2,778.8z M1608.6,803.2l-53.2,154.6c15.9,4.7,32.7,7.3,50.1,7.3
	c20.7,0,40.4-3.6,58.8-10.1c-0.5-0.8-0.9-1.6-1.3-2.4L1608.6,803.2z M1761.1,702.6c0.8,5.7,1.2,11.7,1.2,18.3
	c0,18-3.3,38.2-13.5,63.5L1694.6,941c52.8-30.8,88.2-87.8,88.2-153.3C1782.8,756.9,1774.9,727.9,1761.1,702.6L1761.1,702.6z
	 M1812.2,787.7c0,114-92.8,206.7-206.7,206.7c-114,0-206.7-92.8-206.7-206.7c0-114,92.7-206.7,206.7-206.7
	C1719.4,581,1812.2,673.7,1812.2,787.7z M1802.7,787.7c0-108.8-88.5-197.2-197.2-197.2c-108.8,0-197.2,88.4-197.2,197.2
	s88.5,197.2,197.2,197.2C1714.3,984.9,1802.7,896.5,1802.7,787.7z"/>
<polygon class="st1" points="1451.6,593.6 1457.3,622.9 1428.2,593.6 "/>
<g>
	<path class="st0" d="M1234.68,535.98c0.95,0.06,1.68,0.06,2.13,0.06c1.45,0,3.47-0.11,9.56-0.5c8.05-0.5,13.48-0.78,24.1-1.17
		l5.76-0.22l2.35-0.11c1.9-0.06,2.24-0.11,2.52-0.11c0.39,0,0.62-0.06,1.29-0.22l0.5,10.12c-0.78-0.11-1.01-0.11-1.57-0.11
		c-3.92,0-8.95,1.51-12.81,3.92c-5.59,3.41-8.89,8.11-8.89,12.69c0,3.24,1.51,5.42,4.7,6.93c2.24,1.12,7.16,2.01,10.68,2.01
		c0.45,0,0.84,0,1.68-0.06l-1.29,10.62c-0.78-0.17-0.95-0.17-2.07-0.28c-6.38-0.56-10.57-1.51-14.15-3.13
		c-6.6-3.08-10.01-8.22-10.01-15.32c0-4.64,1.57-8.83,4.75-12.64c1.45-1.79,2.8-2.91,5.48-4.75l-2.63,0.28
		c-1.23,0.11-3.19,0.28-13.64,1.12c-5.2,0.56-5.48,0.56-7.89,1.06L1234.68,535.98z M1274.33,548.73c2.24,2.57,3.91,5.03,5.42,8.11
		l-5.37,2.46c-1.73-3.52-3.19-5.7-5.42-8.28L1274.33,548.73z M1281.82,545.48c2.01,2.24,3.58,4.42,5.48,7.89l-5.2,2.4
		c-2.01-3.75-3.41-5.87-5.31-8.05L1281.82,545.48z"/>
	<path class="st0" d="M1292.17,536.87c1.96,0.22,3.8,0.28,6.38,0.28c3.19,0,7.49-0.17,10.01-0.39c-1.17-3.08-1.85-4.59-2.35-5.59
		l9.79-1.17c0.28,1.79,0.67,3.08,1.73,5.82c5.37-0.73,11.91-2.07,15.16-3.13l0.78,8.16c-1.06,0.22-1.06,0.22-4.14,0.84
		c-3.24,0.67-3.3,0.73-8.89,1.62c0.45,1.06,1.06,2.52,1.29,2.91c7.77-1.4,10.46-2.01,13.03-2.96l0.84,8.22
		c-1.29,0.17-1.29,0.17-6.88,1.34c-0.06,0-2.63,0.45-3.35,0.62c2.29,4.03,3.86,6.26,7.16,10.29l-8.22,4.25
		c-3.3-1.73-6.88-2.46-11.74-2.46c-6.21,0-9.62,1.29-9.62,3.64c0,2.07,2.91,3.08,8.84,3.08c6.43,0,13.31-1.34,17.78-3.47l1.29,9.45
		c-1.17,0.17-1.17,0.17-3.92,0.78c-5.31,1.17-10.46,1.73-15.66,1.73c-8.5,0-14.21-1.79-16.95-5.31c-1.29-1.68-2.07-3.97-2.07-6.15
		c0-3.91,2.57-7.49,6.66-9.23c3.3-1.4,7.1-2.07,11.97-2.07c2.96,0,5.2,0.17,7.72,0.67c-0.62-0.84-1.45-2.18-2.57-3.97
		c-4.75,0.62-11.18,1.01-19.24,1.23c-3.36,0.11-3.52,0.11-4.87,0.28l-0.39-8.28c1.62,0.17,2.68,0.22,5.76,0.22
		c5.37,0,10.74-0.28,15.27-0.78c-0.17-0.45-0.62-1.45-1.29-2.96c-4.92,0.5-7.49,0.62-14.6,0.62c-2.52,0.06-2.91,0.06-4.19,0.11
		L1292.17,536.87z"/>
	<path class="st0" d="M1347.71,532.4c2.35,0.28,4.42,0.39,8.05,0.39c4.98,0,11.18-0.22,16.83-0.67c2.46-0.17,3.19-0.34,4.25-0.78
		l4.59,6.77c-1.45,0.84-1.45,0.84-9,7.33c-2.96,2.52-3.97,3.36-7.72,6.1c3.13-0.78,4.75-1.01,7.66-1.01c5.26,0,9,1.23,11.97,3.8
		c2.68,2.41,4.08,5.65,4.08,9.67c0,5.65-2.63,10.12-7.72,13.14c-3.86,2.24-9.23,3.52-14.82,3.52c-9.45,0-15.21-3.75-15.21-9.95
		c0-5.2,4.64-8.95,11.13-8.95c4.03,0,7.61,1.57,10.01,4.31c1.12,1.23,1.73,2.35,2.57,4.42c3.02-1.34,4.42-3.24,4.42-6.1
		c0-3.92-3.8-6.32-10.01-6.32c-5.93,0-12.19,1.85-17.22,5.14c-1.73,1.12-3.52,2.52-5.37,4.19l-5.2-8.5
		c5.14-2.4,16.94-11.58,23.88-18.45c-2.96,0.33-5.2,0.45-13.09,0.84c-1.51,0.06-2.57,0.17-3.69,0.28L1347.71,532.4z M1361.57,568.86
		c-1.29,0-2.18,0.73-2.18,1.85c0,1.51,1.79,2.46,4.81,2.46c0.67,0,0.78,0,1.85-0.17C1365.32,570.31,1363.75,568.86,1361.57,568.86z"
		/>
	<path class="st0" d="M1422.37,530.22c-0.22,2.46-0.39,6.54-0.39,10.63c0,0.11,0,0.45,0,0.78c6.54,0,12.75-0.62,16.33-1.62
		l0.62,9.28c-1.12,0.06-1.62,0.11-3.91,0.33c-5.65,0.56-7.83,0.67-12.86,0.78c0.11,2.63,0.11,2.63,0.56,10.23
		c5.7,1.96,9.51,3.97,15.88,8.5c1.01,0.67,1.17,0.78,1.79,1.17l-6.04,8.78c-2.52-3.08-6.66-6.26-11.52-8.78
		c0.06,0.39,0.06,0.73,0.06,0.95c0,2.63-0.78,4.75-2.35,6.32c-2.35,2.35-6.6,3.69-11.69,3.69c-4.53,0-8.5-1.06-11.02-2.91
		c-2.4-1.79-3.86-4.92-3.86-8.33s1.51-6.26,4.36-8.39c2.85-2.01,6.26-2.96,10.9-2.96c1.45,0,2.29,0.06,3.92,0.28
		c-0.22-4.47-0.56-15.94-0.67-23.54c-0.06-2.74-0.06-3.47-0.28-5.26L1422.37,530.22z M1409.39,567.07c-3.36,0-5.48,1.12-5.48,2.85
		c0,1.85,1.73,2.96,4.53,2.96c2.29,0,4.08-0.84,4.64-2.12c0.22-0.62,0.28-0.89,0.28-2.4c0-0.28,0-0.73,0-0.73
		C1411.74,567.18,1410.9,567.07,1409.39,567.07z"/>
	<path class="st0" d="M1458.16,564.44c0.11-1.12,0.11-1.62,0.11-2.52c0-1.06,0-1.06-0.22-4.36l-1.12-17.73
		c-0.11-2.29-0.39-4.81-0.67-7.55h13.03c-0.17,1.29-0.5,5.2-0.67,7.55l-1.12,17.73c-0.11,2.35-0.17,3.47-0.17,4.31
		c0,0.56,0,1.17,0.06,2.57H1458.16z M1457.15,578.81v-10.57h11.24v10.57H1457.15z"/>
</g>
</svg>
