<?xml version="1.0" encoding="utf-8"?>
<!-- Generator: Adobe Illustrator 26.4.1, SVG Export Plug-In . SVG Version: 6.00 Build 0)  -->
<svg version="1.1" id="レイヤー_1" xmlns="http://www.w3.org/2000/svg" xmlns:xlink="http://www.w3.org/1999/xlink" x="0px"
	 y="0px" viewBox="0 0 1920 1080" style="enable-background:new 0 0 1920 1080;" xml:space="preserve">
<style type="text/css">
	.st0{fill:#FFFFFF;}
	.st1{fill:#D00000;}
	.st2{fill:#32373C;}
</style>
<g id="レイヤー_2_00000012443098498977644380000005485677066099254686_">
	<rect y="0" class="st0" width="1920" height="1080"/>
</g>
<path class="st1" d="M1489.9,599.2h-385.4c-7.9,0-14.4-6.4-14.4-14.4v-64.2c0-7.9,6.4-14.4,14.4-14.4h385.4
	c7.9,0,14.4,6.4,14.4,14.4v64.2C1504.2,592.8,1497.8,599.2,1489.9,599.2z"/>
<path class="st2" d="M1443.6,715.5l84.6,231.7c-59.2-28.7-99.9-89.3-99.9-159.5C1428.2,762,1433.7,737.6,1443.6,715.5z
	 M1725.2,778.8c0-21.9-7.8-37.1-14.6-48.9c-9-14.6-17.4-27-17.4-41.6c0-16.3,12.3-31.5,29.8-31.5c0.8,0,1.5,0.1,2.3,0.2
	c-31.6-28.9-73.6-46.6-119.8-46.6c-61.9,0-116.4,31.8-148.2,79.9c4.2,0.2,8.1,0.3,11.4,0.3c18.5,0,47.3-2.3,47.3-2.3
	c9.6-0.6,10.7,13.5,1.2,14.6c0,0-9.6,1.1-20.3,1.7l64.6,192l38.8-116.3l-27.6-75.7c-9.6-0.6-18.6-1.7-18.6-1.7
	c-9.6-0.6-8.4-15.2,1.1-14.6c0,0,29.3,2.3,46.7,2.3c18.5,0,47.3-2.3,47.3-2.3c9.6-0.6,10.7,13.5,1.2,14.6c0,0-9.6,1.1-20.3,1.7
	l64.1,190.6l17.7-59.1C1719.4,811.5,1725.2,794,1725.2,778.8L1725.2,778.8z M1608.6,803.2l-53.2,154.6c15.9,4.7,32.7,7.3,50.1,7.3
	c20.7,0,40.4-3.6,58.8-10.1c-0.5-0.8-0.9-1.6-1.3-2.4L1608.6,803.2z M1761.1,702.6c0.8,5.7,1.2,11.7,1.2,18.3
	c0,18-3.3,38.2-13.5,63.5L1694.6,941c52.8-30.8,88.2-87.8,88.2-153.3C1782.8,756.9,1774.9,727.9,1761.1,702.6L1761.1,702.6z
	 M1812.2,787.7c0,114-92.8,206.7-206.7,206.7c-114,0-206.7-92.8-206.7-206.7c0-114,92.7-206.7,206.7-206.7
	C1719.4,581,1812.2,673.7,1812.2,787.7z M1802.7,787.7c0-108.8-88.5-197.2-197.2-197.2c-108.8,0-197.2,88.4-197.2,197.2
	s88.5,197.2,197.2,197.2C1714.3,984.9,1802.7,896.5,1802.7,787.7z"/>
<g>
	<path class="st0" d="M1139.9,528c-0.3,2.2-0.4,4-0.4,8v28.9c0,3.7,0.1,5.7,0.4,8h-11.8c0.3-2.1,0.4-4.4,0.4-8V536
		c0-4-0.1-5.6-0.4-8H1139.9z"/>
	<path class="st0" d="M1186,551.9c-0.5-1.6-0.8-2.4-1.5-3.2c-1.1-1.2-2.6-1.9-4.5-1.9c-4.4,0-6.9,3.4-6.9,9.4c0,5.8,2.7,9.6,7.1,9.6
		c2.1,0,4-0.9,5.1-2.4c0.5-0.7,0.8-1.2,1-2.5l9.9,1.6c-0.6,2.3-1.2,3.8-2.3,5.3c-2.7,4-7.6,6.2-13.8,6.2c-5.2,0-9.6-1.6-12.5-4.6
		c-3.1-3.1-4.8-7.8-4.8-13.1c0-10.8,6.8-17.7,17.3-17.7c8.3,0,14.1,4.1,15.8,11.3L1186,551.9z"/>
	<path class="st0" d="M1221.9,550.3c0-2.6-1.6-3.8-5.1-3.8c-3.4,0-5.3,1.1-6.1,3.8l-10.3-1.7c1.1-3.2,2.3-4.9,4.5-6.5
		c2.9-2,6.9-3.1,12.1-3.1c4,0,7.9,0.8,10,1.9c3.4,1.9,5,4.8,5,9.7v14.5c0,3.3,0.1,5.2,0.4,7.6h-10.4v-2.5c-3,2.3-6,3.2-10.4,3.2
		c-4.1,0-7.2-1-9.3-3c-1.9-1.8-3-4.4-3-7.3c0-3.4,1.3-6.1,3.9-7.9c2.7-1.9,6.4-3.1,11.2-3.5c2.1-0.2,3.7-0.3,7.6-0.4V550.3z
		 M1221.9,558.5c-4.8,0.1-7.1,0.4-9.3,1.1c-1.9,0.6-3.1,2-3.1,3.6c0,1.9,1.6,3.1,4.4,3.1c2.2,0,4.6-0.8,6.1-2
		c1.2-1.1,1.9-2.5,1.9-4.1V558.5z"/>
	<path class="st0" d="M1238,572.8c0.3-2.5,0.4-4.8,0.4-8.1v-16.6c0-3.7-0.1-6-0.4-8.1h10.7v2.3c0,0.3-0.1,1.1-0.1,1.5
		c3.4-3.2,6.7-4.6,11.1-4.6c3.7,0,6.7,1,8.7,3c2.2,2.2,3.1,4.8,3.1,9v13.5c0,3.1,0.2,5.8,0.4,8.1h-11.2c0.3-2.6,0.4-4.8,0.4-8.1v-11
		c0-2.2-0.2-3.1-0.9-4c-0.7-1-1.9-1.5-3.6-1.5c-3,0-5.7,1.9-8,5.7v10.9c0,3.1,0.1,5.3,0.4,8.1H1238z"/>
	<path class="st0" d="M1320.6,571.1c0-0.3,0-0.7,0.1-1.2c-3.6,2.9-6.4,3.9-10.9,3.9c-9.8,0-15.7-6.6-15.7-17.4
		c0-5.6,1.6-10.1,4.6-13.1c2.7-2.7,6.5-4.2,10.9-4.2c4.4,0,7.5,1.1,11,4c-0.1-0.8-0.1-1.3-0.1-2v-4.5c0-3.8-0.1-6.1-0.4-8.5h11
		c-0.3,2.3-0.4,4.8-0.4,8.5v27.9c0,3.6,0.1,5.8,0.4,8.5h-10.6V571.1z M1304.5,556.4c0,3.1,0.9,5.5,2.5,7.1c1.3,1.3,3.2,2,5.2,2
		c4.8,0,8.3-4,8.3-9.3c0-5.2-3.4-9-8.3-9C1307.5,547.3,1304.5,550.8,1304.5,556.4z"/>
	<path class="st0" d="M1335.5,556.4c0-10.8,6.9-17.6,17.8-17.6c10.9,0,17.8,6.8,17.8,17.5c0,10.7-7.1,17.8-17.8,17.8
		C1342.4,574.1,1335.5,567.2,1335.5,556.4z M1345.8,556.3c0,6,2.8,9.6,7.5,9.6c4.7,0,7.4-3.5,7.4-9.5c0-6-2.7-9.6-7.3-9.6
		C1348.6,546.8,1345.8,550.4,1345.8,556.3z"/>
	<path class="st0" d="M1404.6,540c-0.3,2.2-0.4,4.4-0.4,8.1v16.6c0,2.9,0.2,5.8,0.4,8.1h-11.3c0.3-2.6,0.4-4.7,0.4-8.1v-16.6
		c0-3.5-0.1-5.7-0.4-8.1H1404.6z M1404.4,528v8.1h-10.9V528H1404.4z"/>
	<path class="st0" d="M1414.5,538.9c0-2.7-0.1-4.8-0.4-7.4h11c-0.3,2.2-0.4,4.8-0.4,7.4v1.1h1.9c2.4,0,3.6-0.1,5.3-0.3v8.9
		c-1.6-0.2-3-0.3-5-0.3h-2.3v13.8c0,1.5,0.3,2.3,1,2.7c0.6,0.4,1.5,0.6,2.5,0.6c1.4,0,2.4-0.3,3.8-1l0.8,8.2
		c-2.4,0.8-4.5,1.1-7.4,1.1c-3.7,0-6.2-0.6-7.9-1.9c-2-1.6-2.8-3.4-2.8-7.1v-16.5h-2c-1.7,0-3.1,0.1-4.7,0.3v-9
		c1.6,0.2,2.9,0.3,4.8,0.3h1.9V538.9z"/>
	<path class="st0" d="M1456.4,559c0.1-1.2,0.1-1.6,0.1-2.8c0-0.6,0-0.6-0.2-3.8l-1.1-17.1c-0.2-2.7-0.4-5.6-0.6-7.3h12.5
		c-0.3,2.1-0.4,4.4-0.6,7.3l-1.1,17.1c-0.1,2.2-0.2,3.4-0.2,4.3c0,0.6,0,1.1,0.1,2.4H1456.4z M1455.5,572.8v-10.2h10.8v10.2H1455.5z
		"/>
</g>
<polygon class="st1" points="1451.6,593.6 1457.3,622.9 1428.2,593.6 "/>
</svg>
