<?xml version="1.0" encoding="utf-8"?>
<!-- Generator: Adobe Illustrator 27.8.1, SVG Export Plug-In . SVG Version: 6.00 Build 0)  -->
<svg version="1.1" id="レイヤー_1" xmlns="http://www.w3.org/2000/svg" xmlns:xlink="http://www.w3.org/1999/xlink" x="0px"
	 y="0px" viewBox="0 0 1977 980" style="enable-background:new 0 0 1977 980;" xml:space="preserve">
<style type="text/css">
	.st0{fill:#D9D9D9;filter:url(#Adobe_OpacityMaskFilter);}
	.st1{opacity:0.15;mask:url(#a_00000111173229022936934500000006659820339861476526_);}
	.st2{fill:#4041E4;}
	.st3{fill:#1E756D;}
	.st4{fill:#E67823;}
	.st5{fill:#F5B444;}
	.st6{fill:none;stroke:#573531;stroke-width:5;stroke-linecap:round;}
	.st7{fill:none;stroke:#573531;stroke-width:2;stroke-linecap:round;}
	.st8{clip-path:url(#SVGID_00000054259122043682449400000011665303688149093307_);}
	.st9{clip-path:url(#SVGID_00000181771741776371264720000014771384995263862705_);}
</style>
<defs>
	<filter id="Adobe_OpacityMaskFilter" filterUnits="userSpaceOnUse" x="10.5" y="-274" width="1969" height="1229.5">
		<feColorMatrix  type="matrix" values="1 0 0 0 0  0 1 0 0 0  0 0 1 0 0  0 0 0 1 0"/>
	</filter>
</defs>
<mask maskUnits="userSpaceOnUse" x="10.5" y="-274" width="1969" height="1229.5" id="a_00000111173229022936934500000006659820339861476526_">
	<path class="st0" d="M0,0h1977v980H0V0z"/>
</mask>
<g class="st1">
	<path class="st2" d="M1734.4-67L1734.4-67c18.2,18.2,18.2,47.8,0,66L1518,215.4c-18.2,18.2-47.8,18.2-66,0l0,0
		c-18.2-18.2-18.2-47.8,0-66L1668.4-67C1686.7-85.2,1716.2-85.2,1734.4-67z"/>
	<path class="st3" d="M1721.6,158.5L1721.6,158.5c20.2,20.2,20.2,52.9,0,73l-291,291c-20.2,20.2-52.9,20.2-73,0l0,0
		c-20.2-20.2-20.2-52.9,0-73l291-291C1668.7,138.4,1701.4,138.4,1721.6,158.5z"/>
	<path class="st3" d="M423.6,300.5L423.6,300.5c20.2,20.2,20.2,52.9,0,73l-291,291c-20.2,20.2-52.9,20.2-73,0l0,0
		c-20.2-20.2-20.2-52.9,0-73l291-291C370.7,280.4,403.4,280.4,423.6,300.5z"/>
	<path class="st4" d="M574-7.1L574-7.1c9.9,9.9,9.9,25.9,0,35.8L53.6,549c-9.9,9.9-25.9,9.9-35.8,0l0,0c-9.9-9.9-9.9-25.9,0-35.8
		L538.3-7.1C548.1-17,564.1-17,574-7.1z"/>
	<path class="st5" d="M1041.8,412L1041.8,412c-32-32-84-32-116,0L545,792.7c-32,32-32,84,0,116l0,0c32,32,84,32,116,0l380.7-380.7
		C1073.8,496,1073.8,444.1,1041.8,412z"/>
	<path class="st2" d="M1704.5,562.8L1704.5,562.8c8.7,8.7,8.7,22.8,0,31.5l-283.3,283.3c-8.7,8.7-22.8,8.7-31.5,0l0,0
		c-8.7-8.7-8.7-22.8,0-31.5L1673,562.8C1681.7,554.1,1695.8,554.1,1704.5,562.8z"/>
	<path class="st4" d="M424.2,496.8l18.8,76.5l-75.7-21.9L424.2,496.8L424.2,496.8z"/>
	<path class="st2" d="M411.9,110.2L358,167.6l-22.8-75.4L411.9,110.2z M1501.2,945.3l-77.4-14.6l51.3-59.8L1501.2,945.3z"/>
	<path class="st4" d="M1006.9,93.9l42.4,11.4l-31,31L1006.9,93.9L1006.9,93.9z"/>
	<path class="st3" d="M1073.5,606.6l31,31l-42.4,11.4L1073.5,606.6z"/>
	<path class="st5" d="M987,762.5c0,28.4-23.1,51.5-51.5,51.5S884,790.9,884,762.5c0-28.4,23.1-51.5,51.5-51.5S987,734.1,987,762.5z"
		/>
	<circle class="st5" cx="1167.5" cy="-31.5" r="86.5"/>
	<circle class="st5" cx="1485.5" cy="79.5" r="54.5"/>
	<circle class="st2" cx="849.5" cy="68.5" r="55.5"/>
	<circle class="st2" cx="654" cy="651" r="34"/>
	<path class="st6" d="M1241,953l354-354 M310,242l354-354"/>
	<path class="st7" d="M416,81l354-354"/>
	<path class="st6" d="M1623,828l354-354"/>
	<path class="st5" d="M1307.3,135.2l-63.6,46.5l-8.4-78.4L1307.3,135.2z"/>
	<g>
		<defs>
			
				<rect id="SVGID_1_" x="596.9" y="33.5" transform="matrix(0.7071 -0.7071 0.7071 0.7071 124.2864 479.1781)" width="87.4" height="112.2"/>
		</defs>
		<clipPath id="SVGID_00000074426570541870735650000018101677493726100866_">
			<use xlink:href="#SVGID_1_"  style="overflow:visible;"/>
		</clipPath>
		<g style="clip-path:url(#SVGID_00000074426570541870735650000018101677493726100866_);">
			<path class="st4" d="M614.3,37L649.3,72c9.7-9.7,9.7-25.4,0-35.1C639.6,27.3,623.9,27.3,614.3,37z"/>
			<path class="st3" d="M614.3,72l28.7,28.7c-4.2,1.1-8,3.3-11.1,6.4c-9.7,9.7-9.7,25.4,0,35.1c9.7,9.7,25.4,9.7,35.1,0
				c9.7-9.7,9.7-25.4,0-35.1l-59-59C605.6,56.4,607.8,65.5,614.3,72C614.3,72,614.3,72,614.3,72z"/>
		</g>
	</g>
	<path class="st2" d="M922.4,574.3l21.4,20c-3,0.8-5.9,2.2-8.3,4.5c-7.2,6.8-7.2,17.7,0,24.5c7.2,6.8,18.9,6.8,26.1,0
		c7.2-6.8,7.2-17.7,0-24.5l-44-41.2C916,563.4,917.6,569.8,922.4,574.3L922.4,574.3L922.4,574.3z"/>
	<path class="st4" d="M957.7,541.2l21.4,20c-3,0.8-5.9,2.2-8.3,4.5c-7.2,6.8-7.2,17.7,0,24.5c7.2,6.8,18.9,6.8,26.1,0
		c7.2-6.8,7.2-17.7,0-24.5l-44-41.2C951.2,530.3,952.8,536.7,957.7,541.2L957.7,541.2L957.7,541.2z"/>
	<path class="st3" d="M945.3,531.6l-21.2,19.8l6.5,6.1l16.1-15.1C945.2,538.8,944.2,535.4,945.3,531.6z"/>
	<g>
		<defs>
			
				<rect id="SVGID_00000052800635259317125880000002499282628424253061_" x="1562" y="449" transform="matrix(0.7071 -0.7071 0.7071 0.7071 113.1401 1283.3347)" width="87.4" height="112.2"/>
		</defs>
		<clipPath id="SVGID_00000025431634061153779170000013926036362534421941_">
			<use xlink:href="#SVGID_00000052800635259317125880000002499282628424253061_"  style="overflow:visible;"/>
		</clipPath>
		<g style="clip-path:url(#SVGID_00000025431634061153779170000013926036362534421941_);">
			<path class="st5" d="M1579.4,452.5l35.1,35.1c9.7-9.7,9.7-25.4,0-35.1C1604.8,442.8,1589.1,442.8,1579.4,452.5z"/>
			<path class="st2" d="M1579.4,487.6l28.7,28.7c-4.2,1.1-8,3.3-11.1,6.4c-9.7,9.7-9.7,25.4,0,35.1c9.7,9.7,25.4,9.7,35.1,0
				c9.7-9.7,9.7-25.4,0-35.1l-59-59C1570.8,471.9,1572.9,481.1,1579.4,487.6L1579.4,487.6L1579.4,487.6z"/>
		</g>
	</g>
</g>
</svg>
