<svg width="1977" height="980" fill="none" xmlns="http://www.w3.org/2000/svg"><mask id="a" style="mask-type:alpha" maskUnits="userSpaceOnUse" x="0" y="0" width="1977" height="980"><path fill="#D9D9D9" d="M0 0h1977v980H0z"/></mask><g mask="url(#a)"><rect x="1701.43" y="-100" width="93.313" height="399.413" rx="46.656" transform="rotate(45 1701.43 -100)" fill="#4041E4"/><rect x="1685.06" y="122.001" width="103.292" height="514.857" rx="51.646" transform="rotate(45 1685.06 122.001)" fill="#1E756D"/><rect x="387.059" y="264" width="103.292" height="514.857" rx="51.646" transform="rotate(45 387.059 264)" fill="#1E756D"/><rect x="556.131" y="-25" width="50.567" height="786.489" rx="25.284" transform="rotate(45 556.131 -25)" fill="#E67823"/><rect width="164.116" height="702.48" rx="82.058" transform="scale(-1 1) rotate(-45 17.508 1562.575)" fill="#F5B444"/><rect x="1688.79" y="547.001" width="44.571" height="445.175" rx="22.285" transform="rotate(45 1688.79 547.001)" fill="#4041E4"/><path d="m424.207 496.835 18.836 76.524-75.69-21.949 56.854-54.575Z" fill="#E67823"/><path d="m411.9 110.18-53.927 57.469-22.806-75.436L411.9 110.18ZM1501.22 945.339l-77.45-14.559 51.34-59.795 26.11 74.354Z" fill="#4041E4"/><path d="m1006.91 93.915 42.39 11.356-31.03 31.027-11.36-42.383Z" fill="#E67823"/><path d="m1073.47 606.557 31.03 31.027-42.39 11.356 11.36-42.383Z" fill="#1E756D"/><path d="M987 762.5c0 28.443-23.057 51.5-51.5 51.5S884 790.943 884 762.5c0-28.442 23.057-51.5 51.5-51.5s51.5 23.058 51.5 51.5Z" fill="#F5B444"/><circle cx="1167.5" cy="-31.5" r="86.5" fill="#F5B444"/><circle cx="1485.5" cy="79.501" r="54.5" fill="#F5B444"/><circle cx="849.5" cy="68.501" r="55.5" fill="#4041E4"/><circle cx="654" cy="651.001" r="34" fill="#4041E4"/><path d="m1241 953.001 354-354M310 242l354-353.999" stroke="#573531" stroke-width="5" stroke-linecap="round"/><path d="m416 81 354-353.999" stroke="#573531" stroke-width="2" stroke-linecap="round"/><path d="m1623 828.001 354-354" stroke="#573531" stroke-width="5" stroke-linecap="round"/><path d="m1307.35 135.239-63.63 46.489-8.45-78.355 72.08 31.866Z" fill="#F5B444"/><g clip-path="url(#b)"><path d="m614.265 36.968 35.058 35.058c9.681-9.68 9.681-25.378 0-35.058-9.68-9.68-25.378-9.68-35.058 0Z" fill="#E67823"/><path d="m614.265 72.026 28.652 28.652a24.695 24.695 0 0 0-11.123 6.413c-9.68 9.681-9.68 25.378 0 35.059 9.68 9.68 25.378 9.68 35.058 0 9.681-9.681 9.681-25.378 0-35.059l-59.008-59.008c-2.206 8.273-.077 17.459 6.414 23.95l.007-.007Z" fill="#1E756D"/></g><path d="m922.405 574.313 21.36 20.024c-3.037.761-5.91 2.249-8.292 4.483-7.217 6.765-7.217 17.736.005 24.506 7.222 6.77 18.919 6.765 26.135 0 7.217-6.765 7.217-17.736 0-24.501l-43.994-41.245c-1.645 5.782-.058 12.202 4.781 16.738l.005-.005Z" fill="#4041E4"/><path d="m957.681 541.243 21.359 20.024c-3.036.761-5.909 2.248-8.291 4.482-7.217 6.765-7.217 17.736 0 24.502 7.216 6.765 18.918 6.765 26.135 0 7.216-6.766 7.216-17.737 0-24.502l-43.989-41.239c-1.645 5.782-.058 12.201 4.781 16.738l.005-.005Z" fill="#E67823"/><path d="m945.32 531.611-21.165 19.841 6.537 6.128 16.135-15.127c-1.676-3.607-2.583-7.076-1.507-10.842Z" fill="#1E756D"/><g clip-path="url(#c)"><path d="m1579.4 452.5 35.06 35.059c9.68-9.681 9.68-25.378 0-35.059-9.68-9.68-25.38-9.68-35.06 0Z" fill="#F5B444"/><path d="m1579.4 487.559 28.65 28.652a24.67 24.67 0 0 0-11.12 6.413c-9.68 9.68-9.68 25.378 0 35.059 9.68 9.68 25.37 9.68 35.06 0 9.68-9.681 9.68-25.378 0-35.059l-59.01-59.008c-2.21 8.273-.08 17.459 6.41 23.95l.01-.007Z" fill="#4041E4"/></g></g><defs><clipPath id="b"><path fill="#fff" transform="rotate(-45 382.527 -647.654)" d="M0 0h87.39v112.19H0z"/></clipPath><clipPath id="c"><path transform="rotate(-45 1535.13 496.327)" fill="#fff" d="M1535.13 496.327h87.39v112.19h-87.39z"/></clipPath></defs></svg>