<?xml version="1.0" encoding="utf-8"?>
<!-- Generator: Adobe Illustrator 25.2.1, SVG Export Plug-In . SVG Version: 6.00 Build 0)  -->
<svg version="1.1" xmlns="http://www.w3.org/2000/svg" xmlns:xlink="http://www.w3.org/1999/xlink" x="0px" y="0px"
	 viewBox="0 0 1134.9 851.4" style="enable-background:new 0 0 1134.9 851.4;" xml:space="preserve">
<style type="text/css">
	.st0{fill:#D80C18;}
	.st1{fill:#FFFFFF;}
	.st2{fill:#EFEFEF;}
	.st3{fill:#FFFFFF;stroke:#000000;stroke-miterlimit:10;}
	.st4{clip-path:url(#SVGID_2_);}
	.st5{fill:#A4A4A5;}
</style>
<g id="レイヤー_1">
	
		<rect x="130.1" y="-1112.5" transform="matrix(-1.836970e-16 1 -1 -1.836970e-16 33.8501 -1068.2419)" width="841.9" height="1190.6"/>
</g>
<g id="レイヤー_2">
	<g>
		<g>
			<g>
				<path d="M-1769.5-4330.4l-12.2-49.8h9.7l4.7,22.6c1.2,6.1,2.4,12.4,3.2,17.3h0.2c0.8-5.2,2.2-11.2,3.6-17.4l5.4-22.5h9.6
					l4.9,22.9c1.2,5.9,2.3,11.4,3,16.8h0.2c0.9-5.5,2.1-11.2,3.4-17.3l5.2-22.5h9.3l-13.4,49.8h-9.7l-5.2-23.5
					c-1.3-5.6-2.2-10.4-2.8-15.8h-0.1c-0.8,5.3-1.8,10.1-3.3,15.8l-5.8,23.4H-1769.5z"/>
				<path d="M-1674.7-4348.8c0,13.2-9.3,19.2-18.5,19.2c-10.1,0-18-7-18-18.5c0-11.8,7.8-19.1,18.6-19.1
					C-1681.9-4367.2-1674.7-4359.7-1674.7-4348.8z M-1701.9-4348.4c0,6.9,3.5,12.2,8.9,12.2c5.2,0,8.8-5,8.8-12.3
					c0-5.7-2.5-12.1-8.8-12.1C-1699.2-4360.6-1701.9-4354.4-1701.9-4348.4z"/>
				<path d="M-1658-4354.8c0-4.8-0.1-8.4-0.3-11.6h7.9l0.3,6.8h0.3c1.8-5.1,6-7.7,9.8-7.7c0.9,0,1.4,0,2.1,0.2v8.6
					c-0.8-0.2-1.6-0.3-2.7-0.3c-4.3,0-7.3,2.8-8.2,6.9c-0.2,0.8-0.2,1.8-0.2,2.7v18.7h-9.1V-4354.8z"/>
				<path d="M-1590.8-4382.9v42.4c0,3.7,0.1,7.7,0.3,10.1h-8.1l-0.4-5.7h-0.2c-2.1,4-6.5,6.5-11.7,6.5c-8.6,0-15.4-7.3-15.4-18.4
					c-0.1-12.1,7.5-19.2,16.1-19.2c4.9,0,8.5,2,10.1,4.7h0.1v-20.4H-1590.8z M-1599.9-4351.4c0-0.7,0-1.6-0.2-2.4
					c-0.8-3.5-3.7-6.4-7.8-6.4c-5.9,0-9.1,5.2-9.1,11.8c0,6.6,3.3,11.4,9,11.4c3.7,0,6.9-2.5,7.9-6.5c0.2-0.8,0.3-1.7,0.3-2.7
					V-4351.4z"/>
				<path d="M-1572.9-4379.6c3.3-0.6,7.8-1,13.9-1c6.6,0,11.5,1.4,14.7,4.1c3,2.4,4.9,6.3,4.9,11c0,4.7-1.5,8.6-4.2,11.3
					c-3.7,3.6-9.3,5.4-15.7,5.4c-1.7,0-3.2-0.1-4.5-0.4v18.8h-9V-4379.6z M-1563.9-4356.4c1.2,0.3,2.6,0.4,4.5,0.4
					c6.8,0,11-3.4,11-9.2c0-5.5-3.8-8.4-10.1-8.4c-2.5,0-4.3,0.2-5.3,0.4V-4356.4z"/>
				<path d="M-1525.6-4354.8c0-4.8-0.1-8.4-0.3-11.6h7.9l0.3,6.8h0.3c1.8-5.1,6-7.7,9.8-7.7c0.9,0,1.4,0,2.1,0.2v8.6
					c-0.8-0.2-1.6-0.3-2.7-0.3c-4.3,0-7.3,2.8-8.2,6.9c-0.2,0.8-0.2,1.8-0.2,2.7v18.7h-9.1V-4354.8z"/>
				<path d="M-1486.6-4345.9c0.2,6.5,5.3,9.4,11.1,9.4c4.2,0,7.2-0.7,9.9-1.7l1.3,6.3c-3.1,1.3-7.4,2.3-12.6,2.3
					c-11.7,0-18.5-7.2-18.5-18.2c0-9.9,6-19.3,17.6-19.3c11.7,0,15.5,9.6,15.5,17.5c0,1.7-0.1,3-0.3,3.8H-1486.6z M-1470.8-4352.2
					c0-3.3-1.4-8.8-7.5-8.8c-5.6,0-7.9,5.1-8.3,8.8H-1470.8z"/>
				<path d="M-1449.1-4338.8c2,1.2,5.9,2.6,9.2,2.6c4,0,5.8-1.7,5.8-4c0-2.4-1.5-3.7-5.9-5.2c-7-2.4-10-6.2-9.9-10.5
					c0-6.3,5.3-11.3,13.7-11.3c4,0,7.4,1,9.5,2.2l-1.8,6.4c-1.5-0.9-4.4-2.1-7.6-2.1c-3.2,0-5,1.6-5,3.8c0,2.3,1.7,3.4,6.3,5
					c6.5,2.3,9.6,5.7,9.6,11c0,6.6-5.1,11.3-14.6,11.3c-4.4,0-8.3-1-11-2.5L-1449.1-4338.8z"/>
				<path d="M-1413.5-4338.8c2,1.2,5.9,2.6,9.2,2.6c4,0,5.8-1.7,5.8-4c0-2.4-1.5-3.7-5.9-5.2c-7-2.4-10-6.2-9.9-10.5
					c0-6.3,5.3-11.3,13.7-11.3c4,0,7.4,1,9.5,2.2l-1.8,6.4c-1.5-0.9-4.4-2.1-7.6-2.1c-3.2,0-5,1.6-5,3.8c0,2.3,1.7,3.4,6.3,5
					c6.5,2.3,9.6,5.7,9.6,11c0,6.6-5.1,11.3-14.6,11.3c-4.4,0-8.3-1-11-2.5L-1413.5-4338.8z"/>
				<path d="M-1354.2-4340.4c2.9,1.7,7.4,3.2,12,3.2c5.8,0,9.1-2.7,9.1-6.8c0-3.8-2.5-6-8.8-8.3c-8.2-2.9-13.5-7.3-13.5-14.5
					c0-8.2,6.8-14.3,17.6-14.3c5.4,0,9.3,1.1,11.9,2.5l-2.2,7.3c-1.8-0.9-5.3-2.4-10-2.4c-5.8,0-8.2,3.1-8.2,6
					c0,3.8,2.9,5.6,9.5,8.2c8.7,3.3,12.8,7.6,12.8,14.8c0,8-6,15-18.9,15c-5.3,0-10.7-1.5-13.5-3.2L-1354.2-4340.4z"/>
				<path d="M-1275.5-4348.8c0,13.2-9.3,19.2-18.5,19.2c-10.1,0-18-7-18-18.5c0-11.8,7.8-19.1,18.6-19.1
					C-1282.7-4367.2-1275.5-4359.7-1275.5-4348.8z M-1302.7-4348.4c0,6.9,3.5,12.2,8.9,12.2c5.2,0,8.8-5,8.8-12.3
					c0-5.7-2.5-12.1-8.8-12.1C-1300.1-4360.6-1302.7-4354.4-1302.7-4348.4z"/>
				<path d="M-1261.8-4382.9h9.1v52.5h-9.1V-4382.9z"/>
				<path d="M-1204.3-4341.2c0,4.3,0.1,7.9,0.3,10.8h-7.9l-0.4-5.4h-0.2c-1.5,2.5-5.1,6.3-11.5,6.3c-6.6,0-12.5-3.9-12.5-15.7v-21.1
					h9.1v19.6c0,6,1.9,9.8,6.7,9.8c3.6,0,6-2.5,6.9-4.9c0.3-0.8,0.5-1.8,0.5-2.8v-21.7h9.1V-4341.2z"/>
				<path d="M-1177.8-4376.7v10.3h8.7v6.8h-8.7v15.9c0,4.4,1.2,6.6,4.7,6.6c1.6,0,2.7-0.2,3.5-0.4l0.2,6.9c-1.4,0.5-3.8,0.9-6.6,0.9
					c-3.3,0-6.1-1.1-7.8-3c-2-2.1-2.8-5.4-2.8-10.1v-16.9h-5.1v-6.8h5.1v-8.1L-1177.8-4376.7z"/>
				<path d="M-1144.8-4376.5c0,2.7-2,4.9-5.2,4.9c-3,0-5-2.2-5-4.9c0-2.8,2-4.9,5.1-4.9C-1146.8-4381.4-1144.9-4379.3-1144.8-4376.5
					z M-1154.5-4330.4v-36h9.1v36H-1154.5z"/>
				<path d="M-1095.1-4348.8c0,13.2-9.3,19.2-18.5,19.2c-10.1,0-18-7-18-18.5c0-11.8,7.8-19.1,18.6-19.1
					C-1102.3-4367.2-1095.1-4359.7-1095.1-4348.8z M-1122.2-4348.4c0,6.9,3.5,12.2,8.9,12.2c5.2,0,8.8-5,8.8-12.3
					c0-5.7-2.5-12.1-8.8-12.1C-1119.6-4360.6-1122.2-4354.4-1122.2-4348.4z"/>
				<path d="M-1082.8-4355.7c0-4.2-0.1-7.6-0.3-10.7h7.9l0.4,5.4h0.2c1.6-2.8,5.5-6.2,11.5-6.2c6.3,0,12.8,4,12.8,15.4v21.4h-9.1
					v-20.3c0-5.2-1.9-9.1-6.9-9.1c-3.6,0-6.1,2.6-7.1,5.3c-0.3,0.7-0.4,1.9-0.4,2.9v21.2h-9.1V-4355.7z"/>
				<path d="M-1034.7-4338.8c2,1.2,5.9,2.6,9.2,2.6c4,0,5.8-1.7,5.8-4c0-2.4-1.5-3.7-5.9-5.2c-7-2.4-10-6.2-9.9-10.5
					c0-6.3,5.3-11.3,13.7-11.3c4,0,7.4,1,9.5,2.2l-1.8,6.4c-1.5-0.9-4.4-2.1-7.6-2.1c-3.2,0-5,1.6-5,3.8c0,2.3,1.7,3.4,6.3,5
					c6.5,2.3,9.6,5.7,9.6,11c0,6.6-5.1,11.3-14.6,11.3c-4.4,0-8.3-1-11-2.5L-1034.7-4338.8z"/>
			</g>
			<g>
				<path d="M-1654.7-4488.4c-25,0-36.5,20.3-36.5,38.7c0,22.5,12,36.8,36.5,36.8c17.5,0,28.3-8.5,30.1-21l-17.6-0.2
					c-2.1,2.6-4.9,4.5-12.5,4.5c-10.5,0-14.3-4.4-15-13.8h46.5c0.4-1.7,0.8-5,0.8-8.9C-1622.4-4470.1-1633-4488.4-1654.7-4488.4z
					 M-1669.9-4458.7c0.6-6,4.5-13.7,14-13.7c10.2,0,12.7,8.3,12.6,13.7H-1669.9z"/>
				<path d="M-1533-4486.7h-27l-14.7,21.9c-1.8,2.7-3.5,5.6-5.2,8.7h-0.3v-63.1h-22.5v104.9h22.5v-22.5l5.7-7.2l17.5,29.7h27.6
					l-29.6-43L-1533-4486.7z"/>
				<path d="M-1490.1-4507.4l-31.6,37.2h9.6v29.6c0,10.3,2,17.2,6.2,21.4c3.6,3.7,9.7,6.3,16.9,6.3c6.3,0,11.7-0.9,14.6-1.9
					l-0.2-17.1c-1.6,0.4-3.8,0.7-6.7,0.7c-6.7,0-8.9-4-8.9-12.7v-26.2h16.2v-16.6h-16.2V-4507.4z"/>
				<path d="M-1419-4488.4c-23.3,0-38.6,15-38.6,38.3c0,23.4,16.3,37.3,37.3,37.3c19.4,0,38.1-12.1,38.1-38.5
					C-1382.2-4473.1-1396.9-4488.4-1419-4488.4z M-1419.7-4428.8c-9.6,0-14.8-9.4-14.8-21.7c0-10.7,4.1-21.8,14.8-21.8
					c10.2,0,14.3,11,14.3,21.6C-1405.4-4437.6-1410.9-4428.8-1419.7-4428.8z"/>
				<path d="M-1340.8-4473.3h-0.6l-0.8-13.4h-19.3c0.4,6.2,0.6,13.2,0.6,23.8v48.5h22.5v-36.6c0-1.8,0.1-3.6,0.4-5
					c1.5-7,7.2-11.4,15.4-11.4c2.5,0,4.3,0.3,6.1,0.6v-21.1c-1.7-0.4-2.7-0.4-4.8-0.4C-1328.3-4488.4-1337.1-4483.9-1340.8-4473.3z"
					/>
				<path d="M-1309-4396.8l15-1.3c7.1-11.5,13.8-27.1,18.6-42.2l-22.8,1.5C-1300.4-4425.3-1304.4-4409.9-1309-4396.8z"/>
				<rect x="-1250.7" y="-4514" width="22.5" height="99.6"/>
				<path d="M-1159.2-4488.4c-12.1,0-19.4,7-22.4,11.6h-0.5l-1-10h-19.5c0.3,6.5,0.6,14.1,0.6,23.1v49.2h22.5v-41.7
					c0-2,0.2-4.2,0.8-5.6c1.6-4.2,5.2-8.5,11.4-8.5c8.1,0,11.4,6.4,11.4,15.7v40.1h22.5v-42.8
					C-1133.3-4478.5-1144.4-4488.4-1159.2-4488.4z"/>
				<path d="M-1069.7-4471c5.9,0,9.9,1.1,12.6,2.3l3.5-16.7c-4.7-1.8-11.2-2.9-17.2-2.9c-26.9,0-41.4,17.3-41.4,38.4
					c0,22.7,14.9,37,38.3,37c8.6,0,16.1-1.5,20.1-3.4l-2.6-16.6c-3.5,1.4-7.6,2.4-13,2.4c-10.9,0-19.8-7.1-19.8-20.3
					C-1089.2-4462.6-1081.6-4471-1069.7-4471z"/>
				<path d="M-1022.3-4440.1c-7.8,0-13.3,5.7-13.3,13.7c0,7.9,5.4,13.6,13.2,13.6c8,0,13.3-5.7,13.3-13.6
					C-1009.2-4434.6-1014.5-4440.1-1022.3-4440.1z"/>
				<path d="M-1737.7-4514l0.2,15.4h15.5l-8.1,27.1c-3.4,11.4-6.6,23.2-9.1,35.2h-0.3c-2.5-12.4-5.5-23.7-9-35.5l-12.1-42.2h-24.7
					l32,99.6h26.3l33.5-99.6h-24H-1737.7z"/>
			</g>
		</g>
		<g>
			<path d="M-1855.6-4514.9l-79.8,0.2c-1.1,0-2.1,0.7-2.5,1.8l-6.1,17c-0.6,1.7,0.7,3.6,2.5,3.6l31,0c2.3,0,3.5,2.8,1.9,4.5
				l-49.4,51.4l0.2,0l25.4,80c0.5,1.7-0.7,3.5-2.5,3.5l-25,0c-1.2,0-2.2-0.8-2.5-1.9l-12.8-41.1c-0.8-2.4-4.2-2.5-5-0.1l-10.4,28.8
				c-0.2,0.5-0.2,1.1-0.1,1.6l9.5,35c0.3,1.2,1.4,2,2.6,2h80.2c1.8,0,3.1-1.8,2.5-3.5l-32.1-100.7c-0.3-0.9-0.1-2,0.6-2.7l73.6-74.8
				C-1852-4512.1-1853.2-4514.9-1855.6-4514.9z"/>
			<g>
				<polygon class="st0" points="-2042.8,-4440.1 -2042.8,-4440.3 -2042.9,-4440.1 				"/>
				<path class="st0" d="M-1950.1-4556.9l-48.5,0.1c-1.1,0-2.1,0.7-2.5,1.8l-6.2,17c-0.6,1.7,0.7,3.6,2.5,3.6l20.4,0
					c1.8,0,3.1,1.8,2.5,3.6l-57.9,158.5c-0.9,2.3-4.2,2.3-5,0l-41.4-114.2c-0.6-1.7,0.7-3.6,2.5-3.6l20.9,0c1.1,0,2.1,0.7,2.5,1.8
					l15,41.2c0.8,2.3,4.2,2.3,5,0l23.3-64.1c0.6-1.7-0.7-3.6-2.5-3.6l-99.3,0c-1.8,0-3.1,1.8-2.5,3.6l76.4,212.2
					c0.8,2.3,4.2,2.3,5,0l92.3-254.3C-1946.9-4555-1948.2-4556.9-1950.1-4556.9z"/>
			</g>
		</g>
	</g>
</g>
<g id="レイヤー_3">
	
		<text transform="matrix(1 0 0 1 -3464.5479 -4079.1963)" style="font-family:'KozGoPr6N-Regular-83pv-RKSJ-H'; font-size:52.5929px;">https://originalprint.jp/stencilsheet/%E3%82%B9%E3%83%86%E3%83%B3%E3%82%B7%E3%83%AB%E3%82%B7%E3%83%BC%E3%83%88%EF%BC%88A3%EF%BC%89</text>
	<g>
		<g>
			<path class="st1" d="M1066.3-662.8l-79.8,0.2c-1.1,0-2.1,0.7-2.5,1.8l-6.1,17c-0.6,1.7,0.7,3.6,2.5,3.6l31,0
				c2.3,0,3.5,2.8,1.9,4.5L964-584.4l0.2,0l25.4,80c0.5,1.7-0.7,3.5-2.5,3.5l-25,0c-1.2,0-2.2-0.8-2.5-1.9l-12.8-41.1
				c-0.8-2.4-4.2-2.5-5-0.1l-10.4,28.8c-0.2,0.5-0.2,1.1-0.1,1.6l9.5,35c0.3,1.2,1.4,2,2.6,2h80.2c1.8,0,3.1-1.8,2.5-3.5
				l-32.1-100.7c-0.3-0.9-0.1-2,0.6-2.7l73.6-74.8C1069.8-660,1068.6-662.8,1066.3-662.8z"/>
			<g>
				<polygon class="st1" points="879.1,-588 879,-588.2 879,-588 				"/>
				<path class="st1" d="M971.8-704.8l-48.5,0.1c-1.1,0-2.1,0.7-2.5,1.8l-6.2,17c-0.6,1.7,0.7,3.6,2.5,3.6l20.4,0
					c1.8,0,3.1,1.8,2.5,3.6l-57.9,158.5c-0.9,2.3-4.2,2.3-5,0l-41.4-114.2c-0.6-1.7,0.7-3.6,2.5-3.6l20.9,0c1.1,0,2.1,0.7,2.5,1.8
					l15,41.2c0.8,2.3,4.2,2.3,5,0l23.3-64.1c0.6-1.7-0.7-3.6-2.5-3.6l-99.3,0c-1.8,0-3.1,1.8-2.5,3.6L877-446.9c0.8,2.3,4.2,2.3,5,0
					l92.3-254.3C975-702.9,973.7-704.8,971.8-704.8z"/>
			</g>
		</g>
	</g>
	<g>
		<path class="st2" d="M773.5-812.9l-134.9,0.3c-1.9,0-3.6,1.2-4.2,3l-10.3,28.7c-1.1,2.9,1.1,6,4.2,6l52.4,0c4,0,6,4.8,3.2,7.6
			l-83.5,87l0.4,0l43,135.3c0.9,2.9-1.2,5.9-4.3,5.9l-42.2,0c-2,0-3.7-1.3-4.3-3.2l-21.6-69.5c-1.3-4.1-7.1-4.3-8.5-0.2l-17.6,48.6
			c-0.3,0.9-0.4,1.8-0.1,2.7l16,59.2c0.5,2,2.3,3.3,4.3,3.3h135.6c3,0,5.2-3,4.3-5.9l-54.3-170.2c-0.5-1.6-0.1-3.3,1.1-4.5
			l124.5-126.5C779.6-808.1,777.5-812.9,773.5-812.9z"/>
		<g>
			<polygon class="st2" points="457.1,-686.5 457,-686.7 456.9,-686.5 			"/>
			<path class="st2" d="M613.8-883.8l-82.1,0.2c-1.9,0-3.6,1.2-4.2,3l-10.5,28.8c-1.1,2.9,1.1,6,4.2,6l34.4,0c3.1,0,5.3,3.1,4.2,6
				l-97.9,267.9c-1.4,3.9-7,3.9-8.5,0L383.6-765c-1.1-2.9,1.1-6,4.2-6l35.4,0.1c1.9,0,3.6,1.2,4.2,3l25.3,69.7c1.4,3.9,7,3.9,8.5,0
				l39.4-108.3c1.1-2.9-1.1-6-4.2-6l-167.8,0c-3.1,0-5.3,3.1-4.2,6l129.2,358.8c1.4,4,7,4,8.5,0l156.1-429.9
				C619.1-880.7,616.9-883.8,613.8-883.8z"/>
		</g>
	</g>
	<g>
		<path class="st1" d="M178.7-178.5l-12.2-49.8h9.7l4.7,22.6c1.2,6.1,2.4,12.4,3.2,17.3h0.2c0.8-5.2,2.2-11.2,3.6-17.4l5.4-22.5h9.6
			l4.9,22.9c1.2,5.9,2.3,11.4,3,16.8h0.2c0.9-5.5,2.1-11.2,3.4-17.3l5.2-22.5h9.3l-13.4,49.8h-9.7l-5.2-23.5
			c-1.3-5.6-2.2-10.4-2.8-15.8h-0.1c-0.8,5.3-1.8,10.1-3.3,15.8l-5.8,23.4H178.7z"/>
		<path class="st1" d="M290.2-202.9c0-4.8-0.1-8.4-0.3-11.6h7.9l0.3,6.8h0.3c1.8-5.1,6-7.7,9.8-7.7c0.9,0,1.4,0,2.1,0.2v8.6
			c-0.8-0.2-1.6-0.3-2.7-0.3c-4.3,0-7.3,2.8-8.2,6.9c-0.2,0.8-0.2,1.8-0.2,2.7v18.7h-9.1V-202.9z"/>
		<path class="st1" d="M422.6-202.9c0-4.8-0.1-8.4-0.3-11.6h7.9l0.3,6.8h0.3c1.8-5.1,6-7.7,9.8-7.7c0.9,0,1.4,0,2.1,0.2v8.6
			c-0.8-0.2-1.6-0.3-2.7-0.3c-4.3,0-7.3,2.8-8.2,6.9c-0.2,0.8-0.2,1.8-0.2,2.7v18.7h-9.1V-202.9z"/>
		<path class="st1" d="M499.1-186.8c2,1.2,5.9,2.6,9.2,2.6c4,0,5.8-1.7,5.8-4c0-2.4-1.5-3.7-5.9-5.2c-7-2.4-10-6.2-9.9-10.5
			c0-6.3,5.3-11.3,13.7-11.3c4,0,7.4,1,9.5,2.2l-1.8,6.4c-1.5-0.9-4.4-2.1-7.6-2.1c-3.2,0-5,1.6-5,3.8c0,2.3,1.7,3.4,6.3,5
			c6.5,2.3,9.6,5.7,9.6,11c0,6.6-5.1,11.3-14.6,11.3c-4.4,0-8.3-1-11-2.5L499.1-186.8z"/>
		<path class="st1" d="M534.7-186.8c2,1.2,5.9,2.6,9.2,2.6c4,0,5.8-1.7,5.8-4c0-2.4-1.5-3.7-5.9-5.2c-7-2.4-10-6.2-9.9-10.5
			c0-6.3,5.3-11.3,13.7-11.3c4,0,7.4,1,9.5,2.2l-1.8,6.4c-1.5-0.9-4.4-2.1-7.6-2.1c-3.2,0-5,1.6-5,3.8c0,2.3,1.7,3.4,6.3,5
			c6.5,2.3,9.6,5.7,9.6,11c0,6.6-5.1,11.3-14.6,11.3c-4.4,0-8.3-1-11-2.5L534.7-186.8z"/>
		<path class="st1" d="M594-188.4c2.9,1.7,7.4,3.2,12,3.2c5.8,0,9.1-2.7,9.1-6.8c0-3.8-2.5-6-8.8-8.3c-8.2-2.9-13.5-7.3-13.5-14.5
			c0-8.2,6.8-14.3,17.6-14.3c5.4,0,9.3,1.1,11.9,2.5l-2.2,7.3c-1.8-0.9-5.3-2.4-10-2.4c-5.8,0-8.2,3.1-8.2,6c0,3.8,2.9,5.6,9.5,8.2
			c8.7,3.3,12.8,7.6,12.8,14.8c0,8-6,15-18.9,15c-5.3,0-10.7-1.5-13.5-3.2L594-188.4z"/>
		<path class="st1" d="M686.4-230.9h9.1v52.5h-9.1V-230.9z"/>
		<path class="st1" d="M743.9-189.2c0,4.3,0.1,7.9,0.3,10.8h-7.9l-0.4-5.4h-0.2c-1.5,2.5-5.1,6.3-11.5,6.3
			c-6.6,0-12.5-3.9-12.5-15.7v-21.1h9.1v19.6c0,6,1.9,9.8,6.7,9.8c3.6,0,6-2.5,6.9-4.9c0.3-0.8,0.5-1.8,0.5-2.8v-21.7h9.1V-189.2z"
			/>
		<path class="st1" d="M770.5-224.7v10.3h8.7v6.8h-8.7v15.9c0,4.4,1.2,6.6,4.7,6.6c1.6,0,2.7-0.2,3.5-0.4l0.2,6.9
			c-1.4,0.5-3.8,0.9-6.6,0.9c-3.3,0-6.1-1.1-7.8-3c-2-2.1-2.8-5.4-2.8-10.1v-16.9h-5.1v-6.8h5.1v-8.1L770.5-224.7z"/>
		<path class="st1" d="M803.4-224.5c0,2.7-2,4.9-5.2,4.9c-3,0-5-2.2-5-4.9c0-2.8,2-4.9,5.1-4.9C801.4-229.4,803.3-227.3,803.4-224.5
			z M793.7-178.5v-36h9.1v36H793.7z"/>
		<path class="st1" d="M865.4-203.7c0-4.2-0.1-7.6-0.3-10.7h7.9l0.4,5.4h0.2c1.6-2.8,5.5-6.2,11.5-6.2c6.3,0,12.8,4,12.8,15.4v21.4
			h-9.1v-20.3c0-5.2-1.9-9.1-6.9-9.1c-3.6,0-6.1,2.6-7.1,5.3c-0.3,0.7-0.4,1.9-0.4,2.9v21.2h-9.1V-203.7z"/>
		<path class="st1" d="M913.5-186.8c2,1.2,5.9,2.6,9.2,2.6c4,0,5.8-1.7,5.8-4c0-2.4-1.5-3.7-5.9-5.2c-7-2.4-10-6.2-9.9-10.5
			c0-6.3,5.3-11.3,13.7-11.3c4,0,7.4,1,9.5,2.2l-1.8,6.4c-1.5-0.9-4.4-2.1-7.6-2.1c-3.2,0-5,1.6-5,3.8c0,2.3,1.7,3.4,6.3,5
			c6.5,2.3,9.6,5.7,9.6,11c0,6.6-5.1,11.3-14.6,11.3c-4.4,0-8.3-1-11-2.5L913.5-186.8z"/>
		<path class="st1" d="M415.2-334.8h-27l-14.7,21.9c-1.8,2.7-3.5,5.6-5.2,8.7H368v-63.1h-22.5v104.9H368V-285l5.7-7.2l17.5,29.7
			h27.6l-29.6-43L415.2-334.8z"/>
		<path class="st1" d="M458.1-355.4l-31.6,37.2h9.6v29.6c0,10.3,2,17.2,6.2,21.4c3.6,3.7,9.7,6.3,16.9,6.3c6.3,0,11.7-0.9,14.6-1.9
			l-0.2-17.1c-1.6,0.4-3.8,0.7-6.7,0.7c-6.7,0-8.9-4-8.9-12.7v-26.2h16.2v-16.6h-16.2V-355.4z"/>
		<path class="st1" d="M607.4-321.4h-0.6l-0.8-13.4h-19.3c0.4,6.2,0.6,13.2,0.6,23.8v48.5h22.5V-299c0-1.8,0.1-3.6,0.4-5
			c1.5-7,7.2-11.4,15.4-11.4c2.5,0,4.3,0.3,6.1,0.6V-336c-1.7-0.4-2.7-0.4-4.8-0.4C620-336.4,611.2-331.9,607.4-321.4z"/>
		<path class="st1" d="M639.2-244.8l15-1.3c7.1-11.5,13.8-27.1,18.6-42.2l-22.8,1.5C647.8-273.3,643.8-257.9,639.2-244.8z"/>
		<rect x="697.5" y="-362" class="st1" width="22.5" height="99.6"/>
		<path class="st1" d="M789-336.4c-12.1,0-19.4,7-22.4,11.6h-0.5l-1-10h-19.5c0.3,6.5,0.6,14.1,0.6,23.1v49.2h22.5v-41.7
			c0-2,0.2-4.2,0.8-5.6c1.6-4.2,5.2-8.5,11.4-8.5c8.1,0,11.4,6.4,11.4,15.7v40.1h22.5v-42.8C814.9-326.5,803.8-336.4,789-336.4z"/>
		<path class="st1" d="M878.5-319.1c5.9,0,9.9,1.1,12.6,2.3l3.5-16.7c-4.7-1.8-11.2-2.9-17.2-2.9c-26.9,0-41.4,17.3-41.4,38.4
			c0,22.7,14.9,37,38.3,37c8.6,0,16.1-1.5,20.1-3.4l-2.6-16.6c-3.5,1.4-7.6,2.4-13,2.4c-10.9,0-19.8-7.1-19.8-20.3
			C859-310.6,866.6-319.1,878.5-319.1z"/>
		<path class="st1" d="M925.9-288.1c-7.8,0-13.3,5.7-13.3,13.7c0,7.9,5.4,13.6,13.2,13.6c8,0,13.3-5.7,13.3-13.6
			C939.1-282.6,933.7-288.1,925.9-288.1z"/>
		<path class="st1" d="M210.5-362l0.2,15.4h15.5l-8.1,27.1c-3.4,11.4-6.6,23.2-9.1,35.2h-0.3c-2.5-12.4-5.5-23.7-9-35.5L187.6-362
			h-24.7l32,99.6h26.3l33.5-99.6h-24H210.5z"/>
		<g>
			<path class="st1" d="M526.9-277c-8.5-1-13.1-10-13.1-21.6c0-10.1,3.7-20.6,13.1-21.7v-16.1c-21.9,1-36.3,15.7-36.3,38.3
				c0,23,15.8,36.8,36.3,37.2V-277z"/>
			<path class="st1" d="M529.7-336.4v16.1c9.3,0.8,13.1,11.3,13.1,21.6c0,12.5-5.1,21-13.1,21.8v16.1c18.7-0.7,36.3-12.9,36.3-38.5
				C566-321,551.5-336.1,529.7-336.4z"/>
		</g>
		<path class="st1" d="M281.1-291.4"/>
		<g>
			<path class="st1" d="M253.8-184.4c-4.6-0.9-7.5-5.7-7.5-12c0-5.5,2.2-11.2,7.5-12.1v-6.7c-9.9,0.8-16.8,7.9-16.8,19
				c0,11.1,7.3,18,16.8,18.5V-184.4z"/>
			<path class="st1" d="M256.7-215.2v6.7c5.3,0.8,7.5,6.8,7.5,12c0,6.6-3,11.3-7.5,12.1v6.7c8.6-0.7,16.8-6.7,16.8-19.1
				C273.5-207.3,266.8-214.7,256.7-215.2z"/>
		</g>
		<g>
			<path class="st1" d="M653-184.4c-4.6-0.9-7.5-5.7-7.5-12c0-5.5,2.2-11.2,7.5-12.1v-6.7c-9.9,0.8-16.8,7.9-16.8,19
				c0,11.1,7.3,18,16.8,18.5V-184.4z"/>
			<path class="st1" d="M655.8-215.2v6.7c5.3,0.8,7.5,6.8,7.5,12c0,6.6-3,11.3-7.5,12.1v6.7c8.6-0.7,16.8-6.7,16.8-19.1
				C672.7-207.3,666-214.7,655.8-215.2z"/>
		</g>
		<g>
			<path class="st1" d="M833.5-184.4c-4.6-0.9-7.5-5.7-7.5-12c0-5.5,2.2-11.2,7.5-12.1v-6.7c-9.9,0.8-16.8,7.9-16.8,19
				c0,11.1,7.3,18,16.8,18.5V-184.4z"/>
			<path class="st1" d="M836.3-215.2v6.7c5.3,0.8,7.5,6.8,7.5,12c0,6.6-3,11.3-7.5,12.1v6.7c8.6-0.7,16.8-6.7,16.8-19.1
				C853.1-207.3,846.4-214.7,836.3-215.2z"/>
		</g>
		<g>
			<path class="st1" d="M295-277.6v16.7c16.6-0.5,26.9-8.8,28.6-20.9L306-282C304-279.7,301.5-277.9,295-277.6z"/>
			<path class="st1" d="M292.1-277.6c-9.5-0.4-13-4.8-13.7-13.7h2.7h11v-15.4h-13.9c0.6-6,4.4-13.6,13.9-13.7v-15.9
				c-24.1,0.7-35.1,20.6-35.1,38.7c0,22.1,11.5,36.3,35.1,36.8V-277.6z"/>
			<path class="st1" d="M295-336.3v16.1c7.9,1.4,9.9,8.6,9.9,13.5H295v15.4h30c0.4-1.7,0.8-5,0.8-8.9
				C325.8-317.7,315.7-335.5,295-336.3z"/>
		</g>
		<g>
			<path class="st1" d="M338.4-185.1c-4.6-0.9-7.2-5.4-7.2-11.3c0-5.9,2.6-10.6,7.2-11.6v-7.2c-0.1,0-0.2,0-0.3,0
				c-8.7,0-16.2,7.2-16.1,19.2c0,11.1,6.8,18.4,15.4,18.4c0.4,0,0.7,0,1.1,0V-185.1z"/>
			<path class="st1" d="M357.4-188.5v-42.4h-9.1v20.4h-0.1c-1.2-2-3.6-3.7-6.9-4.4v6.8c3.6,0.4,6.1,3.1,6.9,6.3
				c0.2,0.7,0.2,1.6,0.2,2.4v5.4c0,1-0.1,1.8-0.3,2.7c-0.8,3.6-3.5,6-6.8,6.4v6.9c3.4-0.9,6.2-3,7.8-6h0.2l0.4,5.7h8.1
				C357.6-180.9,357.4-184.9,357.4-188.5z"/>
		</g>
		<g>
			<path class="st1" d="M389.2-204c-0.1,0-0.3,0-0.4,0c-1.9,0-3.3-0.1-4.5-0.4v-16.8c0.9-0.2,2.6-0.4,4.9-0.4v-7
				c-6.1,0-10.6,0.5-13.9,1v49.2h9v-18.8c1.2,0.3,2.8,0.4,4.5,0.4c0.1,0,0.3,0,0.4,0V-204z"/>
			<path class="st1" d="M403.9-224.6c-2.7-2.3-6.6-3.6-11.9-4v7.1c4.8,0.7,7.7,3.5,7.7,8.3c0,4.8-2.9,8-7.7,8.9v7.2
				c5.1-0.5,9.5-2.2,12.5-5.2c2.8-2.7,4.2-6.6,4.2-11.3C408.8-218.2,406.9-222.1,403.9-224.6z"/>
		</g>
		<g>
			<path class="st1" d="M468.7-185.1c-4-1.1-6.9-3.9-7.1-8.9h7.1v-6.3h-7.1c0.4-3.4,2.4-8,7.1-8.7v-6.2
				c-10.4,0.9-15.8,9.8-15.8,19.2c0,10.1,5.8,17,15.8,18.1V-185.1z"/>
			<path class="st1" d="M472.7-184.6c-0.4,0-0.8,0-1.2,0v6.9c5.2,0,9.4-1,12.5-2.3l-1.3-6.3C479.9-185.2,476.9-184.6,472.7-184.6z"
				/>
			<path class="st1" d="M471.5-215.2v6.3c4.7,0.9,5.9,5.6,5.9,8.6h-5.9v6.3h14.1c0.2-0.8,0.3-2.1,0.3-3.8
				C486-205.4,482.4-214.6,471.5-215.2z"/>
		</g>
	</g>
	<g>
		<g>
			<path id="XMLID_2_" class="st3" d="M65.1,717.5L65.1,717.5c0-35.1,28.4-63.5,63.5-63.5l377.3,0c35.1,0,63.5,28.4,63.5,63.5v0
				c0,35.1-28.4,63.5-63.5,63.5l-377.3,0C93.6,781,65.1,752.5,65.1,717.5z"/>
			<g>
				<g>
					<g>
						<path d="M312.6,769.7l-2.7-11h2.1l1,5c0.3,1.3,0.5,2.7,0.7,3.8h0c0.2-1.1,0.5-2.5,0.8-3.8l1.2-5h2.1l1.1,5.1
							c0.3,1.3,0.5,2.5,0.7,3.7h0c0.2-1.2,0.5-2.5,0.7-3.8l1.1-5h2l-3,11h-2.1l-1.1-5.2c-0.3-1.2-0.5-2.3-0.6-3.5h0
							c-0.2,1.2-0.4,2.2-0.7,3.5l-1.3,5.2H312.6z"/>
						<path d="M333.6,765.6c0,2.9-2,4.2-4.1,4.2c-2.2,0-4-1.5-4-4.1c0-2.6,1.7-4.2,4.1-4.2C332,761.6,333.6,763.2,333.6,765.6z
							 M327.6,765.7c0,1.5,0.8,2.7,2,2.7c1.2,0,2-1.1,2-2.7c0-1.2-0.6-2.7-1.9-2.7C328.1,763,327.6,764.4,327.6,765.7z"/>
						<path d="M337.2,764.3c0-1.1,0-1.8-0.1-2.6h1.7l0.1,1.5h0.1c0.4-1.1,1.3-1.7,2.2-1.7c0.2,0,0.3,0,0.5,0v1.9
							c-0.2,0-0.3-0.1-0.6-0.1c-1,0-1.6,0.6-1.8,1.5c0,0.2-0.1,0.4-0.1,0.6v4.1h-2V764.3z"/>
						<path d="M352.1,758.1v9.4c0,0.8,0,1.7,0.1,2.2h-1.8l-0.1-1.3h0c-0.5,0.9-1.4,1.4-2.6,1.4c-1.9,0-3.4-1.6-3.4-4.1
							c0-2.7,1.6-4.2,3.6-4.2c1.1,0,1.9,0.4,2.2,1h0v-4.5H352.1z M350.1,765c0-0.2,0-0.4,0-0.5c-0.2-0.8-0.8-1.4-1.7-1.4
							c-1.3,0-2,1.1-2,2.6c0,1.5,0.7,2.5,2,2.5c0.8,0,1.5-0.6,1.7-1.4c0-0.2,0.1-0.4,0.1-0.6V765z"/>
						<path d="M356,758.8c0.7-0.1,1.7-0.2,3.1-0.2c1.5,0,2.5,0.3,3.2,0.9c0.7,0.5,1.1,1.4,1.1,2.4c0,1-0.3,1.9-0.9,2.5
							c-0.8,0.8-2.1,1.2-3.5,1.2c-0.4,0-0.7,0-1-0.1v4.1h-2V758.8z M358,764c0.3,0.1,0.6,0.1,1,0.1c1.5,0,2.4-0.7,2.4-2
							c0-1.2-0.8-1.9-2.2-1.9c-0.6,0-0.9,0-1.2,0.1V764z"/>
						<path d="M366.4,764.3c0-1.1,0-1.8-0.1-2.6h1.7l0.1,1.5h0.1c0.4-1.1,1.3-1.7,2.2-1.7c0.2,0,0.3,0,0.5,0v1.9
							c-0.2,0-0.3-0.1-0.6-0.1c-1,0-1.6,0.6-1.8,1.5c0,0.2-0.1,0.4-0.1,0.6v4.1h-2V764.3z"/>
						<path d="M375,766.3c0.1,1.4,1.2,2.1,2.5,2.1c0.9,0,1.6-0.1,2.2-0.4l0.3,1.4c-0.7,0.3-1.6,0.5-2.8,0.5c-2.6,0-4.1-1.6-4.1-4
							c0-2.2,1.3-4.3,3.9-4.3c2.6,0,3.4,2.1,3.4,3.9c0,0.4,0,0.7-0.1,0.8H375z M378.5,764.9c0-0.7-0.3-1.9-1.7-1.9
							c-1.2,0-1.7,1.1-1.8,1.9H378.5z"/>
						<path d="M383.3,767.8c0.4,0.3,1.3,0.6,2,0.6c0.9,0,1.3-0.4,1.3-0.9c0-0.5-0.3-0.8-1.3-1.2c-1.6-0.5-2.2-1.4-2.2-2.3
							c0-1.4,1.2-2.5,3-2.5c0.9,0,1.6,0.2,2.1,0.5l-0.4,1.4c-0.3-0.2-1-0.5-1.7-0.5c-0.7,0-1.1,0.4-1.1,0.8c0,0.5,0.4,0.7,1.4,1.1
							c1.4,0.5,2.1,1.2,2.1,2.4c0,1.4-1.1,2.5-3.2,2.5c-1,0-1.8-0.2-2.4-0.6L383.3,767.8z"/>
						<path d="M391.2,767.8c0.4,0.3,1.3,0.6,2,0.6c0.9,0,1.3-0.4,1.3-0.9c0-0.5-0.3-0.8-1.3-1.2c-1.6-0.5-2.2-1.4-2.2-2.3
							c0-1.4,1.2-2.5,3-2.5c0.9,0,1.6,0.2,2.1,0.5l-0.4,1.4c-0.3-0.2-1-0.5-1.7-0.5c-0.7,0-1.1,0.4-1.1,0.8c0,0.5,0.4,0.7,1.4,1.1
							c1.4,0.5,2.1,1.2,2.1,2.4c0,1.4-1.1,2.5-3.2,2.5c-1,0-1.8-0.2-2.4-0.6L391.2,767.8z"/>
						<path d="M404.3,767.5c0.6,0.4,1.6,0.7,2.7,0.7c1.3,0,2-0.6,2-1.5c0-0.8-0.6-1.3-1.9-1.8c-1.8-0.6-3-1.6-3-3.2
							c0-1.8,1.5-3.2,3.9-3.2c1.2,0,2.1,0.3,2.6,0.5l-0.5,1.6c-0.4-0.2-1.2-0.5-2.2-0.5c-1.3,0-1.8,0.7-1.8,1.3
							c0,0.8,0.6,1.2,2.1,1.8c1.9,0.7,2.8,1.7,2.8,3.3c0,1.8-1.3,3.3-4.2,3.3c-1.2,0-2.4-0.3-3-0.7L404.3,767.5z"/>
						<path d="M421.6,765.6c0,2.9-2,4.2-4.1,4.2c-2.2,0-4-1.5-4-4.1c0-2.6,1.7-4.2,4.1-4.2C420,761.6,421.6,763.2,421.6,765.6z
							 M415.6,765.7c0,1.5,0.8,2.7,2,2.7c1.2,0,2-1.1,2-2.7c0-1.2-0.6-2.7-1.9-2.7C416.2,763,415.6,764.4,415.6,765.7z"/>
						<path d="M424.7,758.1h2v11.6h-2V758.1z"/>
						<path d="M437.3,767.3c0,0.9,0,1.7,0.1,2.4h-1.8l-0.1-1.2h0c-0.3,0.6-1.1,1.4-2.5,1.4c-1.4,0-2.8-0.9-2.8-3.5v-4.7h2v4.3
							c0,1.3,0.4,2.2,1.5,2.2c0.8,0,1.3-0.6,1.5-1.1c0.1-0.2,0.1-0.4,0.1-0.6v-4.8h2V767.3z"/>
						<path d="M443.2,759.5v2.3h1.9v1.5h-1.9v3.5c0,1,0.3,1.5,1,1.5c0.3,0,0.6,0,0.8-0.1l0,1.5c-0.3,0.1-0.8,0.2-1.5,0.2
							c-0.7,0-1.4-0.3-1.7-0.7c-0.4-0.5-0.6-1.2-0.6-2.2v-3.7h-1.1v-1.5h1.1v-1.8L443.2,759.5z"/>
						<path d="M450.5,759.5c0,0.6-0.4,1.1-1.1,1.1c-0.7,0-1.1-0.5-1.1-1.1c0-0.6,0.4-1.1,1.1-1.1C450,758.4,450.5,758.9,450.5,759.5
							z M448.3,769.7v-7.9h2v7.9H448.3z"/>
						<path d="M461.4,765.6c0,2.9-2,4.2-4.1,4.2c-2.2,0-4-1.5-4-4.1c0-2.6,1.7-4.2,4.1-4.2C459.9,761.6,461.4,763.2,461.4,765.6z
							 M455.4,765.7c0,1.5,0.8,2.7,2,2.7c1.2,0,2-1.1,2-2.7c0-1.2-0.6-2.7-1.9-2.7C456,763,455.4,764.4,455.4,765.7z"/>
						<path d="M464.2,764.1c0-0.9,0-1.7-0.1-2.4h1.8l0.1,1.2h0c0.4-0.6,1.2-1.4,2.5-1.4c1.4,0,2.8,0.9,2.8,3.4v4.7h-2v-4.5
							c0-1.1-0.4-2-1.5-2c-0.8,0-1.4,0.6-1.6,1.2c-0.1,0.2-0.1,0.4-0.1,0.6v4.7h-2V764.1z"/>
						<path d="M474.8,767.8c0.4,0.3,1.3,0.6,2,0.6c0.9,0,1.3-0.4,1.3-0.9c0-0.5-0.3-0.8-1.3-1.2c-1.6-0.5-2.2-1.4-2.2-2.3
							c0-1.4,1.2-2.5,3-2.5c0.9,0,1.6,0.2,2.1,0.5l-0.4,1.4c-0.3-0.2-1-0.5-1.7-0.5c-0.7,0-1.1,0.4-1.1,0.8c0,0.5,0.4,0.7,1.4,1.1
							c1.4,0.5,2.1,1.2,2.1,2.4c0,1.4-1.1,2.5-3.2,2.5c-1,0-1.8-0.2-2.4-0.6L474.8,767.8z"/>
					</g>
					<g>
						<path d="M338,734.8c-5.5,0-8,4.5-8,8.5c0,5,2.6,8.1,8,8.1c3.9,0,6.2-1.9,6.6-4.6l-3.9,0c-0.5,0.6-1.1,1-2.8,1
							c-2.3,0-3.2-1-3.3-3h10.3c0.1-0.4,0.2-1.1,0.2-2C345.1,738.9,342.8,734.8,338,734.8z M334.6,741.4c0.1-1.3,1-3,3.1-3
							c2.3,0,2.8,1.8,2.8,3H334.6z"/>
						<path d="M364.8,735.2h-5.9l-3.2,4.8c-0.4,0.6-0.8,1.2-1.1,1.9h-0.1V728h-5v23.2h5v-5l1.3-1.6l3.9,6.6h6.1l-6.5-9.5
							L364.8,735.2z"/>
						<path d="M374.3,730.6l-7,8.2h2.1v6.5c0,2.3,0.5,3.8,1.4,4.7c0.8,0.8,2.1,1.4,3.7,1.4c1.4,0,2.6-0.2,3.2-0.4l0-3.8
							c-0.3,0.1-0.8,0.1-1.5,0.1c-1.5,0-2-0.9-2-2.8v-5.8h3.6v-3.7h-3.6V730.6z"/>
						<path d="M390,734.8c-5.1,0-8.5,3.3-8.5,8.5c0,5.2,3.6,8.2,8.2,8.2c4.3,0,8.4-2.7,8.4-8.5C398.1,738.2,394.9,734.8,390,734.8z
							 M389.8,748c-2.1,0-3.3-2.1-3.3-4.8c0-2.4,0.9-4.8,3.3-4.8c2.2,0,3.2,2.4,3.2,4.8C393,746,391.8,748,389.8,748z"/>
						<path d="M407.2,738.1h-0.1l-0.2-3h-4.3c0.1,1.4,0.1,2.9,0.1,5.3v10.7h5v-8.1c0-0.4,0-0.8,0.1-1.1c0.3-1.6,1.6-2.5,3.4-2.5
							c0.6,0,1,0.1,1.3,0.1v-4.7c-0.4-0.1-0.6-0.1-1.1-0.1C410,734.8,408.1,735.8,407.2,738.1z"/>
						<path d="M414.2,755l3.3-0.3c1.6-2.5,3-6,4.1-9.3l-5,0.3C416.1,748.7,415.3,752.1,414.2,755z"/>
						<rect x="427.1" y="729.2" width="5" height="22"/>
						<path d="M447.3,734.8c-2.7,0-4.3,1.5-4.9,2.6h-0.1l-0.2-2.2h-4.3c0.1,1.4,0.1,3.1,0.1,5.1v10.9h5v-9.2c0-0.4,0-0.9,0.2-1.2
							c0.3-0.9,1.2-1.9,2.5-1.9c1.8,0,2.5,1.4,2.5,3.5v8.8h5v-9.4C453,737,450.6,734.8,447.3,734.8z"/>
						<path d="M467,738.7c1.3,0,2.2,0.2,2.8,0.5l0.8-3.7c-1-0.4-2.5-0.6-3.8-0.6c-5.9,0-9.1,3.8-9.1,8.5c0,5,3.3,8.2,8.4,8.2
							c1.9,0,3.6-0.3,4.4-0.7l-0.6-3.7c-0.8,0.3-1.7,0.5-2.9,0.5c-2.4,0-4.4-1.6-4.4-4.5C462.7,740.5,464.4,738.7,467,738.7z"/>
						<path d="M477.5,745.5c-1.7,0-2.9,1.3-2.9,3c0,1.7,1.2,3,2.9,3c1.8,0,2.9-1.3,2.9-3C480.4,746.7,479.2,745.5,477.5,745.5z"/>
						<path d="M319.7,729.2l0,3.4h3.4l-1.8,6c-0.7,2.5-1.5,5.1-2,7.8h-0.1c-0.5-2.7-1.2-5.2-2-7.8l-2.7-9.3h-5.4l7,22h5.8l7.4-22
							h-5.3H319.7z"/>
					</g>
				</g>
				<g>
					<path d="M293.6,729l-17.6,0c-0.2,0-0.5,0.2-0.6,0.4l-1.3,3.7c-0.1,0.4,0.1,0.8,0.6,0.8l6.8,0c0.5,0,0.8,0.6,0.4,1l-10.9,11.4
						l0.1,0l5.6,17.7c0.1,0.4-0.2,0.8-0.6,0.8l-5.5,0c-0.3,0-0.5-0.2-0.6-0.4l-2.8-9.1c-0.2-0.5-0.9-0.6-1.1,0l-2.3,6.3
						c0,0.1,0,0.2,0,0.4l2.1,7.7c0.1,0.3,0.3,0.4,0.6,0.4h17.7c0.4,0,0.7-0.4,0.6-0.8l-7.1-22.2c-0.1-0.2,0-0.4,0.1-0.6l16.2-16.5
						C294.4,729.6,294.2,729,293.6,729z"/>
					<g>
						<polygon class="st0" points="252.3,745.5 252.3,745.4 252.3,745.5 						"/>
						<path class="st0" d="M272.8,719.7l-10.7,0c-0.2,0-0.5,0.2-0.6,0.4l-1.4,3.8c-0.1,0.4,0.1,0.8,0.6,0.8l4.5,0
							c0.4,0,0.7,0.4,0.6,0.8l-12.8,35c-0.2,0.5-0.9,0.5-1.1,0l-9.1-25.2c-0.1-0.4,0.1-0.8,0.6-0.8l4.6,0c0.2,0,0.5,0.2,0.6,0.4
							l3.3,9.1c0.2,0.5,0.9,0.5,1.1,0l5.1-14.1c0.1-0.4-0.1-0.8-0.6-0.8l-21.9,0c-0.4,0-0.7,0.4-0.6,0.8l16.9,46.8
							c0.2,0.5,0.9,0.5,1.1,0l20.4-56.1C273.5,720.1,273.2,719.7,272.8,719.7z"/>
					</g>
				</g>
			</g>
		</g>
		<g>
			<path id="XMLID_3_" class="st3" d="M65.1,571.6L65.1,571.6c0-35.1,28.4-63.5,63.5-63.5l377.3,0c35.1,0,63.5,28.4,63.5,63.5v0
				c0,35.1-28.4,63.5-63.5,63.5l-377.3,0C93.6,635.2,65.1,606.7,65.1,571.6z"/>
			<g>
				<path class="st2" d="M366.4,541l-29.8,0.1c-0.4,0-0.8,0.3-0.9,0.7l-2.3,6.3c-0.2,0.6,0.2,1.3,0.9,1.3l11.6,0
					c0.9,0,1.3,1,0.7,1.7l-18.4,19.2l0.1,0l9.5,29.8c0.2,0.6-0.3,1.3-0.9,1.3l-9.3,0c-0.4,0-0.8-0.3-0.9-0.7l-4.8-15.3
					c-0.3-0.9-1.6-0.9-1.9,0l-3.9,10.7c-0.1,0.2-0.1,0.4,0,0.6l3.5,13.1c0.1,0.4,0.5,0.7,1,0.7h29.9c0.7,0,1.1-0.7,0.9-1.3l-12-37.6
					c-0.1-0.4,0-0.7,0.2-1l27.5-27.9C367.7,542.1,367.3,541,366.4,541z"/>
				<g>
					<polygon class="st2" points="296.6,568.9 296.5,568.9 296.5,568.9 					"/>
					<path class="st2" d="M331.2,525.4l-18.1,0c-0.4,0-0.8,0.3-0.9,0.7l-2.3,6.3c-0.2,0.6,0.2,1.3,0.9,1.3l7.6,0
						c0.7,0,1.2,0.7,0.9,1.3l-21.6,59.1c-0.3,0.9-1.5,0.9-1.9,0l-15.5-42.6c-0.2-0.6,0.2-1.3,0.9-1.3l7.8,0c0.4,0,0.8,0.3,0.9,0.7
						l5.6,15.4c0.3,0.9,1.5,0.9,1.9,0l8.7-23.9c0.2-0.6-0.2-1.3-0.9-1.3l-37,0c-0.7,0-1.2,0.7-0.9,1.3l28.5,79.2
						c0.3,0.9,1.5,0.9,1.9,0l34.4-94.9C332.3,526.1,331.8,525.4,331.2,525.4z"/>
				</g>
			</g>
			<g>
				<g>
					<path d="M235.1,595.1l-2.7-11h2.1l1,5c0.3,1.3,0.5,2.7,0.7,3.8h0c0.2-1.1,0.5-2.5,0.8-3.8l1.2-5h2.1l1.1,5.1
						c0.3,1.3,0.5,2.5,0.7,3.7h0c0.2-1.2,0.5-2.5,0.7-3.8l1.1-5h2l-3,11h-2.1L240,590c-0.3-1.2-0.5-2.3-0.6-3.5h0
						c-0.2,1.2-0.4,2.2-0.7,3.5l-1.3,5.2H235.1z"/>
					<path d="M256.1,591.1c0,2.9-2,4.2-4.1,4.2c-2.2,0-4-1.5-4-4.1c0-2.6,1.7-4.2,4.1-4.2C254.5,587,256.1,588.7,256.1,591.1z
						 M250.1,591.2c0,1.5,0.8,2.7,2,2.7c1.2,0,2-1.1,2-2.7c0-1.2-0.6-2.7-1.9-2.7C250.7,588.5,250.1,589.9,250.1,591.2z"/>
					<path d="M259.8,589.8c0-1.1,0-1.8-0.1-2.6h1.7l0.1,1.5h0.1c0.4-1.1,1.3-1.7,2.2-1.7c0.2,0,0.3,0,0.5,0v1.9
						c-0.2,0-0.3-0.1-0.6-0.1c-1,0-1.6,0.6-1.8,1.5c0,0.2-0.1,0.4-0.1,0.6v4.1h-2V589.8z"/>
					<path d="M274.6,583.6v9.4c0,0.8,0,1.7,0.1,2.2h-1.8l-0.1-1.3h0c-0.5,0.9-1.4,1.4-2.6,1.4c-1.9,0-3.4-1.6-3.4-4.1
						c0-2.7,1.6-4.2,3.6-4.2c1.1,0,1.9,0.4,2.2,1h0v-4.5H274.6z M272.6,590.5c0-0.2,0-0.4,0-0.5c-0.2-0.8-0.8-1.4-1.7-1.4
						c-1.3,0-2,1.1-2,2.6c0,1.5,0.7,2.5,2,2.5c0.8,0,1.5-0.6,1.7-1.4c0-0.2,0.1-0.4,0.1-0.6V590.5z"/>
					<path d="M278.5,584.3c0.7-0.1,1.7-0.2,3.1-0.2c1.5,0,2.5,0.3,3.2,0.9c0.7,0.5,1.1,1.4,1.1,2.4c0,1-0.3,1.9-0.9,2.5
						c-0.8,0.8-2.1,1.2-3.5,1.2c-0.4,0-0.7,0-1-0.1v4.1h-2V584.3z M280.5,589.4c0.3,0.1,0.6,0.1,1,0.1c1.5,0,2.4-0.7,2.4-2
						c0-1.2-0.8-1.9-2.2-1.9c-0.6,0-0.9,0-1.2,0.1V589.4z"/>
					<path d="M289,589.8c0-1.1,0-1.8-0.1-2.6h1.7l0.1,1.5h0.1c0.4-1.1,1.3-1.7,2.2-1.7c0.2,0,0.3,0,0.5,0v1.9
						c-0.2,0-0.3-0.1-0.6-0.1c-1,0-1.6,0.6-1.8,1.5c0,0.2-0.1,0.4-0.1,0.6v4.1h-2V589.8z"/>
					<path d="M297.6,591.7c0.1,1.4,1.2,2.1,2.5,2.1c0.9,0,1.6-0.1,2.2-0.4l0.3,1.4c-0.7,0.3-1.6,0.5-2.8,0.5c-2.6,0-4.1-1.6-4.1-4
						c0-2.2,1.3-4.3,3.9-4.3c2.6,0,3.4,2.1,3.4,3.9c0,0.4,0,0.7-0.1,0.8H297.6z M301.1,590.3c0-0.7-0.3-1.9-1.7-1.9
						c-1.2,0-1.7,1.1-1.8,1.9H301.1z"/>
					<path d="M305.8,593.3c0.4,0.3,1.3,0.6,2,0.6c0.9,0,1.3-0.4,1.3-0.9c0-0.5-0.3-0.8-1.3-1.2c-1.6-0.5-2.2-1.4-2.2-2.3
						c0-1.4,1.2-2.5,3-2.5c0.9,0,1.6,0.2,2.1,0.5l-0.4,1.4c-0.3-0.2-1-0.5-1.7-0.5c-0.7,0-1.1,0.4-1.1,0.8c0,0.5,0.4,0.7,1.4,1.1
						c1.4,0.5,2.1,1.2,2.1,2.4c0,1.4-1.1,2.5-3.2,2.5c-1,0-1.8-0.2-2.4-0.6L305.8,593.3z"/>
					<path d="M313.7,593.3c0.4,0.3,1.3,0.6,2,0.6c0.9,0,1.3-0.4,1.3-0.9c0-0.5-0.3-0.8-1.3-1.2c-1.6-0.5-2.2-1.4-2.2-2.3
						c0-1.4,1.2-2.5,3-2.5c0.9,0,1.6,0.2,2.1,0.5l-0.4,1.4c-0.3-0.2-1-0.5-1.7-0.5c-0.7,0-1.1,0.4-1.1,0.8c0,0.5,0.4,0.7,1.4,1.1
						c1.4,0.5,2.1,1.2,2.1,2.4c0,1.4-1.1,2.5-3.2,2.5c-1,0-1.8-0.2-2.4-0.6L313.7,593.3z"/>
					<path d="M326.8,592.9c0.6,0.4,1.6,0.7,2.7,0.7c1.3,0,2-0.6,2-1.5c0-0.8-0.6-1.3-1.9-1.8c-1.8-0.6-3-1.6-3-3.2
						c0-1.8,1.5-3.2,3.9-3.2c1.2,0,2.1,0.3,2.6,0.5l-0.5,1.6c-0.4-0.2-1.2-0.5-2.2-0.5c-1.3,0-1.8,0.7-1.8,1.3
						c0,0.8,0.6,1.2,2.1,1.8c1.9,0.7,2.8,1.7,2.8,3.3c0,1.8-1.3,3.3-4.2,3.3c-1.2,0-2.4-0.3-3-0.7L326.8,592.9z"/>
					<path d="M344.1,591.1c0,2.9-2,4.2-4.1,4.2c-2.2,0-4-1.5-4-4.1c0-2.6,1.7-4.2,4.1-4.2C342.6,587,344.1,588.7,344.1,591.1z
						 M338.2,591.2c0,1.5,0.8,2.7,2,2.7c1.2,0,2-1.1,2-2.7c0-1.2-0.6-2.7-1.9-2.7C338.7,588.5,338.2,589.9,338.2,591.2z"/>
					<path d="M347.2,583.6h2v11.6h-2V583.6z"/>
					<path d="M359.9,592.8c0,0.9,0,1.7,0.1,2.4h-1.8l-0.1-1.2h0c-0.3,0.6-1.1,1.4-2.5,1.4c-1.4,0-2.8-0.9-2.8-3.5v-4.7h2v4.3
						c0,1.3,0.4,2.2,1.5,2.2c0.8,0,1.3-0.6,1.5-1.1c0.1-0.2,0.1-0.4,0.1-0.6v-4.8h2V592.8z"/>
					<path d="M365.7,584.9v2.3h1.9v1.5h-1.9v3.5c0,1,0.3,1.5,1,1.5c0.3,0,0.6,0,0.8-0.1l0,1.5c-0.3,0.1-0.8,0.2-1.5,0.2
						c-0.7,0-1.4-0.3-1.7-0.7c-0.4-0.5-0.6-1.2-0.6-2.2v-3.7h-1.1v-1.5h1.1v-1.8L365.7,584.9z"/>
					<path d="M373,585c0,0.6-0.4,1.1-1.1,1.1c-0.7,0-1.1-0.5-1.1-1.1c0-0.6,0.4-1.1,1.1-1.1C372.5,583.9,373,584.4,373,585z
						 M370.9,595.1v-7.9h2v7.9H370.9z"/>
					<path d="M384,591.1c0,2.9-2,4.2-4.1,4.2c-2.2,0-4-1.5-4-4.1c0-2.6,1.7-4.2,4.1-4.2C382.4,587,384,588.7,384,591.1z M378,591.2
						c0,1.5,0.8,2.7,2,2.7c1.2,0,2-1.1,2-2.7c0-1.2-0.6-2.7-1.9-2.7C378.5,588.5,378,589.9,378,591.2z"/>
					<path d="M386.7,589.6c0-0.9,0-1.7-0.1-2.4h1.8l0.1,1.2h0c0.4-0.6,1.2-1.4,2.5-1.4c1.4,0,2.8,0.9,2.8,3.4v4.7h-2v-4.5
						c0-1.1-0.4-2-1.5-2c-0.8,0-1.4,0.6-1.6,1.2c-0.1,0.2-0.1,0.4-0.1,0.6v4.7h-2V589.6z"/>
					<path d="M397.3,593.3c0.4,0.3,1.3,0.6,2,0.6c0.9,0,1.3-0.4,1.3-0.9c0-0.5-0.3-0.8-1.3-1.2c-1.6-0.5-2.2-1.4-2.2-2.3
						c0-1.4,1.2-2.5,3-2.5c0.9,0,1.6,0.2,2.1,0.5l-0.4,1.4c-0.3-0.2-1-0.5-1.7-0.5c-0.7,0-1.1,0.4-1.1,0.8c0,0.5,0.4,0.7,1.4,1.1
						c1.4,0.5,2.1,1.2,2.1,2.4c0,1.4-1.1,2.5-3.2,2.5c-1,0-1.8-0.2-2.4-0.6L397.3,593.3z"/>
				</g>
				<g>
					<path d="M260.5,560.3c-5.5,0-8,4.5-8,8.5c0,5,2.6,8.1,8,8.1c3.9,0,6.2-1.9,6.6-4.6l-3.9,0c-0.5,0.6-1.1,1-2.8,1
						c-2.3,0-3.2-1-3.3-3h10.3c0.1-0.4,0.2-1.1,0.2-2C267.6,564.3,265.3,560.3,260.5,560.3z M257.1,566.8c0.1-1.3,1-3,3.1-3
						c2.3,0,2.8,1.8,2.8,3H257.1z"/>
					<path d="M287.3,560.7h-5.9l-3.2,4.8c-0.4,0.6-0.8,1.2-1.1,1.9h-0.1v-13.9h-5v23.2h5v-5l1.3-1.6l3.9,6.6h6.1l-6.5-9.5
						L287.3,560.7z"/>
					<path d="M296.8,556.1l-7,8.2h2.1v6.5c0,2.3,0.5,3.8,1.4,4.7c0.8,0.8,2.1,1.4,3.7,1.4c1.4,0,2.6-0.2,3.2-0.4l0-3.8
						c-0.3,0.1-0.8,0.1-1.5,0.1c-1.5,0-2-0.9-2-2.8v-5.8h3.6v-3.7h-3.6V556.1z"/>
					<path d="M312.5,560.3c-5.1,0-8.5,3.3-8.5,8.5c0,5.2,3.6,8.2,8.2,8.2c4.3,0,8.4-2.7,8.4-8.5
						C320.6,563.7,317.4,560.3,312.5,560.3z M312.3,573.4c-2.1,0-3.3-2.1-3.3-4.8c0-2.4,0.9-4.8,3.3-4.8c2.2,0,3.2,2.4,3.2,4.8
						C315.5,571.5,314.3,573.4,312.3,573.4z"/>
					<path d="M329.7,563.6h-0.1l-0.2-3h-4.3c0.1,1.4,0.1,2.9,0.1,5.3v10.7h5v-8.1c0-0.4,0-0.8,0.1-1.1c0.3-1.6,1.6-2.5,3.4-2.5
						c0.6,0,1,0.1,1.3,0.1v-4.7c-0.4-0.1-0.6-0.1-1.1-0.1C332.5,560.3,330.6,561.3,329.7,563.6z"/>
					<path d="M336.7,580.5l3.3-0.3c1.6-2.5,3-6,4.1-9.3l-5,0.3C338.7,574.2,337.8,577.6,336.7,580.5z"/>
					<rect x="349.6" y="554.6" width="5" height="22"/>
					<path d="M369.8,560.3c-2.7,0-4.3,1.5-4.9,2.6h-0.1l-0.2-2.2h-4.3c0.1,1.4,0.1,3.1,0.1,5.1v10.9h5v-9.2c0-0.4,0-0.9,0.2-1.2
						c0.3-0.9,1.2-1.9,2.5-1.9c1.8,0,2.5,1.4,2.5,3.5v8.8h5v-9.4C375.5,562.5,373.1,560.3,369.8,560.3z"/>
					<path d="M389.6,564.1c1.3,0,2.2,0.2,2.8,0.5l0.8-3.7c-1-0.4-2.5-0.6-3.8-0.6c-5.9,0-9.1,3.8-9.1,8.5c0,5,3.3,8.2,8.4,8.2
						c1.9,0,3.6-0.3,4.4-0.7l-0.6-3.7c-0.8,0.3-1.7,0.5-2.9,0.5c-2.4,0-4.4-1.6-4.4-4.5C385.3,566,386.9,564.1,389.6,564.1z"/>
					<path d="M400,570.9c-1.7,0-2.9,1.3-2.9,3c0,1.7,1.2,3,2.9,3c1.8,0,2.9-1.3,2.9-3C402.9,572.2,401.7,570.9,400,570.9z"/>
					<path class="st0" d="M242.2,554.6l0,3.4h3.4l-1.8,6c-0.7,2.5-1.5,5.1-2,7.8h-0.1c-0.5-2.7-1.2-5.2-2-7.8l-2.7-9.3h-5.4l7,22
						h5.8l7.4-22h-5.3H242.2z"/>
				</g>
			</g>
		</g>
		<g>
			<path id="XMLID_6_" class="st3" d="M65.1,425.8L65.1,425.8c0-35.1,28.4-63.5,63.5-63.5l377.3,0c35.1,0,63.5,28.4,63.5,63.5v0
				c0,35.1-28.4,63.5-63.5,63.5l-377.3,0C93.6,489.3,65.1,460.9,65.1,425.8z"/>
			<g>
				<path class="st2" d="M366.4,395.2l-29.8,0.1c-0.4,0-0.8,0.3-0.9,0.7l-2.3,6.3c-0.2,0.6,0.2,1.3,0.9,1.3l11.6,0
					c0.9,0,1.3,1,0.7,1.7l-18.4,19.2l0.1,0l9.5,29.8c0.2,0.6-0.3,1.3-0.9,1.3l-9.3,0c-0.4,0-0.8-0.3-0.9-0.7l-4.8-15.3
					c-0.3-0.9-1.6-0.9-1.9,0l-3.9,10.7c-0.1,0.2-0.1,0.4,0,0.6l3.5,13.1c0.1,0.4,0.5,0.7,1,0.7h29.9c0.7,0,1.1-0.7,0.9-1.3l-12-37.6
					c-0.1-0.4,0-0.7,0.2-1l27.5-27.9C367.7,396.3,367.3,395.2,366.4,395.2z"/>
				<g>
					<polygon class="st2" points="296.6,423.1 296.5,423.1 296.5,423.1 					"/>
					<path class="st2" d="M331.2,379.6l-18.1,0c-0.4,0-0.8,0.3-0.9,0.7l-2.3,6.3c-0.2,0.6,0.2,1.3,0.9,1.3l7.6,0
						c0.7,0,1.2,0.7,0.9,1.3l-21.6,59.1c-0.3,0.9-1.5,0.9-1.9,0l-15.5-42.6c-0.2-0.6,0.2-1.3,0.9-1.3l7.8,0c0.4,0,0.8,0.3,0.9,0.7
						l5.6,15.4c0.3,0.9,1.5,0.9,1.9,0l8.7-23.9c0.2-0.6-0.2-1.3-0.9-1.3l-37,0c-0.7,0-1.2,0.7-0.9,1.3l28.5,79.2
						c0.3,0.9,1.5,0.9,1.9,0l34.4-94.9C332.3,380.2,331.8,379.6,331.2,379.6z"/>
				</g>
			</g>
			<g>
				<g>
					<path d="M235.1,449.3l-2.7-11h2.1l1,5c0.3,1.3,0.5,2.7,0.7,3.8h0c0.2-1.1,0.5-2.5,0.8-3.8l1.2-5h2.1l1.1,5.1
						c0.3,1.3,0.5,2.5,0.7,3.7h0c0.2-1.2,0.5-2.5,0.7-3.8l1.1-5h2l-3,11h-2.1l-1.1-5.2c-0.3-1.2-0.5-2.3-0.6-3.5h0
						c-0.2,1.2-0.4,2.2-0.7,3.5l-1.3,5.2H235.1z"/>
					<path d="M256.1,445.3c0,2.9-2,4.2-4.1,4.2c-2.2,0-4-1.5-4-4.1c0-2.6,1.7-4.2,4.1-4.2C254.5,441.2,256.1,442.8,256.1,445.3z
						 M250.1,445.3c0,1.5,0.8,2.7,2,2.7c1.2,0,2-1.1,2-2.7c0-1.2-0.6-2.7-1.9-2.7C250.7,442.6,250.1,444,250.1,445.3z"/>
					<path d="M259.8,443.9c0-1.1,0-1.8-0.1-2.6h1.7l0.1,1.5h0.1c0.4-1.1,1.3-1.7,2.2-1.7c0.2,0,0.3,0,0.5,0v1.9
						c-0.2,0-0.3-0.1-0.6-0.1c-1,0-1.6,0.6-1.8,1.5c0,0.2-0.1,0.4-0.1,0.6v4.1h-2V443.9z"/>
					<path d="M274.6,437.7v9.4c0,0.8,0,1.7,0.1,2.2h-1.8l-0.1-1.3h0c-0.5,0.9-1.4,1.4-2.6,1.4c-1.9,0-3.4-1.6-3.4-4.1
						c0-2.7,1.6-4.2,3.6-4.2c1.1,0,1.9,0.4,2.2,1h0v-4.5H274.6z M272.6,444.7c0-0.2,0-0.4,0-0.5c-0.2-0.8-0.8-1.4-1.7-1.4
						c-1.3,0-2,1.1-2,2.6c0,1.5,0.7,2.5,2,2.5c0.8,0,1.5-0.6,1.7-1.4c0-0.2,0.1-0.4,0.1-0.6V444.7z"/>
					<path d="M278.5,438.4c0.7-0.1,1.7-0.2,3.1-0.2c1.5,0,2.5,0.3,3.2,0.9c0.7,0.5,1.1,1.4,1.1,2.4c0,1-0.3,1.9-0.9,2.5
						c-0.8,0.8-2.1,1.2-3.5,1.2c-0.4,0-0.7,0-1-0.1v4.1h-2V438.4z M280.5,443.6c0.3,0.1,0.6,0.1,1,0.1c1.5,0,2.4-0.7,2.4-2
						c0-1.2-0.8-1.9-2.2-1.9c-0.6,0-0.9,0-1.2,0.1V443.6z"/>
					<path d="M289,443.9c0-1.1,0-1.8-0.1-2.6h1.7l0.1,1.5h0.1c0.4-1.1,1.3-1.7,2.2-1.7c0.2,0,0.3,0,0.5,0v1.9
						c-0.2,0-0.3-0.1-0.6-0.1c-1,0-1.6,0.6-1.8,1.5c0,0.2-0.1,0.4-0.1,0.6v4.1h-2V443.9z"/>
					<path d="M297.6,445.9c0.1,1.4,1.2,2.1,2.5,2.1c0.9,0,1.6-0.1,2.2-0.4l0.3,1.4c-0.7,0.3-1.6,0.5-2.8,0.5c-2.6,0-4.1-1.6-4.1-4
						c0-2.2,1.3-4.3,3.9-4.3c2.6,0,3.4,2.1,3.4,3.9c0,0.4,0,0.7-0.1,0.8H297.6z M301.1,444.5c0-0.7-0.3-1.9-1.7-1.9
						c-1.2,0-1.7,1.1-1.8,1.9H301.1z"/>
					<path d="M305.8,447.5c0.4,0.3,1.3,0.6,2,0.6c0.9,0,1.3-0.4,1.3-0.9c0-0.5-0.3-0.8-1.3-1.2c-1.6-0.5-2.2-1.4-2.2-2.3
						c0-1.4,1.2-2.5,3-2.5c0.9,0,1.6,0.2,2.1,0.5l-0.4,1.4c-0.3-0.2-1-0.5-1.7-0.5c-0.7,0-1.1,0.4-1.1,0.8c0,0.5,0.4,0.7,1.4,1.1
						c1.4,0.5,2.1,1.2,2.1,2.4c0,1.4-1.1,2.5-3.2,2.5c-1,0-1.8-0.2-2.4-0.6L305.8,447.5z"/>
					<path d="M313.7,447.5c0.4,0.3,1.3,0.6,2,0.6c0.9,0,1.3-0.4,1.3-0.9c0-0.5-0.3-0.8-1.3-1.2c-1.6-0.5-2.2-1.4-2.2-2.3
						c0-1.4,1.2-2.5,3-2.5c0.9,0,1.6,0.2,2.1,0.5l-0.4,1.4c-0.3-0.2-1-0.5-1.7-0.5c-0.7,0-1.1,0.4-1.1,0.8c0,0.5,0.4,0.7,1.4,1.1
						c1.4,0.5,2.1,1.2,2.1,2.4c0,1.4-1.1,2.5-3.2,2.5c-1,0-1.8-0.2-2.4-0.6L313.7,447.5z"/>
					<path d="M326.8,447.1c0.6,0.4,1.6,0.7,2.7,0.7c1.3,0,2-0.6,2-1.5c0-0.8-0.6-1.3-1.9-1.8c-1.8-0.6-3-1.6-3-3.2
						c0-1.8,1.5-3.2,3.9-3.2c1.2,0,2.1,0.3,2.6,0.5l-0.5,1.6c-0.4-0.2-1.2-0.5-2.2-0.5c-1.3,0-1.8,0.7-1.8,1.3
						c0,0.8,0.6,1.2,2.1,1.8c1.9,0.7,2.8,1.7,2.8,3.3c0,1.8-1.3,3.3-4.2,3.3c-1.2,0-2.4-0.3-3-0.7L326.8,447.1z"/>
					<path d="M344.1,445.3c0,2.9-2,4.2-4.1,4.2c-2.2,0-4-1.5-4-4.1c0-2.6,1.7-4.2,4.1-4.2C342.6,441.2,344.1,442.8,344.1,445.3z
						 M338.2,445.3c0,1.5,0.8,2.7,2,2.7c1.2,0,2-1.1,2-2.7c0-1.2-0.6-2.7-1.9-2.7C338.7,442.6,338.2,444,338.2,445.3z"/>
					<path d="M347.2,437.7h2v11.6h-2V437.7z"/>
					<path d="M359.9,446.9c0,0.9,0,1.7,0.1,2.4h-1.8l-0.1-1.2h0c-0.3,0.6-1.1,1.4-2.5,1.4c-1.4,0-2.8-0.9-2.8-3.5v-4.7h2v4.3
						c0,1.3,0.4,2.2,1.5,2.2c0.8,0,1.3-0.6,1.5-1.1c0.1-0.2,0.1-0.4,0.1-0.6v-4.8h2V446.9z"/>
					<path d="M365.7,439.1v2.3h1.9v1.5h-1.9v3.5c0,1,0.3,1.5,1,1.5c0.3,0,0.6,0,0.8-0.1l0,1.5c-0.3,0.1-0.8,0.2-1.5,0.2
						c-0.7,0-1.4-0.3-1.7-0.7c-0.4-0.5-0.6-1.2-0.6-2.2v-3.7h-1.1v-1.5h1.1v-1.8L365.7,439.1z"/>
					<path d="M373,439.1c0,0.6-0.4,1.1-1.1,1.1c-0.7,0-1.1-0.5-1.1-1.1c0-0.6,0.4-1.1,1.1-1.1C372.5,438.1,373,438.5,373,439.1z
						 M370.9,449.3v-7.9h2v7.9H370.9z"/>
					<path d="M384,445.3c0,2.9-2,4.2-4.1,4.2c-2.2,0-4-1.5-4-4.1c0-2.6,1.7-4.2,4.1-4.2C382.4,441.2,384,442.8,384,445.3z
						 M378,445.3c0,1.5,0.8,2.7,2,2.7c1.2,0,2-1.1,2-2.7c0-1.2-0.6-2.7-1.9-2.7C378.5,442.6,378,444,378,445.3z"/>
					<path d="M386.7,443.7c0-0.9,0-1.7-0.1-2.4h1.8l0.1,1.2h0c0.4-0.6,1.2-1.4,2.5-1.4c1.4,0,2.8,0.9,2.8,3.4v4.7h-2v-4.5
						c0-1.1-0.4-2-1.5-2c-0.8,0-1.4,0.6-1.6,1.2c-0.1,0.2-0.1,0.4-0.1,0.6v4.7h-2V443.7z"/>
					<path d="M397.3,447.5c0.4,0.3,1.3,0.6,2,0.6c0.9,0,1.3-0.4,1.3-0.9c0-0.5-0.3-0.8-1.3-1.2c-1.6-0.5-2.2-1.4-2.2-2.3
						c0-1.4,1.2-2.5,3-2.5c0.9,0,1.6,0.2,2.1,0.5l-0.4,1.4c-0.3-0.2-1-0.5-1.7-0.5c-0.7,0-1.1,0.4-1.1,0.8c0,0.5,0.4,0.7,1.4,1.1
						c1.4,0.5,2.1,1.2,2.1,2.4c0,1.4-1.1,2.5-3.2,2.5c-1,0-1.8-0.2-2.4-0.6L397.3,447.5z"/>
				</g>
				<g>
					<path d="M260.5,414.5c-5.5,0-8,4.5-8,8.5c0,5,2.6,8.1,8,8.1c3.9,0,6.2-1.9,6.6-4.6l-3.9,0c-0.5,0.6-1.1,1-2.8,1
						c-2.3,0-3.2-1-3.3-3h10.3c0.1-0.4,0.2-1.1,0.2-2C267.6,418.5,265.3,414.5,260.5,414.5z M257.1,421c0.1-1.3,1-3,3.1-3
						c2.3,0,2.8,1.8,2.8,3H257.1z"/>
					<path d="M287.3,414.8h-5.9l-3.2,4.8c-0.4,0.6-0.8,1.2-1.1,1.9h-0.1v-13.9h-5v23.2h5v-5l1.3-1.6l3.9,6.6h6.1l-6.5-9.5
						L287.3,414.8z"/>
					<path d="M296.8,410.3l-7,8.2h2.1v6.5c0,2.3,0.5,3.8,1.4,4.7c0.8,0.8,2.1,1.4,3.7,1.4c1.4,0,2.6-0.2,3.2-0.4l0-3.8
						c-0.3,0.1-0.8,0.1-1.5,0.1c-1.5,0-2-0.9-2-2.8v-5.8h3.6v-3.7h-3.6V410.3z"/>
					<path d="M312.5,414.5c-5.1,0-8.5,3.3-8.5,8.5c0,5.2,3.6,8.2,8.2,8.2c4.3,0,8.4-2.7,8.4-8.5
						C320.6,417.8,317.4,414.5,312.5,414.5z M312.3,427.6c-2.1,0-3.3-2.1-3.3-4.8c0-2.4,0.9-4.8,3.3-4.8c2.2,0,3.2,2.4,3.2,4.8
						C315.5,425.7,314.3,427.6,312.3,427.6z"/>
					<path d="M329.7,417.8h-0.1l-0.2-3h-4.3c0.1,1.4,0.1,2.9,0.1,5.3v10.7h5v-8.1c0-0.4,0-0.8,0.1-1.1c0.3-1.6,1.6-2.5,3.4-2.5
						c0.6,0,1,0.1,1.3,0.1v-4.7c-0.4-0.1-0.6-0.1-1.1-0.1C332.5,414.5,330.6,415.4,329.7,417.8z"/>
					<path d="M336.7,434.7l3.3-0.3c1.6-2.5,3-6,4.1-9.3l-5,0.3C338.7,428.4,337.8,431.8,336.7,434.7z"/>
					<rect x="349.6" y="408.8" width="5" height="22"/>
					<path d="M369.8,414.5c-2.7,0-4.3,1.5-4.9,2.6h-0.1l-0.2-2.2h-4.3c0.1,1.4,0.1,3.1,0.1,5.1v10.9h5v-9.2c0-0.4,0-0.9,0.2-1.2
						c0.3-0.9,1.2-1.9,2.5-1.9c1.8,0,2.5,1.4,2.5,3.5v8.8h5v-9.4C375.5,416.6,373.1,414.5,369.8,414.5z"/>
					<path d="M389.6,418.3c1.3,0,2.2,0.2,2.8,0.5l0.8-3.7c-1-0.4-2.5-0.6-3.8-0.6c-5.9,0-9.1,3.8-9.1,8.5c0,5,3.3,8.2,8.4,8.2
						c1.9,0,3.6-0.3,4.4-0.7l-0.6-3.7c-0.8,0.3-1.7,0.5-2.9,0.5c-2.4,0-4.4-1.6-4.4-4.5C385.3,420.1,386.9,418.3,389.6,418.3z"/>
					<path d="M400,425.1c-1.7,0-2.9,1.3-2.9,3c0,1.7,1.2,3,2.9,3c1.8,0,2.9-1.3,2.9-3C402.9,426.3,401.7,425.1,400,425.1z"/>
					<path d="M242.2,408.8l0,3.4h3.4l-1.8,6c-0.7,2.5-1.5,5.1-2,7.8h-0.1c-0.5-2.7-1.2-5.2-2-7.8l-2.7-9.3h-5.4l7,22h5.8l7.4-22
						h-5.3H242.2z"/>
				</g>
			</g>
		</g>
		<g>
			<path id="XMLID_9_" class="st3" d="M65.1,279.9L65.1,279.9c0-35.1,28.4-63.5,63.5-63.5l377.3,0c35.1,0,63.5,28.4,63.5,63.5v0
				c0,35.1-28.4,63.5-63.5,63.5l-377.3,0C93.6,343.5,65.1,315,65.1,279.9z"/>
			<g>
				<path class="st2" d="M366.4,249.4l-29.8,0.1c-0.4,0-0.8,0.3-0.9,0.7l-2.3,6.3c-0.2,0.6,0.2,1.3,0.9,1.3l11.6,0
					c0.9,0,1.3,1,0.7,1.7l-18.4,19.2l0.1,0l9.5,29.8c0.2,0.6-0.3,1.3-0.9,1.3l-9.3,0c-0.4,0-0.8-0.3-0.9-0.7l-4.8-15.3
					c-0.3-0.9-1.6-0.9-1.9,0l-3.9,10.7c-0.1,0.2-0.1,0.4,0,0.6l3.5,13.1c0.1,0.4,0.5,0.7,1,0.7h29.9c0.7,0,1.1-0.7,0.9-1.3l-12-37.6
					c-0.1-0.4,0-0.7,0.2-1l27.5-27.9C367.7,250.4,367.3,249.4,366.4,249.4z"/>
				<g>
					<polygon class="st2" points="296.6,277.3 296.5,277.2 296.5,277.3 					"/>
					<path class="st2" d="M331.2,233.7l-18.1,0c-0.4,0-0.8,0.3-0.9,0.7l-2.3,6.3c-0.2,0.6,0.2,1.3,0.9,1.3l7.6,0
						c0.7,0,1.2,0.7,0.9,1.3l-21.6,59.1c-0.3,0.9-1.5,0.9-1.9,0l-15.5-42.6c-0.2-0.6,0.2-1.3,0.9-1.3l7.8,0c0.4,0,0.8,0.3,0.9,0.7
						l5.6,15.4c0.3,0.9,1.5,0.9,1.9,0l8.7-23.9c0.2-0.6-0.2-1.3-0.9-1.3l-37,0c-0.7,0-1.2,0.7-0.9,1.3l28.5,79.2
						c0.3,0.9,1.5,0.9,1.9,0l34.4-94.9C332.3,234.4,331.8,233.7,331.2,233.7z"/>
				</g>
			</g>
		</g>
		<g>
			<path id="XMLID_1_" class="st3" d="M828.6,237.1L828.6,237.1c35.1,0,63.5,28.4,63.5,63.5l0,377.3c0,35.1-28.4,63.5-63.5,63.5h0
				c-35.1,0-63.5-28.4-63.5-63.5l0-377.3C765.1,265.6,793.5,237.1,828.6,237.1z"/>
			<g>
				<g>
					<g>
						<path d="M863.9,466.6l-21.2,0.1c-0.3,0-0.6,0.2-0.7,0.5l-1.6,4.5c-0.2,0.5,0.2,0.9,0.7,0.9l8.3,0c0.6,0,0.9,0.7,0.5,1.2
							l-13.1,13.7l0.1,0l6.8,21.3c0.1,0.5-0.2,0.9-0.7,0.9l-6.6,0c-0.3,0-0.6-0.2-0.7-0.5l-3.4-10.9c-0.2-0.6-1.1-0.7-1.3,0
							l-2.8,7.7c0,0.1-0.1,0.3,0,0.4l2.5,9.3c0.1,0.3,0.4,0.5,0.7,0.5h21.3c0.5,0,0.8-0.5,0.7-0.9l-8.5-26.8c-0.1-0.3,0-0.5,0.2-0.7
							l19.6-19.9C864.9,467.4,864.6,466.6,863.9,466.6z"/>
						<g>
							<polygon class="st0" points="814.1,486.5 814.1,486.5 814.1,486.5 							"/>
							<path class="st0" d="M838.8,455.4l-12.9,0c-0.3,0-0.6,0.2-0.7,0.5l-1.6,4.5c-0.2,0.5,0.2,1,0.7,1l5.4,0c0.5,0,0.8,0.5,0.7,1
								l-15.4,42.2c-0.2,0.6-1.1,0.6-1.3,0l-11-30.4c-0.2-0.5,0.2-1,0.7-0.9l5.6,0c0.3,0,0.6,0.2,0.7,0.5l4,11
								c0.2,0.6,1.1,0.6,1.3,0l6.2-17c0.2-0.5-0.2-1-0.7-1l-26.4,0c-0.5,0-0.8,0.5-0.7,0.9l20.3,56.5c0.2,0.6,1.1,0.6,1.3,0
								l24.6-67.7C839.6,455.9,839.3,455.4,838.8,455.4z"/>
						</g>
					</g>
				</g>
				<g>
					<g>
						<path d="M786.9,554.8l-1.4-5.6h1.1l0.5,2.5c0.1,0.7,0.3,1.4,0.4,1.9h0c0.1-0.6,0.2-1.3,0.4-2l0.6-2.5h1.1l0.6,2.6
							c0.1,0.7,0.3,1.3,0.3,1.9h0c0.1-0.6,0.2-1.3,0.4-1.9l0.6-2.5h1l-1.5,5.6H790l-0.6-2.6c-0.1-0.6-0.2-1.2-0.3-1.8h0
							c-0.1,0.6-0.2,1.1-0.4,1.8l-0.7,2.6H786.9z"/>
						<path d="M797.6,552.8c0,1.5-1,2.2-2.1,2.2c-1.1,0-2-0.8-2-2.1c0-1.3,0.9-2.1,2.1-2.1C796.8,550.7,797.6,551.5,797.6,552.8z
							 M794.5,552.8c0,0.8,0.4,1.4,1,1.4c0.6,0,1-0.6,1-1.4c0-0.6-0.3-1.4-1-1.4C794.8,551.4,794.5,552.1,794.5,552.8z"/>
						<path d="M799.3,552.1c0-0.5,0-0.9,0-1.3h0.9l0,0.8h0c0.2-0.6,0.7-0.9,1.1-0.9c0.1,0,0.2,0,0.2,0v1c-0.1,0-0.2,0-0.3,0
							c-0.5,0-0.8,0.3-0.9,0.8c0,0.1,0,0.2,0,0.3v2.1h-1V552.1z"/>
						<path d="M806.7,548.9v4.8c0,0.4,0,0.9,0,1.1h-0.9l0-0.6h0c-0.2,0.5-0.7,0.7-1.3,0.7c-1,0-1.7-0.8-1.7-2.1
							c0-1.4,0.8-2.2,1.8-2.2c0.6,0,1,0.2,1.1,0.5h0v-2.3H806.7z M805.7,552.5c0-0.1,0-0.2,0-0.3c-0.1-0.4-0.4-0.7-0.9-0.7
							c-0.7,0-1,0.6-1,1.3c0,0.7,0.4,1.3,1,1.3c0.4,0,0.8-0.3,0.9-0.7c0-0.1,0-0.2,0-0.3V552.5z"/>
						<path d="M808.7,549.3c0.4-0.1,0.9-0.1,1.6-0.1c0.7,0,1.3,0.2,1.6,0.5c0.3,0.3,0.5,0.7,0.5,1.2c0,0.5-0.2,1-0.5,1.3
							c-0.4,0.4-1,0.6-1.8,0.6c-0.2,0-0.4,0-0.5,0v2.1h-1V549.3z M809.7,551.9c0.1,0,0.3,0,0.5,0c0.8,0,1.2-0.4,1.2-1
							c0-0.6-0.4-0.9-1.1-0.9c-0.3,0-0.5,0-0.6,0V551.9z"/>
						<path d="M814,552.1c0-0.5,0-0.9,0-1.3h0.9l0,0.8h0c0.2-0.6,0.7-0.9,1.1-0.9c0.1,0,0.2,0,0.2,0v1c-0.1,0-0.2,0-0.3,0
							c-0.5,0-0.8,0.3-0.9,0.8c0,0.1,0,0.2,0,0.3v2.1h-1V552.1z"/>
						<path d="M818.4,553.1c0,0.7,0.6,1.1,1.2,1.1c0.5,0,0.8-0.1,1.1-0.2l0.2,0.7c-0.3,0.1-0.8,0.3-1.4,0.3c-1.3,0-2.1-0.8-2.1-2
							c0-1.1,0.7-2.2,2-2.2c1.3,0,1.7,1.1,1.7,2c0,0.2,0,0.3,0,0.4H818.4z M820.2,552.4c0-0.4-0.2-1-0.8-1c-0.6,0-0.9,0.6-0.9,1
							H820.2z"/>
						<path d="M822.6,553.9c0.2,0.1,0.7,0.3,1,0.3c0.4,0,0.7-0.2,0.7-0.5c0-0.3-0.2-0.4-0.7-0.6c-0.8-0.3-1.1-0.7-1.1-1.2
							c0-0.7,0.6-1.3,1.5-1.3c0.4,0,0.8,0.1,1.1,0.2l-0.2,0.7c-0.2-0.1-0.5-0.2-0.9-0.2c-0.4,0-0.6,0.2-0.6,0.4
							c0,0.3,0.2,0.4,0.7,0.6c0.7,0.3,1.1,0.6,1.1,1.2c0,0.7-0.6,1.3-1.6,1.3c-0.5,0-0.9-0.1-1.2-0.3L822.6,553.9z"/>
						<path d="M826.6,553.9c0.2,0.1,0.7,0.3,1,0.3c0.4,0,0.7-0.2,0.7-0.5c0-0.3-0.2-0.4-0.7-0.6c-0.8-0.3-1.1-0.7-1.1-1.2
							c0-0.7,0.6-1.3,1.5-1.3c0.4,0,0.8,0.1,1.1,0.2l-0.2,0.7c-0.2-0.1-0.5-0.2-0.9-0.2c-0.4,0-0.6,0.2-0.6,0.4
							c0,0.3,0.2,0.4,0.7,0.6c0.7,0.3,1.1,0.6,1.1,1.2c0,0.7-0.6,1.3-1.6,1.3c-0.5,0-0.9-0.1-1.2-0.3L826.6,553.9z"/>
						<path d="M833.3,553.7c0.3,0.2,0.8,0.4,1.4,0.4c0.7,0,1-0.3,1-0.8c0-0.4-0.3-0.7-1-0.9c-0.9-0.3-1.5-0.8-1.5-1.6
							c0-0.9,0.8-1.6,2-1.6c0.6,0,1.1,0.1,1.3,0.3l-0.2,0.8c-0.2-0.1-0.6-0.3-1.1-0.3c-0.6,0-0.9,0.3-0.9,0.7c0,0.4,0.3,0.6,1.1,0.9
							c1,0.4,1.4,0.9,1.4,1.7c0,0.9-0.7,1.7-2.1,1.7c-0.6,0-1.2-0.2-1.5-0.4L833.3,553.7z"/>
						<path d="M842.1,552.8c0,1.5-1,2.2-2.1,2.2c-1.1,0-2-0.8-2-2.1c0-1.3,0.9-2.1,2.1-2.1C841.3,550.7,842.1,551.5,842.1,552.8z
							 M839.1,552.8c0,0.8,0.4,1.4,1,1.4c0.6,0,1-0.6,1-1.4c0-0.6-0.3-1.4-1-1.4C839.4,551.4,839.1,552.1,839.1,552.8z"/>
						<path d="M843.7,548.9h1v5.9h-1V548.9z"/>
						<path d="M850.1,553.6c0,0.5,0,0.9,0,1.2h-0.9l0-0.6h0c-0.2,0.3-0.6,0.7-1.3,0.7c-0.7,0-1.4-0.4-1.4-1.8v-2.4h1v2.2
							c0,0.7,0.2,1.1,0.8,1.1c0.4,0,0.7-0.3,0.8-0.5c0-0.1,0.1-0.2,0.1-0.3v-2.4h1V553.6z"/>
						<path d="M853.1,549.6v1.2h1v0.8h-1v1.8c0,0.5,0.1,0.7,0.5,0.7c0.2,0,0.3,0,0.4,0l0,0.8c-0.2,0.1-0.4,0.1-0.7,0.1
							c-0.4,0-0.7-0.1-0.9-0.3c-0.2-0.2-0.3-0.6-0.3-1.1v-1.9h-0.6v-0.8h0.6v-0.9L853.1,549.6z"/>
						<path d="M856.8,549.7c0,0.3-0.2,0.6-0.6,0.6c-0.3,0-0.6-0.2-0.6-0.6c0-0.3,0.2-0.6,0.6-0.6
							C856.6,549.1,856.8,549.3,856.8,549.7z M855.7,554.8v-4h1v4H855.7z"/>
						<path d="M862.4,552.8c0,1.5-1,2.2-2.1,2.2c-1.1,0-2-0.8-2-2.1c0-1.3,0.9-2.1,2.1-2.1C861.6,550.7,862.4,551.5,862.4,552.8z
							 M859.4,552.8c0,0.8,0.4,1.4,1,1.4c0.6,0,1-0.6,1-1.4c0-0.6-0.3-1.4-1-1.4C859.7,551.4,859.4,552.1,859.4,552.8z"/>
						<path d="M863.8,552c0-0.5,0-0.9,0-1.2h0.9l0.1,0.6h0c0.2-0.3,0.6-0.7,1.3-0.7c0.7,0,1.4,0.5,1.4,1.7v2.4h-1v-2.3
							c0-0.6-0.2-1-0.8-1c-0.4,0-0.7,0.3-0.8,0.6c0,0.1,0,0.2,0,0.3v2.4h-1V552z"/>
						<path d="M869.2,553.9c0.2,0.1,0.7,0.3,1,0.3c0.4,0,0.7-0.2,0.7-0.5c0-0.3-0.2-0.4-0.7-0.6c-0.8-0.3-1.1-0.7-1.1-1.2
							c0-0.7,0.6-1.3,1.5-1.3c0.4,0,0.8,0.1,1.1,0.2l-0.2,0.7c-0.2-0.1-0.5-0.2-0.9-0.2c-0.4,0-0.6,0.2-0.6,0.4
							c0,0.3,0.2,0.4,0.7,0.6c0.7,0.3,1.1,0.6,1.1,1.2c0,0.7-0.6,1.3-1.6,1.3c-0.5,0-0.9-0.1-1.2-0.3L869.2,553.9z"/>
					</g>
					<g>
						<path d="M799.7,537.1c-2.8,0-4.1,2.3-4.1,4.4c0,2.5,1.3,4.1,4.1,4.1c2,0,3.2-1,3.4-2.4l-2,0c-0.2,0.3-0.5,0.5-1.4,0.5
							c-1.2,0-1.6-0.5-1.7-1.5h5.2c0-0.2,0.1-0.6,0.1-1C803.3,539.1,802.1,537.1,799.7,537.1z M798,540.4c0.1-0.7,0.5-1.5,1.6-1.5
							c1.2,0,1.4,0.9,1.4,1.5H798z"/>
						<path d="M813.4,537.3h-3l-1.6,2.5c-0.2,0.3-0.4,0.6-0.6,1h0v-7.1h-2.5v11.8h2.5v-2.5l0.6-0.8l2,3.3h3.1l-3.3-4.8L813.4,537.3z
							"/>
						<path d="M818.2,534.9l-3.6,4.2h1.1v3.3c0,1.2,0.2,1.9,0.7,2.4c0.4,0.4,1.1,0.7,1.9,0.7c0.7,0,1.3-0.1,1.6-0.2l0-1.9
							c-0.2,0-0.4,0.1-0.8,0.1c-0.8,0-1-0.5-1-1.4v-2.9h1.8v-1.9h-1.8V534.9z"/>
						<path d="M826.2,537.1c-2.6,0-4.3,1.7-4.3,4.3c0,2.6,1.8,4.2,4.2,4.2c2.2,0,4.3-1.4,4.3-4.3
							C830.3,538.8,828.7,537.1,826.2,537.1z M826.1,543.8c-1.1,0-1.7-1.1-1.7-2.4c0-1.2,0.5-2.4,1.7-2.4c1.1,0,1.6,1.2,1.6,2.4
							C827.7,542.8,827.1,543.8,826.1,543.8z"/>
						<path d="M835,538.8L835,538.8l-0.2-1.5h-2.2c0,0.7,0.1,1.5,0.1,2.7v5.5h2.5v-4.1c0-0.2,0-0.4,0-0.6c0.2-0.8,0.8-1.3,1.7-1.3
							c0.3,0,0.5,0,0.7,0.1v-2.4c-0.2,0-0.3,0-0.5,0C836.4,537.1,835.4,537.6,835,538.8z"/>
						<path d="M838.5,547.4l1.7-0.1c0.8-1.3,1.5-3,2.1-4.7l-2.6,0.2C839.5,544.2,839.1,545.9,838.5,547.4z"/>
						<rect x="845.1" y="534.2" width="2.5" height="11.2"/>
						<path d="M855.4,537.1c-1.4,0-2.2,0.8-2.5,1.3h-0.1l-0.1-1.1h-2.2c0,0.7,0.1,1.6,0.1,2.6v5.5h2.5v-4.7c0-0.2,0-0.5,0.1-0.6
							c0.2-0.5,0.6-1,1.3-1c0.9,0,1.3,0.7,1.3,1.8v4.5h2.5v-4.8C858.3,538.2,857,537.1,855.4,537.1z"/>
						<path d="M865.5,539c0.7,0,1.1,0.1,1.4,0.3l0.4-1.9c-0.5-0.2-1.3-0.3-1.9-0.3c-3,0-4.6,1.9-4.6,4.3c0,2.6,1.7,4.2,4.3,4.2
							c1,0,1.8-0.2,2.3-0.4l-0.3-1.9c-0.4,0.2-0.9,0.3-1.5,0.3c-1.2,0-2.2-0.8-2.2-2.3C863.3,540,864.1,539,865.5,539z"/>
						<path d="M870.8,542.5c-0.9,0-1.5,0.6-1.5,1.5c0,0.9,0.6,1.5,1.5,1.5c0.9,0,1.5-0.6,1.5-1.5
							C872.3,543.1,871.7,542.5,870.8,542.5z"/>
						<path d="M790.4,534.2l0,1.7h1.7l-0.9,3c-0.4,1.3-0.7,2.6-1,4h0c-0.3-1.4-0.6-2.7-1-4l-1.4-4.7H785l3.6,11.2h3l3.8-11.2h-2.7
							H790.4z"/>
					</g>
				</g>
			</g>
		</g>
		<g>
			<path id="XMLID_5_" class="st3" d="M982.8,237.1L982.8,237.1c35.1,0,63.5,28.4,63.5,63.5V678c0,35.1-28.4,63.5-63.5,63.5h0
				c-35.1,0-63.5-28.4-63.5-63.5l0-377.3C919.2,265.6,947.7,237.1,982.8,237.1z"/>
			<g>
				<g>
					<path d="M1018.1,466.6l-21.2,0.1c-0.3,0-0.6,0.2-0.7,0.5l-1.6,4.5c-0.2,0.5,0.2,0.9,0.7,0.9l8.3,0c0.6,0,0.9,0.7,0.5,1.2
						l-13.1,13.7l0.1,0l6.8,21.3c0.1,0.5-0.2,0.9-0.7,0.9l-6.6,0c-0.3,0-0.6-0.2-0.7-0.5l-3.4-10.9c-0.2-0.6-1.1-0.7-1.3,0l-2.8,7.7
						c0,0.1-0.1,0.3,0,0.4l2.5,9.3c0.1,0.3,0.4,0.5,0.7,0.5h21.3c0.5,0,0.8-0.5,0.7-0.9l-8.5-26.8c-0.1-0.3,0-0.5,0.2-0.7l19.6-19.9
						C1019,467.4,1018.7,466.6,1018.1,466.6z"/>
					<g>
						<polygon class="st0" points="968.3,486.5 968.3,486.5 968.3,486.5 						"/>
						<path class="st0" d="M993,455.4l-12.9,0c-0.3,0-0.6,0.2-0.7,0.5l-1.6,4.5c-0.2,0.5,0.2,1,0.7,1l5.4,0c0.5,0,0.8,0.5,0.7,1
							l-15.4,42.2c-0.2,0.6-1.1,0.6-1.3,0l-11-30.4c-0.2-0.5,0.2-1,0.7-0.9l5.6,0c0.3,0,0.6,0.2,0.7,0.5l4,11c0.2,0.6,1.1,0.6,1.3,0
							l6.2-17c0.2-0.5-0.2-1-0.7-1l-26.4,0c-0.5,0-0.8,0.5-0.7,0.9l20.3,56.5c0.2,0.6,1.1,0.6,1.3,0l24.6-67.7
							C993.8,455.9,993.4,455.4,993,455.4z"/>
					</g>
				</g>
			</g>
			<g>
				<path d="M953.8,537.1c-2.8,0-4.1,2.3-4.1,4.4c0,2.5,1.3,4.1,4.1,4.1c2,0,3.2-1,3.4-2.4l-2,0c-0.2,0.3-0.5,0.5-1.4,0.5
					c-1.2,0-1.6-0.5-1.7-1.5h5.2c0-0.2,0.1-0.6,0.1-1C957.5,539.1,956.3,537.1,953.8,537.1z M952.1,540.4c0.1-0.7,0.5-1.5,1.6-1.5
					c1.2,0,1.4,0.9,1.4,1.5H952.1z"/>
				<path d="M967.5,537.3h-3l-1.6,2.5c-0.2,0.3-0.4,0.6-0.6,1h0v-7.1h-2.5v11.8h2.5v-2.5l0.6-0.8l2,3.3h3.1l-3.3-4.8L967.5,537.3z"
					/>
				<path d="M972.3,534.9l-3.6,4.2h1.1v3.3c0,1.2,0.2,1.9,0.7,2.4c0.4,0.4,1.1,0.7,1.9,0.7c0.7,0,1.3-0.1,1.6-0.2l0-1.9
					c-0.2,0-0.4,0.1-0.8,0.1c-0.8,0-1-0.5-1-1.4v-2.9h1.8v-1.9h-1.8V534.9z"/>
				<path d="M980.3,537.1c-2.6,0-4.3,1.7-4.3,4.3c0,2.6,1.8,4.2,4.2,4.2c2.2,0,4.3-1.4,4.3-4.3C984.5,538.8,982.8,537.1,980.3,537.1
					z M980.3,543.8c-1.1,0-1.7-1.1-1.7-2.4c0-1.2,0.5-2.4,1.7-2.4c1.1,0,1.6,1.2,1.6,2.4C981.9,542.8,981.2,543.8,980.3,543.8z"/>
				<path d="M989.1,538.8L989.1,538.8l-0.2-1.5h-2.2c0,0.7,0.1,1.5,0.1,2.7v5.5h2.5v-4.1c0-0.2,0-0.4,0-0.6c0.2-0.8,0.8-1.3,1.7-1.3
					c0.3,0,0.5,0,0.7,0.1v-2.4c-0.2,0-0.3,0-0.5,0C990.5,537.1,989.5,537.6,989.1,538.8z"/>
				<path d="M992.7,547.4l1.7-0.1c0.8-1.3,1.5-3,2.1-4.7l-2.6,0.2C993.7,544.2,993.2,545.9,992.7,547.4z"/>
				<rect x="999.2" y="534.2" width="2.5" height="11.2"/>
				<path d="M1009.5,537.1c-1.4,0-2.2,0.8-2.5,1.3h-0.1l-0.1-1.1h-2.2c0,0.7,0.1,1.6,0.1,2.6v5.5h2.5v-4.7c0-0.2,0-0.5,0.1-0.6
					c0.2-0.5,0.6-1,1.3-1c0.9,0,1.3,0.7,1.3,1.8v4.5h2.5v-4.8C1012.4,538.2,1011.2,537.1,1009.5,537.1z"/>
				<path d="M1019.6,539c0.7,0,1.1,0.1,1.4,0.3l0.4-1.9c-0.5-0.2-1.3-0.3-1.9-0.3c-3,0-4.6,1.9-4.6,4.3c0,2.6,1.7,4.2,4.3,4.2
					c1,0,1.8-0.2,2.3-0.4l-0.3-1.9c-0.4,0.2-0.9,0.3-1.5,0.3c-1.2,0-2.2-0.8-2.2-2.3C1017.4,540,1018.3,539,1019.6,539z"/>
				<path d="M1024.9,542.5c-0.9,0-1.5,0.6-1.5,1.5c0,0.9,0.6,1.5,1.5,1.5c0.9,0,1.5-0.6,1.5-1.5
					C1026.4,543.1,1025.8,542.5,1024.9,542.5z"/>
				<path d="M944.5,534.2l0,1.7h1.7l-0.9,3c-0.4,1.3-0.7,2.6-1,4h0c-0.3-1.4-0.6-2.7-1-4l-1.4-4.7h-2.8l3.6,11.2h3l3.8-11.2h-2.7
					H944.5z"/>
			</g>
		</g>
		<g>
			<path id="XMLID_4_" class="st3" d="M674.5,237.1L674.5,237.1c35.1,0,63.5,28.4,63.5,63.5l0,377.3c0,35.1-28.4,63.5-63.5,63.5h0
				c-35.1,0-63.5-28.4-63.5-63.5l0-377.3C610.9,265.6,639.4,237.1,674.5,237.1z"/>
			<g>
				<defs>
					
						<rect id="SVGID_1_" x="581.6" y="423.7" transform="matrix(-1.836970e-16 1 -1 -1.836970e-16 1163.8113 -185.1699)" width="185.8" height="131.3"/>
				</defs>
				<clipPath id="SVGID_2_">
					<use xlink:href="#SVGID_1_"  style="overflow:visible;"/>
				</clipPath>
				<g class="st4">
					<g>
						<path class="st5" d="M727.3,458.2l-32,0.1c-0.4,0-0.8,0.3-1,0.7l-2.5,6.8c-0.3,0.7,0.3,1.4,1,1.4l12.4,0
							c0.9,0,1.4,1.1,0.8,1.8l-19.8,20.6l0.1,0l10.2,32.1c0.2,0.7-0.3,1.4-1,1.4l-10,0c-0.5,0-0.9-0.3-1-0.8l-5.1-16.5
							c-0.3-1-1.7-1-2,0l-4.2,11.5c-0.1,0.2-0.1,0.4,0,0.6l3.8,14.1c0.1,0.5,0.5,0.8,1,0.8h32.2c0.7,0,1.2-0.7,1-1.4l-12.9-40.4
							c-0.1-0.4,0-0.8,0.3-1.1l29.6-30C728.7,459.4,728.3,458.2,727.3,458.2z"/>
						<g>
							<polygon class="st5" points="643,486.1 643,486 643,486.1 							"/>
							<path class="st5" d="M689.4,441.4l-19.5,0c-0.4,0-0.8,0.3-1,0.7l-2.5,6.8c-0.3,0.7,0.3,1.4,1,1.4l8.2,0c0.7,0,1.3,0.7,1,1.4
								l-23.2,63.6c-0.3,0.9-1.7,0.9-2,0l-16.6-45.8c-0.3-0.7,0.3-1.4,1-1.4l8.4,0c0.4,0,0.8,0.3,1,0.7l6,16.5c0.3,0.9,1.7,0.9,2,0
								l9.4-25.7c0.3-0.7-0.3-1.4-1-1.4l-39.9,0c-0.7,0-1.3,0.7-1,1.4l30.7,85.2c0.3,0.9,1.7,0.9,2,0l37.1-102.1
								C690.7,442.1,690.1,441.4,689.4,441.4z"/>
						</g>
					</g>
				</g>
			</g>
		</g>
	</g>
</g>
</svg>
