<?xml version="1.0" encoding="utf-8"?>
<!-- Generator: Adobe Illustrator 25.2.1, SVG Export Plug-In . SVG Version: 6.00 Build 0)  -->
<svg version="1.1" xmlns="http://www.w3.org/2000/svg" xmlns:xlink="http://www.w3.org/1999/xlink" x="0px" y="0px"
	 viewBox="0 0 1134.9 851.4" style="enable-background:new 0 0 1134.9 851.4;" xml:space="preserve">
<style type="text/css">
	.st0{fill:#D80C18;}
	.st1{fill:#FFFFFF;}
	.st2{fill:#EFEFEF;}
</style>
<g id="レイヤー_1">
</g>
<g id="レイヤー_2">
	<g>
		<g>
			<g>
				<path d="M-1769.5-4330.4l-12.2-49.8h9.7l4.7,22.6c1.2,6.1,2.4,12.4,3.2,17.3h0.2c0.8-5.2,2.2-11.2,3.6-17.4l5.4-22.5h9.6
					l4.9,22.9c1.2,5.9,2.3,11.4,3,16.8h0.2c0.9-5.5,2.1-11.2,3.4-17.3l5.2-22.5h9.3l-13.4,49.8h-9.7l-5.2-23.5
					c-1.3-5.6-2.2-10.4-2.8-15.8h-0.1c-0.8,5.3-1.8,10.1-3.3,15.8l-5.8,23.4H-1769.5z"/>
				<path d="M-1674.7-4348.8c0,13.2-9.3,19.2-18.5,19.2c-10.1,0-18-7-18-18.5c0-11.8,7.8-19.1,18.6-19.1
					C-1681.9-4367.2-1674.7-4359.7-1674.7-4348.8z M-1701.9-4348.4c0,6.9,3.5,12.2,8.9,12.2c5.2,0,8.8-5,8.8-12.3
					c0-5.7-2.5-12.1-8.8-12.1C-1699.2-4360.6-1701.9-4354.4-1701.9-4348.4z"/>
				<path d="M-1658-4354.8c0-4.8-0.1-8.4-0.3-11.6h7.9l0.3,6.8h0.3c1.8-5.1,6-7.7,9.8-7.7c0.9,0,1.4,0,2.1,0.2v8.6
					c-0.8-0.2-1.6-0.3-2.7-0.3c-4.3,0-7.3,2.8-8.2,6.9c-0.2,0.8-0.2,1.8-0.2,2.7v18.7h-9.1V-4354.8z"/>
				<path d="M-1590.8-4382.9v42.4c0,3.7,0.1,7.7,0.3,10.1h-8.1l-0.4-5.7h-0.2c-2.1,4-6.5,6.5-11.7,6.5c-8.6,0-15.4-7.3-15.4-18.4
					c-0.1-12.1,7.5-19.2,16.1-19.2c4.9,0,8.5,2,10.1,4.7h0.1v-20.4H-1590.8z M-1599.9-4351.4c0-0.7,0-1.6-0.2-2.4
					c-0.8-3.5-3.7-6.4-7.8-6.4c-5.9,0-9.1,5.2-9.1,11.8c0,6.6,3.3,11.4,9,11.4c3.7,0,6.9-2.5,7.9-6.5c0.2-0.8,0.3-1.7,0.3-2.7
					V-4351.4z"/>
				<path d="M-1572.9-4379.6c3.3-0.6,7.8-1,13.9-1c6.6,0,11.5,1.4,14.7,4.1c3,2.4,4.9,6.3,4.9,11c0,4.7-1.5,8.6-4.2,11.3
					c-3.7,3.6-9.3,5.4-15.7,5.4c-1.7,0-3.2-0.1-4.5-0.4v18.8h-9V-4379.6z M-1563.9-4356.4c1.2,0.3,2.6,0.4,4.5,0.4
					c6.8,0,11-3.4,11-9.2c0-5.5-3.8-8.4-10.1-8.4c-2.5,0-4.3,0.2-5.3,0.4V-4356.4z"/>
				<path d="M-1525.6-4354.8c0-4.8-0.1-8.4-0.3-11.6h7.9l0.3,6.8h0.3c1.8-5.1,6-7.7,9.8-7.7c0.9,0,1.4,0,2.1,0.2v8.6
					c-0.8-0.2-1.6-0.3-2.7-0.3c-4.3,0-7.3,2.8-8.2,6.9c-0.2,0.8-0.2,1.8-0.2,2.7v18.7h-9.1V-4354.8z"/>
				<path d="M-1486.6-4345.9c0.2,6.5,5.3,9.4,11.1,9.4c4.2,0,7.2-0.7,9.9-1.7l1.3,6.3c-3.1,1.3-7.4,2.3-12.6,2.3
					c-11.7,0-18.5-7.2-18.5-18.2c0-9.9,6-19.3,17.6-19.3c11.7,0,15.5,9.6,15.5,17.5c0,1.7-0.1,3-0.3,3.8H-1486.6z M-1470.8-4352.2
					c0-3.3-1.4-8.8-7.5-8.8c-5.6,0-7.9,5.1-8.3,8.8H-1470.8z"/>
				<path d="M-1449.1-4338.8c2,1.2,5.9,2.6,9.2,2.6c4,0,5.8-1.7,5.8-4c0-2.4-1.5-3.7-5.9-5.2c-7-2.4-10-6.2-9.9-10.5
					c0-6.3,5.3-11.3,13.7-11.3c4,0,7.4,1,9.5,2.2l-1.8,6.4c-1.5-0.9-4.4-2.1-7.6-2.1c-3.2,0-5,1.6-5,3.8c0,2.3,1.7,3.4,6.3,5
					c6.5,2.3,9.6,5.7,9.6,11c0,6.6-5.1,11.3-14.6,11.3c-4.4,0-8.3-1-11-2.5L-1449.1-4338.8z"/>
				<path d="M-1413.5-4338.8c2,1.2,5.9,2.6,9.2,2.6c4,0,5.8-1.7,5.8-4c0-2.4-1.5-3.7-5.9-5.2c-7-2.4-10-6.2-9.9-10.5
					c0-6.3,5.3-11.3,13.7-11.3c4,0,7.4,1,9.5,2.2l-1.8,6.4c-1.5-0.9-4.4-2.1-7.6-2.1c-3.2,0-5,1.6-5,3.8c0,2.3,1.7,3.4,6.3,5
					c6.5,2.3,9.6,5.7,9.6,11c0,6.6-5.1,11.3-14.6,11.3c-4.4,0-8.3-1-11-2.5L-1413.5-4338.8z"/>
				<path d="M-1354.2-4340.4c2.9,1.7,7.4,3.2,12,3.2c5.8,0,9.1-2.7,9.1-6.8c0-3.8-2.5-6-8.8-8.3c-8.2-2.9-13.5-7.3-13.5-14.5
					c0-8.2,6.8-14.3,17.6-14.3c5.4,0,9.3,1.1,11.9,2.5l-2.2,7.3c-1.8-0.9-5.3-2.4-10-2.4c-5.8,0-8.2,3.1-8.2,6
					c0,3.8,2.9,5.6,9.5,8.2c8.7,3.3,12.8,7.6,12.8,14.8c0,8-6,15-18.9,15c-5.3,0-10.7-1.5-13.5-3.2L-1354.2-4340.4z"/>
				<path d="M-1275.5-4348.8c0,13.2-9.3,19.2-18.5,19.2c-10.1,0-18-7-18-18.5c0-11.8,7.8-19.1,18.6-19.1
					C-1282.7-4367.2-1275.5-4359.7-1275.5-4348.8z M-1302.7-4348.4c0,6.9,3.5,12.2,8.9,12.2c5.2,0,8.8-5,8.8-12.3
					c0-5.7-2.5-12.1-8.8-12.1C-1300.1-4360.6-1302.7-4354.4-1302.7-4348.4z"/>
				<path d="M-1261.8-4382.9h9.1v52.5h-9.1V-4382.9z"/>
				<path d="M-1204.3-4341.2c0,4.3,0.1,7.9,0.3,10.8h-7.9l-0.4-5.4h-0.2c-1.5,2.5-5.1,6.3-11.5,6.3c-6.6,0-12.5-3.9-12.5-15.7v-21.1
					h9.1v19.6c0,6,1.9,9.8,6.7,9.8c3.6,0,6-2.5,6.9-4.9c0.3-0.8,0.5-1.8,0.5-2.8v-21.7h9.1V-4341.2z"/>
				<path d="M-1177.8-4376.7v10.3h8.7v6.8h-8.7v15.9c0,4.4,1.2,6.6,4.7,6.6c1.6,0,2.7-0.2,3.5-0.4l0.2,6.9c-1.4,0.5-3.8,0.9-6.6,0.9
					c-3.3,0-6.1-1.1-7.8-3c-2-2.1-2.8-5.4-2.8-10.1v-16.9h-5.1v-6.8h5.1v-8.1L-1177.8-4376.7z"/>
				<path d="M-1144.8-4376.5c0,2.7-2,4.9-5.2,4.9c-3,0-5-2.2-5-4.9c0-2.8,2-4.9,5.1-4.9C-1146.8-4381.4-1144.9-4379.3-1144.8-4376.5
					z M-1154.5-4330.4v-36h9.1v36H-1154.5z"/>
				<path d="M-1095.1-4348.8c0,13.2-9.3,19.2-18.5,19.2c-10.1,0-18-7-18-18.5c0-11.8,7.8-19.1,18.6-19.1
					C-1102.3-4367.2-1095.1-4359.7-1095.1-4348.8z M-1122.2-4348.4c0,6.9,3.5,12.2,8.9,12.2c5.2,0,8.8-5,8.8-12.3
					c0-5.7-2.5-12.1-8.8-12.1C-1119.6-4360.6-1122.2-4354.4-1122.2-4348.4z"/>
				<path d="M-1082.8-4355.7c0-4.2-0.1-7.6-0.3-10.7h7.9l0.4,5.4h0.2c1.6-2.8,5.5-6.2,11.5-6.2c6.3,0,12.8,4,12.8,15.4v21.4h-9.1
					v-20.3c0-5.2-1.9-9.1-6.9-9.1c-3.6,0-6.1,2.6-7.1,5.3c-0.3,0.7-0.4,1.9-0.4,2.9v21.2h-9.1V-4355.7z"/>
				<path d="M-1034.7-4338.8c2,1.2,5.9,2.6,9.2,2.6c4,0,5.8-1.7,5.8-4c0-2.4-1.5-3.7-5.9-5.2c-7-2.4-10-6.2-9.9-10.5
					c0-6.3,5.3-11.3,13.7-11.3c4,0,7.4,1,9.5,2.2l-1.8,6.4c-1.5-0.9-4.4-2.1-7.6-2.1c-3.2,0-5,1.6-5,3.8c0,2.3,1.7,3.4,6.3,5
					c6.5,2.3,9.6,5.7,9.6,11c0,6.6-5.1,11.3-14.6,11.3c-4.4,0-8.3-1-11-2.5L-1034.7-4338.8z"/>
			</g>
			<g>
				<path d="M-1654.7-4488.4c-25,0-36.5,20.3-36.5,38.7c0,22.5,12,36.8,36.5,36.8c17.5,0,28.3-8.5,30.1-21l-17.6-0.2
					c-2.1,2.6-4.9,4.5-12.5,4.5c-10.5,0-14.3-4.4-15-13.8h46.5c0.4-1.7,0.8-5,0.8-8.9C-1622.4-4470.1-1633-4488.4-1654.7-4488.4z
					 M-1669.9-4458.7c0.6-6,4.5-13.7,14-13.7c10.2,0,12.7,8.3,12.6,13.7H-1669.9z"/>
				<path d="M-1533-4486.7h-27l-14.7,21.9c-1.8,2.7-3.5,5.6-5.2,8.7h-0.3v-63.1h-22.5v104.9h22.5v-22.5l5.7-7.2l17.5,29.7h27.6
					l-29.6-43L-1533-4486.7z"/>
				<path d="M-1490.1-4507.4l-31.6,37.2h9.6v29.6c0,10.3,2,17.2,6.2,21.4c3.6,3.7,9.7,6.3,16.9,6.3c6.3,0,11.7-0.9,14.6-1.9
					l-0.2-17.1c-1.6,0.4-3.8,0.7-6.7,0.7c-6.7,0-8.9-4-8.9-12.7v-26.2h16.2v-16.6h-16.2V-4507.4z"/>
				<path d="M-1419-4488.4c-23.3,0-38.6,15-38.6,38.3c0,23.4,16.3,37.3,37.3,37.3c19.4,0,38.1-12.1,38.1-38.5
					C-1382.2-4473.1-1396.9-4488.4-1419-4488.4z M-1419.7-4428.8c-9.6,0-14.8-9.4-14.8-21.7c0-10.7,4.1-21.8,14.8-21.8
					c10.2,0,14.3,11,14.3,21.6C-1405.4-4437.6-1410.9-4428.8-1419.7-4428.8z"/>
				<path d="M-1340.8-4473.3h-0.6l-0.8-13.4h-19.3c0.4,6.2,0.6,13.2,0.6,23.8v48.5h22.5v-36.6c0-1.8,0.1-3.6,0.4-5
					c1.5-7,7.2-11.4,15.4-11.4c2.5,0,4.3,0.3,6.1,0.6v-21.1c-1.7-0.4-2.7-0.4-4.8-0.4C-1328.3-4488.4-1337.1-4483.9-1340.8-4473.3z"
					/>
				<path d="M-1309-4396.8l15-1.3c7.1-11.5,13.8-27.1,18.6-42.2l-22.8,1.5C-1300.4-4425.3-1304.4-4409.9-1309-4396.8z"/>
				<rect x="-1250.7" y="-4514" width="22.5" height="99.6"/>
				<path d="M-1159.2-4488.4c-12.1,0-19.4,7-22.4,11.6h-0.5l-1-10h-19.5c0.3,6.5,0.6,14.1,0.6,23.1v49.2h22.5v-41.7
					c0-2,0.2-4.2,0.8-5.6c1.6-4.2,5.2-8.5,11.4-8.5c8.1,0,11.4,6.4,11.4,15.7v40.1h22.5v-42.8
					C-1133.3-4478.5-1144.4-4488.4-1159.2-4488.4z"/>
				<path d="M-1069.7-4471c5.9,0,9.9,1.1,12.6,2.3l3.5-16.7c-4.7-1.8-11.2-2.9-17.2-2.9c-26.9,0-41.4,17.3-41.4,38.4
					c0,22.7,14.9,37,38.3,37c8.6,0,16.1-1.5,20.1-3.4l-2.6-16.6c-3.5,1.4-7.6,2.4-13,2.4c-10.9,0-19.8-7.1-19.8-20.3
					C-1089.2-4462.6-1081.6-4471-1069.7-4471z"/>
				<path d="M-1022.3-4440.1c-7.8,0-13.3,5.7-13.3,13.7c0,7.9,5.4,13.6,13.2,13.6c8,0,13.3-5.7,13.3-13.6
					C-1009.2-4434.6-1014.5-4440.1-1022.3-4440.1z"/>
				<path d="M-1737.7-4514l0.2,15.4h15.5l-8.1,27.1c-3.4,11.4-6.6,23.2-9.1,35.2h-0.3c-2.5-12.4-5.5-23.7-9-35.5l-12.1-42.2h-24.7
					l32,99.6h26.3l33.5-99.6h-24H-1737.7z"/>
			</g>
		</g>
		<g>
			<path d="M-1855.6-4514.9l-79.8,0.2c-1.1,0-2.1,0.7-2.5,1.8l-6.1,17c-0.6,1.7,0.7,3.6,2.5,3.6l31,0c2.3,0,3.5,2.8,1.9,4.5
				l-49.4,51.4l0.2,0l25.4,80c0.5,1.7-0.7,3.5-2.5,3.5l-25,0c-1.2,0-2.2-0.8-2.5-1.9l-12.8-41.1c-0.8-2.4-4.2-2.5-5-0.1l-10.4,28.8
				c-0.2,0.5-0.2,1.1-0.1,1.6l9.5,35c0.3,1.2,1.4,2,2.6,2h80.2c1.8,0,3.1-1.8,2.5-3.5l-32.1-100.7c-0.3-0.9-0.1-2,0.6-2.7l73.6-74.8
				C-1852-4512.1-1853.2-4514.9-1855.6-4514.9z"/>
			<g>
				<polygon class="st0" points="-2042.8,-4440.1 -2042.8,-4440.3 -2042.9,-4440.1 				"/>
				<path class="st0" d="M-1950.1-4556.9l-48.5,0.1c-1.1,0-2.1,0.7-2.5,1.8l-6.2,17c-0.6,1.7,0.7,3.6,2.5,3.6l20.4,0
					c1.8,0,3.1,1.8,2.5,3.6l-57.9,158.5c-0.9,2.3-4.2,2.3-5,0l-41.4-114.2c-0.6-1.7,0.7-3.6,2.5-3.6l20.9,0c1.1,0,2.1,0.7,2.5,1.8
					l15,41.2c0.8,2.3,4.2,2.3,5,0l23.3-64.1c0.6-1.7-0.7-3.6-2.5-3.6l-99.3,0c-1.8,0-3.1,1.8-2.5,3.6l76.4,212.2
					c0.8,2.3,4.2,2.3,5,0l92.3-254.3C-1946.9-4555-1948.2-4556.9-1950.1-4556.9z"/>
			</g>
		</g>
	</g>
</g>
<g id="レイヤー_3">
	
		<text transform="matrix(1 0 0 1 -3464.5479 -4079.1963)" style="font-family:'KozGoPr6N-Regular-83pv-RKSJ-H'; font-size:52.5929px;">https://originalprint.jp/stencilsheet/%E3%82%B9%E3%83%86%E3%83%B3%E3%82%B7%E3%83%AB%E3%82%B7%E3%83%BC%E3%83%88%EF%BC%88A3%EF%BC%89</text>
	<g>
		
			<rect x="253.2" y="67.2" transform="matrix(-1.836970e-16 1 -1 -1.836970e-16 1078.9587 -55.8995)" width="628.4" height="888.7"/>
		<g>
			<g>
				<path class="st1" d="M952,402.8l-59.5,0.1c-0.8,0-1.6,0.5-1.9,1.3L886,417c-0.5,1.3,0.5,2.7,1.9,2.7l23.2,0
					c1.8,0,2.6,2.1,1.4,3.4l-36.9,38.4l0.2,0l19,59.7c0.4,1.3-0.5,2.6-1.9,2.6l-18.6,0c-0.9,0-1.6-0.6-1.9-1.4l-9.5-30.7
					c-0.6-1.8-3.1-1.9-3.8-0.1l-7.8,21.5c-0.1,0.4-0.2,0.8-0.1,1.2l7.1,26.1c0.2,0.9,1,1.5,1.9,1.5h59.9c1.3,0,2.3-1.3,1.9-2.6
					l-24-75.2c-0.2-0.7,0-1.5,0.5-2l55-55.9C954.7,405,953.8,402.8,952,402.8z"/>
				<g>
					<polygon class="st1" points="812.3,458.6 812.3,458.6 812.2,458.6 					"/>
					<path class="st1" d="M881.5,371.5l-36.2,0.1c-0.8,0-1.6,0.5-1.9,1.3l-4.6,12.7c-0.5,1.3,0.5,2.7,1.9,2.7l15.2,0
						c1.4,0,2.3,1.4,1.9,2.7l-43.2,118.3c-0.6,1.7-3.1,1.7-3.7,0L779.8,424c-0.5-1.3,0.5-2.7,1.9-2.7l15.6,0c0.8,0,1.6,0.5,1.9,1.3
						l11.2,30.8c0.6,1.7,3.1,1.7,3.7,0l17.4-47.8c0.5-1.3-0.5-2.7-1.9-2.7l-74.1,0c-1.4,0-2.3,1.4-1.9,2.7l57,158.4
						c0.6,1.7,3.1,1.8,3.7,0l68.9-189.8C883.9,372.9,882.9,371.5,881.5,371.5z"/>
				</g>
			</g>
		</g>
		<g>
			<path class="st2" d="M733.5,290.8L632.8,291c-1.4,0-2.7,0.9-3.2,2.2l-7.7,21.4c-0.8,2.2,0.8,4.5,3.2,4.5l39.1,0
				c3,0,4.5,3.5,2.4,5.7l-62.3,64.9l0.3,0l32.1,101c0.7,2.2-0.9,4.4-3.2,4.4l-31.5,0c-1.5,0-2.8-1-3.2-2.4l-16.1-51.9
				c-1-3.1-5.3-3.2-6.4-0.1l-13.2,36.3c-0.2,0.6-0.3,1.4-0.1,2l11.9,44.2c0.4,1.5,1.7,2.5,3.2,2.5h101.2c2.3,0,3.9-2.2,3.2-4.4
				l-40.5-127.1c-0.4-1.2-0.1-2.5,0.8-3.4l92.9-94.4C738,294.4,736.5,290.8,733.5,290.8z"/>
			<g>
				<polygon class="st2" points="497.3,385.1 497.2,385 497.2,385.1 				"/>
				<path class="st2" d="M614.3,237.9L553,238c-1.4,0-2.7,0.9-3.1,2.2l-7.8,21.5c-0.8,2.2,0.8,4.5,3.2,4.5l25.7,0
					c2.3,0,4,2.3,3.2,4.5l-73,200c-1.1,2.9-5.2,2.9-6.3,0l-52.3-144.1c-0.8-2.2,0.8-4.5,3.2-4.5l26.4,0c1.4,0,2.7,0.9,3.2,2.2
					l18.9,52c1.1,2.9,5.2,2.9,6.3,0l29.4-80.9c0.8-2.2-0.8-4.5-3.2-4.5l-125.3,0c-2.3,0-3.9,2.3-3.2,4.5l96.4,267.8
					c1.1,3,5.2,3,6.3,0l116.5-320.9C618.2,240.2,616.6,237.8,614.3,237.9z"/>
			</g>
		</g>
		<g>
			<path class="st1" d="M289.5,764.4l-9.1-37.2h7.2l3.5,16.9c0.9,4.5,1.8,9.3,2.4,12.9h0.1c0.6-3.9,1.6-8.3,2.7-13l4-16.8h7.2
				l3.7,17.1c0.9,4.4,1.7,8.5,2.3,12.6h0.1c0.7-4.1,1.5-8.4,2.5-12.9l3.9-16.8h6.9l-10,37.2h-7.3l-3.8-17.5
				c-0.9-4.2-1.6-7.8-2.1-11.8h-0.1c-0.6,4-1.3,7.5-2.5,11.8l-4.3,17.5H289.5z"/>
			<path class="st1" d="M372.7,746.2c0-3.6-0.1-6.2-0.2-8.6h5.9l0.3,5.1h0.2c1.3-3.8,4.5-5.7,7.4-5.7c0.7,0,1.1,0,1.6,0.1v6.4
				c-0.6-0.1-1.2-0.2-2-0.2c-3.2,0-5.5,2.1-6.1,5.1c-0.1,0.6-0.2,1.3-0.2,2v13.9h-6.8V746.2z"/>
			<path class="st1" d="M471.5,746.2c0-3.6-0.1-6.2-0.2-8.6h5.9l0.3,5.1h0.2c1.3-3.8,4.5-5.7,7.4-5.7c0.7,0,1.1,0,1.6,0.1v6.4
				c-0.6-0.1-1.2-0.2-2-0.2c-3.2,0-5.5,2.1-6.1,5.1c-0.1,0.6-0.2,1.3-0.2,2v13.9h-6.8V746.2z"/>
			<path class="st1" d="M528.7,758.1c1.5,0.9,4.4,2,6.9,2c3,0,4.3-1.3,4.3-3c0-1.8-1.1-2.7-4.4-3.9c-5.3-1.8-7.4-4.7-7.4-7.8
				c0-4.7,3.9-8.4,10.2-8.4c3,0,5.5,0.7,7.1,1.6l-1.3,4.8c-1.1-0.6-3.3-1.5-5.7-1.5c-2.4,0-3.8,1.2-3.8,2.8c0,1.7,1.3,2.5,4.7,3.8
				c4.9,1.7,7.1,4.2,7.2,8.2c0,4.9-3.8,8.4-10.9,8.4c-3.2,0-6.2-0.8-8.2-1.9L528.7,758.1z"/>
			<path class="st1" d="M555.3,758.1c1.5,0.9,4.4,2,6.9,2c3,0,4.3-1.3,4.3-3c0-1.8-1.1-2.7-4.4-3.9c-5.3-1.8-7.4-4.7-7.4-7.8
				c0-4.7,3.9-8.4,10.2-8.4c3,0,5.5,0.7,7.1,1.6l-1.3,4.8c-1.1-0.6-3.3-1.5-5.7-1.5c-2.4,0-3.8,1.2-3.8,2.8c0,1.7,1.3,2.5,4.7,3.8
				c4.9,1.7,7.1,4.2,7.2,8.2c0,4.9-3.8,8.4-10.9,8.4c-3.2,0-6.2-0.8-8.2-1.9L555.3,758.1z"/>
			<path class="st1" d="M599.5,757c2.2,1.3,5.5,2.4,9,2.4c4.3,0,6.8-2,6.8-5.1c0-2.8-1.9-4.5-6.6-6.2c-6.1-2.2-10.1-5.5-10.1-10.8
				c0-6.1,5.1-10.7,13.2-10.7c4,0,7,0.9,8.9,1.8l-1.6,5.5c-1.3-0.7-3.9-1.8-7.4-1.8c-4.3,0-6.1,2.3-6.1,4.5c0,2.9,2.2,4.2,7.1,6.1
				c6.5,2.5,9.6,5.7,9.6,11.1c0,6-4.5,11.2-14.1,11.2c-3.9,0-8-1.1-10.1-2.4L599.5,757z"/>
			<path class="st1" d="M668.5,725.2h6.8v39.2h-6.8V725.2z"/>
			<path class="st1" d="M711.4,756.3c0,3.2,0.1,5.9,0.2,8h-5.9l-0.3-4.1h-0.2c-1.1,1.9-3.8,4.7-8.6,4.7c-4.9,0-9.4-2.9-9.4-11.7
				v-15.7h6.8v14.6c0,4.5,1.4,7.3,5,7.3c2.7,0,4.5-1.9,5.2-3.6c0.2-0.6,0.4-1.3,0.4-2.1v-16.2h6.8V756.3z"/>
			<path class="st1" d="M731.2,729.8v7.7h6.5v5.1h-6.5v11.9c0,3.3,0.9,5,3.5,5c1.2,0,2-0.1,2.6-0.3l0.1,5.2c-1,0.4-2.8,0.7-4.9,0.7
				c-2.5,0-4.6-0.8-5.8-2.2c-1.5-1.5-2.1-4-2.1-7.5v-12.6h-3.8v-5.1h3.8v-6.1L731.2,729.8z"/>
			<path class="st1" d="M755.8,730c0,2-1.5,3.7-3.9,3.7c-2.3,0-3.7-1.6-3.7-3.7c0-2.1,1.5-3.7,3.8-3.7
				C754.3,726.3,755.8,727.9,755.8,730z M748.6,764.4v-26.9h6.8v26.9H748.6z"/>
			<path class="st1" d="M802.1,745.5c0-3.1-0.1-5.7-0.2-8h5.9l0.3,4h0.2c1.2-2.1,4.1-4.6,8.6-4.6c4.7,0,9.5,3,9.5,11.5v16h-6.8
				v-15.2c0-3.9-1.4-6.8-5.1-6.8c-2.7,0-4.6,1.9-5.3,4c-0.2,0.6-0.3,1.4-0.3,2.2v15.8h-6.8V745.5z"/>
			<path class="st1" d="M838,758.1c1.5,0.9,4.4,2,6.9,2c3,0,4.3-1.3,4.3-3c0-1.8-1.1-2.7-4.4-3.9c-5.3-1.8-7.4-4.7-7.4-7.8
				c0-4.7,3.9-8.4,10.2-8.4c3,0,5.5,0.7,7.1,1.6l-1.3,4.8c-1.1-0.6-3.3-1.5-5.7-1.5c-2.4,0-3.8,1.2-3.8,2.8c0,1.7,1.3,2.5,4.7,3.8
				c4.9,1.7,7.1,4.2,7.2,8.2c0,4.9-3.8,8.4-10.9,8.4c-3.2,0-6.2-0.8-8.2-1.9L838,758.1z"/>
			<path class="st1" d="M466,647.7h-20.1l-11,16.3c-1.3,2-2.6,4.2-3.9,6.5h-0.2v-47.1H414v78.3h16.8v-16.8l4.3-5.4l13.1,22.2h20.6
				l-22.1-32.1L466,647.7z"/>
			<path class="st1" d="M498.1,632.3l-23.6,27.8h7.2v22.1c0,7.7,1.5,12.8,4.6,16c2.7,2.8,7.2,4.7,12.7,4.7c4.7,0,8.7-0.7,10.9-1.4
				l-0.1-12.8c-1.2,0.3-2.8,0.5-5,0.5c-5,0-6.6-3-6.6-9.5v-19.6h12.1v-12.4h-12.1V632.3z"/>
			<path class="st1" d="M609.5,657.7h-0.4l-0.6-10h-14.4c0.3,4.7,0.4,9.9,0.4,17.8v36.2h16.8v-27.3c0-1.4,0.1-2.7,0.3-3.7
				c1.1-5.3,5.3-8.5,11.5-8.5c1.9,0,3.2,0.2,4.5,0.5v-15.8c-1.3-0.3-2-0.3-3.6-0.3C618.9,646.5,612.3,649.8,609.5,657.7z"/>
			<path class="st1" d="M633.2,714.9l11.2-1c5.3-8.6,10.3-20.2,13.9-31.5l-17.1,1.1C639.7,693.6,636.7,705.1,633.2,714.9z"/>
			<rect x="676.8" y="627.4" class="st1" width="16.8" height="74.4"/>
			<path class="st1" d="M745,646.5c-9,0-14.5,5.2-16.7,8.7H728l-0.8-7.5h-14.6c0.2,4.8,0.4,10.5,0.4,17.2v36.7h16.8v-31.2
				c0-1.5,0.2-3.1,0.6-4.2c1.2-3.1,3.9-6.3,8.5-6.3c6.1,0,8.5,4.8,8.5,11.7v29.9h16.8v-32C764.4,653.9,756.1,646.5,745,646.5z"/>
			<path class="st1" d="M811.9,659.4c4.4,0,7.4,0.8,9.4,1.7l2.6-12.5c-3.5-1.3-8.4-2.1-12.8-2.1c-20.1,0-30.9,12.9-30.9,28.7
				c0,17,11.1,27.6,28.6,27.6c6.4,0,12-1.1,15-2.5l-2-12.4c-2.6,1.1-5.7,1.8-9.7,1.8c-8.1,0-14.8-5.3-14.8-15.2
				C797.3,665.7,803,659.4,811.9,659.4z"/>
			<path class="st1" d="M847.2,682.5c-5.8,0-9.9,4.2-9.9,10.2c0,5.9,4.1,10.2,9.9,10.2c6,0,9.9-4.3,9.9-10.2
				C857.1,686.7,853.1,682.5,847.2,682.5z"/>
			<path class="st1" d="M313.3,627.4l0.1,11.5h11.5l-6,20.2c-2.5,8.5-4.9,17.3-6.8,26.3h-0.2c-1.9-9.3-4.1-17.7-6.7-26.5l-9-31.5
				h-18.4l23.9,74.4h19.6l25-74.4h-17.9H313.3z"/>
			<g>
				<path class="st1" d="M549.4,690.9c-6.4-0.8-9.8-7.5-9.8-16.1c0-7.6,2.7-15.3,9.8-16.2v-12c-16.4,0.7-27.1,11.7-27.1,28.6
					c0,17.1,11.8,27.5,27.1,27.8V690.9z"/>
				<path class="st1" d="M551.5,646.5v12c7,0.6,9.8,8.5,9.8,16.1c0,9.3-3.8,15.7-9.8,16.2v12c14-0.5,27.1-9.6,27.1-28.7
					C578.6,658,567.8,646.7,551.5,646.5z"/>
			</g>
			<path class="st1" d="M366,680.1"/>
			<g>
				<path class="st1" d="M345.6,759.9c-3.5-0.6-5.6-4.3-5.6-9c0-4.1,1.6-8.3,5.6-9v-5c-7.4,0.6-12.6,5.9-12.6,14.2
					c0,8.3,5.4,13.4,12.6,13.8V759.9z"/>
				<path class="st1" d="M347.7,737v5c4,0.6,5.6,5,5.6,9c0,4.9-2.2,8.5-5.6,9.1v5c6.4-0.5,12.6-5,12.6-14.2
					C360.3,742.8,355.3,737.3,347.7,737z"/>
			</g>
			<g>
				<path class="st1" d="M643.5,759.9c-3.5-0.6-5.6-4.3-5.6-9c0-4.1,1.6-8.3,5.6-9v-5c-7.4,0.6-12.6,5.9-12.6,14.2
					c0,8.3,5.4,13.4,12.6,13.8V759.9z"/>
				<path class="st1" d="M645.7,737v5c4,0.6,5.6,5,5.6,9c0,4.9-2.2,8.5-5.6,9.1v5c6.4-0.5,12.6-5,12.6-14.2
					C658.2,742.8,653.2,737.3,645.7,737z"/>
			</g>
			<g>
				<path class="st1" d="M778.2,759.9c-3.5-0.6-5.6-4.3-5.6-9c0-4.1,1.6-8.3,5.6-9v-5c-7.4,0.6-12.6,5.9-12.6,14.2
					c0,8.3,5.4,13.4,12.6,13.8V759.9z"/>
				<path class="st1" d="M780.3,737v5c4,0.6,5.6,5,5.6,9c0,4.9-2.2,8.5-5.6,9.1v5c6.4-0.5,12.6-5,12.6-14.2
					C792.9,742.8,787.9,737.3,780.3,737z"/>
			</g>
			<g>
				<path class="st1" d="M376.3,690.4v12.5c12.4-0.4,20-6.6,21.3-15.6l-13.1-0.2C383,688.8,381.1,690.2,376.3,690.4z"/>
				<path class="st1" d="M374.2,690.4c-7.1-0.3-9.7-3.6-10.2-10.2h2h8.2v-11.5h-10.3c0.5-4.5,3.3-10.2,10.3-10.2v-11.9
					c-18,0.5-26.2,15.4-26.2,28.9c0,16.5,8.6,27.1,26.2,27.5V690.4z"/>
				<path class="st1" d="M376.3,646.5v12c5.9,1,7.4,6.4,7.4,10.1h-7.4v11.5h22.4c0.3-1.2,0.6-3.7,0.6-6.6
					C399.3,660.4,391.7,647.1,376.3,646.5z"/>
			</g>
			<g>
				<path class="st1" d="M408.7,759.4c-3.5-0.7-5.4-4-5.4-8.4c0-4.4,1.9-7.9,5.4-8.7v-5.4c-0.1,0-0.2,0-0.2,0
					c-6.5,0-12.1,5.3-12,14.3c0,8.3,5.1,13.7,11.5,13.7c0.3,0,0.5,0,0.8,0V759.4z"/>
				<path class="st1" d="M422.9,756.8v-31.6h-6.8v15.2H416c-0.9-1.5-2.7-2.8-5.2-3.3v5.1c2.7,0.3,4.6,2.3,5.1,4.7
					c0.1,0.6,0.2,1.2,0.2,1.8v4c0,0.7-0.1,1.4-0.2,2c-0.6,2.7-2.6,4.5-5.1,4.8v5.1c2.6-0.7,4.6-2.3,5.8-4.5h0.1l0.3,4.3h6
					C423,762.6,422.9,759.6,422.9,756.8z"/>
			</g>
			<g>
				<path class="st1" d="M446.6,745.3c-0.1,0-0.2,0-0.3,0c-1.4,0-2.5-0.1-3.3-0.3v-12.6c0.7-0.2,1.9-0.3,3.6-0.3v-5.2
					c-4.6,0-7.9,0.3-10.4,0.8v36.7h6.7v-14c0.9,0.2,2.1,0.3,3.3,0.3c0.1,0,0.2,0,0.3,0V745.3z"/>
				<path class="st1" d="M457.6,730c-2-1.7-5-2.7-8.9-3v5.3c3.6,0.5,5.7,2.6,5.7,6.2c0,3.6-2.1,6-5.7,6.7v5.4
					c3.8-0.4,7.1-1.6,9.3-3.9c2.1-2,3.2-4.9,3.2-8.4C461.2,734.7,459.8,731.8,457.6,730z"/>
			</g>
			<g>
				<path class="st1" d="M505.9,759.4c-3-0.8-5.2-2.9-5.3-6.6h5.3v-4.7h-5.3c0.3-2.5,1.8-6,5.3-6.5V737c-7.8,0.7-11.8,7.3-11.8,14.4
					c0,7.6,4.3,12.7,11.8,13.5V759.4z"/>
				<path class="st1" d="M508.9,759.8c-0.3,0-0.6,0-0.9,0v5.2c3.9,0,7-0.7,9.3-1.7l-1-4.7C514.3,759.3,512.1,759.8,508.9,759.8z"/>
				<path class="st1" d="M508.1,737v4.7c3.5,0.7,4.4,4.2,4.4,6.4h-4.4v4.7h10.5c0.1-0.6,0.2-1.6,0.2-2.9
					C518.8,744.3,516.2,737.4,508.1,737z"/>
			</g>
		</g>
	</g>
</g>
</svg>
