<?xml version="1.0" encoding="utf-8"?>
<!-- Generator: Adobe Illustrator 27.8.1, SVG Export Plug-In . SVG Version: 6.00 Build 0)  -->
<svg version="1.1" xmlns="http://www.w3.org/2000/svg" xmlns:xlink="http://www.w3.org/1999/xlink" x="0px" y="0px"
	 viewBox="0 0 1921 1081" style="enable-background:new 0 0 1921 1081;" xml:space="preserve">
<style type="text/css">
	.st0{fill:#FFFFFF;stroke:#231815;stroke-miterlimit:10;}
	.st1{fill:#E50000;}
</style>
<g id="レイヤー_2">
	<rect x="0.5" y="0.5" class="st0" width="1920" height="1080"/>
</g>
<g id="レイヤー_1">
	<g>
		<g>
			<path d="M1020.54,535.82h-77.53c0.72,6.78,2.48,11.84,5.27,15.16c3.92,4.78,9.03,7.17,15.33,7.17c3.98,0,7.77-1.05,11.36-3.15
				c2.19-1.33,4.55-3.68,7.07-7.04h37.18c-3.15,12.68-13.56,22.94-21.65,27.76c-8.1,4.82-19.71,7.24-34.84,7.24
				c-13.14,0-23.47-2.05-31.01-6.14c-7.54-4.1-13.78-10.61-18.73-19.52c-4.95-8.92-7.43-19.41-7.43-31.47
				c0-17.15,4.97-31.02,14.91-41.64c9.94-10.6,23.66-15.91,41.18-15.91c14.21,0,25.42,2.37,33.65,7.11
				c8.23,4.74,14.5,11.59,18.79,20.59c4.29,9,6.45,20.7,6.45,35.11V535.82z M983.86,515.7c-0.83-8.09-3.02-13.87-6.57-17.37
				c-3.56-3.5-8.23-5.25-14.03-5.25c-6.7,0-12.04,2.65-16.05,7.92c-2.56,3.29-4.17,8.18-4.87,14.69H983.86z"/>
			<path d="M1081.61,582.96h-43V431.34h43V582.96z"/>
			<path d="M1227.79,428.86v41.9h23.15v30.87h-23.15v38.79c0,4.67,0.44,7.75,1.34,9.26c1.38,2.33,3.81,3.5,7.27,3.5
				c3.12,0,7.48-0.89,13.07-2.68l3.12,29.04c-10.43,2.28-20.15,3.41-29.2,3.41c-10.49,0-18.22-1.33-23.19-4.02
				c-4.98-2.67-8.64-6.75-11.03-12.21c-2.38-5.47-3.56-14.31-3.56-26.55v-38.55h-15.44L1227.79,428.86z"/>
			<path d="M1261.94,525.93c0-16.74,5.66-30.53,16.97-41.38c11.32-10.85,26.61-16.27,45.85-16.27c22,0,38.63,6.37,49.88,19.12
				c9.04,10.26,13.56,22.9,13.56,37.91c0,16.87-5.61,30.71-16.82,41.48c-11.21,10.79-26.72,16.17-46.52,16.17
				c-17.65,0-31.94-4.47-42.84-13.42C1268.62,558.44,1261.94,543.91,1261.94,525.93z M1304.12,525.84c0,9.78,1.99,17.02,5.98,21.7
				c3.98,4.69,9,7.03,15.03,7.03c6.1,0,11.1-2.3,15.02-6.92c3.91-4.62,5.88-12.03,5.88-22.22c0-9.5-1.98-16.58-5.93-21.23
				c-3.95-4.64-8.83-6.97-14.65-6.97c-6.18,0-11.28,2.36-15.28,7.07C1306.12,509.02,1304.12,516.21,1304.12,525.84z"/>
			<path d="M1402.32,473.24h39.29v18.06c3.78-7.81,7.69-13.19,11.73-16.14c4.02-2.93,8.99-4.41,14.92-4.41
				c2.32,0,4.73,0.28,7.22,0.82c4.15,0.9,8.53,2.57,13.13,4.99l-13.02,30.09c-4.96-2.06-8.88-3.09-11.78-3.09
				c-5.51,0-9.77,2.26-12.79,6.81c-4.35,6.39-6.52,18.36-6.52,35.88v36.71h-42.18V473.24z"/>
			<polygon points="1163.21,473.24 1120.2,473.24 1083.21,528.1 1120.2,582.96 1163.21,582.96 1126.22,528.1 			"/>
			<polygon class="st1" points="830.67,430.94 830.67,460.34 861.62,460.34 837.02,540.05 802.86,430.94 753.9,430.94 
				811.18,582.56 861.95,582.56 918.2,430.94 			"/>
		</g>
		<g>
			<path d="M432.95,598.48h11.87l5.57,36.61l6.95-36.61h10.65l6.49,36.56l6.43-36.56h9.87l-11.36,53.13h-10.42l-7.06-36.75
				l-7.21,36.75h-10.31L432.95,598.48z"/>
			<path d="M523.74,631.76c0,13.59-5.28,20.38-15.83,20.38c-10.58,0-15.87-6.8-15.87-20.38c0-13.57,5.29-20.35,15.87-20.35
				C518.46,611.41,523.74,618.19,523.74,631.76z M512.49,631.77c0-4.99-0.34-8.36-1.02-10.12c-0.69-1.76-1.87-2.63-3.56-2.63
				c-1.65,0-2.83,0.83-3.55,2.5c-0.72,1.67-1.08,5.09-1.08,10.25c0,4.78,0.31,8.1,0.92,9.96c0.61,1.86,1.85,2.79,3.7,2.79
				c1.77,0,2.98-0.92,3.62-2.77C512.17,639.9,512.49,636.58,512.49,631.77z"/>
			<path d="M530.61,612.21h9.56v9.46c1.74-6.66,4.83-9.99,9.29-9.99c0.55,0,1.17,0.07,1.87,0.19v10.68
				c-0.8-0.11-1.41-0.15-1.83-0.15c-5.34,0-8,4.03-8,12.09v16.86h-10.89V612.21z"/>
			<path d="M575.26,598.48h10.71v52.86h-10.09v-6.48c-1.64,4.68-4.6,7.01-8.87,7.01c-4.19,0-7.32-1.83-9.38-5.5
				c-2.06-3.66-3.09-8.48-3.09-14.44c0-6.79,1.18-11.86,3.53-15.22c2.36-3.36,5.5-5.04,9.44-5.04c3.62,0,6.21,1.39,7.75,4.18V598.48
				z M575.26,628.59c0-3.83-0.4-6.4-1.22-7.7c-0.81-1.3-1.99-1.95-3.54-1.95c-1.83,0-3.07,0.9-3.73,2.7
				c-0.66,1.8-0.99,5.53-0.99,11.19c0,4.22,0.37,7.18,1.08,8.88c0.72,1.7,1.91,2.55,3.56,2.55c1.39,0,2.55-0.57,3.46-1.72
				c0.92-1.15,1.37-3.49,1.37-7.05V628.59z"/>
			<path d="M595.35,598.48h15.22c4.61,0,8.2,0.39,10.75,1.16c2.55,0.78,4.68,2.52,6.41,5.25c1.73,2.72,2.59,6.09,2.59,10.12
				c0,3.87-0.7,7.07-2.09,9.6c-1.4,2.53-3.32,4.35-5.79,5.48c-2.47,1.12-6.26,1.68-11.38,1.68h-4.11v19.57h-11.6V598.48z
				 M606.95,607.07v15.67h3.61c3.19,0,5.25-0.74,6.16-2.21c0.92-1.48,1.38-3.39,1.38-5.75c0-1.99-0.36-3.6-1.07-4.83
				c-0.71-1.23-1.54-2.01-2.49-2.36c-0.94-0.35-2.27-0.52-3.98-0.52H606.95z"/>
			<path d="M635.42,612.21h9.56v9.46c1.74-6.66,4.83-9.99,9.29-9.99c0.55,0,1.17,0.07,1.87,0.19v10.68
				c-0.8-0.11-1.41-0.15-1.83-0.15c-5.33,0-8,4.03-8,12.09v16.86h-10.89V612.21z"/>
			<path d="M690.16,633.54h-20.45v2.16c0,3.51,0.47,5.86,1.42,7.04c0.95,1.18,2.19,1.78,3.73,1.78c3.3,0,5.16-2.21,5.57-6.64
				l9.74,0.62c-1.73,9.09-6.88,13.64-15.48,13.64c-5.3,0-9.33-1.79-12.09-5.38c-2.76-3.59-4.13-8.4-4.13-14.42
				c0-6.79,1.46-11.97,4.38-15.55c2.92-3.58,6.84-5.37,11.75-5.37c4.43,0,8.12,1.58,11.1,4.74
				C688.67,619.31,690.16,625.11,690.16,633.54z M679.89,627.17c0.02-0.46,0.03-0.82,0.03-1.08c0-5-1.69-7.51-5.09-7.51
				c-3.34,0-5.02,2.86-5.05,8.59H679.89z"/>
			<path d="M722.8,621.65l-7.79,2.33c-1.04-3.54-2.94-5.31-5.72-5.31c-2.27,0-3.4,1.13-3.4,3.39c0,1.29,0.42,2.28,1.27,2.95
				c0.85,0.67,2.6,1.47,5.26,2.4c2.99,1.06,5.19,1.99,6.57,2.79c1.39,0.8,2.57,2.01,3.52,3.62c0.96,1.62,1.44,3.46,1.44,5.56
				c0,3.61-1.31,6.65-3.92,9.1c-2.61,2.46-6.25,3.68-10.92,3.68c-8.81,0-13.69-3.87-14.64-11.63l8.68-1.39
				c0.72,3.9,2.78,5.84,6.18,5.84c2.9,0,4.36-1.22,4.36-3.67c0-1.29-0.43-2.27-1.28-2.94c-0.86-0.67-2.51-1.39-4.97-2.17
				c-4.52-1.44-7.6-3.19-9.29-5.22c-1.68-2.04-2.52-4.4-2.52-7.08c0-3.77,1.32-6.79,3.97-9.06c2.65-2.28,5.97-3.41,9.94-3.41
				C716.49,611.41,720.91,614.82,722.8,621.65z"/>
			<path d="M755.62,621.65l-7.79,2.33c-1.03-3.54-2.94-5.31-5.72-5.31c-2.27,0-3.4,1.13-3.4,3.39c0,1.29,0.42,2.28,1.27,2.95
				c0.85,0.67,2.61,1.47,5.26,2.4c2.99,1.06,5.19,1.99,6.57,2.79c1.39,0.8,2.56,2.01,3.52,3.62c0.96,1.62,1.43,3.46,1.43,5.56
				c0,3.61-1.31,6.65-3.92,9.1c-2.61,2.46-6.25,3.68-10.92,3.68c-8.81,0-13.69-3.87-14.64-11.63l8.68-1.39
				c0.73,3.9,2.79,5.84,6.18,5.84c2.91,0,4.35-1.22,4.35-3.67c0-1.29-0.43-2.27-1.28-2.94c-0.85-0.67-2.51-1.39-4.97-2.17
				c-4.5-1.44-7.6-3.19-9.29-5.22c-1.68-2.04-2.52-4.4-2.52-7.08c0-3.77,1.32-6.79,3.97-9.06c2.65-2.28,5.97-3.41,9.95-3.41
				C749.31,611.41,753.73,614.82,755.62,621.65z"/>
			<path d="M790.17,612.21h6.91v8.59h-6.91v30.55h-10.45v-30.55h-4.43v-8.59h4.43c0.03-3.85,0.32-6.73,0.9-8.64
				c0.56-1.91,1.79-3.59,3.68-5.04c1.89-1.45,4.46-2.17,7.72-2.17c1.91,0,3.74,0.13,5.5,0.39v8.62c-0.88-0.11-1.69-0.16-2.45-0.16
				c-2.1,0-3.44,0.44-4.03,1.32C790.47,607.41,790.17,609.3,790.17,612.21z"/>
			<path d="M802.82,612.21h9.56v9.46c1.74-6.66,4.83-9.99,9.29-9.99c0.54,0,1.17,0.07,1.87,0.19v10.68
				c-0.81-0.11-1.42-0.15-1.83-0.15c-5.33,0-8,4.03-8,12.09v16.86h-10.89V612.21z"/>
			<path d="M857.56,633.54h-20.45v2.16c0,3.51,0.47,5.86,1.42,7.04c0.95,1.18,2.19,1.78,3.72,1.78c3.3,0,5.16-2.21,5.57-6.64
				l9.74,0.62c-1.73,9.09-6.89,13.64-15.48,13.64c-5.3,0-9.33-1.79-12.09-5.38c-2.76-3.59-4.13-8.4-4.13-14.42
				c0-6.79,1.46-11.97,4.38-15.55c2.92-3.58,6.84-5.37,11.76-5.37c4.43,0,8.12,1.58,11.1,4.74
				C856.07,619.31,857.56,625.11,857.56,633.54z M847.29,627.17c0.02-0.46,0.03-0.82,0.03-1.08c0-5-1.69-7.51-5.09-7.51
				c-3.34,0-5.02,2.86-5.05,8.59H847.29z"/>
			<path d="M894.45,633.54h-20.45v2.16c0,3.51,0.47,5.86,1.42,7.04c0.95,1.18,2.19,1.78,3.72,1.78c3.3,0,5.16-2.21,5.57-6.64
				l9.74,0.62c-1.72,9.09-6.88,13.64-15.48,13.64c-5.31,0-9.34-1.79-12.09-5.38c-2.76-3.59-4.13-8.4-4.13-14.42
				c0-6.79,1.46-11.97,4.38-15.55c2.92-3.58,6.84-5.37,11.76-5.37c4.43,0,8.12,1.58,11.1,4.74
				C892.96,619.31,894.45,625.11,894.45,633.54z M884.18,627.17c0.03-0.46,0.04-0.82,0.04-1.08c0-5-1.69-7.51-5.09-7.51
				c-3.34,0-5.03,2.86-5.05,8.59H884.18z"/>
			<path d="M918.1,600.16l10.63-0.35v12.4h7.26v8.59h-7.26v14.37c0,2.66,0.06,4.38,0.18,5.17c0.12,0.79,0.51,1.45,1.17,1.98
				c0.67,0.53,1.78,0.79,3.33,0.79c0.83,0,1.87-0.03,3.12-0.09v8.31c-2.43,0.54-4.66,0.81-6.69,0.81c-3.31,0-5.85-0.64-7.61-1.9
				c-1.76-1.26-2.89-2.86-3.38-4.76c-0.5-1.91-0.74-4.95-0.74-9.1v-15.58h-4.34v-8.59h4.34V600.16z"/>
			<path d="M941.24,598.48h10.89v17.89c1.96-3.3,5.15-4.96,9.58-4.96c2.65,0,4.74,0.62,6.28,1.86c1.53,1.24,2.5,2.8,2.91,4.71
				c0.41,1.89,0.62,4.65,0.62,8.27v25.1h-10.89v-25.15c0-2.57-0.24-4.27-0.71-5.11c-0.48-0.84-1.46-1.26-2.95-1.26
				c-1.47,0-2.64,0.4-3.51,1.2c-0.88,0.81-1.32,2.63-1.32,5.48v24.84h-10.89V598.48z"/>
			<path d="M1009.5,633.54h-20.45v2.16c0,3.51,0.47,5.86,1.42,7.04c0.94,1.18,2.19,1.78,3.72,1.78c3.31,0,5.16-2.21,5.57-6.64
				l9.74,0.62c-1.73,9.09-6.89,13.64-15.48,13.64c-5.3,0-9.33-1.79-12.08-5.38c-2.76-3.59-4.13-8.4-4.13-14.42
				c0-6.79,1.46-11.97,4.38-15.55c2.92-3.58,6.84-5.37,11.76-5.37c4.43,0,8.13,1.58,11.1,4.74
				C1008.01,619.31,1009.5,625.11,1009.5,633.54z M999.23,627.17c0.03-0.46,0.04-0.82,0.04-1.08c0-5-1.7-7.51-5.09-7.51
				c-3.34,0-5.02,2.86-5.05,8.59H999.23z"/>
			<path d="M1016.37,612.21h10.27v5.33c1.86-4.08,5.02-6.13,9.5-6.13c4.65,0,7.46,2.04,8.44,6.13c1.76-4.08,4.94-6.13,9.52-6.13
				c2.56,0,4.6,0.46,6.11,1.39c1.51,0.94,2.57,2.21,3.17,3.82c0.59,1.62,0.89,4.65,0.89,9.12v25.59h-10.89v-24.49
				c0-2.93-0.21-4.83-0.62-5.71c-0.42-0.89-1.34-1.32-2.77-1.32c-1.72,0-2.84,0.58-3.36,1.73c-0.52,1.15-0.78,3.47-0.78,6.97v22.83
				h-10.89V626.5c0-2.8-0.2-4.61-0.6-5.43c-0.4-0.83-1.31-1.25-2.73-1.25c-1.75,0-2.93,0.6-3.5,1.8c-0.59,1.21-0.87,3.5-0.87,6.89
				v22.83h-10.89V612.21z"/>
			<path d="M1102.17,633.54h-20.45v2.16c0,3.51,0.48,5.86,1.42,7.04s2.19,1.78,3.73,1.78c3.3,0,5.16-2.21,5.57-6.64l9.74,0.62
				c-1.73,9.09-6.88,13.64-15.48,13.64c-5.3,0-9.33-1.79-12.09-5.38c-2.75-3.59-4.13-8.4-4.13-14.42c0-6.79,1.46-11.97,4.38-15.55
				c2.92-3.58,6.84-5.37,11.75-5.37c4.43,0,8.13,1.58,11.1,4.74C1100.69,619.31,1102.17,625.11,1102.17,633.54z M1091.9,627.17
				c0.02-0.46,0.04-0.82,0.04-1.08c0-5-1.7-7.51-5.09-7.51c-3.34,0-5.03,2.86-5.05,8.59H1091.9z"/>
			<path d="M1136.55,612.21h6.91v8.59h-6.91v30.55h-10.45v-30.55h-4.43v-8.59h4.43c0.02-3.85,0.32-6.73,0.89-8.64
				c0.57-1.91,1.8-3.59,3.69-5.04c1.89-1.45,4.46-2.17,7.71-2.17c1.91,0,3.75,0.13,5.51,0.39v8.62c-0.89-0.11-1.7-0.16-2.46-0.16
				c-2.09,0-3.44,0.44-4.02,1.32C1136.84,607.41,1136.55,609.3,1136.55,612.21z"/>
			<path d="M1178.09,631.76c0,13.59-5.28,20.38-15.83,20.38c-10.58,0-15.87-6.8-15.87-20.38c0-13.57,5.29-20.35,15.87-20.35
				C1172.81,611.41,1178.09,618.19,1178.09,631.76z M1166.84,631.77c0-4.99-0.34-8.36-1.02-10.12c-0.69-1.76-1.87-2.63-3.56-2.63
				c-1.65,0-2.82,0.83-3.54,2.5c-0.72,1.67-1.08,5.09-1.08,10.25c0,4.78,0.31,8.1,0.93,9.96c0.61,1.86,1.85,2.79,3.7,2.79
				c1.77,0,2.98-0.92,3.62-2.77C1166.52,639.9,1166.84,636.58,1166.84,631.77z"/>
			<path d="M1184.96,612.21h9.56v9.46c1.74-6.66,4.84-9.99,9.29-9.99c0.54,0,1.17,0.07,1.87,0.19v10.68
				c-0.81-0.11-1.42-0.15-1.83-0.15c-5.33,0-8,4.03-8,12.09v16.86h-10.89V612.21z"/>
			<path d="M1224.88,598.48h10.71v17.41c2.1-2.82,4.79-4.22,8.08-4.22c3.59,0,6.58,1.63,8.97,4.88c2.39,3.25,3.58,8.25,3.58,14.98
				c0,6.49-1.17,11.53-3.51,15.16c-2.33,3.63-5.75,5.44-10.25,5.44c-4.42,0-7.44-1.98-9.09-5.93c-0.74,1.35-1.43,3.06-2.05,5.13
				h-6.45V598.48z M1235.6,635.07c0,3.58,0.33,6.05,1,7.41c0.66,1.36,1.84,2.04,3.52,2.04c1.86,0,3.14-0.97,3.83-2.92
				c0.69-1.94,1.04-5.21,1.04-9.82c0-4.45-0.33-7.71-1-9.77c-0.66-2.06-1.89-3.09-3.69-3.09c-3.14,0-4.7,2.38-4.7,7.14V635.07z"/>
			<path d="M1262.5,612.21h10.89v25.15c0,2.54,0.23,4.23,0.7,5.09c0.48,0.85,1.48,1.28,3.05,1.28c1.43,0,2.51-0.35,3.25-1.05
				c0.74-0.7,1.19-1.67,1.35-2.89c0.15-1.23,0.23-3.76,0.23-7.59v-19.99h10.89v39.13h-10.27v-5.36c-1.55,2.66-3.1,4.35-4.63,5.08
				c-1.54,0.72-3.35,1.09-5.45,1.09c-2.81,0-4.97-0.58-6.46-1.74c-1.49-1.16-2.47-2.63-2.91-4.42c-0.43-1.78-0.65-4.55-0.65-8.33
				V612.21z"/>
			<path d="M1325.54,621.65l-7.79,2.33c-1.03-3.54-2.93-5.31-5.72-5.31c-2.27,0-3.4,1.13-3.4,3.39c0,1.29,0.42,2.28,1.27,2.95
				c0.85,0.67,2.61,1.47,5.27,2.4c2.99,1.06,5.18,1.99,6.58,2.79c1.38,0.8,2.56,2.01,3.52,3.62c0.95,1.62,1.43,3.46,1.43,5.56
				c0,3.61-1.31,6.65-3.92,9.1c-2.6,2.46-6.24,3.68-10.92,3.68c-8.81,0-13.69-3.87-14.64-11.63l8.68-1.39
				c0.72,3.9,2.79,5.84,6.18,5.84c2.91,0,4.36-1.22,4.36-3.67c0-1.29-0.43-2.27-1.28-2.94c-0.85-0.67-2.51-1.39-4.97-2.17
				c-4.51-1.44-7.6-3.19-9.29-5.22c-1.68-2.04-2.52-4.4-2.52-7.08c0-3.77,1.33-6.79,3.97-9.06c2.65-2.28,5.97-3.41,9.95-3.41
				C1319.24,611.41,1323.65,614.82,1325.54,621.65z"/>
			<path d="M1343.49,609.02h-11.07v-10.8h11.07V609.02z M1332.51,612.21h10.89v39.13h-10.89V612.21z"/>
			<path d="M1351.9,612.21h10.27v5.33c1.8-4.08,5.07-6.13,9.79-6.13c2.56,0,4.66,0.58,6.33,1.73c1.66,1.15,2.72,2.62,3.19,4.4
				c0.46,1.78,0.7,4.5,0.7,8.14v25.67h-10.89v-25.7c0-2.64-0.33-4.27-1.01-4.89c-0.66-0.63-1.57-0.93-2.7-0.93
				c-1.96,0-3.24,0.6-3.86,1.8c-0.62,1.21-0.93,3.45-0.93,6.73v22.98h-10.89V612.21z"/>
			<path d="M1420.15,633.54h-20.45v2.16c0,3.51,0.48,5.86,1.43,7.04c0.94,1.18,2.19,1.78,3.72,1.78c3.31,0,5.16-2.21,5.57-6.64
				l9.74,0.62c-1.72,9.09-6.88,13.64-15.47,13.64c-5.31,0-9.34-1.79-12.09-5.38c-2.76-3.59-4.14-8.4-4.14-14.42
				c0-6.79,1.46-11.97,4.38-15.55c2.92-3.58,6.84-5.37,11.77-5.37c4.43,0,8.12,1.58,11.09,4.74
				C1418.67,619.31,1420.15,625.11,1420.15,633.54z M1409.88,627.17c0.03-0.46,0.04-0.82,0.04-1.08c0-5-1.69-7.51-5.09-7.51
				c-3.34,0-5.03,2.86-5.06,8.59H1409.88z"/>
			<path d="M1452.79,621.65l-7.79,2.33c-1.03-3.54-2.93-5.31-5.71-5.31c-2.27,0-3.41,1.13-3.41,3.39c0,1.29,0.43,2.28,1.28,2.95
				c0.84,0.67,2.6,1.47,5.26,2.4c2.99,1.06,5.18,1.99,6.58,2.79c1.39,0.8,2.57,2.01,3.52,3.62c0.95,1.62,1.43,3.46,1.43,5.56
				c0,3.61-1.31,6.65-3.91,9.1c-2.61,2.46-6.25,3.68-10.92,3.68c-8.81,0-13.69-3.87-14.65-11.63l8.68-1.39
				c0.73,3.9,2.79,5.84,6.19,5.84c2.9,0,4.35-1.22,4.35-3.67c0-1.29-0.42-2.27-1.28-2.94c-0.85-0.67-2.5-1.39-4.97-2.17
				c-4.5-1.44-7.6-3.19-9.29-5.22c-1.68-2.04-2.52-4.4-2.52-7.08c0-3.77,1.33-6.79,3.97-9.06c2.65-2.28,5.96-3.41,9.95-3.41
				C1446.48,611.41,1450.91,614.82,1452.79,621.65z"/>
			<path d="M1485.62,621.65l-7.79,2.33c-1.03-3.54-2.94-5.31-5.72-5.31c-2.27,0-3.4,1.13-3.4,3.39c0,1.29,0.42,2.28,1.27,2.95
				c0.85,0.67,2.6,1.47,5.26,2.4c3,1.06,5.19,1.99,6.58,2.79c1.39,0.8,2.57,2.01,3.52,3.62c0.96,1.62,1.44,3.46,1.44,5.56
				c0,3.61-1.31,6.65-3.92,9.1c-2.61,2.46-6.25,3.68-10.92,3.68c-8.81,0-13.69-3.87-14.64-11.63l8.68-1.39
				c0.72,3.9,2.78,5.84,6.18,5.84c2.9,0,4.36-1.22,4.36-3.67c0-1.29-0.43-2.27-1.28-2.94c-0.85-0.67-2.51-1.39-4.97-2.17
				c-4.52-1.44-7.6-3.19-9.29-5.22c-1.68-2.04-2.52-4.4-2.52-7.08c0-3.77,1.32-6.79,3.97-9.06c2.65-2.28,5.97-3.41,9.94-3.41
				C1479.31,611.41,1483.73,614.82,1485.62,621.65z"/>
		</g>
		<g>
			<path class="st1" d="M432.39,428.98h89.02c14.83,0,26.22,3.67,34.17,11.02c7.94,7.35,11.92,16.44,11.92,27.29
				c0,9.1-2.83,16.9-8.5,23.41c-3.78,4.34-9.31,7.77-16.59,10.29c11.06,2.66,19.19,7.23,24.4,13.7c5.21,6.47,7.82,14.61,7.82,24.4
				c0,7.98-1.86,15.15-5.57,21.52c-3.71,6.37-8.78,11.41-15.22,15.11c-3.99,2.31-10.01,3.99-18.05,5.04
				c-10.71,1.4-17.81,2.1-21.31,2.1h-82.09V428.98z M480.37,489.34h20.68c7.42,0,12.58-1.27,15.48-3.83
				c2.9-2.56,4.36-6.25,4.36-11.08c0-4.48-1.46-7.97-4.36-10.49c-2.91-2.52-7.96-3.78-15.17-3.78h-21V489.34z M480.37,549.8h24.25
				c8.18,0,13.96-1.45,17.31-4.36c3.36-2.9,5.04-6.81,5.04-11.7c0-4.55-1.67-8.2-4.99-10.97c-3.33-2.77-9.15-4.15-17.48-4.15h-24.14
				V549.8z"/>
			<path d="M585.22,428.98h42.72v29.07h-42.72V428.98z M585.22,471.38h42.72v111.48h-42.72V471.38z"/>
			<path d="M648.24,471.48h103.4v24.99l-56.26,57.32h59.73v29.18H644.04v-27.71l53.33-54.59h-49.13V471.48z"/>
		</g>
	</g>
</g>
</svg>
