<?xml version="1.0" encoding="utf-8"?>
<!-- Generator: Adobe Illustrator 21.1.0, SVG Export Plug-In . SVG Version: 6.00 Build 0)  -->
<svg version="1.1" id="レイヤー_1" xmlns="http://www.w3.org/2000/svg" xmlns:xlink="http://www.w3.org/1999/xlink" x="0px"
	 y="0px" viewBox="0 0 630.9 339.8" style="enable-background:new 0 0 630.9 339.8;" xml:space="preserve">
<style type="text/css">
	.st0{enable-background:new    ;}
	.st1{font-family:'Arial-BoldMT';}
	.st2{font-size:18px;}
	.st3{font-size:24px;}
	.st4{font-family:'HiraginoKaku-W7-90msp-RKSJ-H';}
	.st5{fill:#20428C;}
	.st6{fill:#494441;}
	.st7{fill:#AEE8FF;stroke:#3F3B3A;stroke-width:2;stroke-miterlimit:10;}
	.st8{fill:#FFFFFF;stroke:#3F3B3A;stroke-width:2;stroke-miterlimit:10;}
	.st9{fill:#FFFFFF;stroke:#3F3B3A;stroke-miterlimit:10;}
	.st10{font-size:14px;}
	.st11{font-size:9.0365px;}
	.st12{fill:none;}
	.st13{font-family:'HiraginoKaku-W5-90msp-RKSJ-H';}
	.st14{font-size:11px;}
	.st15{font-size:7.6627px;}
	.st16{fill:#FFFFFF;stroke:#000000;stroke-miterlimit:10;}
	.st17{fill:#D1D1D1;stroke:#9B9B9B;stroke-miterlimit:10;}
	.st18{fill:none;stroke:#000000;stroke-width:2;stroke-miterlimit:10;}
</style>
<text transform="matrix(1 0 0 1 -4.577637e-05 20.59)" class="st0"><tspan x="0" y="0" class="st1 st2">https://vektor-inc.co.jp/?p=</tspan><tspan x="230.5" y="0" class="st1 st3">12</tspan></text>
<text transform="matrix(1 0 0 1 516.718 20.59)" class="st4 st2">データベース</text>
<text transform="matrix(1 0 0 1 372.3847 210.4582)" class="st4 st2">テーマ</text>
<text transform="matrix(1 0 0 1 316.0528 20.59)" class="st4 st2">WordPress</text>
<g>
	<path class="st5" d="M98.5,86.6c11.6,0,21.1-9.4,21.1-21.1s-9.4-21.1-21.1-21.1s-21.1,9.4-21.1,21.1S86.9,86.6,98.5,86.6z
		 M114.3,92l-7.9,31.5l-5.3-22.4l5.3-9.2H90.6l5.3,9.2l-5.3,22.4L82.7,92c-11.7,0.6-21.1,10.2-21.1,22v6.8c0,4.4,3.5,7.9,7.9,7.9
		h57.9c4.4,0,7.9-3.5,7.9-7.9V114C135.4,102.1,126,92.5,114.3,92L114.3,92z"/>
	<path d="M201.3,47.7h-35.5c-4.2,0-7.6,3.4-7.6,7.6v65.8c0,4.2,3.4,7.6,7.6,7.6h35.5c4.2,0,7.6-3.4,7.6-7.6V55.3
		C208.9,51.1,205.5,47.7,201.3,47.7z M183.6,123.7c-2.8,0-5.1-2.3-5.1-5.1s2.3-5.1,5.1-5.1s5.1,2.3,5.1,5.1
		C188.7,121.4,186.4,123.7,183.6,123.7z M201.3,106.6c0,1-0.9,1.9-1.9,1.9h-31.7c-1,0-1.9-0.9-1.9-1.9V57.2c0-1,0.9-1.9,1.9-1.9
		h31.7c1,0,1.9,0.9,1.9,1.9V106.6z"/>
</g>
<path class="st6" d="M371.8,42.7c-23.7,0-43,19.3-43,43s19.3,43,43,43s43-19.3,43-43S395.5,42.7,371.8,42.7z M333.1,85.7
	c0-5.6,1.2-10.9,3.3-15.7l18.5,50.6C342,114.3,333.1,101,333.1,85.7z M371.8,124.4c-3.8,0-7.5-0.6-10.9-1.6l11.6-33.7l11.9,32.6
	c0.1,0.2,0.2,0.4,0.3,0.5C380.6,123.6,376.3,124.4,371.8,124.4z M377.1,67.6c2.3-0.1,4.4-0.4,4.4-0.4c2.1-0.2,1.8-3.3-0.2-3.2
	c0,0-6.3,0.5-10.3,0.5c-3.8,0-10.2-0.5-10.2-0.5c-2.1-0.1-2.3,3.1-0.2,3.2c0,0,2,0.2,4.1,0.4l6,16.5l-8.5,25.4l-14.1-41.9
	c2.3-0.1,4.4-0.4,4.4-0.4c2.1-0.2,1.8-3.3-0.2-3.2c0,0-6.3,0.5-10.3,0.5c-0.7,0-1.6,0-2.5,0c6.9-10.5,18.8-17.4,32.3-17.4
	c10.1,0,19.2,3.9,26.1,10.2c-0.2,0-0.3,0-0.5,0c-3.8,0-6.5,3.3-6.5,6.9c0,3.2,1.8,5.9,3.8,9.1c1.5,2.6,3.2,5.9,3.2,10.7
	c0,3.3-1.3,7.2-2.9,12.5l-3.9,12.9L377.1,67.6z M405.7,67.2c3,5.5,4.7,11.8,4.7,18.6c0,14.3-7.7,26.7-19.2,33.4L403,85
	c2.2-5.5,2.9-9.9,2.9-13.9C406,69.7,405.9,68.4,405.7,67.2z"/>
<path d="M606.7,58.3v7.3c0,6.5-16.1,11.7-36,11.7s-36-5.3-36-11.7v-7.3c0-6.5,16.1-11.7,36-11.7C590.6,46.5,606.7,51.8,606.7,58.3z
	 M606.7,74.8v16.5c0,6.5-16.1,11.7-36,11.7s-36-5.3-36-11.7V74.8c7.7,5.3,21.9,7.8,36,7.8S599,80.1,606.7,74.8z M606.7,100.5V117
	c0,6.5-16.1,11.7-36,11.7s-36-5.3-36-11.7v-16.5c7.7,5.3,21.9,7.8,36,7.8S599,105.8,606.7,100.5z"/>
<g>
	<path class="st7" d="M475.9,338.8h-99.6c-2.8,0-5-2.2-5-5V225.6c0-2.8,2.2-5,5-5h99.6c2.8,0,5,2.2,5,5v108.2
		C480.9,336.6,478.6,338.8,475.9,338.8z"/>
	<path class="st8" d="M465.9,255.7h-79.6c-2.8,0-5-2.2-5-5v-9c0-2.8,2.2-5,5-5h79.6c2.8,0,5,2.2,5,5v9
		C470.9,253.4,468.6,255.7,465.9,255.7z"/>
	<path class="st8" d="M465.9,325.9h-79.6c-2.8,0-5-2.2-5-5v-49c0-2.8,2.2-5,5-5h79.6c2.8,0,5,2.2,5,5v49
		C470.9,323.7,468.6,325.9,465.9,325.9z"/>
</g>
<path class="st7" d="M296.9,287.6h-99.6c-2.8,0-5-2.2-5-5V174.3c0-2.8,2.2-5,5-5h99.6c2.8,0,5,2.2,5,5v108.3
	C301.9,285.4,299.7,287.6,296.9,287.6z"/>
<path class="st9" d="M286.9,204.4h-79.6c-2.8,0-5-2.2-5-5v-9c0-2.8,2.2-5,5-5h79.6c2.8,0,5,2.2,5,5v9
	C291.9,202.2,289.7,204.4,286.9,204.4z"/>
<path class="st9" d="M286.9,274.7h-79.6c-2.8,0-5-2.2-5-5v-49c0-2.8,2.2-5,5-5h79.6c2.8,0,5,2.2,5,5v49
	C291.9,272.4,289.7,274.7,286.9,274.7z"/>
<path d="M276.9,93.1l-12.7,12.7c-0.9,0.9-2.3,0.9-3.2,0l-2.1-2.1c-0.9-0.9-0.9-2.3,0-3.2l9-9l-9-9c-0.9-0.9-0.9-2.3,0-3.2l2.1-2.1
	c0.9-0.9,2.3-0.9,3.2,0l12.7,12.7C277.8,90.8,277.8,92.2,276.9,93.1z M294.8,89.9l-12.7-12.7c-0.9-0.9-2.3-0.9-3.2,0l-2.1,2.1
	c-0.9,0.9-0.9,2.3,0,3.2l9,9l-9,9c-0.9,0.9-0.9,2.3,0,3.2l2.1,2.1c0.9,0.9,2.3,0.9,3.2,0l12.7-12.7
	C295.7,92.2,295.7,90.8,294.8,89.9L294.8,89.9z"/>
<path d="M471.9,93.1l-12.7,12.7c-0.9,0.9-2.3,0.9-3.2,0l-2.1-2.1c-0.9-0.9-0.9-2.3,0-3.2l9-9l-9-9c-0.9-0.9-0.9-2.3,0-3.2l2.1-2.1
	c0.9-0.9,2.3-0.9,3.2,0l12.7,12.7C472.8,90.8,472.8,92.2,471.9,93.1z M489.9,89.9l-12.7-12.7c-0.9-0.9-2.3-0.9-3.2,0l-2.1,2.1
	c-0.9,0.9-0.9,2.3,0,3.2l9,9l-9,9c-0.9,0.9-0.9,2.3,0,3.2l2.1,2.1c0.9,0.9,2.3,0.9,3.2,0l12.7-12.7
	C490.7,92.2,490.7,90.8,489.9,89.9L489.9,89.9z"/>
<path d="M339,246.4h18c1.2,0,2.2,1,2.2,2.2v3c0,1.2-1,2.2-2.2,2.2h-12.7v12.7c0,1.2-1,2.2-2.2,2.2h-3c-1.2,0-2.2-1-2.2-2.2v-18
	C336.8,247.4,337.8,246.4,339,246.4z M324.1,235.9v18c0,1.2,1,2.2,2.2,2.2h3c1.2,0,2.2-1,2.2-2.2v-12.7h12.7c1.2,0,2.2-1,2.2-2.2v-3
	c0-1.2-1-2.2-2.2-2.2h-18C325.1,233.7,324.1,234.7,324.1,235.9L324.1,235.9z"/>
<path d="M151.2,167.7h18c1.2,0,2.2,1,2.2,2.2v3c0,1.2-1,2.2-2.2,2.2h-12.7v12.7c0,1.2-1,2.2-2.2,2.2h-3c-1.2,0-2.2-1-2.2-2.2v-18
	C148.9,168.7,149.9,167.7,151.2,167.7z M136.2,157.3v18c0,1.2,1,2.2,2.2,2.2h3c1.2,0,2.2-1,2.2-2.2v-12.7h12.7c1.2,0,2.2-1,2.2-2.2
	v-3c0-1.2-1-2.2-2.2-2.2h-18C137.2,155,136.2,156,136.2,157.3L136.2,157.3z"/>
<text transform="matrix(1 0 0 1 510.5764 155.2974)" class="st4 st10">WordCamp最高</text>
<text transform="matrix(1 0 0 1 208.21 199.29)" class="st4 st11">WordCamp最高</text>
<rect x="510.6" y="169.3" class="st12" width="120.3" height="95.4"/>
<text transform="matrix(1 0 0 1 510.5996 178.9307)"><tspan x="0" y="0" class="st13 st14">WordCamp新潟に行っ</tspan><tspan x="0" y="15" class="st13 st14">てきました。いろんな</tspan><tspan x="0" y="30" class="st13 st14">事が勉強できてよかっ</tspan><tspan x="0" y="45" class="st13 st14">たです。</tspan><tspan x="0" y="60" class="st13 st14">[ 画像 ] </tspan></text>
<rect x="206.6" y="221.2" class="st12" width="83.8" height="66.5"/>
<text transform="matrix(1 0 0 1 206.6416 227.9863)"><tspan x="0" y="0" class="st13 st15">WordCamp新潟に行っ</tspan><tspan x="0" y="10.4" class="st13 st15">てきました。いろんな</tspan><tspan x="0" y="20.9" class="st13 st15">事が勉強できて</tspan><tspan x="0" y="31.3" class="st13 st15">よかったです。</tspan><tspan x="0" y="41.8" class="st13 st15"> </tspan></text>
<rect x="208.7" y="221.5" class="st12" width="79.5" height="63.1"/>
<path class="st16" d="M507.3,32.9h-93.3c-2.8,0-5,2.2-5,5v21.1l-6.5,8.2l6.5-1.2v1.4c0,2.8,2.2,5,5,5h93.3c2.8,0,5-2.2,5-5V37.9
	C512.3,35.1,510,32.9,507.3,32.9z"/>
<text transform="matrix(1 0 0 1 416.1443 50.5444)"><tspan x="0" y="0" class="st4 st10">12番のデータ</tspan><tspan x="10.4" y="16.8" class="st4 st10">ちょうだい</tspan></text>
<rect x="265.3" y="244.8" class="st17" width="23.3" height="21.3"/>
<circle class="st16" cx="496" cy="134.3" r="11.7"/>
<text transform="matrix(1 0 0 1 487.845 139.0868)" class="st1 st10">12</text>
<line class="st18" x1="508" y1="160.8" x2="435" y2="247.8"/>
<polyline class="st18" points="443.7,247.8 435,247.8 435,239.1 "/>
<line class="st18" x1="508" y1="210.1" x2="435" y2="297.1"/>
<polyline class="st18" points="443.7,297.1 435,297.1 435,288.4 "/>
</svg>
